<?xml version="1.0" encoding="UTF-8"?>
<svg xmlns="http://www.w3.org/2000/svg" xmlns:xlink="http://www.w3.org/1999/xlink" width="120px" height="120px" viewBox="0 0 120 120" version="1.1">
<defs>
<clipPath id="clip1">
  <path d="M 17.484375 53.558594 L 102.222656 53.558594 L 102.222656 88.261719 L 17.484375 88.261719 Z M 17.484375 53.558594 "/>
</clipPath>
<clipPath id="clip2">
  <path d="M 0.300781 26.386719 L 119.699219 26.386719 L 119.699219 59 L 0.300781 59 Z M 0.300781 26.386719 "/>
</clipPath>
</defs>
<g id="surface1">
<g clip-path="url(#clip1)" clip-rule="nonzero">
<path style=" stroke:none;fill-rule:nonzero;fill:rgb(87.843138%,40.000001%,100%);fill-opacity:1;" d="M 83.039062 58.3125 C 79.066406 58.265625 74.910156 58.332031 71.136719 59.707031 C 69.089844 60.355469 67.121094 61.308594 66.347656 63.472656 C 65.261719 66.492188 65.929688 70.074219 66.644531 73.113281 C 67.355469 76.167969 68.566406 79.269531 70.675781 81.636719 C 72.496094 83.683594 75.355469 84.324219 77.949219 84.769531 C 80.925781 85.277344 84.082031 85.308594 86.980469 84.386719 C 89.824219 83.484375 91.449219 81.398438 92.601562 78.75 C 93.9375 75.679688 94.527344 72.277344 94.714844 68.949219 C 94.839844 66.652344 94.96875 63.199219 93.445312 61.265625 C 91.160156 58.363281 86.378906 58.355469 83.039062 58.3125 Z M 76.621094 59.789062 L 67.378906 70.691406 C 67.148438 69.277344 67.042969 67.851562 67.058594 66.417969 C 67.089844 63.558594 68.457031 61.855469 71.480469 60.902344 C 73.148438 60.316406 74.859375 59.949219 76.621094 59.789062 Z M 69.238281 77.035156 C 68.589844 75.597656 68.089844 74.109375 67.738281 72.574219 L 78.707031 59.636719 C 79.152344 59.613281 79.589844 59.597656 80.011719 59.589844 C 80.90625 59.566406 81.777344 59.550781 82.652344 59.550781 C 84.113281 59.53125 85.558594 59.621094 87.003906 59.792969 L 70.476562 79.277344 C 70.003906 78.5625 69.585938 77.816406 69.238281 77.035156 Z M 48.425781 59.707031 C 45.796875 58.746094 42.933594 58.425781 40.148438 58.359375 C 37.289062 58.300781 34.433594 58.242188 31.605469 58.667969 C 29.332031 59.015625 26.695312 59.839844 25.640625 62.066406 C 24.449219 64.566406 24.722656 67.988281 24.980469 70.636719 C 25.292969 73.921875 26.109375 77.226562 27.644531 80.167969 C 28.988281 82.753906 31.214844 84.152344 34.011719 84.769531 C 36.972656 85.417969 40.144531 85.121094 43.082031 84.480469 C 45.722656 83.90625 48.027344 82.949219 49.660156 80.699219 C 52.3125 77.039062 53.433594 72.269531 53.71875 67.824219 C 53.847656 65.839844 53.691406 63.488281 52.324219 61.917969 C 51.292969 60.730469 49.894531 60.167969 48.425781 59.707031 Z M 27.269531 75.941406 C 26.871094 74.644531 26.574219 73.316406 26.367188 71.964844 L 36.910156 59.535156 C 37.738281 59.542969 38.566406 59.558594 39.371094 59.582031 L 40.136719 59.601562 C 41.738281 59.625 43.324219 59.777344 44.902344 60.050781 L 28.59375 79.277344 C 28.050781 78.210938 27.609375 77.097656 27.269531 75.941406 Z M 26.144531 69.925781 C 26.019531 68.433594 26.027344 66.9375 26.15625 65.449219 C 26.273438 64.066406 26.503906 62.660156 27.355469 61.714844 C 28.289062 60.683594 29.835938 60.292969 31.214844 60 C 32.4375 59.753906 33.675781 59.605469 34.921875 59.566406 Z M 98.175781 54.539062 C 95.113281 53.769531 91.824219 53.667969 88.710938 53.667969 C 88.058594 53.667969 87.417969 53.667969 86.777344 53.671875 L 85.640625 53.675781 C 81.324219 53.695312 76.707031 53.824219 72.183594 54.632812 C 69.660156 55.082031 67.171875 55.839844 65.039062 56.519531 C 63.488281 57.003906 61.949219 57.214844 59.847656 57.230469 L 59.464844 57.230469 C 58.363281 57.222656 57.222656 57.222656 56.199219 56.964844 C 55.394531 56.765625 54.582031 56.503906 53.792969 56.25 C 53.277344 56.082031 52.761719 55.910156 52.242188 55.757812 C 48.816406 54.773438 45.316406 54.167969 41.761719 53.949219 C 38.191406 53.695312 35.320312 53.582031 32.714844 53.582031 C 29.324219 53.550781 25.964844 53.800781 22.617188 54.324219 C 20.902344 54.605469 18.535156 55.316406 17.769531 58.253906 C 17.355469 59.855469 17.457031 61.851562 18.066406 64.175781 C 18.246094 64.894531 18.988281 65.152344 19.527344 65.339844 C 19.664062 65.378906 19.785156 65.433594 19.917969 65.484375 C 21.003906 66.019531 21.050781 66.707031 21.136719 67.964844 C 21.144531 68.144531 21.160156 68.332031 21.175781 68.527344 L 21.257812 69.585938 C 21.539062 73.089844 21.824219 76.722656 22.917969 80.15625 C 24.066406 83.765625 26.816406 86.226562 30.890625 87.277344 C 33.371094 87.894531 35.882812 88.207031 38.441406 88.199219 C 41.015625 88.214844 43.546875 87.886719 46.03125 87.210938 C 49.808594 86.136719 52.707031 83.507812 54.878906 79.152344 C 55.425781 78.089844 55.875 76.980469 56.226562 75.839844 C 56.578125 74.691406 56.824219 73.523438 56.972656 72.332031 C 56.996094 72.140625 57.011719 71.949219 57.035156 71.742188 C 57.292969 69.210938 57.644531 67.277344 59.589844 67.277344 C 59.652344 67.277344 59.71875 67.277344 59.816406 67.285156 C 59.839844 67.285156 59.949219 67.285156 59.953125 67.285156 C 60.019531 67.277344 60.082031 67.277344 60.144531 67.277344 C 62.222656 67.277344 62.625 69.605469 62.929688 72.636719 C 62.996094 73.441406 63.105469 74.238281 63.28125 75.027344 C 64.238281 78.660156 66.113281 82.050781 68.4375 84.308594 C 71.082031 86.878906 75.121094 88.183594 80.460938 88.183594 C 82.753906 88.167969 85.03125 87.964844 87.292969 87.589844 C 90.539062 87.082031 93.046875 85.851562 94.753906 83.933594 C 96.949219 81.46875 97.566406 77.917969 98.003906 74.496094 C 98.246094 72.65625 98.390625 70.800781 98.535156 68.902344 C 98.554688 68.667969 98.566406 68.425781 98.578125 68.183594 C 98.628906 66.9375 98.707031 66.140625 99.527344 65.648438 C 99.699219 65.558594 99.871094 65.488281 100.050781 65.4375 C 100.683594 65.214844 101.464844 64.933594 101.652344 64.253906 C 101.855469 63.515625 101.996094 62.765625 102.082031 62.011719 C 102.613281 58.019531 101.191406 55.292969 98.175781 54.539062 Z M 97.238281 67.136719 C 97.03125 68.886719 96.957031 70.660156 96.785156 72.417969 C 96.425781 76.136719 95.988281 80.574219 93.261719 83.394531 C 90.503906 86.261719 85.78125 86.464844 82.078125 86.605469 C 78.050781 86.761719 73.722656 86.378906 70.339844 83.996094 C 66.863281 81.542969 64.691406 76.378906 64.222656 72.269531 C 63.914062 69.527344 63.589844 65.601562 59.925781 65.832031 C 59.90625 65.824219 59.886719 65.832031 59.871094 65.835938 C 59.855469 65.832031 59.835938 65.824219 59.816406 65.832031 C 57.089844 65.660156 56.074219 67.964844 55.707031 70.3125 C 55.425781 72.09375 55.335938 73.785156 54.792969 75.515625 C 54.140625 77.554688 53.207031 79.453125 52.003906 81.222656 C 47.8125 87.488281 38.605469 87.308594 32.011719 86.035156 C 28.894531 85.429688 26.285156 83.929688 24.832031 81.027344 C 23.015625 77.414062 22.964844 72.816406 22.660156 68.859375 C 22.574219 67.800781 22.546875 66.675781 22.242188 65.644531 C 21.957031 64.691406 20.675781 64.199219 19.855469 63.855469 C 19.714844 63.800781 19.582031 63.746094 19.449219 63.691406 C 19.382812 63.449219 19.332031 63.210938 19.277344 62.964844 C 19.027344 61.78125 18.957031 60.585938 19.054688 59.378906 C 19.382812 55.574219 23.417969 55.574219 26.386719 55.355469 C 30.347656 55.089844 34.3125 55.050781 38.273438 55.222656 C 42.445312 55.371094 46.542969 55.757812 50.589844 56.8125 C 52.277344 57.253906 53.925781 57.832031 55.605469 58.3125 C 56.964844 58.699219 58.441406 58.675781 59.839844 58.683594 L 59.90625 58.683594 C 62.550781 58.664062 64.621094 58.152344 67.125 57.394531 C 70.683594 56.316406 74.316406 55.644531 78.023438 55.402344 C 84.308594 54.960938 91.097656 54.632812 97.316406 55.839844 C 98.558594 56.082031 99.597656 56.496094 100.230469 57.660156 C 100.871094 58.839844 100.785156 60.386719 100.664062 61.683594 C 100.59375 62.363281 100.472656 63.027344 100.300781 63.691406 C 100.125 63.753906 99.949219 63.824219 99.773438 63.910156 C 99.050781 64.207031 98.394531 64.605469 97.800781 65.109375 C 97.300781 65.542969 97.308594 66.542969 97.238281 67.136719 Z M 97.238281 67.136719 "/>
</g>
<g clip-path="url(#clip2)" clip-rule="nonzero">
<path style=" stroke:none;fill-rule:nonzero;fill:rgb(87.843138%,40.000001%,100%);fill-opacity:1;" d="M 114.332031 39.183594 C 114.167969 37.816406 114.023438 36.425781 113.746094 35.082031 C 113.621094 34.472656 113.457031 33.867188 113.222656 33.285156 C 112.996094 32.738281 112.734375 32.003906 112.101562 31.824219 C 111.433594 31.621094 110.90625 32.152344 110.417969 32.527344 C 109.902344 32.929688 109.394531 33.339844 108.890625 33.761719 C 107.902344 34.589844 106.945312 35.449219 106.011719 36.339844 C 103.878906 38.386719 101.925781 40.589844 100.125 42.925781 C 99.925781 43.183594 100.082031 43.613281 100.339844 43.761719 C 100.605469 43.917969 100.875 43.839844 101.074219 43.660156 C 101.175781 43.761719 101.316406 43.828125 101.484375 43.816406 C 102.246094 43.777344 103.007812 43.800781 103.769531 43.878906 C 103.753906 44.367188 103.734375 44.847656 103.710938 45.328125 C 103.691406 45.816406 104.246094 46.066406 104.636719 45.855469 C 105.304688 45.503906 106.222656 45.988281 106.453125 46.675781 C 106.613281 47.15625 106.355469 47.699219 106.242188 48.164062 C 106.105469 48.753906 106.078125 49.363281 106.425781 49.898438 C 106.652344 50.25 107.074219 50.285156 107.386719 50.019531 C 107.964844 49.527344 108.914062 49.746094 109.40625 50.261719 C 110.066406 50.953125 110.035156 52.027344 109.722656 52.863281 C 109.5 53.484375 110.324219 53.824219 110.746094 53.457031 C 114.820312 49.925781 114.925781 44.109375 114.332031 39.183594 Z M 110.285156 35.550781 C 110.300781 36.09375 110.320312 36.632812 110.332031 37.175781 C 110.308594 37.171875 110.285156 37.167969 110.261719 37.160156 C 110.261719 36.964844 110.199219 36.792969 110.035156 36.660156 C 109.992188 36.632812 109.945312 36.609375 109.894531 36.585938 C 109.832031 36.425781 109.769531 36.277344 109.691406 36.121094 C 109.894531 35.929688 110.085938 35.742188 110.285156 35.550781 Z M 109.136719 40.054688 C 108.972656 40.042969 108.816406 40.097656 108.699219 40.207031 C 108.699219 40.175781 108.703125 40.148438 108.707031 40.121094 C 108.800781 40.097656 108.890625 40.050781 108.957031 39.964844 C 109.019531 39.894531 109.074219 39.824219 109.128906 39.753906 C 109.128906 39.855469 109.128906 39.957031 109.136719 40.054688 Z M 110.363281 39.257812 C 110.363281 39.457031 110.363281 39.660156 110.363281 39.863281 C 110.355469 39.863281 110.355469 39.863281 110.355469 39.863281 C 110.355469 39.777344 110.355469 39.691406 110.347656 39.609375 C 110.34375 39.191406 110.320312 38.769531 110.277344 38.355469 C 110.285156 38.355469 110.296875 38.347656 110.300781 38.347656 C 110.320312 38.34375 110.332031 38.339844 110.347656 38.332031 C 110.347656 38.644531 110.363281 38.949219 110.363281 39.257812 Z M 107.347656 42.480469 C 107.152344 41.589844 107.097656 40.6875 107.199219 39.796875 C 107.292969 40.019531 107.367188 40.246094 107.425781 40.480469 C 107.363281 41.144531 107.339844 41.8125 107.347656 42.480469 Z M 105.308594 41.011719 C 105.316406 40.996094 105.324219 40.996094 105.308594 41.011719 Z M 104.980469 41.089844 C 104.972656 41.089844 104.972656 41.089844 104.980469 41.089844 Z M 111.792969 41.671875 C 111.800781 42.398438 111.777344 43.136719 111.691406 43.855469 C 111.660156 43.433594 111.613281 43.007812 111.550781 42.585938 C 111.558594 42.550781 111.558594 42.515625 111.5625 42.480469 C 111.628906 41.621094 111.589844 40.734375 111.585938 39.867188 C 111.585938 39.785156 111.585938 39.699219 111.585938 39.613281 C 111.636719 39.816406 111.691406 40.019531 111.746094 40.21875 C 111.769531 40.707031 111.785156 41.183594 111.792969 41.671875 Z M 107.777344 38.316406 C 107.730469 38.25 107.683594 38.179688 107.636719 38.109375 C 107.714844 38.035156 107.792969 37.957031 107.878906 37.875 C 107.839844 38.019531 107.808594 38.167969 107.777344 38.316406 Z M 105.933594 40.335938 C 105.84375 40.222656 105.746094 40.128906 105.628906 40.050781 C 105.746094 39.9375 105.863281 39.824219 105.980469 39.714844 C 105.957031 39.917969 105.9375 40.125 105.933594 40.335938 Z M 104.996094 43.199219 C 104.964844 43.101562 104.917969 43.011719 104.847656 42.933594 C 104.957031 42.960938 105.070312 42.988281 105.183594 43.027344 C 105.113281 43.082031 105.050781 43.136719 104.996094 43.199219 Z M 110.378906 49.511719 C 110.355469 49.488281 110.339844 49.457031 110.316406 49.433594 C 110.339844 49.417969 110.355469 49.402344 110.378906 49.382812 C 110.378906 49.429688 110.378906 49.472656 110.378906 49.511719 Z M 108.792969 48.515625 C 108.816406 48.550781 108.84375 48.585938 108.871094 48.613281 C 108.808594 48.605469 108.746094 48.585938 108.679688 48.582031 C 108.714844 48.558594 108.753906 48.539062 108.792969 48.515625 Z M 111.070312 50.925781 C 111.160156 50.953125 111.253906 50.964844 111.347656 50.953125 C 111.277344 51.058594 111.199219 51.160156 111.128906 51.257812 C 111.113281 51.140625 111.09375 51.035156 111.070312 50.925781 Z M 111.753906 33.046875 C 111.75 33.042969 111.738281 33.023438 111.726562 32.996094 C 111.730469 33.011719 111.75 33.027344 111.761719 33.046875 C 111.769531 33.042969 111.773438 33.035156 111.777344 33.023438 C 111.863281 32.910156 111.816406 33.082031 111.761719 33.050781 C 111.773438 33.070312 111.785156 33.082031 111.792969 33.097656 C 111.824219 33.238281 111.9375 33.378906 111.996094 33.511719 C 112.222656 34.03125 112.382812 34.589844 112.503906 35.144531 C 112.78125 36.347656 112.910156 37.589844 113.0625 38.808594 C 113.199219 39.886719 113.316406 40.980469 113.371094 42.082031 C 113.269531 41.425781 113.132812 40.78125 112.972656 40.136719 C 112.894531 38.644531 112.710938 37.148438 112.464844 35.683594 C 112.378906 35.15625 112.324219 34.574219 112.160156 34.074219 C 112.007812 33.609375 111.527344 33.496094 111.144531 33.667969 C 111.105469 33.644531 111.066406 33.621094 111.023438 33.605469 C 111.074219 33.5625 111.128906 33.515625 111.183594 33.472656 C 111.339844 33.351562 111.628906 33.207031 111.753906 33.046875 Z M 20.835938 29.183594 C 16.777344 27.902344 12.5625 27.003906 8.320312 26.625 C 6.675781 26.480469 4.988281 26.386719 3.332031 26.597656 C 3.285156 26.601562 3.234375 26.613281 3.1875 26.628906 C 3.046875 26.660156 2.925781 26.738281 2.835938 26.863281 C 2.832031 26.863281 2.832031 26.863281 2.832031 26.871094 C 2.8125 26.894531 2.800781 26.917969 2.789062 26.941406 C 2.777344 26.964844 2.765625 26.996094 2.761719 27.019531 C 2.753906 27.027344 2.746094 27.035156 2.746094 27.046875 C 1.402344 31.621094 0.605469 36.363281 0.375 41.128906 C 0.257812 43.480469 0.285156 45.84375 0.449219 48.191406 C 0.585938 50.109375 0.785156 51.972656 1.40625 53.792969 C 2.003906 55.566406 2.847656 57.5625 4.300781 58.808594 C 4.894531 59.320312 5.765625 58.457031 5.160156 57.941406 C 3.972656 56.925781 3.261719 55.332031 2.730469 53.882812 C 2.441406 53.105469 2.203125 52.300781 2.039062 51.480469 C 1.847656 50.550781 1.78125 49.582031 1.710938 48.628906 C 1.355469 44.082031 1.519531 39.480469 2.222656 34.972656 C 2.601562 32.535156 3.140625 30.136719 3.820312 27.769531 C 5.066406 27.65625 6.332031 27.703125 7.582031 27.792969 C 9.449219 27.925781 11.316406 28.191406 13.160156 28.535156 C 17.457031 29.339844 21.730469 30.539062 25.730469 32.332031 C 27.824219 33.269531 29.886719 34.378906 31.699219 35.789062 C 31.964844 35.996094 32.316406 36.046875 32.566406 35.789062 C 32.777344 35.578125 32.832031 35.132812 32.566406 34.925781 C 29.113281 32.230469 24.980469 30.496094 20.835938 29.183594 Z M 14.929688 39.511719 C 13.363281 37.839844 11.628906 36.332031 9.820312 34.941406 C 9.003906 34.3125 8.167969 33.707031 7.308594 33.152344 C 6.820312 32.835938 6.363281 33.324219 6.410156 33.769531 C 6.355469 33.832031 6.324219 33.914062 6.300781 34.007812 C 5.167969 39.417969 4.054688 45.28125 6.65625 50.457031 C 7.285156 51.703125 8.132812 52.847656 9.175781 53.777344 C 9.449219 54.027344 9.941406 54.023438 10.136719 53.652344 C 10.363281 53.214844 10.378906 52.785156 10.300781 52.308594 C 10.253906 51.984375 10.101562 51.582031 10.265625 51.269531 C 10.675781 50.488281 11.886719 50.8125 12.539062 50.964844 C 12.925781 51.050781 13.308594 50.785156 13.3125 50.371094 C 13.316406 49.535156 12.960938 48.730469 12.988281 47.902344 C 12.996094 47.648438 13.054688 47.339844 13.246094 47.160156 C 13.371094 47.050781 13.640625 46.945312 13.78125 47.074219 C 14.199219 47.457031 15.023438 47.089844 14.800781 46.476562 C 14.613281 45.960938 14.941406 45.445312 15.417969 45.214844 C 16.082031 44.894531 16.898438 45.09375 17.566406 45.292969 C 17.808594 45.371094 18 45.300781 18.136719 45.164062 C 18.308594 45.035156 18.417969 44.816406 18.324219 44.542969 C 17.671875 42.613281 16.300781 40.96875 14.929688 39.511719 Z M 9.046875 51.058594 C 9.035156 51.046875 9.027344 51.035156 9.019531 51.023438 C 9.003906 51.003906 8.996094 50.988281 8.980469 50.976562 C 9.019531 50.964844 9.046875 50.953125 9.082031 50.941406 C 9.070312 50.980469 9.050781 51.023438 9.046875 51.058594 Z M 8.484375 42.457031 C 8.34375 42.441406 8.199219 42.464844 8.066406 42.519531 C 8.050781 42.164062 8.035156 41.800781 8.015625 41.441406 C 8.175781 41.777344 8.332031 42.117188 8.484375 42.457031 Z M 9.042969 37.949219 C 9.035156 37.945312 9.035156 37.941406 9.027344 37.933594 C 9.042969 37.921875 9.050781 37.917969 9.070312 37.902344 C 9.058594 37.921875 9.046875 37.933594 9.042969 37.949219 Z M 10.191406 48.492188 C 10.269531 48.503906 10.359375 48.503906 10.453125 48.46875 C 10.519531 48.558594 10.589844 48.636719 10.660156 48.722656 C 10.496094 48.738281 10.324219 48.753906 10.160156 48.773438 C 10.171875 48.679688 10.175781 48.585938 10.191406 48.492188 Z M 14.390625 42.703125 C 14.105469 42.457031 13.816406 42.210938 13.535156 41.957031 C 13.519531 41.847656 13.472656 41.742188 13.378906 41.648438 C 13.285156 41.558594 13.148438 41.496094 13.007812 41.472656 C 12.996094 41.460938 12.984375 41.457031 12.972656 41.441406 C 13.019531 41.390625 13.054688 41.324219 13.074219 41.269531 C 13.355469 41.601562 13.636719 41.929688 13.910156 42.261719 C 14.039062 42.425781 14.273438 42.46875 14.480469 42.421875 C 14.535156 42.480469 14.601562 42.542969 14.667969 42.605469 C 14.675781 42.613281 14.695312 42.632812 14.707031 42.652344 C 14.601562 42.660156 14.496094 42.679688 14.390625 42.703125 Z M 9.796875 37.636719 C 9.796875 37.664062 9.796875 37.691406 9.800781 37.714844 C 9.644531 37.640625 9.457031 37.636719 9.28125 37.722656 C 9.402344 37.582031 9.441406 37.40625 9.410156 37.242188 C 9.539062 37.371094 9.667969 37.503906 9.796875 37.636719 Z M 8.605469 36.746094 C 8.589844 36.632812 8.578125 36.519531 8.566406 36.410156 C 8.667969 36.503906 8.769531 36.597656 8.871094 36.699219 C 8.789062 36.691406 8.699219 36.703125 8.605469 36.746094 Z M 7.066406 36.371094 C 7.105469 36.5625 7.152344 36.75 7.195312 36.941406 C 7.082031 36.996094 6.988281 37.078125 6.914062 37.171875 C 6.960938 36.910156 7.011719 36.636719 7.066406 36.371094 Z M 6.632812 38.792969 C 6.632812 38.816406 6.636719 38.839844 6.636719 38.863281 C 6.628906 38.886719 6.621094 38.910156 6.609375 38.941406 C 6.613281 38.886719 6.628906 38.839844 6.632812 38.792969 Z M 12 49.511719 C 12.011719 49.546875 12.011719 49.582031 12.019531 49.617188 C 11.996094 49.617188 11.964844 49.613281 11.941406 49.605469 C 11.964844 49.574219 11.988281 49.546875 12 49.511719 Z M 11.859375 47.222656 Z M 15.980469 43.839844 C 16.097656 43.757812 16.191406 43.640625 16.21875 43.5 C 16.253906 43.363281 16.261719 43.230469 16.253906 43.105469 C 16.410156 43.355469 16.566406 43.597656 16.699219 43.855469 C 16.457031 43.832031 16.214844 43.824219 15.980469 43.839844 Z M 118.894531 34.933594 C 118.488281 32.269531 117.902344 29.628906 117.140625 27.046875 C 117.140625 27.042969 117.140625 27.035156 117.136719 27.027344 C 117.128906 26.996094 117.113281 26.957031 117.097656 26.929688 C 117.089844 26.917969 117.082031 26.902344 117.070312 26.886719 C 117.066406 26.878906 117.058594 26.863281 117.046875 26.855469 C 116.964844 26.730469 116.839844 26.660156 116.707031 26.628906 C 116.660156 26.613281 116.605469 26.601562 116.554688 26.597656 C 115.125 26.414062 113.660156 26.464844 112.230469 26.574219 C 110.261719 26.71875 108.300781 27 106.359375 27.363281 C 101.933594 28.191406 97.558594 29.460938 93.449219 31.3125 C 91.285156 32.292969 89.203125 33.464844 87.324219 34.925781 C 87.058594 35.128906 87.113281 35.578125 87.324219 35.789062 C 87.582031 36.046875 87.925781 35.996094 88.191406 35.789062 C 91.5 33.207031 95.554688 31.566406 99.535156 30.324219 C 103.464844 29.089844 107.550781 28.207031 111.652344 27.84375 C 113.113281 27.714844 114.609375 27.632812 116.074219 27.769531 C 117.304688 32.074219 118.054688 36.511719 118.285156 40.980469 C 118.402344 43.242188 118.382812 45.503906 118.242188 47.765625 C 118.125 49.640625 117.960938 51.46875 117.375 53.261719 C 116.835938 54.910156 116.074219 56.785156 114.726562 57.941406 C 114.128906 58.457031 114.996094 59.320312 115.59375 58.808594 C 116.886719 57.699219 117.667969 55.980469 118.261719 54.417969 C 118.925781 52.667969 119.207031 50.917969 119.371094 49.058594 C 119.769531 44.347656 119.601562 39.605469 118.894531 34.933594 Z M 95.644531 34.027344 C 95.488281 33.988281 95.308594 33.988281 95.175781 34.082031 C 94.652344 34.453125 94.128906 34.816406 93.609375 35.183594 C 93.480469 35.277344 93.375 35.390625 93.328125 35.550781 C 93.292969 35.695312 93.308594 35.894531 93.394531 36.023438 C 93.472656 36.152344 93.605469 36.269531 93.753906 36.304688 C 93.914062 36.339844 94.097656 36.332031 94.230469 36.238281 C 94.753906 35.878906 95.273438 35.507812 95.789062 35.144531 C 95.925781 35.050781 96.027344 34.941406 96.070312 34.777344 C 96.113281 34.628906 96.09375 34.433594 96.011719 34.308594 C 95.929688 34.171875 95.800781 34.058594 95.644531 34.027344 Z M 111.761719 33.046875 C 111.761719 33.046875 111.761719 33.046875 111.753906 33.046875 C 111.761719 33.050781 111.761719 33.050781 111.761719 33.050781 C 111.761719 33.050781 111.761719 33.046875 111.761719 33.046875 Z M 111.761719 33.046875 "/>
</g>
</g>
</svg>
