<?xml version="1.0" encoding="UTF-8"?>
<svg xmlns="http://www.w3.org/2000/svg" xmlns:xlink="http://www.w3.org/1999/xlink" width="120px" height="120px" viewBox="0 0 120 120" version="1.1">
<defs>
<clipPath id="clip1">
  <path d="M 14.390625 55.5 L 104.949219 55.5 L 104.949219 92.058594 L 14.390625 92.058594 Z M 14.390625 55.5 "/>
</clipPath>
<clipPath id="clip2">
  <path d="M 0.300781 26.832031 L 119.699219 26.832031 L 119.699219 59.554688 L 0.300781 59.554688 Z M 0.300781 26.832031 "/>
</clipPath>
</defs>
<g id="surface1">
<g clip-path="url(#clip1)" clip-rule="nonzero">
<path style=" stroke:none;fill-rule:nonzero;fill:rgb(0%,78.431374%,5.490196%);fill-opacity:1;" d="M 87.207031 60.984375 C 85.441406 60.316406 83.378906 60.527344 81.519531 60.527344 C 79.722656 60.527344 77.886719 60.425781 76.082031 60.5625 C 73.261719 60.769531 70.851562 62.597656 69.425781 64.96875 C 68.296875 66.863281 68.183594 68.972656 68.183594 71.105469 L 68.183594 77.390625 C 68.183594 80.644531 69.425781 83.550781 72.070312 85.511719 C 74.367188 87.230469 77.121094 87.042969 79.824219 87.042969 C 82.355469 87.042969 85.144531 87.371094 87.558594 86.449219 C 91.074219 85.105469 93.082031 81.472656 93.160156 77.839844 L 93.160156 72.636719 C 93.160156 70.683594 93.277344 68.738281 92.722656 66.839844 C 91.941406 64.121094 89.816406 61.980469 87.207031 60.984375 Z M 69.636719 73.699219 C 69.613281 70.675781 69.332031 67.550781 71.179688 64.957031 C 71.339844 64.730469 71.511719 64.511719 71.699219 64.308594 C 71.886719 64.101562 72.089844 63.902344 72.300781 63.722656 C 72.511719 63.539062 72.726562 63.371094 72.960938 63.210938 C 73.191406 63.058594 73.429688 62.910156 73.675781 62.785156 C 73.921875 62.652344 74.175781 62.542969 74.4375 62.441406 C 74.695312 62.34375 74.964844 62.261719 75.234375 62.199219 C 75.503906 62.128906 75.777344 62.074219 76.054688 62.039062 C 76.332031 62.003906 76.613281 61.988281 76.886719 61.988281 L 80.113281 61.988281 C 76.621094 65.886719 73.128906 69.792969 69.636719 73.699219 Z M 69.644531 77.644531 L 69.644531 76.136719 C 69.644531 76.035156 69.628906 76.011719 69.613281 76.007812 C 69.644531 75.984375 69.675781 75.960938 69.699219 75.9375 C 70.613281 74.910156 71.53125 73.886719 72.445312 72.863281 C 75.347656 69.621094 78.246094 66.378906 81.140625 63.140625 C 81.421875 62.832031 81.699219 62.519531 81.972656 62.207031 C 82.035156 62.136719 82.101562 62.066406 82.167969 61.992188 C 82.171875 61.988281 82.175781 61.980469 82.183594 61.972656 C 82.214844 61.988281 82.242188 61.988281 82.277344 61.988281 L 84.445312 61.988281 C 85.171875 61.992188 85.878906 62.105469 86.574219 62.324219 C 87.269531 62.554688 87.910156 62.878906 88.5 63.304688 C 83.671875 68.699219 78.84375 74.105469 74.015625 79.5 C 73.078125 80.542969 72.140625 81.589844 71.203125 82.640625 C 70.945312 82.277344 70.714844 81.894531 70.519531 81.496094 C 70.324219 81.097656 70.160156 80.691406 70.027344 80.269531 C 69.890625 79.839844 69.796875 79.410156 69.730469 78.972656 C 69.667969 78.527344 69.636719 78.089844 69.644531 77.644531 Z M 50.433594 66.003906 C 49.261719 63.316406 47.027344 61.335938 44.144531 60.691406 C 41.816406 60.167969 39.121094 60.527344 36.769531 60.527344 C 33.890625 60.527344 31.402344 60.808594 29.136719 62.824219 C 26.792969 64.921875 26.203125 67.898438 26.203125 70.886719 L 26.203125 77.839844 C 26.261719 80.699219 27.449219 83.550781 29.789062 85.292969 C 31.636719 86.667969 33.621094 87.042969 35.859375 87.042969 C 40.105469 87.042969 44.816406 87.796875 48.238281 84.746094 C 51.914062 81.46875 51.175781 76.238281 51.175781 71.832031 C 51.175781 69.84375 51.246094 67.875 50.433594 66.003906 Z M 27.660156 77.574219 L 27.660156 76.050781 C 27.660156 75.894531 27.726562 75.761719 27.621094 75.878906 C 27.652344 75.847656 27.675781 75.820312 27.699219 75.792969 C 28.597656 74.785156 29.503906 73.777344 30.402344 72.769531 C 33.292969 69.539062 36.183594 66.316406 39.066406 63.089844 C 39.332031 62.785156 39.605469 62.484375 39.871094 62.179688 C 39.933594 62.121094 39.984375 62.058594 40.042969 61.996094 C 40.042969 62.015625 40.113281 61.988281 40.230469 61.988281 L 42.464844 61.988281 C 43.171875 61.988281 43.863281 62.097656 44.542969 62.308594 C 45.214844 62.527344 45.84375 62.835938 46.429688 63.238281 C 41.605469 68.628906 36.785156 74.019531 31.957031 79.410156 C 31.027344 80.460938 30.09375 81.503906 29.15625 82.546875 C 28.910156 82.183594 28.6875 81.800781 28.5 81.402344 C 28.308594 81.003906 28.148438 80.597656 28.019531 80.175781 C 27.894531 79.753906 27.800781 79.324219 27.738281 78.886719 C 27.679688 78.449219 27.65625 78.011719 27.660156 77.574219 Z M 34.902344 61.988281 L 37.992188 61.988281 C 34.546875 65.832031 31.105469 69.679688 27.660156 73.527344 C 27.636719 70.558594 27.378906 67.511719 29.199219 64.957031 C 29.355469 64.730469 29.53125 64.511719 29.71875 64.308594 C 29.90625 64.101562 30.105469 63.902344 30.316406 63.722656 C 30.527344 63.539062 30.75 63.371094 30.980469 63.210938 C 31.207031 63.058594 31.449219 62.910156 31.691406 62.785156 C 31.941406 62.652344 32.199219 62.542969 32.457031 62.441406 C 32.71875 62.34375 32.980469 62.261719 33.253906 62.199219 C 33.519531 62.128906 33.796875 62.074219 34.074219 62.039062 C 34.347656 62.003906 34.628906 61.988281 34.902344 61.988281 Z M 104.042969 67.863281 C 103.128906 66.890625 101.558594 66.417969 99.253906 66.417969 C 98.582031 66.417969 97.945312 66.457031 97.433594 66.496094 C 96.339844 61.757812 93.09375 57.980469 88.675781 56.339844 C 86.761719 55.617188 84.628906 55.527344 82.992188 55.527344 C 82.207031 55.527344 81.417969 55.550781 80.652344 55.574219 C 79.921875 55.59375 79.199219 55.617188 78.503906 55.617188 C 73.933594 55.617188 70.691406 56.722656 67.992188 59.203125 C 65.238281 61.734375 63.792969 65.253906 63.574219 69.960938 C 62.324219 69.628906 61.054688 69.449219 59.761719 69.421875 C 59.742188 69.421875 59.714844 69.421875 59.675781 69.421875 C 59.652344 69.421875 59.582031 69.421875 59.578125 69.421875 C 58.292969 69.449219 57.027344 69.632812 55.785156 69.960938 C 55.582031 65.519531 54.257812 62.179688 51.660156 59.488281 C 49.144531 56.882812 45.679688 55.617188 41.089844 55.617188 C 40.382812 55.617188 39.667969 55.597656 38.941406 55.582031 C 38.191406 55.566406 37.433594 55.546875 36.679688 55.546875 C 35.097656 55.546875 33.035156 55.617188 31.089844 56.199219 C 26.636719 57.527344 23.082031 61.542969 21.925781 66.496094 C 21.371094 66.445312 20.71875 66.402344 20.0625 66.402344 C 16.519531 66.402344 14.636719 67.757812 14.464844 70.429688 C 14.402344 71.511719 14.683594 72.398438 15.308594 73.066406 C 16.21875 74.027344 17.792969 74.496094 20.132812 74.496094 C 20.636719 74.496094 21.117188 74.480469 21.558594 74.449219 C 21.550781 78.316406 21.597656 81.972656 23.699219 85.511719 C 26.136719 89.601562 30.503906 91.949219 35.671875 91.949219 C 36.433594 91.949219 37.222656 91.96875 38.015625 91.992188 C 38.839844 92.015625 39.675781 92.039062 40.503906 92.039062 C 42.347656 92.039062 44.746094 91.933594 46.941406 91.144531 C 51.800781 89.386719 55.3125 84.480469 55.769531 78.855469 C 57.050781 78.574219 58.347656 78.410156 59.652344 78.375 C 60.984375 78.410156 62.292969 78.566406 63.585938 78.855469 C 64.03125 84.375 67.324219 89.113281 72.050781 90.996094 C 74.347656 91.910156 76.804688 92.035156 78.902344 92.035156 C 79.730469 92.035156 80.550781 92.015625 81.363281 91.992188 C 82.152344 91.96875 82.925781 91.949219 83.695312 91.949219 C 88.683594 91.949219 92.742188 89.839844 95.4375 85.863281 C 97.816406 82.347656 97.824219 78.339844 97.804688 74.457031 C 98.292969 74.484375 98.792969 74.507812 99.304688 74.507812 L 99.308594 74.507812 C 100.636719 74.507812 104.636719 74.503906 104.894531 70.5 C 104.957031 69.421875 104.675781 68.535156 104.042969 67.863281 Z M 96.839844 72.980469 C 96.777344 72.980469 96.726562 72.988281 96.675781 73.011719 C 96.613281 73.035156 96.566406 73.066406 96.527344 73.105469 C 96.488281 73.148438 96.457031 73.195312 96.433594 73.246094 C 96.410156 73.308594 96.402344 73.359375 96.402344 73.417969 C 96.402344 77.128906 96.609375 80.722656 94.832031 84.136719 C 92.621094 88.394531 88.359375 90.550781 83.695312 90.550781 C 80.636719 90.550781 77.292969 90.910156 74.277344 90.253906 C 68.695312 89.019531 65.128906 83.597656 64.945312 78.097656 C 64.945312 78.050781 64.941406 78.003906 64.921875 77.957031 C 64.910156 77.910156 64.886719 77.871094 64.855469 77.835938 C 64.828125 77.792969 64.792969 77.765625 64.753906 77.738281 C 64.714844 77.707031 64.667969 77.691406 64.621094 77.675781 C 63.066406 77.253906 61.476562 77.027344 59.859375 76.980469 C 59.816406 76.96875 59.777344 76.96875 59.730469 76.96875 C 59.71875 76.96875 59.699219 76.96875 59.675781 76.96875 C 59.667969 76.96875 59.648438 76.96875 59.625 76.96875 C 59.621094 76.96875 59.613281 76.96875 59.605469 76.96875 L 59.601562 76.96875 C 59.574219 76.96875 59.535156 76.972656 59.503906 76.980469 C 57.886719 77.027344 56.296875 77.253906 54.738281 77.675781 C 54.691406 77.691406 54.644531 77.707031 54.609375 77.738281 C 54.566406 77.765625 54.535156 77.792969 54.503906 77.835938 C 54.472656 77.871094 54.449219 77.910156 54.441406 77.957031 C 54.421875 78.003906 54.417969 78.050781 54.417969 78.097656 C 54.234375 83.601562 50.832031 88.59375 45.445312 90.160156 C 42.425781 91.03125 38.769531 90.550781 35.671875 90.550781 C 31.042969 90.550781 27.113281 88.5 24.714844 84.472656 C 22.6875 81.066406 22.964844 77.207031 22.964844 73.417969 C 22.957031 73.359375 22.949219 73.300781 22.925781 73.246094 C 22.902344 73.195312 22.875 73.148438 22.828125 73.105469 C 22.792969 73.066406 22.738281 73.035156 22.6875 73.011719 C 22.636719 72.988281 22.582031 72.980469 22.523438 72.980469 C 20.199219 73.160156 16.074219 73.683594 15.867188 70.464844 C 15.660156 67.21875 20.625 67.757812 22.699219 67.972656 C 22.746094 67.972656 22.792969 67.96875 22.839844 67.957031 C 22.878906 67.941406 22.921875 67.917969 22.964844 67.886719 C 23.003906 67.855469 23.035156 67.824219 23.0625 67.78125 C 23.085938 67.746094 23.105469 67.699219 23.113281 67.652344 C 23.949219 62.878906 27.136719 58.839844 31.847656 57.433594 C 34.566406 56.625 37.816406 57.019531 40.613281 57.019531 C 44.300781 57.019531 47.554688 57.609375 50.394531 60.210938 C 53.589844 63.144531 54.421875 67.148438 54.421875 71.296875 C 54.421875 71.332031 54.421875 71.363281 54.433594 71.394531 C 54.441406 71.433594 54.449219 71.460938 54.46875 71.488281 C 54.480469 71.519531 54.496094 71.550781 54.519531 71.574219 C 54.542969 71.601562 54.566406 71.625 54.589844 71.644531 C 54.621094 71.667969 54.652344 71.683594 54.679688 71.695312 C 54.707031 71.707031 54.746094 71.71875 54.773438 71.722656 C 54.808594 71.730469 54.84375 71.738281 54.878906 71.730469 C 54.910156 71.730469 54.941406 71.722656 54.972656 71.71875 C 56.460938 71.144531 58.003906 70.847656 59.601562 70.824219 C 59.652344 70.804688 59.707031 70.804688 59.761719 70.824219 C 61.359375 70.847656 62.902344 71.144531 64.386719 71.71875 C 64.425781 71.722656 64.453125 71.730469 64.488281 71.730469 C 64.523438 71.738281 64.550781 71.730469 64.589844 71.722656 C 64.621094 71.71875 64.652344 71.707031 64.683594 71.695312 C 64.710938 71.675781 64.738281 71.667969 64.769531 71.644531 C 64.792969 71.625 64.824219 71.601562 64.839844 71.574219 C 64.863281 71.550781 64.878906 71.519531 64.894531 71.488281 C 64.910156 71.460938 64.921875 71.433594 64.925781 71.394531 C 64.941406 71.363281 64.941406 71.332031 64.941406 71.296875 C 64.941406 67.199219 65.753906 63.515625 68.695312 60.472656 C 71.378906 57.703125 74.824219 57.019531 78.503906 57.019531 C 81.316406 57.019531 84.375 56.714844 87.136719 57.332031 C 92.039062 58.449219 95.410156 62.863281 96.246094 67.652344 C 96.257812 67.699219 96.277344 67.746094 96.300781 67.78125 C 96.328125 67.824219 96.355469 67.855469 96.398438 67.886719 C 96.433594 67.917969 96.480469 67.941406 96.519531 67.957031 C 96.566406 67.96875 96.613281 67.972656 96.660156 67.972656 C 99.003906 67.730469 103.289062 67.238281 103.496094 70.464844 C 103.699219 73.6875 98.894531 73.136719 96.839844 72.980469 Z M 96.839844 72.980469 "/>
</g>
<g clip-path="url(#clip2)" clip-rule="nonzero">
<path style=" stroke:none;fill-rule:nonzero;fill:rgb(0%,78.431374%,5.490196%);fill-opacity:1;" d="M 114.339844 39.628906 C 114.175781 38.253906 114.027344 36.871094 113.746094 35.527344 C 113.625 34.910156 113.460938 34.308594 113.226562 33.726562 C 113.003906 33.183594 112.738281 32.449219 112.105469 32.261719 C 111.441406 32.066406 110.90625 32.589844 110.425781 32.972656 C 109.910156 33.375 109.402344 33.785156 108.894531 34.207031 C 107.90625 35.035156 106.945312 35.894531 106.011719 36.785156 C 103.886719 38.824219 101.929688 41.035156 100.128906 43.363281 C 99.925781 43.628906 100.089844 44.058594 100.347656 44.203125 C 100.613281 44.363281 100.875 44.285156 101.074219 44.105469 C 101.179688 44.207031 101.320312 44.269531 101.484375 44.261719 C 102.246094 44.222656 103.011719 44.238281 103.777344 44.324219 C 103.753906 44.808594 103.734375 45.292969 103.714844 45.773438 C 103.699219 46.253906 104.246094 46.503906 104.636719 46.300781 C 105.308594 45.949219 106.230469 46.433594 106.457031 47.121094 C 106.617188 47.601562 106.355469 48.140625 106.246094 48.609375 C 106.105469 49.199219 106.078125 49.808594 106.429688 50.34375 C 106.660156 50.691406 107.082031 50.730469 107.390625 50.464844 C 107.972656 49.972656 108.917969 50.191406 109.410156 50.707031 C 110.066406 51.398438 110.039062 52.464844 109.730469 53.308594 C 109.5 53.929688 110.332031 54.269531 110.753906 53.902344 C 114.824219 50.371094 114.933594 44.554688 114.339844 39.628906 Z M 110.292969 35.996094 C 110.308594 36.539062 110.324219 37.078125 110.339844 37.621094 C 110.316406 37.613281 110.292969 37.613281 110.269531 37.605469 C 110.269531 37.410156 110.203125 37.238281 110.035156 37.105469 C 109.996094 37.078125 109.949219 37.050781 109.898438 37.03125 C 109.839844 36.871094 109.777344 36.722656 109.699219 36.566406 C 109.894531 36.375 110.089844 36.1875 110.292969 35.996094 Z M 109.144531 40.5 C 108.980469 40.488281 108.820312 40.542969 108.703125 40.652344 C 108.703125 40.621094 108.707031 40.59375 108.707031 40.566406 C 108.800781 40.542969 108.890625 40.496094 108.960938 40.410156 C 109.019531 40.339844 109.078125 40.269531 109.128906 40.199219 C 109.136719 40.300781 109.136719 40.402344 109.144531 40.5 Z M 110.367188 39.703125 C 110.367188 39.902344 110.363281 40.101562 110.363281 40.308594 C 110.363281 40.21875 110.355469 40.136719 110.355469 40.054688 C 110.34375 39.636719 110.324219 39.214844 110.285156 38.800781 C 110.292969 38.800781 110.300781 38.792969 110.308594 38.789062 C 110.320312 38.789062 110.339844 38.777344 110.347656 38.769531 C 110.355469 39.082031 110.363281 39.394531 110.367188 39.703125 Z M 107.355469 42.917969 C 107.15625 42.035156 107.105469 41.132812 107.203125 40.238281 C 107.296875 40.457031 107.371094 40.691406 107.433594 40.925781 C 107.367188 41.589844 107.34375 42.257812 107.355469 42.917969 Z M 105.316406 41.449219 C 105.324219 41.441406 105.328125 41.441406 105.316406 41.449219 Z M 104.980469 41.535156 C 104.972656 41.535156 104.972656 41.53125 104.980469 41.535156 Z M 111.796875 42.117188 C 111.808594 42.84375 111.785156 43.574219 111.699219 44.300781 C 111.667969 43.875 111.621094 43.453125 111.558594 43.027344 C 111.558594 42.988281 111.5625 42.960938 111.566406 42.925781 C 111.632812 42.058594 111.589844 41.179688 111.589844 40.3125 C 111.589844 40.222656 111.589844 40.144531 111.589844 40.054688 C 111.644531 40.261719 111.699219 40.457031 111.75 40.664062 C 111.773438 41.152344 111.792969 41.628906 111.796875 42.117188 Z M 107.777344 38.761719 C 107.738281 38.691406 107.683594 38.625 107.636719 38.554688 C 107.71875 38.480469 107.800781 38.394531 107.882812 38.320312 C 107.839844 38.464844 107.8125 38.613281 107.777344 38.761719 Z M 105.9375 40.777344 C 105.84375 40.667969 105.746094 40.570312 105.632812 40.496094 C 105.75 40.382812 105.867188 40.269531 105.980469 40.160156 C 105.960938 40.363281 105.941406 40.570312 105.9375 40.777344 Z M 105 43.640625 C 104.972656 43.546875 104.917969 43.453125 104.855469 43.378906 C 104.964844 43.40625 105.074219 43.433594 105.183594 43.472656 C 105.117188 43.523438 105.050781 43.582031 105 43.640625 Z M 110.386719 49.957031 C 110.363281 49.925781 110.34375 49.902344 110.320312 49.878906 C 110.34375 49.863281 110.363281 49.847656 110.386719 49.828125 C 110.386719 49.871094 110.386719 49.917969 110.386719 49.957031 Z M 108.796875 48.957031 C 108.820312 48.996094 108.847656 49.03125 108.878906 49.058594 C 108.816406 49.042969 108.75 49.03125 108.683594 49.027344 C 108.722656 49.003906 108.761719 48.984375 108.796875 48.957031 Z M 111.074219 51.371094 C 111.164062 51.398438 111.257812 51.410156 111.347656 51.398438 C 111.277344 51.503906 111.207031 51.605469 111.128906 51.703125 C 111.117188 51.585938 111.097656 51.472656 111.074219 51.371094 Z M 111.761719 33.492188 C 111.75 33.488281 111.746094 33.46875 111.730469 33.441406 C 111.738281 33.457031 111.75 33.472656 111.769531 33.492188 C 111.773438 33.480469 111.777344 33.472656 111.785156 33.46875 C 111.863281 33.355469 111.816406 33.527344 111.769531 33.496094 C 111.777344 33.511719 111.792969 33.527344 111.796875 33.542969 C 111.832031 33.679688 111.9375 33.824219 111.996094 33.957031 C 112.230469 34.476562 112.386719 35.035156 112.511719 35.589844 C 112.785156 36.792969 112.917969 38.027344 113.066406 39.253906 C 113.203125 40.332031 113.320312 41.425781 113.378906 42.519531 C 113.273438 41.871094 113.136719 41.222656 112.980469 40.574219 C 112.898438 39.089844 112.714844 37.59375 112.472656 36.128906 C 112.382812 35.601562 112.332031 35.019531 112.167969 34.511719 C 112.011719 34.054688 111.535156 33.941406 111.152344 34.113281 C 111.113281 34.082031 111.070312 34.066406 111.027344 34.050781 C 111.082031 34.003906 111.128906 33.960938 111.1875 33.917969 C 111.339844 33.796875 111.632812 33.652344 111.761719 33.492188 Z M 20.832031 29.628906 C 16.777344 28.347656 12.558594 27.449219 8.320312 27.070312 C 6.675781 26.917969 4.980469 26.832031 3.332031 27.035156 C 3.28125 27.046875 3.230469 27.058594 3.183594 27.070312 C 3.042969 27.097656 2.917969 27.175781 2.832031 27.304688 C 2.832031 27.308594 2.832031 27.308594 2.824219 27.308594 C 2.8125 27.332031 2.792969 27.355469 2.785156 27.378906 C 2.769531 27.410156 2.761719 27.433594 2.753906 27.464844 C 2.746094 27.46875 2.746094 27.480469 2.742188 27.488281 C 1.402344 32.0625 0.605469 36.800781 0.371094 41.574219 C 0.257812 43.925781 0.28125 46.289062 0.449219 48.636719 C 0.585938 50.554688 0.777344 52.417969 1.402344 54.238281 C 2.003906 56.011719 2.839844 58.007812 4.292969 59.253906 C 4.894531 59.765625 5.761719 58.902344 5.160156 58.386719 C 3.964844 57.363281 3.257812 55.777344 2.730469 54.328125 C 2.441406 53.550781 2.203125 52.746094 2.035156 51.925781 C 1.839844 50.988281 1.78125 50.019531 1.707031 49.074219 C 1.347656 44.527344 1.511719 39.925781 2.222656 35.414062 C 2.601562 32.980469 3.136719 30.582031 3.816406 28.214844 C 5.0625 28.097656 6.328125 28.144531 7.574219 28.238281 C 9.449219 28.363281 11.308594 28.636719 13.152344 28.972656 C 17.449219 29.777344 21.730469 30.984375 25.730469 32.769531 C 27.820312 33.707031 29.882812 34.816406 31.699219 36.234375 C 31.964844 36.441406 32.316406 36.488281 32.566406 36.234375 C 32.777344 36.023438 32.832031 35.574219 32.566406 35.367188 C 29.113281 32.675781 24.980469 30.9375 20.832031 29.628906 Z M 14.929688 39.957031 C 13.363281 38.285156 11.625 36.777344 9.816406 35.386719 C 9 34.757812 8.167969 34.148438 7.300781 33.589844 C 6.816406 33.28125 6.355469 33.761719 6.402344 34.214844 C 6.355469 34.277344 6.316406 34.355469 6.300781 34.453125 C 5.167969 39.855469 4.054688 45.726562 6.65625 50.902344 C 7.285156 52.148438 8.132812 53.292969 9.167969 54.222656 C 9.449219 54.472656 9.941406 54.46875 10.128906 54.097656 C 10.359375 53.660156 10.371094 53.230469 10.300781 52.753906 C 10.246094 52.429688 10.101562 52.027344 10.265625 51.714844 C 10.667969 50.929688 11.882812 51.253906 12.535156 51.410156 C 12.917969 51.496094 13.308594 51.230469 13.308594 50.816406 C 13.3125 49.972656 12.957031 49.175781 12.984375 48.339844 C 12.996094 48.09375 13.050781 47.785156 13.246094 47.601562 C 13.371094 47.496094 13.636719 47.390625 13.777344 47.519531 C 14.191406 47.902344 15.023438 47.53125 14.800781 46.921875 C 14.605469 46.40625 14.933594 45.890625 15.417969 45.660156 C 16.082031 45.339844 16.894531 45.539062 17.566406 45.738281 C 17.808594 45.808594 18 45.738281 18.136719 45.605469 C 18.308594 45.480469 18.410156 45.261719 18.316406 44.988281 C 17.667969 43.058594 16.292969 41.414062 14.929688 39.957031 Z M 9.042969 51.503906 C 9.035156 51.492188 9.023438 51.480469 9.019531 51.46875 C 9 51.449219 8.996094 51.433594 8.980469 51.417969 C 9.019531 51.410156 9.046875 51.398438 9.074219 51.386719 C 9.066406 51.425781 9.050781 51.46875 9.042969 51.503906 Z M 8.480469 42.902344 C 8.339844 42.886719 8.191406 42.910156 8.066406 42.964844 C 8.050781 42.609375 8.027344 42.246094 8.011719 41.886719 C 8.167969 42.222656 8.324219 42.5625 8.480469 42.902344 Z M 9.035156 38.394531 C 9.035156 38.390625 9.027344 38.386719 9.023438 38.378906 C 9.042969 38.367188 9.050781 38.355469 9.066406 38.347656 C 9.050781 38.363281 9.046875 38.378906 9.035156 38.394531 Z M 10.183594 48.933594 C 10.269531 48.949219 10.359375 48.941406 10.449219 48.914062 C 10.511719 48.996094 10.582031 49.082031 10.652344 49.167969 C 10.488281 49.183594 10.324219 49.199219 10.160156 49.21875 C 10.167969 49.125 10.175781 49.03125 10.183594 48.933594 Z M 14.390625 43.144531 C 14.105469 42.894531 13.816406 42.65625 13.535156 42.402344 C 13.519531 42.292969 13.464844 42.1875 13.371094 42.09375 C 13.285156 42 13.144531 41.933594 13.003906 41.917969 C 12.988281 41.90625 12.984375 41.902344 12.972656 41.886719 C 13.011719 41.832031 13.050781 41.769531 13.074219 41.714844 C 13.355469 42.042969 13.636719 42.371094 13.902344 42.707031 C 14.039062 42.871094 14.273438 42.914062 14.472656 42.867188 C 14.535156 42.925781 14.601562 42.984375 14.660156 43.050781 C 14.671875 43.058594 14.691406 43.078125 14.707031 43.089844 C 14.601562 43.101562 14.496094 43.121094 14.390625 43.144531 Z M 9.792969 38.082031 C 9.792969 38.109375 9.796875 38.132812 9.796875 38.160156 C 9.636719 38.085938 9.457031 38.074219 9.277344 38.167969 C 9.398438 38.027344 9.433594 37.851562 9.410156 37.6875 C 9.539062 37.816406 9.660156 37.949219 9.792969 38.082031 Z M 8.605469 37.191406 C 8.582031 37.078125 8.574219 36.964844 8.566406 36.847656 C 8.667969 36.949219 8.765625 37.042969 8.863281 37.144531 C 8.785156 37.128906 8.695312 37.148438 8.605469 37.191406 Z M 7.058594 36.808594 C 7.105469 37.003906 7.148438 37.195312 7.195312 37.382812 C 7.082031 37.441406 6.984375 37.519531 6.910156 37.617188 C 6.960938 37.347656 7.007812 37.078125 7.058594 36.808594 Z M 6.632812 39.238281 C 6.632812 39.261719 6.632812 39.28125 6.632812 39.304688 C 6.628906 39.332031 6.613281 39.355469 6.609375 39.378906 C 6.613281 39.332031 6.621094 39.285156 6.632812 39.238281 Z M 12 49.957031 C 12.003906 49.992188 12.011719 50.027344 12.019531 50.0625 C 11.988281 50.058594 11.964844 50.058594 11.933594 50.050781 C 11.957031 50.019531 11.980469 49.992188 12 49.957031 Z M 11.859375 47.667969 C 11.855469 47.667969 11.855469 47.667969 11.855469 47.667969 C 11.859375 47.660156 11.859375 47.660156 11.859375 47.660156 C 11.859375 47.667969 11.859375 47.667969 11.859375 47.667969 Z M 15.972656 44.277344 C 16.089844 44.203125 16.183594 44.085938 16.21875 43.945312 C 16.246094 43.804688 16.253906 43.675781 16.253906 43.550781 C 16.410156 43.792969 16.558594 44.042969 16.699219 44.300781 C 16.453125 44.277344 16.214844 44.269531 15.972656 44.277344 Z M 118.898438 35.371094 C 118.496094 32.707031 117.910156 30.074219 117.144531 27.488281 C 117.144531 27.480469 117.140625 27.472656 117.140625 27.46875 C 117.128906 27.433594 117.117188 27.402344 117.105469 27.375 C 117.09375 27.355469 117.089844 27.347656 117.074219 27.328125 C 117.070312 27.316406 117.066406 27.304688 117.050781 27.300781 C 116.964844 27.175781 116.847656 27.097656 116.714844 27.070312 C 116.667969 27.058594 116.613281 27.046875 116.558594 27.035156 C 115.125 26.855469 113.667969 26.90625 112.230469 27.019531 C 110.261719 27.160156 108.304688 27.441406 106.359375 27.800781 C 101.933594 28.636719 97.558594 29.90625 93.449219 31.757812 C 91.285156 32.738281 89.203125 33.902344 87.324219 35.367188 C 87.066406 35.574219 87.113281 36.023438 87.324219 36.234375 C 87.582031 36.492188 87.933594 36.441406 88.191406 36.234375 C 91.503906 33.652344 95.558594 32.011719 99.539062 30.761719 C 103.472656 29.53125 107.550781 28.644531 111.65625 28.289062 C 113.113281 28.160156 114.609375 28.078125 116.082031 28.214844 C 117.308594 32.519531 118.058594 36.949219 118.289062 41.425781 C 118.40625 43.6875 118.386719 45.949219 118.246094 48.210938 C 118.128906 50.082031 117.964844 51.914062 117.378906 53.707031 C 116.839844 55.355469 116.082031 57.230469 114.730469 58.386719 C 114.128906 58.902344 115.003906 59.765625 115.59375 59.253906 C 116.894531 58.144531 117.675781 56.425781 118.265625 54.863281 C 118.933594 53.113281 119.214844 51.363281 119.371094 49.503906 C 119.777344 44.792969 119.601562 40.050781 118.898438 35.371094 Z M 95.648438 34.464844 C 95.496094 34.429688 95.308594 34.433594 95.175781 34.527344 C 94.660156 34.894531 94.136719 35.261719 93.613281 35.625 C 93.480469 35.71875 93.378906 35.832031 93.332031 35.996094 C 93.292969 36.140625 93.308594 36.332031 93.398438 36.46875 C 93.480469 36.597656 93.605469 36.707031 93.761719 36.75 C 93.914062 36.777344 94.101562 36.777344 94.238281 36.683594 C 94.753906 36.324219 95.273438 35.953125 95.792969 35.582031 C 95.929688 35.488281 96.027344 35.386719 96.074219 35.222656 C 96.117188 35.074219 96.097656 34.878906 96.011719 34.746094 C 95.929688 34.617188 95.808594 34.5 95.648438 34.464844 Z M 111.769531 33.492188 C 111.761719 33.492188 111.761719 33.492188 111.761719 33.492188 C 111.761719 33.492188 111.769531 33.492188 111.769531 33.496094 C 111.769531 33.492188 111.769531 33.492188 111.769531 33.492188 Z M 111.769531 33.492188 "/>
</g>
</g>
</svg>
