<?xml version="1.0" encoding="UTF-8"?>
<svg xmlns="http://www.w3.org/2000/svg" xmlns:xlink="http://www.w3.org/1999/xlink" width="120px" height="120px" viewBox="0 0 120 120" version="1.1">
<defs>
<clipPath id="clip1">
  <path d="M 17.136719 55.644531 L 102.914062 55.644531 L 102.914062 90.980469 L 17.136719 90.980469 Z M 17.136719 55.644531 "/>
</clipPath>
</defs>
<g id="surface1">
<g clip-path="url(#clip1)" clip-rule="nonzero">
<path style=" stroke:none;fill-rule:nonzero;fill:rgb(0%,49.019608%,100%);fill-opacity:1;" d="M 83.085938 60.308594 C 76.996094 58.871094 70.714844 62.183594 68.0625 67.734375 C 65.449219 73.21875 67.160156 80.167969 71.972656 83.847656 C 72.269531 84.074219 72.582031 84.292969 72.894531 84.496094 C 73.21875 84.703125 73.542969 84.890625 73.875 85.066406 C 74.207031 85.242188 74.554688 85.40625 74.902344 85.550781 C 75.246094 85.699219 75.605469 85.832031 75.960938 85.949219 C 76.316406 86.066406 76.683594 86.167969 77.050781 86.253906 C 77.417969 86.34375 77.789062 86.414062 78.164062 86.472656 C 78.539062 86.53125 78.914062 86.574219 79.289062 86.597656 C 79.664062 86.621094 80.042969 86.625 80.417969 86.621094 C 80.800781 86.613281 81.175781 86.589844 81.550781 86.554688 C 81.925781 86.511719 82.300781 86.460938 82.675781 86.390625 C 83.042969 86.320312 83.414062 86.230469 83.777344 86.132812 C 84.140625 86.035156 84.496094 85.917969 84.855469 85.785156 C 85.207031 85.660156 85.558594 85.511719 85.898438 85.347656 C 86.246094 85.191406 86.578125 85.011719 86.90625 84.824219 C 87.234375 84.636719 87.550781 84.441406 87.863281 84.222656 C 88.171875 84.003906 88.476562 83.785156 88.769531 83.535156 C 91.808594 81.066406 93.449219 77.222656 93.515625 73.347656 L 93.515625 73.324219 C 93.511719 72.949219 93.492188 72.574219 93.457031 72.199219 C 93.421875 71.832031 93.371094 71.457031 93.304688 71.089844 C 93.234375 70.722656 93.160156 70.355469 93.058594 69.996094 C 92.964844 69.632812 92.855469 69.277344 92.722656 68.925781 C 92.597656 68.574219 92.457031 68.222656 92.300781 67.878906 C 92.152344 67.542969 91.980469 67.207031 91.792969 66.878906 C 91.613281 66.550781 91.417969 66.234375 91.207031 65.925781 C 90.996094 65.613281 90.777344 65.316406 90.542969 65.019531 C 90.308594 64.730469 90.066406 64.449219 89.808594 64.171875 C 89.550781 63.902344 89.277344 63.644531 88.996094 63.394531 C 88.714844 63.140625 88.429688 62.90625 88.128906 62.675781 C 87.832031 62.457031 87.519531 62.246094 87.207031 62.042969 C 86.886719 61.839844 86.566406 61.660156 86.230469 61.480469 C 85.902344 61.3125 85.566406 61.148438 85.21875 61.007812 C 84.871094 60.863281 84.519531 60.730469 84.164062 60.613281 C 83.8125 60.496094 83.449219 60.398438 83.085938 60.308594 Z M 72.375 82.429688 C 72.492188 82.292969 72.140625 82.066406 72.027344 81.964844 C 71.621094 81.582031 71.238281 81.164062 70.886719 80.722656 C 70.542969 80.292969 70.230469 79.839844 69.949219 79.359375 C 69.886719 79.253906 69.308594 78.1875 69.261719 78.238281 C 69.316406 78.175781 69.371094 78.117188 69.421875 78.050781 L 76.597656 69.699219 C 78.839844 67.097656 81.074219 64.488281 83.316406 61.886719 C 84.292969 62.160156 85.21875 62.550781 86.105469 63.050781 C 86.402344 63.214844 87.808594 64.292969 87.984375 64.246094 C 87.988281 64.246094 87.988281 64.253906 87.988281 64.253906 C 87.785156 64.496094 87.582031 64.730469 87.375 64.96875 C 86.296875 66.230469 85.214844 67.488281 84.128906 68.753906 C 81.136719 72.238281 78.136719 75.726562 75.140625 79.214844 C 74.277344 80.222656 73.410156 81.222656 72.550781 82.222656 C 72.492188 82.292969 72.433594 82.359375 72.375 82.429688 Z M 80.941406 61.496094 C 76.824219 66.285156 72.703125 71.082031 68.578125 75.878906 C 68.53125 75.65625 68.488281 75.425781 68.449219 75.207031 C 68.414062 74.976562 68.386719 74.753906 68.363281 74.527344 C 68.339844 74.296875 68.324219 74.066406 68.316406 73.839844 C 68.300781 73.613281 68.300781 73.382812 68.300781 73.152344 C 68.308594 72.925781 68.320312 72.691406 68.339844 72.46875 C 68.347656 72.234375 68.371094 72.011719 68.402344 71.785156 C 68.4375 71.554688 68.472656 71.332031 68.511719 71.105469 C 68.558594 70.878906 68.605469 70.660156 68.667969 70.433594 C 68.71875 70.214844 68.785156 69.988281 68.847656 69.773438 C 68.917969 69.558594 68.996094 69.339844 69.074219 69.121094 C 69.160156 68.910156 69.246094 68.699219 69.332031 68.488281 C 69.425781 68.277344 69.527344 68.074219 69.632812 67.871094 C 69.738281 67.667969 69.847656 67.472656 69.964844 67.269531 C 70.082031 67.074219 70.207031 66.878906 70.335938 66.691406 C 70.464844 66.503906 70.597656 66.316406 70.734375 66.136719 C 70.875 65.953125 71.019531 65.769531 71.167969 65.601562 C 71.320312 65.425781 71.472656 65.253906 71.628906 65.089844 C 71.789062 64.925781 71.953125 64.769531 72.121094 64.613281 C 72.292969 64.457031 72.464844 64.308594 72.636719 64.160156 C 72.820312 64.011719 72.996094 63.878906 73.183594 63.746094 C 73.371094 63.609375 73.558594 63.472656 73.753906 63.351562 C 73.945312 63.230469 74.136719 63.113281 74.339844 63 C 74.535156 62.886719 74.742188 62.777344 74.949219 62.675781 C 75.152344 62.578125 75.355469 62.484375 75.566406 62.394531 C 75.785156 62.300781 75.996094 62.222656 76.214844 62.144531 C 76.429688 62.066406 76.644531 61.996094 76.863281 61.933594 C 77.085938 61.875 77.308594 61.816406 77.53125 61.761719 C 77.753906 61.710938 77.976562 61.667969 78.207031 61.628906 C 78.425781 61.59375 78.65625 61.558594 78.886719 61.535156 C 79.113281 61.511719 79.339844 61.496094 79.570312 61.480469 C 79.800781 61.472656 80.027344 61.464844 80.253906 61.464844 C 80.484375 61.472656 80.714844 61.476562 80.941406 61.496094 Z M 48.019531 62.816406 C 47.71875 62.589844 47.410156 62.371094 47.089844 62.167969 C 46.769531 61.96875 46.449219 61.777344 46.105469 61.597656 C 45.773438 61.425781 45.433594 61.265625 45.089844 61.121094 C 44.738281 60.964844 44.386719 60.839844 44.027344 60.722656 C 43.667969 60.605469 43.308594 60.496094 42.9375 60.410156 C 42.566406 60.324219 42.199219 60.253906 41.824219 60.191406 C 41.449219 60.140625 41.074219 60.097656 40.699219 60.074219 C 40.316406 60.046875 39.941406 60.042969 39.566406 60.046875 C 39.1875 60.050781 38.8125 60.074219 38.4375 60.117188 C 38.0625 60.152344 37.6875 60.210938 37.3125 60.28125 C 36.941406 60.351562 36.574219 60.433594 36.210938 60.535156 C 35.847656 60.636719 35.488281 60.75 35.132812 60.886719 C 34.78125 61.011719 34.429688 61.160156 34.089844 61.316406 C 33.746094 61.480469 33.410156 61.652344 33.082031 61.839844 C 32.753906 62.035156 32.4375 62.230469 32.128906 62.449219 C 31.816406 62.660156 31.511719 62.886719 31.222656 63.128906 C 28.175781 65.605469 26.535156 69.445312 26.472656 73.324219 L 26.472656 73.347656 C 26.480469 73.722656 26.496094 74.089844 26.53125 74.464844 C 26.566406 74.839844 26.621094 75.210938 26.683594 75.582031 C 26.753906 75.949219 26.832031 76.3125 26.929688 76.675781 C 27.023438 77.035156 27.136719 77.390625 27.261719 77.746094 C 27.386719 78.097656 27.527344 78.445312 27.683594 78.785156 C 27.839844 79.125 28.007812 79.457031 28.191406 79.785156 C 28.378906 80.113281 28.570312 80.433594 28.78125 80.742188 C 28.988281 81.050781 29.207031 81.355469 29.441406 81.652344 C 29.675781 81.9375 29.925781 82.222656 30.183594 82.496094 C 30.441406 82.761719 30.707031 83.027344 30.988281 83.273438 C 31.265625 83.527344 31.558594 83.765625 31.855469 83.988281 C 32.15625 84.210938 32.460938 84.425781 32.777344 84.628906 C 33.09375 84.824219 33.421875 85.011719 33.75 85.183594 C 34.082031 85.359375 34.425781 85.519531 34.769531 85.664062 C 35.113281 85.804688 35.464844 85.941406 35.816406 86.050781 C 36.175781 86.167969 36.539062 86.269531 36.902344 86.355469 C 42.988281 87.796875 49.277344 84.488281 51.925781 78.933594 C 54.539062 73.449219 52.832031 66.503906 48.019531 62.816406 Z M 31.972656 82.292969 C 31.957031 82.3125 31.941406 82.335938 31.925781 82.355469 C 31.921875 82.355469 31.921875 82.355469 31.921875 82.347656 C 32.027344 82.175781 31.371094 81.675781 31.242188 81.539062 C 30.519531 80.789062 29.90625 79.957031 29.402344 79.042969 C 29.347656 78.957031 28.910156 78.050781 28.851562 78.121094 C 28.871094 78.09375 28.894531 78.070312 28.917969 78.046875 C 29.191406 77.722656 29.464844 77.410156 29.742188 77.085938 C 32.519531 73.851562 35.296875 70.621094 38.066406 67.386719 C 39.375 65.871094 40.683594 64.347656 41.988281 62.832031 C 42.277344 62.496094 42.558594 62.167969 42.84375 61.839844 C 42.933594 61.730469 44.355469 62.363281 44.554688 62.449219 C 45.613281 62.910156 46.589844 63.519531 47.464844 64.265625 C 42.761719 69.746094 38.058594 75.214844 33.347656 80.695312 C 32.976562 81.128906 32.605469 81.5625 32.230469 81.988281 C 32.144531 82.097656 32.0625 82.195312 31.972656 82.292969 Z M 31.019531 65.363281 C 31.316406 65.035156 31.628906 64.730469 31.957031 64.433594 C 32.292969 64.148438 32.628906 63.878906 32.996094 63.628906 C 33.351562 63.375 33.722656 63.144531 34.105469 62.933594 C 34.496094 62.722656 34.886719 62.53125 35.292969 62.367188 C 35.699219 62.199219 36.113281 62.058594 36.535156 61.933594 C 36.957031 61.808594 37.382812 61.714844 37.816406 61.640625 C 38.246094 61.566406 38.683594 61.519531 39.117188 61.488281 C 39.558594 61.464844 39.996094 61.457031 40.433594 61.480469 C 36.351562 66.234375 32.269531 70.988281 28.191406 75.738281 C 28.097656 75.28125 28.03125 74.816406 27.996094 74.355469 C 27.957031 73.894531 27.941406 73.429688 27.960938 72.960938 C 27.980469 72.496094 28.019531 72.035156 28.089844 71.578125 C 28.160156 71.113281 28.253906 70.660156 28.378906 70.214844 C 28.5 69.761719 28.644531 69.324219 28.824219 68.894531 C 28.996094 68.460938 29.199219 68.039062 29.414062 67.628906 C 29.636719 67.222656 29.882812 66.824219 30.152344 66.449219 C 30.421875 66.070312 30.707031 65.707031 31.019531 65.363281 Z M 100.371094 66.492188 C 99.574219 66.238281 98.753906 66.117188 97.921875 66.128906 C 97.394531 66.128906 96.867188 66.167969 96.351562 66.261719 C 96.191406 65.910156 96.023438 65.558594 95.839844 65.214844 C 95.660156 64.871094 95.464844 64.535156 95.269531 64.199219 C 95.0625 63.867188 94.851562 63.542969 94.628906 63.230469 C 94.402344 62.90625 94.167969 62.601562 93.925781 62.296875 C 93.679688 61.992188 93.425781 61.699219 93.164062 61.410156 C 92.902344 61.125 92.625 60.847656 92.34375 60.582031 C 92.0625 60.316406 91.777344 60.050781 91.476562 59.808594 C 91.175781 59.554688 90.871094 59.316406 90.558594 59.085938 C 90.238281 58.855469 89.925781 58.640625 89.597656 58.429688 C 89.269531 58.222656 88.925781 58.027344 88.589844 57.839844 C 88.246094 57.652344 87.902344 57.472656 87.550781 57.308594 C 87.191406 57.144531 86.835938 57 86.480469 56.859375 C 86.113281 56.71875 85.746094 56.589844 85.378906 56.472656 C 85.003906 56.355469 84.632812 56.25 84.253906 56.15625 C 83.878906 56.0625 83.496094 55.988281 83.109375 55.917969 C 82.730469 55.851562 82.339844 55.800781 81.957031 55.753906 C 81.332031 55.683594 80.707031 55.644531 80.082031 55.644531 C 74.085938 55.644531 68.371094 58.898438 65.085938 64.167969 C 63.503906 63.9375 61.917969 63.800781 60.316406 63.75 C 60.292969 63.75 60.269531 63.75 60.246094 63.75 C 60.210938 63.746094 60.167969 63.746094 60.136719 63.738281 C 60.136719 63.738281 59.863281 63.746094 59.863281 63.746094 C 59.832031 63.746094 59.792969 63.75 59.761719 63.753906 C 59.71875 63.75 59.683594 63.75 59.644531 63.75 L 59.636719 63.75 C 58.050781 63.800781 56.472656 63.941406 54.894531 64.167969 C 54.699219 63.84375 54.492188 63.527344 54.269531 63.214844 C 54.050781 62.90625 53.824219 62.601562 53.582031 62.308594 C 53.347656 62.011719 53.097656 61.722656 52.839844 61.441406 C 52.589844 61.167969 52.316406 60.890625 52.050781 60.628906 C 51.773438 60.371094 51.492188 60.113281 51.199219 59.871094 C 50.90625 59.625 50.613281 59.390625 50.308594 59.160156 C 49.996094 58.941406 49.6875 58.722656 49.371094 58.519531 C 49.050781 58.3125 48.726562 58.113281 48.394531 57.933594 C 48.058594 57.746094 47.722656 57.574219 47.378906 57.410156 C 47.039062 57.246094 46.6875 57.09375 46.335938 56.953125 C 45.984375 56.8125 45.628906 56.683594 45.269531 56.566406 C 44.90625 56.441406 44.542969 56.339844 44.175781 56.246094 C 43.808594 56.152344 43.433594 56.066406 43.066406 55.996094 C 42.691406 55.921875 42.316406 55.863281 41.941406 55.816406 C 41.558594 55.769531 41.183594 55.734375 40.804688 55.710938 C 40.429688 55.6875 40.050781 55.675781 39.667969 55.683594 C 39.128906 55.683594 38.582031 55.707031 38.042969 55.753906 C 31.898438 56.300781 26.292969 60.417969 23.636719 66.261719 C 23.136719 66.183594 22.640625 66.140625 22.136719 66.140625 C 21.433594 66.140625 20.738281 66.210938 20.042969 66.347656 C 17.917969 66.785156 17.15625 68.894531 17.15625 70.730469 L 17.15625 70.917969 C 17.15625 72.386719 17.152344 74.214844 18.746094 75.292969 C 19.792969 76.003906 20.996094 76.089844 21.925781 76.089844 C 22.074219 76.089844 22.21875 76.089844 22.371094 76.082031 C 23.832031 84.613281 31.316406 90.996094 39.984375 90.996094 C 40.207031 90.996094 40.425781 90.988281 40.644531 90.984375 C 49.382812 90.667969 56.675781 83.503906 57.421875 74.601562 C 58.246094 74.425781 59.082031 74.308594 59.917969 74.25 L 59.996094 74.246094 C 59.996094 74.246094 60.074219 74.25 60.074219 74.25 C 60.914062 74.308594 61.738281 74.425781 62.558594 74.601562 C 62.582031 74.863281 62.613281 75.128906 62.648438 75.394531 C 62.683594 75.65625 62.71875 75.917969 62.765625 76.183594 C 62.8125 76.449219 62.863281 76.707031 62.925781 76.96875 C 62.980469 77.226562 63.042969 77.484375 63.113281 77.742188 C 63.183594 78 63.257812 78.253906 63.332031 78.511719 C 63.417969 78.761719 63.503906 79.011719 63.597656 79.265625 C 63.683594 79.511719 63.785156 79.757812 63.886719 80.003906 C 63.988281 80.25 64.097656 80.496094 64.214844 80.738281 C 64.324219 80.976562 64.441406 81.214844 64.566406 81.449219 C 64.691406 81.683594 64.824219 81.917969 64.957031 82.148438 C 65.089844 82.378906 65.226562 82.605469 65.371094 82.828125 C 65.519531 83.050781 65.667969 83.273438 65.824219 83.488281 C 65.976562 83.707031 66.136719 83.917969 66.300781 84.128906 C 66.464844 84.339844 66.632812 84.542969 66.800781 84.746094 C 66.980469 84.949219 67.152344 85.148438 67.335938 85.339844 C 67.519531 85.535156 67.707031 85.722656 67.898438 85.910156 C 68.085938 86.097656 68.277344 86.277344 68.480469 86.457031 C 68.675781 86.628906 68.882812 86.808594 69.089844 86.976562 C 69.292969 87.140625 69.503906 87.304688 69.714844 87.46875 C 69.933594 87.628906 70.148438 87.777344 70.363281 87.925781 C 70.589844 88.078125 70.808594 88.222656 71.039062 88.359375 C 71.261719 88.5 71.488281 88.636719 71.722656 88.761719 C 71.957031 88.894531 72.191406 89.015625 72.433594 89.136719 C 72.667969 89.253906 72.914062 89.367188 73.152344 89.480469 C 73.402344 89.582031 73.640625 89.691406 73.894531 89.785156 C 74.136719 89.882812 74.390625 89.972656 74.644531 90.058594 C 74.894531 90.144531 75.144531 90.222656 75.402344 90.300781 C 75.65625 90.375 75.914062 90.445312 76.171875 90.503906 C 76.429688 90.566406 76.691406 90.628906 76.949219 90.679688 C 77.214844 90.726562 77.480469 90.773438 77.742188 90.816406 C 78 90.855469 78.261719 90.890625 78.535156 90.917969 C 78.796875 90.941406 79.058594 90.964844 79.324219 90.984375 C 79.664062 91.003906 80.003906 91.011719 80.34375 91.011719 C 88.808594 91.011719 96.160156 84.628906 97.617188 76.082031 C 97.757812 76.089844 97.898438 76.089844 98.039062 76.089844 C 98.839844 76.089844 99.894531 76.027344 100.875 75.539062 C 102.832031 74.554688 102.832031 72.464844 102.832031 70.730469 C 102.832031 68.550781 101.957031 67.042969 100.371094 66.492188 Z M 96.355469 75.089844 C 95.355469 83.625 87.910156 89.894531 79.359375 89.582031 C 70.949219 89.277344 64.269531 82.113281 63.914062 73.863281 C 63.914062 73.816406 63.910156 73.769531 63.890625 73.722656 C 63.871094 73.675781 63.847656 73.636719 63.820312 73.59375 C 63.796875 73.558594 63.761719 73.523438 63.722656 73.5 C 63.679688 73.472656 63.636719 73.453125 63.589844 73.433594 C 62.441406 73.054688 61.242188 72.960938 60.046875 72.847656 C 60.027344 72.84375 60.011719 72.84375 60 72.84375 L 59.996094 72.84375 C 59.976562 72.84375 59.957031 72.84375 59.949219 72.847656 C 58.746094 72.960938 57.539062 73.054688 56.394531 73.433594 C 56.347656 73.453125 56.300781 73.472656 56.269531 73.5 C 56.226562 73.523438 56.191406 73.558594 56.160156 73.59375 C 56.132812 73.636719 56.109375 73.675781 56.097656 73.722656 C 56.082031 73.769531 56.074219 73.816406 56.074219 73.863281 C 56.0625 74.113281 56.042969 74.363281 56.019531 74.613281 C 55.996094 74.863281 55.96875 75.117188 55.941406 75.363281 C 55.902344 75.613281 55.863281 75.863281 55.816406 76.105469 C 55.777344 76.359375 55.722656 76.597656 55.664062 76.847656 C 55.613281 77.089844 55.546875 77.339844 55.476562 77.578125 C 55.410156 77.816406 55.335938 78.058594 55.261719 78.300781 C 55.175781 78.539062 55.097656 78.773438 55.007812 79.011719 C 54.914062 79.246094 54.820312 79.476562 54.722656 79.710938 C 54.621094 79.941406 54.515625 80.167969 54.402344 80.394531 C 54.292969 80.621094 54.175781 80.839844 54.058594 81.066406 C 53.933594 81.28125 53.8125 81.503906 53.675781 81.714844 C 53.550781 81.933594 53.414062 82.144531 53.273438 82.355469 C 53.132812 82.558594 52.988281 82.761719 52.832031 82.96875 C 52.6875 83.167969 52.527344 83.367188 52.371094 83.558594 C 52.214844 83.761719 52.050781 83.949219 51.886719 84.136719 C 51.714844 84.324219 51.542969 84.503906 51.371094 84.683594 C 51.1875 84.867188 51.011719 85.042969 50.824219 85.214844 C 50.644531 85.382812 50.457031 85.546875 50.261719 85.710938 C 50.066406 85.875 49.875 86.035156 49.675781 86.183594 C 49.476562 86.339844 49.269531 86.488281 49.066406 86.628906 C 48.863281 86.777344 48.652344 86.917969 48.441406 87.050781 C 48.230469 87.1875 48.011719 87.316406 47.792969 87.441406 C 47.578125 87.566406 47.355469 87.683594 47.132812 87.800781 C 46.902344 87.914062 46.683594 88.027344 46.453125 88.128906 C 46.222656 88.238281 45.988281 88.335938 45.753906 88.429688 C 45.527344 88.523438 45.285156 88.613281 45.050781 88.691406 C 44.8125 88.777344 44.578125 88.851562 44.332031 88.925781 C 44.089844 88.996094 43.851562 89.0625 43.605469 89.128906 C 43.363281 89.183594 43.121094 89.246094 42.871094 89.292969 C 42.628906 89.34375 42.375 89.386719 42.128906 89.425781 C 41.878906 89.460938 41.628906 89.496094 41.378906 89.519531 C 41.132812 89.550781 40.878906 89.574219 40.628906 89.582031 C 32.089844 90.105469 24.613281 83.472656 23.628906 75.089844 C 23.628906 75.027344 23.621094 74.976562 23.597656 74.925781 C 23.574219 74.871094 23.542969 74.824219 23.503906 74.785156 C 23.460938 74.742188 23.414062 74.707031 23.363281 74.683594 C 23.308594 74.660156 23.25 74.648438 23.191406 74.648438 C 22.480469 74.683594 21.761719 74.652344 21.046875 74.652344 C 18.871094 74.652344 18.558594 72.667969 18.558594 70.996094 C 18.558594 69.351562 19.074219 67.617188 21.09375 67.617188 C 22.078125 67.617188 23.132812 67.5 24.082031 67.816406 C 24.136719 67.828125 24.191406 67.832031 24.253906 67.828125 C 24.308594 67.816406 24.363281 67.800781 24.410156 67.769531 C 24.464844 67.738281 24.503906 67.707031 24.542969 67.660156 C 24.582031 67.613281 24.605469 67.566406 24.621094 67.503906 C 24.761719 67.152344 24.914062 66.800781 25.078125 66.464844 C 25.242188 66.117188 25.410156 65.777344 25.597656 65.449219 C 25.785156 65.113281 25.988281 64.792969 26.199219 64.472656 C 26.410156 64.152344 26.625 63.84375 26.859375 63.542969 C 27.089844 63.238281 27.328125 62.949219 27.582031 62.660156 C 27.832031 62.371094 28.097656 62.097656 28.363281 61.828125 C 28.636719 61.558594 28.917969 61.300781 29.203125 61.054688 C 29.488281 60.800781 29.789062 60.566406 30.09375 60.339844 C 30.398438 60.113281 30.707031 59.894531 31.03125 59.691406 C 31.355469 59.480469 31.675781 59.285156 32.011719 59.105469 C 32.34375 58.917969 32.683594 58.746094 33.027344 58.582031 C 33.375 58.425781 33.726562 58.277344 34.082031 58.136719 C 34.433594 58.003906 34.800781 57.878906 35.160156 57.769531 C 35.527344 57.65625 35.894531 57.558594 36.261719 57.46875 C 36.632812 57.386719 37.007812 57.308594 37.382812 57.253906 C 37.757812 57.191406 38.136719 57.144531 38.519531 57.113281 C 44.855469 56.542969 50.886719 59.980469 54.023438 65.417969 C 54.046875 65.460938 54.074219 65.496094 54.117188 65.53125 C 54.152344 65.558594 54.191406 65.582031 54.238281 65.601562 C 54.28125 65.621094 54.328125 65.628906 54.375 65.636719 C 54.425781 65.636719 54.472656 65.636719 54.519531 65.625 C 56.222656 65.367188 57.933594 65.207031 59.652344 65.152344 C 59.691406 65.144531 59.722656 65.136719 59.761719 65.132812 C 59.894531 65.136719 60.023438 65.132812 60.160156 65.105469 C 60.210938 65.132812 60.277344 65.144531 60.332031 65.152344 C 62.058594 65.207031 63.769531 65.367188 65.464844 65.625 C 65.511719 65.636719 65.558594 65.636719 65.613281 65.636719 C 65.660156 65.628906 65.707031 65.621094 65.746094 65.601562 C 65.792969 65.582031 65.835938 65.558594 65.871094 65.527344 C 65.90625 65.496094 65.941406 65.460938 65.964844 65.417969 C 66.160156 65.085938 66.355469 64.757812 66.574219 64.433594 C 66.792969 64.113281 67.011719 63.796875 67.246094 63.492188 C 67.488281 63.1875 67.734375 62.886719 67.992188 62.601562 C 68.25 62.316406 68.511719 62.035156 68.792969 61.761719 C 69.070312 61.496094 69.355469 61.238281 69.652344 60.984375 C 69.941406 60.730469 70.246094 60.496094 70.558594 60.269531 C 70.875 60.042969 71.191406 59.824219 71.519531 59.613281 C 71.847656 59.410156 72.183594 59.214844 72.519531 59.035156 C 72.863281 58.851562 73.207031 58.683594 73.566406 58.523438 C 73.917969 58.363281 74.273438 58.21875 74.636719 58.082031 C 75 57.949219 75.363281 57.832031 75.738281 57.722656 C 76.105469 57.613281 76.480469 57.519531 76.863281 57.441406 C 77.238281 57.355469 77.621094 57.292969 78 57.234375 C 78.386719 57.183594 78.769531 57.140625 79.152344 57.113281 C 79.542969 57.089844 79.925781 57.070312 80.316406 57.070312 C 80.699219 57.070312 81.089844 57.082031 81.472656 57.113281 C 87.679688 57.511719 93.105469 61.804688 95.367188 67.503906 C 95.386719 67.566406 95.410156 67.617188 95.441406 67.660156 C 95.484375 67.707031 95.527344 67.738281 95.578125 67.769531 C 95.625 67.800781 95.675781 67.816406 95.738281 67.828125 C 95.792969 67.832031 95.855469 67.828125 95.90625 67.816406 C 96.855469 67.5 97.910156 67.617188 98.886719 67.617188 C 100.917969 67.617188 101.433594 69.351562 101.433594 70.996094 C 101.433594 72.75 101.109375 74.507812 98.941406 74.652344 C 98.226562 74.695312 97.511719 74.691406 96.796875 74.648438 C 96.738281 74.648438 96.679688 74.660156 96.628906 74.683594 C 96.574219 74.707031 96.527344 74.742188 96.488281 74.785156 C 96.445312 74.824219 96.410156 74.871094 96.386719 74.925781 C 96.371094 74.976562 96.355469 75.027344 96.355469 75.089844 Z M 96.355469 75.089844 "/>
</g>
<path style=" stroke:none;fill-rule:nonzero;fill:rgb(0%,49.019608%,100%);fill-opacity:1;" d="M 114.339844 39.847656 C 114.175781 38.484375 114.027344 37.101562 113.746094 35.753906 C 113.625 35.136719 113.460938 34.535156 113.226562 33.957031 C 113.003906 33.410156 112.738281 32.671875 112.105469 32.488281 C 111.441406 32.296875 110.90625 32.816406 110.425781 33.191406 C 109.910156 33.597656 109.402344 34.011719 108.894531 34.429688 C 107.90625 35.261719 106.945312 36.121094 106.011719 37.011719 C 103.886719 39.050781 101.929688 41.253906 100.128906 43.59375 C 99.925781 43.855469 100.089844 44.277344 100.347656 44.433594 C 100.613281 44.582031 100.875 44.511719 101.074219 44.332031 C 101.179688 44.433594 101.320312 44.496094 101.484375 44.488281 C 102.246094 44.449219 103.011719 44.464844 103.777344 44.554688 C 103.753906 45.035156 103.734375 45.515625 103.714844 45.996094 C 103.699219 46.480469 104.246094 46.734375 104.636719 46.527344 C 105.308594 46.171875 106.230469 46.660156 106.457031 47.347656 C 106.617188 47.832031 106.355469 48.371094 106.246094 48.832031 C 106.105469 49.429688 106.078125 50.039062 106.429688 50.566406 C 106.660156 50.917969 107.082031 50.953125 107.390625 50.695312 C 107.972656 50.199219 108.917969 50.417969 109.410156 50.929688 C 110.066406 51.621094 110.039062 52.691406 109.730469 53.53125 C 109.5 54.152344 110.332031 54.492188 110.753906 54.128906 C 114.824219 50.601562 114.933594 44.785156 114.339844 39.847656 Z M 110.292969 36.222656 C 110.308594 36.761719 110.324219 37.308594 110.339844 37.847656 C 110.316406 37.839844 110.292969 37.832031 110.269531 37.828125 C 110.269531 37.640625 110.203125 37.464844 110.035156 37.335938 C 109.996094 37.300781 109.949219 37.277344 109.898438 37.253906 C 109.839844 37.101562 109.777344 36.941406 109.699219 36.792969 C 109.894531 36.605469 110.089844 36.410156 110.292969 36.222656 Z M 109.144531 40.730469 C 108.980469 40.714844 108.820312 40.761719 108.703125 40.875 C 108.703125 40.851562 108.707031 40.824219 108.707031 40.792969 C 108.800781 40.761719 108.890625 40.714844 108.960938 40.640625 C 109.019531 40.570312 109.078125 40.5 109.128906 40.425781 C 109.136719 40.523438 109.136719 40.628906 109.144531 40.730469 Z M 110.367188 39.933594 C 110.367188 40.128906 110.363281 40.332031 110.363281 40.527344 C 110.363281 40.449219 110.355469 40.363281 110.355469 40.285156 C 110.34375 39.863281 110.324219 39.445312 110.285156 39.027344 C 110.292969 39.023438 110.300781 39.019531 110.308594 39.019531 C 110.320312 39.011719 110.339844 39.003906 110.347656 39 C 110.355469 39.308594 110.363281 39.621094 110.367188 39.933594 Z M 107.355469 43.148438 C 107.15625 42.257812 107.105469 41.355469 107.203125 40.464844 C 107.296875 40.6875 107.371094 40.917969 107.433594 41.152344 C 107.367188 41.816406 107.34375 42.480469 107.355469 43.148438 Z M 105.316406 41.675781 C 105.324219 41.671875 105.328125 41.671875 105.316406 41.675781 Z M 104.980469 41.765625 C 104.972656 41.765625 104.972656 41.761719 104.980469 41.765625 Z M 111.796875 42.339844 C 111.808594 43.066406 111.785156 43.804688 111.699219 44.53125 C 111.667969 44.105469 111.621094 43.675781 111.558594 43.253906 C 111.558594 43.21875 111.5625 43.183594 111.566406 43.148438 C 111.632812 42.285156 111.589844 41.402344 111.589844 40.542969 C 111.589844 40.453125 111.589844 40.371094 111.589844 40.285156 C 111.644531 40.488281 111.699219 40.6875 111.75 40.894531 C 111.773438 41.371094 111.792969 41.859375 111.796875 42.339844 Z M 107.777344 38.988281 C 107.738281 38.917969 107.683594 38.847656 107.636719 38.785156 C 107.71875 38.707031 107.800781 38.625 107.882812 38.550781 C 107.839844 38.695312 107.8125 38.839844 107.777344 38.988281 Z M 105.9375 41.003906 C 105.84375 40.898438 105.746094 40.800781 105.632812 40.714844 C 105.75 40.605469 105.867188 40.496094 105.980469 40.382812 C 105.960938 40.59375 105.941406 40.800781 105.9375 41.003906 Z M 105 43.871094 C 104.972656 43.777344 104.917969 43.683594 104.855469 43.605469 C 104.964844 43.636719 105.074219 43.664062 105.183594 43.699219 C 105.117188 43.753906 105.050781 43.808594 105 43.871094 Z M 110.386719 50.179688 C 110.363281 50.15625 110.34375 50.132812 110.320312 50.109375 C 110.34375 50.089844 110.363281 50.074219 110.386719 50.058594 C 110.386719 50.097656 110.386719 50.136719 110.386719 50.179688 Z M 108.796875 49.183594 C 108.820312 49.21875 108.847656 49.253906 108.878906 49.289062 C 108.816406 49.269531 108.75 49.261719 108.683594 49.246094 C 108.722656 49.230469 108.761719 49.207031 108.796875 49.183594 Z M 111.074219 51.589844 C 111.164062 51.628906 111.257812 51.636719 111.347656 51.628906 C 111.277344 51.726562 111.207031 51.824219 111.128906 51.925781 C 111.117188 51.816406 111.097656 51.703125 111.074219 51.589844 Z M 111.761719 33.722656 C 111.75 33.707031 111.746094 33.699219 111.730469 33.660156 C 111.738281 33.683594 111.75 33.703125 111.769531 33.714844 C 111.773438 33.707031 111.777344 33.703125 111.785156 33.699219 C 111.863281 33.585938 111.816406 33.753906 111.769531 33.722656 C 111.777344 33.738281 111.792969 33.753906 111.796875 33.773438 C 111.832031 33.910156 111.9375 34.050781 111.996094 34.183594 C 112.230469 34.707031 112.386719 35.253906 112.511719 35.8125 C 112.785156 37.019531 112.917969 38.253906 113.066406 39.480469 C 113.203125 40.558594 113.320312 41.652344 113.378906 42.75 C 113.273438 42.09375 113.136719 41.449219 112.980469 40.804688 C 112.898438 39.308594 112.714844 37.824219 112.472656 36.351562 C 112.382812 35.832031 112.332031 35.25 112.167969 34.738281 C 112.011719 34.285156 111.535156 34.171875 111.152344 34.335938 C 111.113281 34.3125 111.070312 34.289062 111.027344 34.269531 C 111.082031 34.230469 111.128906 34.191406 111.1875 34.144531 C 111.339844 34.019531 111.632812 33.878906 111.761719 33.722656 Z M 20.832031 29.855469 C 16.777344 28.574219 12.558594 27.679688 8.320312 27.292969 C 6.675781 27.144531 4.980469 27.050781 3.332031 27.261719 C 3.28125 27.269531 3.230469 27.28125 3.183594 27.300781 C 3.042969 27.328125 2.917969 27.402344 2.832031 27.535156 C 2.832031 27.535156 2.832031 27.539062 2.824219 27.539062 C 2.8125 27.5625 2.792969 27.585938 2.785156 27.609375 C 2.769531 27.632812 2.761719 27.660156 2.753906 27.683594 C 2.746094 27.699219 2.746094 27.703125 2.742188 27.714844 C 1.402344 32.292969 0.605469 37.03125 0.371094 41.792969 C 0.257812 44.152344 0.28125 46.511719 0.449219 48.867188 C 0.585938 50.777344 0.777344 52.640625 1.402344 54.464844 C 2.003906 56.230469 2.839844 58.238281 4.292969 59.484375 C 4.894531 59.996094 5.761719 59.128906 5.160156 58.617188 C 3.964844 57.589844 3.257812 55.996094 2.730469 54.558594 C 2.441406 53.769531 2.203125 52.96875 2.035156 52.152344 C 1.839844 51.214844 1.78125 50.25 1.707031 49.300781 C 1.347656 44.746094 1.511719 40.148438 2.222656 35.644531 C 2.601562 33.210938 3.136719 30.800781 3.816406 28.433594 C 5.0625 28.324219 6.328125 28.371094 7.574219 28.457031 C 9.449219 28.59375 11.308594 28.855469 13.152344 29.203125 C 17.449219 30.003906 21.730469 31.207031 25.730469 33 C 27.820312 33.9375 29.882812 35.042969 31.699219 36.464844 C 31.964844 36.660156 32.316406 36.714844 32.566406 36.464844 C 32.777344 36.253906 32.832031 35.800781 32.566406 35.597656 C 29.113281 32.90625 24.980469 31.167969 20.832031 29.855469 Z M 14.929688 40.175781 C 13.363281 38.511719 11.625 37.007812 9.816406 35.613281 C 9 34.980469 8.167969 34.378906 7.300781 33.820312 C 6.816406 33.511719 6.355469 33.988281 6.402344 34.441406 C 6.355469 34.5 6.316406 34.582031 6.300781 34.683594 C 5.167969 40.082031 4.054688 45.949219 6.65625 51.121094 C 7.285156 52.371094 8.132812 53.511719 9.167969 54.449219 C 9.449219 54.699219 9.941406 54.691406 10.128906 54.328125 C 10.359375 53.886719 10.371094 53.460938 10.300781 52.980469 C 10.246094 52.652344 10.101562 52.253906 10.265625 51.9375 C 10.667969 51.160156 11.882812 51.480469 12.535156 51.632812 C 12.917969 51.726562 13.308594 51.449219 13.308594 51.042969 C 13.3125 50.203125 12.957031 49.40625 12.984375 48.566406 C 12.996094 48.316406 13.050781 48.003906 13.246094 47.832031 C 13.371094 47.71875 13.636719 47.621094 13.777344 47.746094 C 14.191406 48.128906 15.023438 47.761719 14.800781 47.152344 C 14.605469 46.636719 14.933594 46.113281 15.417969 45.886719 C 16.082031 45.5625 16.894531 45.761719 17.566406 45.964844 C 17.808594 46.035156 18 45.964844 18.136719 45.832031 C 18.308594 45.703125 18.410156 45.488281 18.316406 45.210938 C 17.667969 43.289062 16.292969 41.644531 14.929688 40.175781 Z M 9.042969 51.730469 C 9.035156 51.722656 9.023438 51.707031 9.019531 51.699219 C 9 51.679688 8.996094 51.660156 8.980469 51.644531 C 9.019531 51.636719 9.046875 51.628906 9.074219 51.613281 C 9.066406 51.65625 9.050781 51.691406 9.042969 51.730469 Z M 8.480469 43.128906 C 8.339844 43.105469 8.191406 43.128906 8.066406 43.195312 C 8.050781 42.832031 8.027344 42.472656 8.011719 42.113281 C 8.167969 42.449219 8.324219 42.792969 8.480469 43.128906 Z M 9.035156 38.625 C 9.035156 38.621094 9.027344 38.613281 9.023438 38.605469 C 9.042969 38.597656 9.050781 38.582031 9.066406 38.574219 C 9.050781 38.589844 9.046875 38.605469 9.035156 38.625 Z M 10.183594 49.160156 C 10.269531 49.175781 10.359375 49.171875 10.449219 49.144531 C 10.511719 49.222656 10.582031 49.308594 10.652344 49.394531 C 10.488281 49.410156 10.324219 49.429688 10.160156 49.449219 C 10.167969 49.355469 10.175781 49.253906 10.183594 49.160156 Z M 14.390625 43.371094 C 14.105469 43.125 13.816406 42.878906 13.535156 42.628906 C 13.519531 42.515625 13.464844 42.410156 13.371094 42.324219 C 13.285156 42.230469 13.144531 42.164062 13.003906 42.144531 C 12.988281 42.136719 12.984375 42.121094 12.972656 42.113281 C 13.011719 42.058594 13.050781 42 13.074219 41.933594 C 13.355469 42.269531 13.636719 42.597656 13.902344 42.9375 C 14.039062 43.097656 14.273438 43.136719 14.472656 43.089844 C 14.535156 43.152344 14.601562 43.214844 14.660156 43.269531 C 14.671875 43.289062 14.691406 43.300781 14.707031 43.316406 C 14.601562 43.332031 14.496094 43.347656 14.390625 43.371094 Z M 9.792969 38.308594 C 9.792969 38.332031 9.796875 38.363281 9.796875 38.390625 C 9.636719 38.308594 9.457031 38.300781 9.277344 38.390625 C 9.398438 38.25 9.433594 38.082031 9.410156 37.910156 C 9.539062 38.042969 9.660156 38.175781 9.792969 38.308594 Z M 8.605469 37.417969 C 8.582031 37.308594 8.574219 37.191406 8.566406 37.078125 C 8.667969 37.175781 8.765625 37.269531 8.863281 37.363281 C 8.785156 37.359375 8.695312 37.378906 8.605469 37.417969 Z M 7.058594 37.035156 C 7.105469 37.230469 7.148438 37.417969 7.195312 37.613281 C 7.082031 37.664062 6.984375 37.746094 6.910156 37.847656 C 6.960938 37.574219 7.007812 37.308594 7.058594 37.035156 Z M 6.632812 39.464844 C 6.632812 39.488281 6.632812 39.511719 6.632812 39.535156 C 6.628906 39.558594 6.613281 39.585938 6.609375 39.609375 C 6.613281 39.5625 6.621094 39.515625 6.632812 39.464844 Z M 12 50.183594 C 12.003906 50.222656 12.011719 50.253906 12.019531 50.292969 C 11.988281 50.285156 11.964844 50.285156 11.933594 50.277344 C 11.957031 50.25 11.980469 50.214844 12 50.183594 Z M 11.859375 47.894531 C 11.855469 47.894531 11.855469 47.886719 11.855469 47.886719 C 11.859375 47.886719 11.859375 47.886719 11.859375 47.886719 C 11.859375 47.886719 11.859375 47.886719 11.859375 47.894531 Z M 15.972656 44.507812 C 16.089844 44.425781 16.183594 44.308594 16.21875 44.175781 C 16.246094 44.035156 16.253906 43.902344 16.253906 43.777344 C 16.410156 44.019531 16.558594 44.273438 16.699219 44.53125 C 16.453125 44.503906 16.214844 44.496094 15.972656 44.507812 Z M 118.898438 35.601562 C 118.496094 32.933594 117.910156 30.300781 117.144531 27.714844 C 117.144531 27.707031 117.140625 27.703125 117.140625 27.699219 C 117.128906 27.660156 117.117188 27.632812 117.105469 27.605469 C 117.09375 27.585938 117.089844 27.566406 117.074219 27.558594 C 117.070312 27.542969 117.066406 27.535156 117.050781 27.519531 C 116.964844 27.398438 116.847656 27.328125 116.714844 27.300781 C 116.667969 27.28125 116.613281 27.269531 116.558594 27.261719 C 115.125 27.082031 113.667969 27.136719 112.230469 27.238281 C 110.261719 27.386719 108.304688 27.667969 106.359375 28.03125 C 101.933594 28.863281 97.558594 30.128906 93.449219 31.988281 C 91.285156 32.964844 89.203125 34.128906 87.324219 35.597656 C 87.066406 35.800781 87.113281 36.246094 87.324219 36.464844 C 87.582031 36.722656 87.933594 36.667969 88.191406 36.464844 C 91.503906 33.871094 95.558594 32.230469 99.539062 30.988281 C 103.472656 29.761719 107.550781 28.875 111.65625 28.511719 C 113.113281 28.382812 114.609375 28.300781 116.082031 28.441406 C 117.308594 32.742188 118.058594 37.175781 118.289062 41.652344 C 118.40625 43.910156 118.386719 46.175781 118.246094 48.433594 C 118.128906 50.308594 117.964844 52.144531 117.378906 53.933594 C 116.839844 55.582031 116.082031 57.457031 114.730469 58.617188 C 114.128906 59.128906 115.003906 59.996094 115.59375 59.484375 C 116.894531 58.371094 117.675781 56.652344 118.265625 55.089844 C 118.933594 53.34375 119.214844 51.585938 119.371094 49.730469 C 119.777344 45.023438 119.601562 40.269531 118.898438 35.601562 Z M 95.648438 34.691406 C 95.496094 34.660156 95.308594 34.664062 95.175781 34.757812 C 94.660156 35.121094 94.136719 35.488281 93.613281 35.855469 C 93.480469 35.949219 93.378906 36.058594 93.332031 36.222656 C 93.292969 36.371094 93.308594 36.5625 93.398438 36.691406 C 93.480469 36.820312 93.605469 36.9375 93.761719 36.972656 C 93.914062 37.007812 94.101562 37.007812 94.238281 36.914062 C 94.753906 36.542969 95.273438 36.183594 95.792969 35.8125 C 95.929688 35.71875 96.027344 35.605469 96.074219 35.449219 C 96.117188 35.300781 96.097656 35.105469 96.011719 34.972656 C 95.929688 34.847656 95.808594 34.730469 95.648438 34.691406 Z M 111.769531 33.714844 C 111.761719 33.722656 111.761719 33.722656 111.761719 33.722656 C 111.761719 33.722656 111.769531 33.722656 111.769531 33.722656 C 111.769531 33.722656 111.769531 33.722656 111.769531 33.714844 Z M 111.769531 33.714844 "/>
</g>
</svg>
