<?xml version="1.0" encoding="UTF-8"?>
<svg xmlns="http://www.w3.org/2000/svg" xmlns:xlink="http://www.w3.org/1999/xlink" width="120px" height="120px" viewBox="0 0 120 120" version="1.1">
<defs>
<clipPath id="clip1">
  <path d="M 15.773438 54.222656 L 104.152344 54.222656 L 104.152344 90.222656 L 15.773438 90.222656 Z M 15.773438 54.222656 "/>
</clipPath>
</defs>
<g id="surface1">
<g clip-path="url(#clip1)" clip-rule="nonzero">
<path style=" stroke:none;fill-rule:nonzero;fill:rgb(100%,29.803923%,29.803923%);fill-opacity:1;" d="M 103.097656 61.097656 C 102.515625 60.621094 101.886719 60.191406 101.285156 59.785156 C 101.121094 59.671875 100.957031 59.558594 100.792969 59.449219 L 100.832031 56.699219 C 100.832031 56.675781 100.832031 56.660156 100.828125 56.636719 C 100.761719 55.292969 100.214844 54.515625 99.199219 54.308594 C 99.09375 54.285156 98.980469 54.277344 98.871094 54.277344 C 98.097656 54.277344 97.433594 54.785156 96.910156 55.195312 C 96.824219 55.253906 96.75 55.316406 96.675781 55.371094 L 95.109375 56.53125 L 92.878906 55.769531 C 92.472656 55.628906 92.050781 55.550781 91.617188 55.546875 C 90.84375 55.546875 90.222656 55.828125 89.859375 56.332031 C 89.589844 56.699219 89.34375 57.375 89.707031 58.453125 L 90.574219 61.035156 L 90.300781 61.40625 C 90.191406 61.386719 90.082031 61.378906 89.972656 61.359375 C 89.972656 61.347656 89.957031 61.242188 89.957031 61.242188 C 89.957031 61.214844 89.957031 61.191406 89.953125 61.160156 C 89.777344 59.207031 88.335938 57.832031 86.363281 57.726562 C 86.300781 57.722656 86.246094 57.722656 86.183594 57.722656 C 84.328125 57.722656 83.058594 59.238281 82.761719 60.839844 C 81.988281 60.820312 81.105469 60.800781 80.179688 60.800781 C 75.878906 60.800781 62.894531 60.800781 61.722656 70.308594 C 61.105469 70.453125 60.488281 70.523438 59.859375 70.519531 L 59.714844 70.519531 C 59.085938 70.523438 58.464844 70.453125 57.847656 70.308594 C 56.675781 60.800781 43.660156 60.800781 39.347656 60.800781 C 38.625 60.800781 37.925781 60.816406 37.269531 60.824219 C 37.058594 59.011719 35.332031 57.816406 33.683594 57.726562 C 33.628906 57.722656 33.566406 57.722656 33.511719 57.722656 C 31.566406 57.722656 30.234375 59.433594 30.046875 61.152344 C 30.035156 61.207031 30.027344 61.253906 30.027344 61.308594 C 29.90625 61.316406 29.785156 61.335938 29.660156 61.355469 C 29.613281 61.292969 29.417969 61.035156 29.417969 61.035156 C 29.511719 60.769531 29.605469 60.488281 29.707031 60.1875 C 29.769531 59.996094 29.855469 59.789062 29.941406 59.574219 C 30.191406 58.925781 30.480469 58.195312 30.472656 57.511719 C 30.464844 56.269531 29.691406 55.496094 28.464844 55.496094 C 28.148438 55.496094 27.832031 55.542969 27.519531 55.636719 C 27.167969 55.734375 26.824219 55.855469 26.488281 55.980469 C 26.320312 56.039062 26.15625 56.097656 25.992188 56.15625 L 24.890625 56.53125 C 24.738281 56.414062 24.585938 56.296875 24.425781 56.179688 C 23.746094 55.664062 23.042969 55.128906 22.3125 54.65625 C 21.960938 54.402344 21.566406 54.277344 21.140625 54.261719 C 19.941406 54.261719 19.230469 55.496094 19.167969 56.652344 C 19.167969 56.660156 19.167969 56.730469 19.167969 56.738281 L 19.207031 59.449219 L 18.527344 59.933594 C 18.410156 60.019531 18.28125 60.097656 18.144531 60.191406 C 17.199219 60.84375 15.890625 61.738281 15.816406 62.882812 C 15.785156 63.433594 16.035156 63.957031 16.566406 64.425781 C 17.058594 64.855469 17.769531 65.042969 18.402344 65.207031 C 18.574219 65.253906 18.746094 65.296875 18.894531 65.347656 L 20.226562 65.753906 C 20.285156 65.964844 20.347656 66.210938 20.414062 66.472656 C 20.613281 67.269531 20.859375 68.246094 21.308594 68.988281 C 21.308594 69.046875 21.316406 69.097656 21.328125 69.160156 C 21.503906 69.890625 21.714844 70.613281 21.972656 71.316406 C 21.957031 71.316406 21.933594 71.316406 21.914062 71.316406 C 21.738281 71.308594 21.574219 71.34375 21.410156 71.414062 C 21.253906 71.484375 21.117188 71.589844 21.003906 71.71875 C 20.433594 72.386719 20.542969 73.683594 20.746094 74.980469 L 20.769531 75.152344 L 19.78125 76.082031 C 19.441406 76.40625 18.398438 77.378906 19.03125 78.464844 C 19.488281 79.246094 20.441406 79.363281 21.140625 79.457031 C 21.261719 79.472656 21.378906 79.488281 21.492188 79.503906 C 21.703125 79.542969 21.914062 79.574219 22.125 79.613281 L 22.128906 79.613281 L 22.628906 80.660156 C 22.96875 81.386719 23.390625 82.289062 24.566406 82.3125 C 25.5 82.3125 25.964844 81.355469 26.269531 80.722656 C 26.308594 80.644531 26.34375 80.558594 26.378906 80.488281 L 26.558594 80.136719 C 28.761719 83.308594 31.785156 87.050781 35.929688 89.113281 C 36.585938 89.449219 37.265625 89.695312 37.972656 89.863281 C 38.683594 90.035156 39.402344 90.121094 40.136719 90.121094 C 42.199219 90.121094 44.316406 89.460938 46.417969 88.152344 C 49.683594 86.144531 52.21875 83.082031 53.847656 80.949219 C 54.511719 80.082031 55.152344 79.160156 55.757812 78.207031 C 55.917969 77.957031 56.0625 77.707031 56.203125 77.449219 C 56.308594 77.261719 56.695312 76.941406 58.042969 76.941406 C 58.582031 76.941406 59.121094 76.992188 59.519531 77.027344 L 59.554688 77.035156 C 59.613281 77.042969 59.671875 77.050781 59.730469 77.050781 C 59.753906 77.050781 59.769531 77.050781 59.789062 77.050781 C 59.808594 77.050781 59.832031 77.050781 59.839844 77.050781 C 59.902344 77.050781 59.957031 77.042969 60.023438 77.035156 C 60.378906 77.003906 60.707031 76.992188 61.011719 76.992188 C 61.777344 76.980469 62.527344 77.085938 63.253906 77.308594 C 63.347656 77.34375 63.515625 77.667969 63.589844 77.816406 C 63.652344 77.929688 63.703125 78.035156 63.761719 78.128906 C 64.261719 78.917969 64.832031 79.753906 65.574219 80.742188 C 68.003906 84.019531 70.480469 86.4375 73.144531 88.152344 C 75.144531 89.441406 77.226562 90.097656 79.3125 90.097656 C 80.695312 90.09375 82.027344 89.816406 83.296875 89.273438 C 87.550781 87.480469 90.722656 83.488281 93.253906 79.785156 L 93.496094 80.261719 C 93.550781 80.363281 93.605469 80.472656 93.65625 80.589844 C 93.972656 81.234375 94.359375 82.042969 95.214844 82.277344 C 95.339844 82.3125 95.464844 82.332031 95.597656 82.332031 C 96.582031 82.332031 97.066406 81.304688 97.371094 80.660156 L 97.863281 79.613281 L 98.25 79.546875 C 98.390625 79.523438 98.53125 79.503906 98.671875 79.488281 C 99.421875 79.394531 100.265625 79.285156 100.851562 78.613281 C 101.417969 77.972656 101.214844 77.019531 100.339844 76.207031 L 99.230469 75.152344 C 99.238281 75.074219 99.253906 74.996094 99.269531 74.910156 C 99.441406 73.941406 99.675781 72.605469 99.066406 71.871094 C 98.925781 71.707031 98.761719 71.582031 98.558594 71.503906 C 98.367188 71.417969 98.160156 71.386719 97.949219 71.390625 C 97.816406 71.394531 97.6875 71.410156 97.558594 71.425781 C 97.78125 70.804688 97.964844 70.242188 98.109375 69.703125 C 98.707031 69.160156 98.929688 68.457031 99.140625 67.777344 C 99.253906 67.410156 99.773438 65.753906 99.773438 65.753906 L 102.375 64.957031 C 103.316406 64.664062 103.941406 64.066406 104.089844 63.316406 C 104.238281 62.542969 103.875 61.734375 103.097656 61.097656 Z M 100.496094 64.195312 C 100.089844 64.316406 98.972656 64.429688 98.730469 64.851562 C 98.339844 65.511719 98.207031 66.472656 97.972656 67.199219 C 97.898438 67.464844 97.816406 67.730469 97.730469 67.992188 C 97.128906 69.894531 96.070312 68.226562 95.746094 67.777344 C 95.253906 67.066406 94.757812 66.363281 94.265625 65.652344 C 93.722656 64.886719 88.339844 66.445312 89.980469 63.949219 C 90.589844 63.035156 92.207031 61.871094 91.816406 60.703125 C 91.527344 59.859375 91.246094 59.011719 90.960938 58.167969 C 90.304688 56.203125 92.144531 56.871094 93.144531 57.210938 C 93.753906 57.421875 94.597656 57.914062 95.253906 57.914062 C 95.835938 57.914062 96.730469 56.917969 97.167969 56.597656 C 97.875 56.066406 99.46875 54.867188 99.558594 56.699219 C 99.539062 57.492188 99.535156 58.277344 99.515625 59.0625 C 99.511719 59.652344 99.398438 60.023438 99.894531 60.378906 C 100.640625 60.910156 101.378906 61.429688 102.117188 61.957031 C 103.875 63.210938 101.277344 63.957031 100.496094 64.195312 Z M 98.019531 74.574219 C 97.980469 74.859375 97.746094 75.515625 98.011719 75.769531 C 98.441406 76.175781 98.882812 76.589844 99.324219 76.996094 C 100.714844 78.316406 97.335938 78.1875 96.984375 78.539062 C 96.472656 79.050781 95.835938 82.003906 94.851562 80.089844 C 94.621094 79.644531 94.417969 78.960938 94.058594 78.605469 C 93.796875 78.339844 93.042969 78.386719 92.714844 78.351562 C 92.097656 78.269531 90.796875 78.011719 91.652344 77.152344 C 92.074219 76.722656 92.496094 76.292969 92.917969 75.867188 C 93.417969 75.363281 91.847656 72.339844 93.347656 72.886719 C 93.871094 73.160156 95.105469 74.109375 95.671875 73.800781 C 96.234375 73.496094 96.800781 73.175781 97.363281 72.867188 C 98.535156 72.230469 98.082031 74.226562 98.019531 74.574219 Z M 63.183594 75.941406 C 62.132812 75.605469 60.871094 75.679688 59.785156 75.769531 C 58.816406 75.691406 57.769531 75.644531 56.8125 75.847656 C 55.691406 76.089844 55.417969 76.238281 54.890625 77.179688 C 54.605469 77.683594 54.261719 78.164062 53.933594 78.644531 C 52.195312 81.246094 50.132812 83.566406 47.753906 85.605469 C 44.859375 88.042969 41.253906 89.660156 37.496094 88.394531 C 33.210938 86.953125 29.90625 82.753906 27.433594 79.148438 C 28.167969 79.066406 28.949219 79.042969 29.484375 78.480469 C 30.011719 77.925781 29.460938 77.109375 29.042969 76.699219 C 28.714844 76.359375 28.382812 76.019531 28.050781 75.683594 C 27.964844 75.605469 27.890625 75.519531 27.808594 75.445312 C 27.816406 75.421875 27.820312 75.394531 27.824219 75.355469 C 27.886719 75.027344 27.980469 74.578125 28.042969 74.113281 C 28.121094 74.285156 28.207031 74.449219 28.289062 74.613281 C 29.511719 76.957031 31.144531 79.128906 32.871094 81.128906 C 34.476562 82.988281 36.371094 84.871094 38.683594 85.804688 C 40.757812 86.644531 42.878906 85.535156 44.550781 84.332031 C 48.878906 81.234375 58.246094 70.792969 50.324219 66.613281 C 49.675781 66.214844 48.867188 66.003906 48.136719 65.8125 C 45.613281 65.144531 42.960938 64.972656 40.363281 64.898438 C 36.140625 64.769531 28.898438 64.828125 27.449219 69.988281 C 27.28125 70.636719 27.246094 71.285156 27.347656 71.941406 C 27.003906 71.910156 26.683594 71.972656 26.371094 72.117188 C 26.367188 72.117188 26.363281 72.121094 26.347656 72.121094 C 26.324219 72.136719 26.300781 72.140625 26.273438 72.160156 C 25.957031 72.316406 25.640625 72.472656 25.316406 72.636719 C 25.101562 72.746094 24.886719 72.855469 24.667969 72.964844 C 24.632812 72.984375 24.605469 72.996094 24.582031 73.007812 C 24.328125 72.867188 24.082031 72.726562 23.832031 72.582031 C 23.824219 72.550781 23.8125 72.515625 23.800781 72.480469 C 23.402344 71.554688 23.058594 70.605469 22.78125 69.636719 C 22.902344 69.675781 23.039062 69.691406 23.175781 69.691406 C 24.421875 69.691406 25.636719 67.308594 26.300781 66.277344 L 26.324219 66.277344 C 26.519531 66.277344 26.71875 66.277344 26.910156 66.277344 C 27.425781 66.28125 27.9375 66.285156 28.453125 66.292969 C 29.175781 66.300781 30.238281 66.441406 30.785156 65.847656 C 31.691406 64.855469 30.902344 63.609375 30.074219 62.582031 C 30.300781 62.550781 30.519531 62.527344 30.738281 62.503906 C 31.207031 63.675781 32.277344 64.453125 33.660156 64.523438 C 35.167969 64.605469 36.328125 63.46875 36.703125 62.121094 C 43.339844 61.949219 56.050781 61.800781 56.628906 70.992188 C 56.628906 71.035156 56.644531 71.082031 56.652344 71.121094 C 56.671875 71.160156 56.691406 71.203125 56.71875 71.238281 C 56.742188 71.273438 56.777344 71.300781 56.8125 71.324219 C 56.847656 71.347656 56.886719 71.371094 56.929688 71.386719 C 57.863281 71.671875 58.808594 71.8125 59.777344 71.792969 L 59.792969 71.792969 C 60.761719 71.8125 61.710938 71.671875 62.636719 71.386719 C 62.675781 71.371094 62.71875 71.347656 62.761719 71.324219 C 62.792969 71.300781 62.824219 71.273438 62.855469 71.238281 C 62.882812 71.203125 62.902344 71.160156 62.917969 71.121094 C 62.929688 71.082031 62.941406 71.035156 62.941406 70.992188 C 63.535156 61.644531 76.652344 61.957031 83.238281 62.132812 C 83.566406 63.511719 84.9375 64.453125 86.339844 64.523438 C 87.683594 64.59375 88.753906 63.699219 89.230469 62.550781 C 89.472656 62.578125 89.707031 62.605469 89.949219 62.648438 C 89.0625 63.824219 87.957031 65.460938 89.894531 66.199219 C 90.582031 66.464844 91.605469 66.292969 92.316406 66.285156 C 92.769531 66.28125 93.222656 66.277344 93.675781 66.277344 L 93.703125 66.277344 C 93.769531 66.371094 93.839844 66.464844 93.902344 66.5625 C 94.394531 67.261719 95.558594 69.515625 96.773438 69.730469 C 96.472656 70.722656 96.117188 71.695312 95.699219 72.644531 C 95.671875 72.707031 95.660156 72.777344 95.671875 72.855469 C 95.582031 72.910156 95.496094 72.960938 95.414062 73.007812 C 95.25 72.925781 95.082031 72.84375 94.910156 72.753906 C 94.519531 72.558594 94.121094 72.355469 93.726562 72.160156 C 93.703125 72.144531 93.675781 72.136719 93.652344 72.128906 C 93.644531 72.121094 93.632812 72.117188 93.628906 72.117188 C 92.882812 71.8125 92.4375 71.902344 92.191406 72.191406 C 92.667969 69.269531 90.550781 66.867188 87.644531 65.785156 C 83.511719 64.253906 78.410156 64.714844 74.132812 65.292969 C 72.5625 65.507812 70.636719 65.761719 69.238281 66.613281 C 63.621094 69.582031 67.121094 75.699219 69.984375 79.316406 C 72.5625 82.589844 77.074219 87.746094 81.703125 85.441406 C 84.074219 84.261719 85.988281 82.042969 87.628906 80.019531 C 89.183594 78.105469 90.65625 76.019531 91.691406 73.777344 C 91.769531 73.605469 91.839844 73.441406 91.898438 73.277344 C 91.921875 73.910156 91.996094 74.53125 92.132812 75.144531 C 92.152344 75.238281 92.167969 75.347656 92.191406 75.441406 C 92.160156 75.46875 92.136719 75.496094 92.105469 75.527344 C 91.761719 75.878906 91.417969 76.222656 91.074219 76.570312 C 90.605469 77.042969 90.046875 77.707031 90.449219 78.398438 C 90.785156 78.972656 91.546875 79.035156 92.175781 79.101562 C 89.628906 82.816406 86.410156 86.742188 82.101562 88.382812 C 78.378906 89.800781 74.675781 87.949219 71.816406 85.605469 C 69.417969 83.644531 67.386719 81.191406 65.628906 78.644531 C 65.308594 78.164062 64.988281 77.683594 64.6875 77.183594 C 64.183594 76.339844 64.152344 76.261719 63.183594 75.941406 Z M 23.839844 80.25 C 23.589844 79.710938 23.332031 79.167969 23.074219 78.621094 C 22.910156 78.269531 19.378906 78.222656 20.550781 77.121094 C 21.378906 76.339844 22.191406 75.984375 22.011719 74.816406 C 21.980469 74.625 21.425781 72.210938 22.527344 72.816406 C 23.097656 73.125 23.660156 73.433594 24.230469 73.746094 C 24.910156 74.121094 26.027344 73.207031 26.648438 72.886719 C 28.105469 72.355469 26.695312 75.238281 27.019531 75.785156 C 27.28125 76.238281 27.824219 76.621094 28.195312 76.992188 C 28.324219 77.128906 28.453125 77.253906 28.582031 77.386719 C 29.390625 78.199219 27.738281 78.285156 27.550781 78.316406 C 27.121094 78.371094 26.402344 78.316406 26.019531 78.539062 C 25.652344 78.75 25.441406 79.519531 25.265625 79.871094 C 24.972656 80.433594 24.304688 81.234375 23.839844 80.25 Z M 18.183594 61.746094 C 18.878906 61.253906 19.570312 60.753906 20.269531 60.261719 C 20.707031 59.953125 20.480469 59.011719 20.472656 58.558594 C 20.460938 57.941406 20.457031 57.324219 20.441406 56.699219 C 20.574219 53.808594 24.058594 58.171875 24.871094 57.890625 C 25.683594 57.609375 26.488281 57.332031 27.300781 57.058594 C 27.605469 56.957031 27.902344 56.859375 28.207031 56.769531 C 29.464844 56.414062 29.175781 57.761719 28.945312 58.441406 C 28.664062 59.285156 28.378906 60.136719 28.089844 60.984375 C 27.914062 61.503906 28.617188 62.089844 28.898438 62.464844 C 29.203125 62.871094 31.136719 64.941406 29.882812 65.414062 C 29.074219 65.730469 27.753906 65.472656 26.910156 65.460938 C 26.449219 65.457031 25.96875 65.324219 25.667969 65.742188 C 25.125 66.519531 24.582031 67.292969 24.035156 68.074219 C 22.898438 69.691406 22.125 67.535156 21.867188 66.726562 C 21.726562 66.277344 21.585938 64.972656 21.121094 64.707031 C 20.53125 64.355469 19.660156 64.242188 19.003906 64.035156 C 18.675781 63.9375 18.332031 63.839844 18.003906 63.730469 C 16.082031 63.140625 17.707031 62.082031 18.183594 61.746094 Z M 36.011719 61.359375 C 36.011719 61.410156 36.011719 61.464844 36.011719 61.519531 C 35.957031 61.621094 35.949219 61.734375 35.976562 61.847656 C 35.777344 62.917969 34.734375 63.652344 33.660156 63.707031 C 32.332031 63.777344 31.371094 62.582031 31.308594 61.359375 C 31.472656 58.332031 35.847656 58.332031 36.011719 61.359375 Z M 27.796875 75.5625 C 27.796875 75.609375 27.792969 75.621094 27.796875 75.5625 Z M 31.5 77.113281 C 29.753906 74.894531 27.777344 71.4375 29.128906 68.980469 C 30.074219 67.246094 32.847656 66.46875 36.234375 66.183594 Z M 37.757812 66.089844 C 39.539062 66.011719 41.425781 66.042969 43.269531 66.121094 L 36.539062 82.242188 C 36.539062 82.242188 34.292969 80.25 32.484375 78.269531 Z M 83.988281 61.359375 C 83.917969 60.027344 85.113281 59.074219 86.339844 59.003906 C 87.667969 58.933594 88.621094 60.128906 88.6875 61.359375 C 88.523438 64.386719 84.152344 64.386719 83.988281 61.359375 Z M 75.914062 65.886719 C 76.546875 65.832031 77.183594 65.785156 77.824219 65.753906 C 78.703125 65.753906 79.457031 65.847656 79.988281 66.058594 L 73.734375 81.5625 C 72.613281 80.472656 71.582031 79.308594 70.640625 78.066406 Z M 69.707031 76.78125 C 68.792969 75.433594 67.949219 73.910156 67.476562 72.378906 C 66.597656 69.527344 69.214844 67.265625 71.488281 66.667969 C 72.351562 66.445312 73.339844 66.234375 74.347656 66.070312 Z M 69.707031 76.78125 "/>
</g>
<path style=" stroke:none;fill-rule:nonzero;fill:rgb(100%,29.803923%,29.803923%);fill-opacity:1;" d="M 114.339844 42.636719 C 114.175781 41.273438 114.023438 39.890625 113.746094 38.535156 C 113.625 37.925781 113.457031 37.324219 113.222656 36.746094 C 112.996094 36.191406 112.734375 35.460938 112.105469 35.277344 C 111.441406 35.082031 110.90625 35.605469 110.425781 35.980469 C 109.902344 36.386719 109.394531 36.796875 108.890625 37.21875 C 107.90625 38.042969 106.945312 38.90625 106.011719 39.796875 C 103.886719 41.839844 101.925781 44.042969 100.125 46.382812 C 99.925781 46.640625 100.082031 47.066406 100.347656 47.222656 C 100.613281 47.371094 100.875 47.296875 101.074219 47.113281 C 101.179688 47.222656 101.316406 47.285156 101.484375 47.273438 C 102.246094 47.230469 103.011719 47.253906 103.769531 47.339844 C 103.753906 47.824219 103.734375 48.304688 103.714844 48.785156 C 103.691406 49.269531 104.246094 49.523438 104.636719 49.3125 C 105.304688 48.960938 106.222656 49.449219 106.457031 50.136719 C 106.617188 50.621094 106.355469 51.160156 106.242188 51.621094 C 106.105469 52.214844 106.078125 52.824219 106.425781 53.355469 C 106.652344 53.707031 107.082031 53.742188 107.386719 53.480469 C 107.964844 52.988281 108.917969 53.203125 109.40625 53.71875 C 110.066406 54.410156 110.035156 55.480469 109.730469 56.320312 C 109.5 56.941406 110.332031 57.28125 110.746094 56.917969 C 114.824219 53.386719 114.925781 47.574219 114.339844 42.636719 Z M 110.285156 39.003906 C 110.300781 39.550781 110.320312 40.089844 110.332031 40.636719 C 110.308594 40.628906 110.285156 40.621094 110.261719 40.617188 C 110.269531 40.425781 110.203125 40.246094 110.035156 40.121094 C 109.992188 40.089844 109.945312 40.066406 109.898438 40.042969 C 109.839844 39.886719 109.769531 39.730469 109.691406 39.582031 C 109.894531 39.386719 110.089844 39.199219 110.285156 39.003906 Z M 109.136719 43.511719 C 108.980469 43.5 108.816406 43.550781 108.699219 43.664062 C 108.703125 43.636719 108.703125 43.605469 108.707031 43.582031 C 108.800781 43.550781 108.890625 43.503906 108.960938 43.425781 C 109.019531 43.359375 109.078125 43.285156 109.128906 43.214844 C 109.128906 43.3125 109.136719 43.410156 109.136719 43.511719 Z M 110.363281 42.714844 C 110.367188 42.914062 110.363281 43.121094 110.363281 43.316406 C 110.363281 43.316406 110.363281 43.316406 110.355469 43.316406 C 110.355469 43.238281 110.355469 43.148438 110.355469 43.066406 C 110.34375 42.652344 110.320312 42.230469 110.277344 41.8125 C 110.292969 41.8125 110.296875 41.808594 110.300781 41.808594 C 110.320312 41.800781 110.339844 41.792969 110.347656 41.789062 C 110.355469 42.097656 110.363281 42.402344 110.363281 42.714844 Z M 107.347656 45.9375 C 107.152344 45.046875 107.105469 44.144531 107.203125 43.253906 C 107.296875 43.476562 107.367188 43.707031 107.425781 43.941406 C 107.367188 44.601562 107.34375 45.269531 107.347656 45.9375 Z M 105.308594 44.464844 C 105.324219 44.457031 105.324219 44.457031 105.308594 44.464844 Z M 104.980469 44.550781 C 104.972656 44.550781 104.972656 44.550781 104.980469 44.550781 Z M 111.796875 45.128906 C 111.800781 45.855469 111.785156 46.59375 111.699219 47.316406 C 111.667969 46.894531 111.613281 46.464844 111.550781 46.042969 C 111.558594 46.007812 111.5625 45.972656 111.5625 45.9375 C 111.632812 45.074219 111.589844 44.191406 111.589844 43.324219 C 111.589844 43.242188 111.585938 43.152344 111.585938 43.074219 C 111.644531 43.269531 111.691406 43.476562 111.746094 43.675781 C 111.769531 44.160156 111.792969 44.644531 111.796875 45.128906 Z M 107.777344 41.769531 C 107.730469 41.707031 107.683594 41.636719 107.636719 41.574219 C 107.71875 41.488281 107.800781 41.414062 107.878906 41.339844 C 107.839844 41.480469 107.8125 41.625 107.777344 41.769531 Z M 105.9375 43.792969 C 105.84375 43.6875 105.746094 43.589844 105.632812 43.503906 C 105.75 43.394531 105.863281 43.285156 105.980469 43.171875 C 105.957031 43.378906 105.941406 43.582031 105.9375 43.792969 Z M 104.996094 46.660156 C 104.972656 46.558594 104.917969 46.472656 104.855469 46.386719 C 104.964844 46.417969 105.070312 46.449219 105.183594 46.480469 C 105.117188 46.542969 105.050781 46.59375 104.996094 46.660156 Z M 110.378906 52.96875 C 110.363281 52.945312 110.339844 52.917969 110.316406 52.894531 C 110.339844 52.875 110.363281 52.855469 110.378906 52.847656 C 110.378906 52.886719 110.386719 52.925781 110.378906 52.96875 Z M 108.796875 51.972656 C 108.820312 52.007812 108.84375 52.042969 108.871094 52.074219 C 108.808594 52.058594 108.746094 52.050781 108.679688 52.035156 C 108.722656 52.011719 108.753906 51.996094 108.796875 51.972656 Z M 111.070312 54.378906 C 111.160156 54.410156 111.253906 54.421875 111.347656 54.417969 C 111.277344 54.515625 111.207031 54.613281 111.128906 54.714844 C 111.117188 54.605469 111.09375 54.492188 111.070312 54.378906 Z M 111.761719 36.503906 C 111.75 36.496094 111.738281 36.480469 111.730469 36.449219 C 111.738281 36.46875 111.75 36.488281 111.761719 36.503906 C 111.769531 36.496094 111.777344 36.492188 111.785156 36.480469 C 111.863281 36.375 111.816406 36.539062 111.769531 36.511719 C 111.777344 36.527344 111.792969 36.539062 111.792969 36.558594 C 111.832031 36.699219 111.9375 36.839844 111.996094 36.964844 C 112.230469 37.488281 112.382812 38.042969 112.511719 38.601562 C 112.78125 39.800781 112.917969 41.042969 113.066406 42.261719 C 113.203125 43.347656 113.320312 44.4375 113.371094 45.539062 C 113.273438 44.882812 113.132812 44.238281 112.972656 43.59375 C 112.894531 42.097656 112.714844 40.605469 112.472656 39.140625 C 112.382812 38.613281 112.332031 38.035156 112.160156 37.527344 C 112.011719 37.066406 111.535156 36.957031 111.152344 37.125 C 111.113281 37.097656 111.070312 37.078125 111.023438 37.058594 C 111.074219 37.019531 111.128906 36.972656 111.183594 36.933594 C 111.339844 36.808594 111.628906 36.660156 111.761719 36.503906 Z M 20.832031 32.644531 C 16.777344 31.359375 12.558594 30.464844 8.320312 30.082031 C 6.667969 29.933594 4.980469 29.839844 3.332031 30.050781 C 3.28125 30.058594 3.230469 30.070312 3.183594 30.089844 C 3.042969 30.117188 2.917969 30.191406 2.832031 30.324219 C 2.832031 30.324219 2.824219 30.324219 2.824219 30.328125 C 2.8125 30.351562 2.792969 30.375 2.785156 30.398438 C 2.769531 30.421875 2.761719 30.445312 2.753906 30.472656 C 2.746094 30.488281 2.746094 30.492188 2.742188 30.503906 C 1.402344 35.082031 0.605469 39.820312 0.371094 44.582031 C 0.257812 46.941406 0.28125 49.300781 0.445312 51.65625 C 0.585938 53.566406 0.777344 55.429688 1.402344 57.253906 C 2.003906 59.019531 2.839844 61.019531 4.292969 62.269531 C 4.894531 62.777344 5.761719 61.917969 5.160156 61.402344 C 3.964844 60.378906 3.257812 58.785156 2.730469 57.339844 C 2.4375 56.558594 2.199219 55.757812 2.035156 54.941406 C 1.839844 54.003906 1.78125 53.039062 1.707031 52.082031 C 1.347656 47.535156 1.511719 42.9375 2.222656 38.433594 C 2.597656 35.996094 3.136719 33.589844 3.816406 31.222656 C 5.0625 31.113281 6.328125 31.160156 7.574219 31.246094 C 9.449219 31.382812 11.308594 31.644531 13.152344 31.992188 C 17.449219 32.792969 21.730469 33.996094 25.730469 35.785156 C 27.820312 36.726562 29.882812 37.832031 31.699219 39.246094 C 31.964844 39.449219 32.316406 39.503906 32.566406 39.246094 C 32.777344 39.035156 32.832031 38.589844 32.566406 38.386719 C 29.113281 35.691406 24.980469 33.957031 20.832031 32.644531 Z M 14.929688 42.964844 C 13.363281 41.296875 11.625 39.792969 9.816406 38.394531 C 9 37.769531 8.167969 37.167969 7.300781 36.609375 C 6.816406 36.292969 6.355469 36.777344 6.402344 37.222656 C 6.355469 37.289062 6.316406 37.371094 6.300781 37.464844 C 5.160156 42.871094 4.054688 48.738281 6.65625 53.910156 C 7.285156 55.160156 8.132812 56.300781 9.167969 57.234375 C 9.449219 57.488281 9.941406 57.480469 10.128906 57.113281 C 10.359375 56.671875 10.371094 56.246094 10.300781 55.769531 C 10.246094 55.441406 10.101562 55.035156 10.265625 54.726562 C 10.667969 53.949219 11.882812 54.269531 12.535156 54.421875 C 12.917969 54.511719 13.308594 54.238281 13.308594 53.832031 C 13.3125 52.992188 12.957031 52.191406 12.984375 51.355469 C 12.996094 51.105469 13.050781 50.792969 13.246094 50.621094 C 13.371094 50.507812 13.636719 50.410156 13.777344 50.53125 C 14.191406 50.910156 15.023438 50.550781 14.800781 49.933594 C 14.605469 49.417969 14.933594 48.902344 15.417969 48.675781 C 16.082031 48.351562 16.894531 48.550781 17.566406 48.75 C 17.808594 48.824219 18 48.753906 18.136719 48.621094 C 18.308594 48.492188 18.410156 48.277344 18.316406 48 C 17.667969 46.078125 16.292969 44.433594 14.929688 42.964844 Z M 9.042969 54.515625 C 9.035156 54.503906 9.023438 54.492188 9.011719 54.480469 C 9 54.464844 8.996094 54.449219 8.980469 54.433594 C 9.011719 54.421875 9.046875 54.417969 9.074219 54.402344 C 9.066406 54.441406 9.050781 54.480469 9.042969 54.515625 Z M 8.480469 45.917969 C 8.339844 45.894531 8.191406 45.917969 8.066406 45.980469 C 8.042969 45.621094 8.027344 45.257812 8.011719 44.902344 C 8.167969 45.238281 8.324219 45.574219 8.480469 45.917969 Z M 9.035156 41.410156 C 9.027344 41.402344 9.027344 41.394531 9.023438 41.390625 C 9.035156 41.378906 9.050781 41.371094 9.066406 41.363281 C 9.050781 41.378906 9.046875 41.390625 9.035156 41.410156 Z M 10.183594 51.949219 C 10.269531 51.964844 10.359375 51.960938 10.449219 51.925781 C 10.511719 52.011719 10.582031 52.097656 10.652344 52.175781 C 10.488281 52.195312 10.324219 52.214844 10.160156 52.230469 C 10.167969 52.136719 10.175781 52.042969 10.183594 51.949219 Z M 14.390625 46.160156 C 14.105469 45.914062 13.816406 45.667969 13.535156 45.417969 C 13.511719 45.304688 13.464844 45.199219 13.371094 45.105469 C 13.285156 45.019531 13.144531 44.953125 13.003906 44.929688 C 12.988281 44.925781 12.980469 44.910156 12.972656 44.902344 C 13.011719 44.847656 13.050781 44.785156 13.074219 44.722656 C 13.347656 45.058594 13.636719 45.386719 13.902344 45.722656 C 14.039062 45.886719 14.269531 45.925781 14.472656 45.878906 C 14.535156 45.9375 14.597656 46.003906 14.660156 46.058594 C 14.671875 46.074219 14.691406 46.089844 14.707031 46.105469 C 14.601562 46.121094 14.488281 46.136719 14.390625 46.160156 Z M 9.792969 41.089844 C 9.792969 41.121094 9.796875 41.152344 9.796875 41.175781 C 9.636719 41.097656 9.449219 41.089844 9.277344 41.179688 C 9.398438 41.039062 9.433594 40.863281 9.410156 40.699219 C 9.539062 40.828125 9.660156 40.964844 9.792969 41.089844 Z M 8.605469 40.199219 C 8.582031 40.089844 8.574219 39.980469 8.566406 39.867188 C 8.667969 39.960938 8.765625 40.054688 8.863281 40.152344 C 8.785156 40.148438 8.695312 40.167969 8.605469 40.199219 Z M 7.058594 39.824219 C 7.105469 40.011719 7.148438 40.207031 7.195312 40.402344 C 7.078125 40.453125 6.984375 40.535156 6.910156 40.628906 C 6.960938 40.363281 7.007812 40.097656 7.058594 39.824219 Z M 6.632812 42.253906 C 6.632812 42.277344 6.632812 42.300781 6.632812 42.324219 C 6.628906 42.347656 6.613281 42.371094 6.609375 42.398438 C 6.613281 42.347656 6.621094 42.300781 6.632812 42.253906 Z M 12 52.96875 C 12.003906 53.003906 12.011719 53.039062 12.019531 53.074219 C 11.988281 53.074219 11.964844 53.066406 11.933594 53.066406 C 11.957031 53.039062 11.980469 53.003906 12 52.96875 Z M 11.855469 50.675781 C 11.855469 50.675781 11.859375 50.675781 11.859375 50.675781 C 11.859375 50.675781 11.855469 50.675781 11.855469 50.675781 Z M 15.972656 47.296875 C 16.089844 47.214844 16.183594 47.097656 16.21875 46.957031 C 16.246094 46.824219 16.253906 46.691406 16.253906 46.566406 C 16.410156 46.808594 16.558594 47.0625 16.699219 47.320312 C 16.453125 47.292969 16.214844 47.277344 15.972656 47.296875 Z M 118.894531 38.390625 C 118.496094 35.722656 117.910156 33.089844 117.144531 30.503906 C 117.144531 30.492188 117.140625 30.492188 117.140625 30.480469 C 117.128906 30.449219 117.117188 30.417969 117.097656 30.386719 C 117.09375 30.375 117.082031 30.355469 117.074219 30.347656 C 117.066406 30.332031 117.058594 30.324219 117.050781 30.308594 C 116.964844 30.1875 116.839844 30.117188 116.714844 30.089844 C 116.660156 30.070312 116.605469 30.058594 116.554688 30.050781 C 115.125 29.871094 113.667969 29.925781 112.230469 30.027344 C 110.261719 30.175781 108.300781 30.457031 106.359375 30.820312 C 101.933594 31.644531 97.558594 32.917969 93.449219 34.769531 C 91.285156 35.746094 89.203125 36.917969 87.324219 38.386719 C 87.066406 38.582031 87.113281 39.035156 87.324219 39.246094 C 87.582031 39.503906 87.925781 39.449219 88.191406 39.246094 C 91.503906 36.660156 95.554688 35.019531 99.539062 33.773438 C 103.464844 32.550781 107.550781 31.664062 111.65625 31.300781 C 113.113281 31.171875 114.609375 31.089844 116.074219 31.222656 C 117.308594 35.53125 118.058594 39.964844 118.289062 44.4375 C 118.402344 46.699219 118.386719 48.964844 118.242188 51.222656 C 118.125 53.097656 117.964844 54.925781 117.375 56.71875 C 116.835938 58.371094 116.082031 60.246094 114.726562 61.402344 C 114.128906 61.917969 114.996094 62.777344 115.59375 62.269531 C 116.894531 61.152344 117.667969 59.4375 118.265625 57.878906 C 118.925781 56.128906 119.214844 54.375 119.371094 52.519531 C 119.777344 47.808594 119.601562 43.058594 118.894531 38.390625 Z M 95.648438 37.480469 C 95.496094 37.449219 95.308594 37.449219 95.175781 37.542969 C 94.652344 37.910156 94.136719 38.273438 93.613281 38.644531 C 93.480469 38.738281 93.375 38.847656 93.332031 39.003906 C 93.292969 39.152344 93.308594 39.351562 93.394531 39.480469 C 93.480469 39.609375 93.605469 39.726562 93.761719 39.761719 C 93.914062 39.796875 94.097656 39.792969 94.230469 39.699219 C 94.753906 39.332031 95.273438 38.964844 95.792969 38.601562 C 95.925781 38.507812 96.027344 38.394531 96.074219 38.230469 C 96.117188 38.085938 96.09375 37.894531 96.011719 37.761719 C 95.929688 37.636719 95.800781 37.519531 95.648438 37.480469 Z M 111.761719 36.503906 C 111.761719 36.511719 111.761719 36.511719 111.769531 36.511719 C 111.761719 36.511719 111.761719 36.503906 111.761719 36.503906 Z M 111.761719 36.503906 "/>
</g>
</svg>
