<?xml version="1.0" encoding="UTF-8"?>
<svg xmlns="http://www.w3.org/2000/svg" xmlns:xlink="http://www.w3.org/1999/xlink" width="120px" height="120px" viewBox="0 0 120 120" version="1.1">
<defs>
<clipPath id="clip1">
  <path d="M 16.332031 49.910156 L 103.664062 49.910156 L 103.664062 92.574219 L 16.332031 92.574219 Z M 16.332031 49.910156 "/>
</clipPath>
</defs>
<g id="surface1">
<g clip-path="url(#clip1)" clip-rule="nonzero">
<path style=" stroke:none;fill-rule:nonzero;fill:rgb(100%,54.901963%,0%);fill-opacity:1;" d="M 102.769531 69.332031 C 101.886719 68.402344 100.386719 67.949219 98.167969 67.949219 C 97.511719 67.949219 96.886719 67.992188 96.394531 68.035156 C 96.316406 67.691406 96.230469 67.359375 96.136719 67.03125 C 96.878906 67.246094 97.640625 67.359375 98.414062 67.378906 C 98.792969 67.382812 99.164062 67.339844 99.535156 67.253906 C 99.582031 67.242188 99.628906 67.222656 99.675781 67.207031 C 99.761719 67.195312 99.84375 67.167969 99.917969 67.125 C 99.996094 67.082031 100.066406 67.03125 100.125 66.964844 C 100.183594 66.910156 100.238281 66.839844 100.269531 66.753906 C 100.308594 66.679688 100.332031 66.597656 100.339844 66.511719 C 100.523438 65.253906 100.128906 63.917969 99.699219 62.824219 C 100.644531 62.34375 101.785156 61.613281 102.472656 60.609375 C 102.511719 60.558594 102.539062 60.503906 102.5625 60.449219 C 102.609375 60.378906 102.652344 60.304688 102.675781 60.222656 C 102.699219 60.140625 102.707031 60.058594 102.707031 59.972656 C 102.703125 59.886719 102.691406 59.808594 102.660156 59.722656 C 102.636719 59.644531 102.597656 59.566406 102.542969 59.496094 C 101.902344 58.566406 100.855469 57.867188 99.972656 57.402344 C 100.386719 56.4375 100.722656 55.417969 100.652344 54.425781 C 100.644531 54.339844 100.628906 54.257812 100.597656 54.183594 C 100.59375 54.09375 100.570312 54.011719 100.542969 53.933594 C 100.503906 53.859375 100.457031 53.785156 100.40625 53.71875 C 100.355469 53.652344 100.289062 53.597656 100.21875 53.550781 C 100.148438 53.503906 100.074219 53.464844 99.988281 53.441406 C 99.457031 53.277344 98.910156 53.203125 98.355469 53.207031 C 97.386719 53.226562 96.441406 53.378906 95.511719 53.652344 C 94.992188 52.429688 94.144531 50.902344 92.941406 50.066406 C 92.792969 49.964844 92.628906 49.910156 92.449219 49.910156 C 92.277344 49.910156 92.128906 49.957031 91.988281 50.058594 C 91.925781 50.082031 91.875 50.109375 91.824219 50.144531 C 90.683594 50.925781 89.886719 52.285156 89.386719 53.417969 C 88.433594 53.085938 87.46875 52.910156 86.464844 52.878906 C 86.082031 52.878906 85.699219 52.921875 85.324219 53.011719 C 85.246094 53.027344 85.171875 53.058594 85.101562 53.089844 C 85.03125 53.132812 84.964844 53.179688 84.910156 53.238281 C 84.855469 53.292969 84.808594 53.355469 84.769531 53.425781 C 84.730469 53.496094 84.703125 53.574219 84.683594 53.652344 C 84.65625 53.71875 84.636719 53.789062 84.628906 53.859375 C 84.457031 55.066406 84.824219 56.367188 85.238281 57.441406 C 85.144531 57.488281 85.050781 57.539062 84.957031 57.585938 C 84.914062 57.582031 84.867188 57.574219 84.820312 57.566406 C 84.09375 57.527344 83.308594 57.511719 82.339844 57.511719 C 81.769531 57.511719 81.1875 57.515625 80.605469 57.519531 C 80.039062 57.527344 79.464844 57.535156 78.894531 57.535156 L 78.566406 57.535156 C 76.550781 57.535156 74.460938 57.535156 72.332031 58.300781 C 69.515625 59.308594 67.066406 61.464844 65.449219 64.378906 C 64.148438 66.714844 63.84375 69.1875 63.777344 71.378906 C 62.566406 71.050781 61.335938 70.875 60.082031 70.847656 C 60.058594 70.847656 60.035156 70.847656 60 70.847656 C 59.976562 70.847656 59.910156 70.847656 59.90625 70.847656 C 58.660156 70.875 57.425781 71.058594 56.226562 71.378906 C 56.128906 68.671875 55.675781 66.65625 54.746094 64.730469 C 54.398438 64.027344 53.988281 63.355469 53.519531 62.722656 C 53.050781 62.089844 52.535156 61.503906 51.960938 60.972656 C 51.386719 60.433594 50.765625 59.953125 50.105469 59.527344 C 49.449219 59.097656 48.75 58.738281 48.023438 58.441406 C 45.738281 57.535156 43.410156 57.535156 41.363281 57.535156 C 40.757812 57.535156 40.152344 57.527344 39.542969 57.519531 C 38.933594 57.515625 38.324219 57.511719 37.714844 57.511719 C 36.824219 57.511719 36.09375 57.519531 35.402344 57.550781 C 35.394531 57.550781 35.390625 57.550781 35.386719 57.558594 C 35.316406 57.515625 35.238281 57.480469 35.160156 57.441406 C 35.574219 56.363281 35.949219 55.058594 35.769531 53.847656 C 35.761719 53.789062 35.742188 53.722656 35.722656 53.671875 C 35.707031 53.589844 35.683594 53.511719 35.644531 53.4375 C 35.605469 53.367188 35.558594 53.300781 35.503906 53.246094 C 35.441406 53.183594 35.378906 53.132812 35.308594 53.089844 C 35.230469 53.058594 35.15625 53.027344 35.082031 53.011719 C 34.707031 52.921875 34.324219 52.878906 33.9375 52.878906 C 32.933594 52.910156 31.964844 53.085938 31.019531 53.417969 C 30.566406 52.410156 29.761719 50.957031 28.59375 50.15625 C 28.535156 50.109375 28.476562 50.082031 28.410156 50.050781 C 28.277344 49.957031 28.125 49.910156 27.957031 49.910156 C 27.777344 49.910156 27.613281 49.964844 27.46875 50.0625 C 26.261719 50.902344 25.410156 52.425781 24.890625 53.648438 C 23.964844 53.378906 23.015625 53.226562 22.050781 53.207031 C 21.492188 53.203125 20.949219 53.277344 20.414062 53.441406 C 20.332031 53.464844 20.253906 53.503906 20.183594 53.554688 C 20.113281 53.601562 20.050781 53.652344 19.996094 53.71875 C 19.945312 53.785156 19.898438 53.859375 19.871094 53.933594 C 19.832031 54.011719 19.808594 54.09375 19.804688 54.175781 C 19.777344 54.257812 19.757812 54.347656 19.746094 54.433594 C 19.675781 55.429688 20.011719 56.441406 20.433594 57.402344 C 19.546875 57.867188 18.503906 58.566406 17.855469 59.503906 C 17.800781 59.574219 17.765625 59.644531 17.738281 59.722656 C 17.714844 59.808594 17.695312 59.886719 17.695312 59.976562 C 17.695312 60.058594 17.707031 60.144531 17.730469 60.230469 C 17.761719 60.308594 17.792969 60.386719 17.839844 60.457031 C 17.871094 60.511719 17.902344 60.5625 17.929688 60.609375 C 18.613281 61.605469 19.753906 62.34375 20.707031 62.824219 C 20.273438 63.925781 19.878906 65.261719 20.0625 66.511719 C 20.074219 66.597656 20.097656 66.679688 20.132812 66.753906 C 20.167969 66.839844 20.222656 66.910156 20.277344 66.972656 C 20.339844 67.03125 20.410156 67.082031 20.484375 67.125 C 20.558594 67.167969 20.644531 67.195312 20.730469 67.207031 C 20.777344 67.222656 20.824219 67.242188 20.871094 67.253906 C 21.238281 67.339844 21.609375 67.382812 21.988281 67.378906 C 22.617188 67.371094 23.238281 67.289062 23.847656 67.136719 C 23.761719 67.433594 23.683594 67.730469 23.621094 68.027344 C 23.074219 67.980469 22.433594 67.933594 21.792969 67.933594 C 18.398438 67.933594 16.59375 69.234375 16.429688 71.789062 C 16.363281 72.820312 16.636719 73.667969 17.230469 74.300781 C 18.097656 75.230469 19.613281 75.675781 21.863281 75.675781 C 22.359375 75.675781 22.832031 75.65625 23.269531 75.628906 C 23.261719 79.363281 23.296875 82.898438 25.335938 86.316406 C 27.675781 90.246094 31.875 92.507812 36.84375 92.507812 C 37.582031 92.507812 38.34375 92.527344 39.113281 92.550781 C 39.894531 92.566406 40.707031 92.589844 41.507812 92.589844 C 43.285156 92.589844 45.589844 92.496094 47.699219 91.730469 C 52.386719 90.042969 55.761719 85.308594 56.199219 79.878906 C 57.445312 79.605469 58.707031 79.453125 59.980469 79.410156 C 61.269531 79.449219 62.542969 79.605469 63.800781 79.878906 C 64.222656 85.199219 67.394531 89.769531 71.949219 91.59375 C 74.15625 92.472656 76.519531 92.589844 78.539062 92.589844 C 79.335938 92.589844 80.136719 92.566406 80.910156 92.550781 C 81.675781 92.527344 82.425781 92.507812 83.160156 92.507812 C 87.960938 92.507812 91.871094 90.480469 94.457031 86.648438 C 96.753906 83.253906 96.75 79.382812 96.738281 75.628906 C 97.21875 75.660156 97.714844 75.683594 98.214844 75.683594 L 98.222656 75.683594 C 99.492188 75.683594 103.332031 75.679688 103.574219 71.847656 C 103.640625 70.824219 103.363281 69.972656 102.769531 69.332031 Z M 95.839844 74.246094 C 95.785156 74.246094 95.730469 74.253906 95.675781 74.277344 C 95.625 74.296875 95.582031 74.324219 95.542969 74.367188 C 95.503906 74.410156 95.472656 74.457031 95.449219 74.507812 C 95.433594 74.554688 95.417969 74.613281 95.417969 74.667969 C 95.417969 78.246094 95.621094 81.714844 93.910156 85.007812 C 91.777344 89.109375 87.660156 91.191406 83.160156 91.191406 C 80.214844 91.191406 76.988281 91.542969 74.085938 90.902344 C 68.695312 89.714844 65.253906 84.480469 65.082031 79.183594 C 65.082031 79.136719 65.074219 79.089844 65.058594 79.050781 C 65.042969 79.003906 65.019531 78.964844 64.992188 78.925781 C 64.96875 78.890625 64.933594 78.863281 64.894531 78.832031 C 64.855469 78.808594 64.816406 78.785156 64.769531 78.773438 C 63.261719 78.371094 61.734375 78.144531 60.175781 78.105469 C 60.136719 78.09375 60.09375 78.089844 60.050781 78.09375 C 60.035156 78.09375 60.019531 78.09375 60 78.09375 C 59.988281 78.09375 59.972656 78.09375 59.953125 78.09375 C 59.910156 78.089844 59.871094 78.09375 59.832031 78.105469 C 58.269531 78.144531 56.738281 78.371094 55.230469 78.773438 C 55.191406 78.785156 55.148438 78.808594 55.105469 78.832031 C 55.074219 78.863281 55.035156 78.890625 55.007812 78.925781 C 54.984375 78.964844 54.960938 79.003906 54.941406 79.050781 C 54.933594 79.089844 54.925781 79.136719 54.925781 79.183594 C 54.75 84.488281 51.46875 89.308594 46.277344 90.808594 C 43.359375 91.652344 39.839844 91.191406 36.84375 91.191406 C 32.378906 91.191406 28.59375 89.214844 26.277344 85.332031 C 24.324219 82.042969 24.585938 78.328125 24.585938 74.667969 C 24.585938 74.613281 24.574219 74.554688 24.558594 74.507812 C 24.535156 74.457031 24.503906 74.410156 24.464844 74.367188 C 24.421875 74.324219 24.375 74.296875 24.328125 74.277344 C 24.277344 74.253906 24.222656 74.246094 24.164062 74.246094 C 21.917969 74.414062 17.941406 74.917969 17.746094 71.816406 C 17.550781 68.691406 22.332031 69.210938 24.332031 69.417969 C 24.378906 69.421875 24.421875 69.410156 24.46875 69.398438 C 24.511719 69.378906 24.550781 69.363281 24.589844 69.332031 C 24.628906 69.304688 24.65625 69.277344 24.683594 69.234375 C 24.707031 69.191406 24.726562 69.152344 24.738281 69.113281 C 24.878906 68.332031 25.074219 67.574219 25.324219 66.832031 C 25.828125 67.957031 26.597656 69.183594 27.582031 69.863281 C 27.644531 69.910156 27.722656 69.9375 27.800781 69.9375 C 27.613281 71.527344 27.714844 73.152344 27.714844 74.742188 C 27.714844 76.519531 27.597656 78.347656 27.792969 80.109375 C 27.832031 80.449219 27.890625 80.785156 27.964844 81.113281 C 28.050781 81.445312 28.144531 81.769531 28.261719 82.089844 C 28.378906 82.40625 28.503906 82.722656 28.660156 83.019531 C 28.808594 83.324219 28.972656 83.625 29.160156 83.90625 C 29.34375 84.191406 29.542969 84.46875 29.761719 84.730469 C 29.976562 84.988281 30.207031 85.242188 30.449219 85.476562 C 30.699219 85.714844 30.949219 85.941406 31.21875 86.144531 C 31.488281 86.347656 31.769531 86.542969 32.0625 86.71875 C 33.792969 87.785156 35.714844 87.808594 37.664062 87.808594 C 42.003906 87.808594 46.558594 88.464844 49.710938 84.800781 C 52.574219 81.472656 51.800781 76.496094 51.800781 72.433594 C 51.800781 70.472656 51.65625 68.652344 50.769531 66.84375 C 50.625 66.550781 50.460938 66.261719 50.277344 65.996094 C 50.097656 65.71875 49.898438 65.457031 49.6875 65.203125 C 49.476562 64.949219 49.246094 64.710938 49.007812 64.488281 C 48.769531 64.265625 48.515625 64.054688 48.253906 63.855469 C 47.988281 63.660156 47.714844 63.480469 47.425781 63.324219 C 47.136719 63.160156 46.847656 63.011719 46.542969 62.882812 C 46.242188 62.753906 45.933594 62.644531 45.613281 62.550781 C 45.300781 62.457031 44.976562 62.386719 44.652344 62.324219 C 43.078125 62.058594 41.347656 62.230469 39.753906 62.230469 C 38.378906 62.230469 36.964844 62.15625 35.582031 62.253906 C 36.371094 61.828125 37.03125 61.261719 37.570312 60.550781 C 37.59375 60.511719 37.617188 60.46875 37.636719 60.421875 C 37.660156 60.394531 37.683594 60.355469 37.699219 60.324219 C 37.714844 60.28125 37.722656 60.238281 37.722656 60.199219 C 37.730469 60.160156 37.722656 60.117188 37.707031 60.074219 C 37.691406 60.042969 37.675781 60 37.644531 59.972656 C 37.335938 59.535156 36.964844 59.160156 36.539062 58.839844 C 37.792969 58.824219 39.050781 58.851562 40.308594 58.851562 C 42.167969 58.851562 44.066406 58.734375 45.902344 59.132812 C 49.03125 59.816406 51.621094 62.003906 53.238281 64.710938 C 54.699219 67.160156 54.933594 69.84375 54.933594 72.621094 C 54.933594 72.65625 54.933594 72.683594 54.9375 72.714844 C 54.949219 72.75 54.960938 72.777344 54.972656 72.808594 C 54.988281 72.839844 55.007812 72.867188 55.027344 72.890625 C 55.050781 72.914062 55.074219 72.9375 55.097656 72.957031 C 55.125 72.980469 55.148438 72.988281 55.175781 73.007812 C 55.207031 73.019531 55.242188 73.03125 55.269531 73.035156 C 55.308594 73.042969 55.335938 73.042969 55.371094 73.042969 C 55.402344 73.042969 55.433594 73.035156 55.464844 73.027344 C 56.902344 72.472656 58.382812 72.1875 59.925781 72.164062 C 59.953125 72.164062 59.976562 72.160156 60 72.152344 C 60.027344 72.160156 60.050781 72.164062 60.082031 72.164062 C 61.621094 72.1875 63.105469 72.472656 64.542969 73.027344 C 64.804688 73.136719 65.074219 72.867188 65.074219 72.621094 C 65.074219 69.9375 65.324219 67.457031 66.589844 65.035156 C 66.773438 64.6875 66.972656 64.347656 67.195312 64.019531 C 67.410156 63.683594 67.644531 63.371094 67.898438 63.066406 C 68.152344 62.761719 68.414062 62.464844 68.695312 62.191406 C 68.976562 61.910156 69.269531 61.644531 69.574219 61.402344 C 69.886719 61.148438 70.199219 60.914062 70.527344 60.699219 C 70.863281 60.480469 71.203125 60.28125 71.554688 60.097656 C 71.902344 59.917969 72.261719 59.753906 72.628906 59.605469 C 72.996094 59.460938 73.371094 59.332031 73.753906 59.222656 C 75.574219 58.699219 77.550781 58.851562 79.425781 58.851562 C 80.902344 58.851562 82.378906 58.804688 83.855469 58.847656 C 83.433594 59.160156 83.0625 59.535156 82.753906 59.972656 C 82.730469 60 82.710938 60.042969 82.691406 60.074219 C 82.683594 60.117188 82.675781 60.160156 82.683594 60.199219 C 82.683594 60.238281 82.6875 60.28125 82.707031 60.316406 C 82.722656 60.355469 82.738281 60.394531 82.769531 60.421875 C 82.78125 60.46875 82.804688 60.511719 82.832031 60.550781 C 83.324219 61.253906 84.09375 61.847656 84.902344 62.308594 C 83.367188 62.121094 81.777344 62.230469 80.25 62.230469 C 78.515625 62.230469 76.707031 62.089844 74.988281 62.390625 C 72.222656 62.871094 70.007812 65.015625 68.925781 67.519531 C 68.132812 69.324219 68.203125 71.222656 68.203125 73.136719 C 68.203125 77.535156 67.574219 82.21875 71.035156 85.589844 C 74.136719 88.617188 79.03125 87.808594 82.972656 87.808594 C 85.003906 87.808594 86.824219 87.496094 88.546875 86.332031 C 90.863281 84.761719 92.109375 82.066406 92.285156 79.332031 C 92.394531 77.628906 92.292969 75.890625 92.292969 74.183594 C 92.292969 72.699219 92.367188 71.191406 92.160156 69.722656 C 92.191406 69.746094 92.222656 69.761719 92.246094 69.777344 C 92.285156 69.808594 92.324219 69.832031 92.371094 69.84375 C 92.402344 69.871094 92.4375 69.894531 92.480469 69.910156 C 92.511719 69.925781 92.554688 69.9375 92.597656 69.9375 C 92.636719 69.9375 92.675781 69.933594 92.71875 69.917969 C 92.753906 69.910156 92.789062 69.886719 92.824219 69.863281 C 93.660156 69.28125 94.355469 68.300781 94.847656 67.324219 C 95.019531 67.910156 95.160156 68.507812 95.269531 69.113281 C 95.277344 69.152344 95.296875 69.191406 95.320312 69.234375 C 95.347656 69.277344 95.378906 69.304688 95.414062 69.332031 C 95.449219 69.363281 95.488281 69.378906 95.535156 69.398438 C 95.578125 69.410156 95.625 69.421875 95.671875 69.417969 C 97.933594 69.183594 102.058594 68.699219 102.257812 71.816406 C 102.457031 74.929688 97.824219 74.394531 95.839844 74.246094 Z M 25.125 57.316406 C 24.175781 56.832031 23.121094 56.777344 21.863281 57.269531 C 21.847656 57.277344 21.832031 57.28125 21.820312 57.285156 C 21.441406 56.480469 21.046875 55.519531 21.058594 54.632812 C 22.265625 54.351562 23.769531 54.667969 24.925781 55.035156 C 24.839844 55.417969 24.808594 55.804688 24.84375 56.191406 C 24.878906 56.582031 24.972656 56.957031 25.125 57.316406 Z M 31.03125 54.796875 C 32.074219 54.433594 33.386719 54.066406 34.480469 54.234375 C 34.488281 54.277344 34.496094 54.324219 34.496094 54.332031 C 34.488281 54.597656 34.472656 54.855469 34.425781 55.113281 C 34.292969 55.886719 34.082031 56.636719 33.785156 57.363281 C 32.621094 56.957031 31.628906 57.042969 30.722656 57.519531 C 30.839844 57.316406 30.933594 57.097656 31.003906 56.878906 C 31.074219 56.652344 31.125 56.425781 31.148438 56.191406 C 31.175781 55.957031 31.175781 55.722656 31.160156 55.488281 C 31.136719 55.253906 31.097656 55.027344 31.03125 54.796875 Z M 21.449219 58.394531 C 23.367188 57.363281 24.796875 57.679688 26.207031 59.300781 C 26.121094 59.507812 26.066406 59.71875 26.042969 59.941406 L 26.042969 59.949219 C 26.042969 59.957031 26.039062 59.972656 26.039062 59.980469 C 26.035156 60.003906 26.035156 60.035156 26.035156 60.058594 C 26.039062 60.105469 26.039062 60.144531 26.042969 60.1875 C 26.066406 60.433594 26.132812 60.667969 26.238281 60.894531 C 24.796875 62.511719 23.441406 62.699219 21.515625 61.730469 C 20.699219 61.324219 19.6875 60.769531 19.113281 60.011719 C 19.707031 59.296875 20.671875 58.816406 21.449219 58.394531 Z M 26.878906 60.058594 C 26.957031 58.589844 29.085938 58.589844 29.167969 60.058594 C 29.246094 61.535156 26.957031 61.527344 26.878906 60.058594 Z M 28.027344 62.050781 C 28.277344 62.0625 28.523438 62.019531 28.757812 61.925781 C 30.316406 63.339844 30.488281 64.675781 29.535156 66.582031 C 29.132812 67.402344 28.574219 68.417969 27.820312 68.988281 C 27.105469 68.394531 26.621094 67.433594 26.203125 66.660156 C 25.171875 64.761719 25.410156 63.152344 26.953125 61.710938 C 27.28125 61.921875 27.636719 62.035156 28.027344 62.050781 Z M 29.121094 74.769531 L 29.121094 71.738281 C 29.105469 71.0625 29.160156 70.394531 29.285156 69.730469 C 29.414062 69.070312 29.605469 68.425781 29.871094 67.804688 C 30.042969 67.511719 30.191406 67.21875 30.332031 66.925781 C 30.503906 66.644531 30.699219 66.375 30.910156 66.117188 C 32.261719 66.519531 33.972656 66.796875 35.273438 66.375 C 35.339844 66.355469 35.390625 66.324219 35.4375 66.277344 C 35.527344 66.253906 35.597656 66.207031 35.648438 66.136719 C 35.699219 66.066406 35.730469 65.988281 35.738281 65.902344 C 35.753906 65.132812 35.613281 64.394531 35.308594 63.691406 C 36.550781 63.542969 37.839844 63.621094 39.089844 63.636719 C 35.765625 67.347656 32.441406 71.0625 29.121094 74.769531 Z M 30.9375 65.246094 C 31.019531 64.863281 31.03125 64.476562 30.984375 64.089844 C 30.9375 63.707031 30.832031 63.339844 30.660156 62.988281 C 31.621094 63.488281 32.683594 63.539062 33.949219 63.042969 C 33.996094 63.023438 34.042969 63.003906 34.097656 62.988281 C 34.457031 63.773438 34.871094 64.722656 34.894531 65.605469 C 33.679688 65.933594 32.136719 65.625 30.9375 65.246094 Z M 29.082031 77.039062 C 29.109375 77.015625 29.132812 76.988281 29.15625 76.957031 C 30.023438 75.984375 30.894531 75.011719 31.761719 74.039062 C 34.550781 70.925781 37.335938 67.816406 40.121094 64.707031 C 40.378906 64.410156 40.640625 64.125 40.898438 63.832031 C 40.949219 63.769531 41.011719 63.707031 41.0625 63.652344 C 41.0625 63.667969 41.128906 63.636719 41.238281 63.636719 L 43.394531 63.636719 C 44.082031 63.644531 44.746094 63.75 45.398438 63.957031 C 46.054688 64.160156 46.660156 64.457031 47.222656 64.851562 C 42.566406 70.054688 37.917969 75.253906 33.261719 80.449219 C 32.363281 81.457031 31.464844 82.464844 30.5625 83.472656 C 30.324219 83.121094 30.113281 82.757812 29.925781 82.371094 C 29.742188 81.988281 29.589844 81.589844 29.464844 81.1875 C 29.34375 80.777344 29.253906 80.363281 29.199219 79.945312 C 29.136719 79.523438 29.113281 79.097656 29.121094 78.675781 L 29.121094 77.203125 C 29.121094 77.058594 29.179688 76.925781 29.082031 77.039062 Z M 34.363281 61.921875 C 32.484375 62.933594 31.078125 62.648438 29.691406 61.101562 C 29.882812 60.785156 29.988281 60.433594 30.011719 60.058594 C 30.027344 59.789062 29.976562 59.527344 29.863281 59.277344 L 29.863281 59.273438 C 31.261719 57.792969 32.582031 57.644531 34.453125 58.582031 C 35.230469 58.972656 36.199219 59.503906 36.773438 60.210938 C 36.199219 60.980469 35.179688 61.480469 34.363281 61.921875 Z M 28.96875 58.339844 C 28.675781 58.175781 28.359375 58.089844 28.027344 58.074219 C 27.832031 58.058594 27.644531 58.082031 27.464844 58.128906 C 27.28125 58.183594 27.113281 58.265625 26.953125 58.371094 C 25.425781 56.929688 25.410156 55.542969 26.355469 53.660156 C 26.746094 52.875 27.269531 51.910156 27.972656 51.328125 C 28.738281 51.902344 29.25 52.921875 29.695312 53.730469 C 30.691406 55.574219 30.441406 56.972656 28.96875 58.339844 Z M 21.398438 65.324219 C 21.527344 64.496094 21.753906 63.691406 22.082031 62.917969 C 23.203125 63.328125 24.164062 63.300781 25.03125 62.902344 C 24.863281 63.308594 24.753906 63.730469 24.726562 64.175781 C 24.691406 64.617188 24.730469 65.058594 24.84375 65.484375 C 23.785156 65.835938 22.449219 66.222656 21.339844 66.003906 C 21.347656 65.777344 21.363281 65.550781 21.398438 65.324219 Z M 89.683594 57.519531 C 88.78125 57.042969 87.792969 56.957031 86.621094 57.363281 C 86.332031 56.628906 86.113281 55.886719 85.980469 55.113281 C 85.933594 54.855469 85.917969 54.597656 85.910156 54.332031 C 85.910156 54.324219 85.917969 54.277344 85.917969 54.234375 C 87.019531 54.066406 88.324219 54.433594 89.371094 54.796875 C 89.308594 55.027344 89.269531 55.253906 89.246094 55.488281 C 89.226562 55.722656 89.230469 55.957031 89.253906 56.191406 C 89.285156 56.425781 89.332031 56.652344 89.402344 56.878906 C 89.480469 57.097656 89.574219 57.316406 89.683594 57.519531 Z M 95.480469 55.035156 C 96.632812 54.667969 98.136719 54.351562 99.347656 54.632812 C 99.351562 55.519531 98.957031 56.480469 98.582031 57.285156 C 98.574219 57.28125 98.554688 57.277344 98.535156 57.269531 C 97.277344 56.777344 96.222656 56.832031 95.273438 57.324219 C 95.425781 56.957031 95.527344 56.582031 95.558594 56.199219 C 95.597656 55.804688 95.566406 55.417969 95.480469 55.035156 Z M 98.953125 58.394531 C 99.730469 58.78125 100.707031 59.300781 101.285156 60.011719 C 100.710938 60.777344 99.703125 61.289062 98.886719 61.730469 C 96.996094 62.761719 95.574219 62.472656 94.160156 60.890625 C 94.265625 60.667969 94.332031 60.433594 94.359375 60.1875 C 94.363281 60.144531 94.363281 60.105469 94.371094 60.058594 C 94.363281 60.019531 94.363281 59.976562 94.359375 59.933594 C 94.339844 59.714844 94.285156 59.503906 94.199219 59.296875 C 95.648438 57.632812 97.003906 57.425781 98.953125 58.394531 Z M 91.238281 60.058594 C 91.160156 58.582031 93.445312 58.59375 93.527344 60.058594 C 93.445312 61.535156 91.316406 61.535156 91.238281 60.058594 Z M 91.683594 61.894531 C 91.902344 61.988281 92.136719 62.035156 92.386719 62.050781 C 92.578125 62.0625 92.765625 62.039062 92.953125 61.980469 C 93.140625 61.925781 93.316406 61.847656 93.46875 61.730469 C 95.035156 63.199219 95.160156 64.730469 94.207031 66.660156 C 93.820312 67.433594 93.292969 68.410156 92.582031 68.988281 C 91.816406 68.414062 91.308594 67.394531 90.867188 66.582031 C 89.855469 64.707031 90.128906 63.285156 91.683594 61.894531 Z M 89.464844 65.238281 C 88.269531 65.625 86.722656 65.933594 85.511719 65.605469 C 85.535156 64.722656 85.941406 63.773438 86.308594 62.988281 C 86.355469 63.003906 86.402344 63.023438 86.449219 63.042969 C 87.714844 63.539062 88.78125 63.488281 89.738281 62.988281 C 89.566406 63.339844 89.460938 63.707031 89.414062 64.097656 C 89.367188 64.476562 89.386719 64.863281 89.464844 65.238281 Z M 69.585938 77.167969 C 69.613281 77.144531 69.636719 77.121094 69.660156 77.097656 C 70.546875 76.105469 71.433594 75.117188 72.316406 74.128906 C 75.113281 71.003906 77.90625 67.878906 80.699219 64.757812 C 81.035156 64.382812 81.371094 64.007812 81.699219 63.636719 L 82.988281 63.636719 C 83.683594 63.621094 84.375 63.65625 85.066406 63.753906 C 84.785156 64.441406 84.652344 65.15625 84.667969 65.902344 C 84.675781 65.988281 84.703125 66.066406 84.753906 66.136719 C 84.816406 66.207031 84.886719 66.253906 84.964844 66.28125 C 85.011719 66.328125 85.074219 66.355469 85.128906 66.375 C 85.519531 66.496094 85.910156 66.5625 86.308594 66.582031 C 81.769531 71.652344 77.226562 76.734375 72.679688 81.808594 C 72.160156 82.386719 71.636719 82.972656 71.113281 83.558594 C 70.871094 83.207031 70.644531 82.847656 70.457031 82.457031 C 70.265625 82.078125 70.105469 81.679688 69.980469 81.269531 C 69.847656 80.859375 69.753906 80.441406 69.699219 80.019531 C 69.632812 79.597656 69.605469 79.171875 69.609375 78.746094 L 69.609375 77.292969 C 69.609375 77.191406 69.597656 77.167969 69.585938 77.167969 Z M 69.609375 74.933594 C 69.585938 72.023438 69.308594 69.011719 71.089844 66.503906 C 71.246094 66.285156 71.414062 66.074219 71.597656 65.878906 C 71.777344 65.675781 71.972656 65.488281 72.167969 65.316406 C 72.375 65.136719 72.585938 64.972656 72.808594 64.828125 C 73.03125 64.675781 73.261719 64.535156 73.5 64.410156 C 73.738281 64.289062 73.980469 64.175781 74.230469 64.082031 C 74.484375 63.988281 74.742188 63.910156 75.003906 63.84375 C 75.261719 63.777344 75.527344 63.726562 75.796875 63.699219 C 76.058594 63.660156 76.332031 63.644531 76.597656 63.636719 L 79.710938 63.636719 C 76.339844 67.40625 72.980469 71.167969 69.609375 74.933594 Z M 95.558594 65.484375 C 95.671875 65.058594 95.714844 64.617188 95.675781 64.175781 C 95.644531 63.738281 95.542969 63.308594 95.371094 62.902344 C 96.238281 63.300781 97.199219 63.328125 98.320312 62.917969 C 98.636719 63.699219 98.863281 64.5 99.003906 65.324219 C 99.042969 65.550781 99.058594 65.777344 99.058594 66.003906 L 99.058594 66.011719 C 97.949219 66.222656 96.613281 65.835938 95.558594 65.484375 Z M 93.425781 58.386719 C 93.105469 58.195312 92.761719 58.082031 92.386719 58.074219 C 92.035156 58.050781 91.707031 58.128906 91.40625 58.3125 C 89.929688 56.925781 89.777344 55.605469 90.707031 53.730469 C 91.121094 52.921875 91.667969 51.894531 92.433594 51.328125 C 93.140625 51.914062 93.628906 52.875 94.050781 53.660156 C 95.050781 55.511719 94.945312 56.972656 93.425781 58.386719 Z M 85.949219 58.582031 C 87.796875 57.582031 89.191406 57.832031 90.566406 59.308594 C 90.46875 59.550781 90.410156 59.800781 90.394531 60.058594 C 90.378906 60.253906 90.402344 60.433594 90.457031 60.613281 C 90.503906 60.800781 90.585938 60.964844 90.699219 61.125 C 89.285156 62.691406 87.949219 62.871094 86.039062 61.921875 C 85.222656 61.519531 84.199219 60.964844 83.625 60.210938 C 84.210938 59.496094 85.171875 59.003906 85.949219 58.582031 Z M 85.949219 58.582031 "/>
</g>
<path style=" stroke:none;fill-rule:nonzero;fill:rgb(100%,54.901963%,0%);fill-opacity:1;" d="M 114.339844 40.207031 C 114.175781 38.835938 114.027344 37.453125 113.746094 36.105469 C 113.625 35.488281 113.460938 34.886719 113.226562 34.308594 C 113.003906 33.761719 112.738281 33.023438 112.105469 32.839844 C 111.441406 32.648438 110.90625 33.167969 110.425781 33.550781 C 109.910156 33.949219 109.402344 34.363281 108.894531 34.785156 C 107.90625 35.613281 106.945312 36.472656 106.011719 37.363281 C 103.886719 39.402344 101.929688 41.613281 100.128906 43.945312 C 99.925781 44.207031 100.089844 44.628906 100.347656 44.785156 C 100.613281 44.941406 100.875 44.863281 101.074219 44.683594 C 101.179688 44.785156 101.320312 44.847656 101.484375 44.839844 C 102.246094 44.800781 103.011719 44.816406 103.777344 44.90625 C 103.753906 45.386719 103.734375 45.867188 103.714844 46.355469 C 103.699219 46.832031 104.246094 47.085938 104.636719 46.878906 C 105.308594 46.523438 106.230469 47.015625 106.457031 47.699219 C 106.617188 48.183594 106.355469 48.722656 106.246094 49.191406 C 106.105469 49.78125 106.078125 50.390625 106.429688 50.917969 C 106.660156 51.269531 107.082031 51.308594 107.390625 51.046875 C 107.972656 50.554688 108.917969 50.769531 109.410156 51.28125 C 110.066406 51.972656 110.039062 53.042969 109.730469 53.882812 C 109.5 54.511719 110.332031 54.84375 110.753906 54.480469 C 114.824219 50.953125 114.933594 45.136719 114.339844 40.207031 Z M 110.292969 36.574219 C 110.308594 37.113281 110.324219 37.660156 110.339844 38.203125 C 110.316406 38.191406 110.292969 38.183594 110.269531 38.183594 C 110.269531 37.992188 110.203125 37.816406 110.035156 37.6875 C 109.996094 37.660156 109.949219 37.628906 109.898438 37.605469 C 109.839844 37.453125 109.777344 37.292969 109.699219 37.144531 C 109.894531 36.957031 110.089844 36.761719 110.292969 36.574219 Z M 109.144531 41.082031 C 108.980469 41.066406 108.820312 41.113281 108.703125 41.230469 C 108.703125 41.203125 108.707031 41.175781 108.707031 41.144531 C 108.800781 41.121094 108.890625 41.066406 108.960938 40.992188 C 109.019531 40.921875 109.078125 40.851562 109.128906 40.78125 C 109.136719 40.878906 109.136719 40.980469 109.144531 41.082031 Z M 110.367188 40.285156 C 110.367188 40.480469 110.363281 40.683594 110.363281 40.878906 C 110.363281 40.800781 110.355469 40.714844 110.355469 40.636719 C 110.34375 40.214844 110.324219 39.796875 110.285156 39.378906 C 110.292969 39.375 110.300781 39.375 110.308594 39.371094 C 110.320312 39.371094 110.339844 39.355469 110.347656 39.351562 C 110.355469 39.660156 110.363281 39.972656 110.367188 40.285156 Z M 107.355469 43.5 C 107.15625 42.613281 107.105469 41.714844 107.203125 40.816406 C 107.296875 41.039062 107.371094 41.273438 107.433594 41.507812 C 107.367188 42.167969 107.34375 42.832031 107.355469 43.5 Z M 105.316406 42.027344 C 105.324219 42.023438 105.328125 42.023438 105.316406 42.027344 Z M 104.980469 42.117188 C 104.972656 42.117188 104.972656 42.113281 104.980469 42.117188 Z M 111.796875 42.699219 C 111.808594 43.417969 111.785156 44.15625 111.699219 44.882812 C 111.667969 44.457031 111.621094 44.027344 111.558594 43.605469 C 111.558594 43.570312 111.5625 43.535156 111.566406 43.503906 C 111.632812 42.636719 111.589844 41.761719 111.589844 40.894531 C 111.589844 40.804688 111.589844 40.722656 111.589844 40.636719 C 111.644531 40.839844 111.699219 41.039062 111.75 41.246094 C 111.773438 41.722656 111.792969 42.210938 111.796875 42.699219 Z M 107.777344 39.339844 C 107.738281 39.269531 107.683594 39.199219 107.636719 39.136719 C 107.71875 39.058594 107.800781 38.976562 107.882812 38.902344 C 107.839844 39.046875 107.8125 39.191406 107.777344 39.339844 Z M 105.9375 41.355469 C 105.84375 41.25 105.746094 41.152344 105.632812 41.074219 C 105.75 40.964844 105.867188 40.847656 105.980469 40.734375 C 105.960938 40.945312 105.941406 41.152344 105.9375 41.355469 Z M 105 44.222656 C 104.972656 44.128906 104.917969 44.035156 104.855469 43.957031 C 104.964844 43.988281 105.074219 44.015625 105.183594 44.050781 C 105.117188 44.105469 105.050781 44.160156 105 44.222656 Z M 110.386719 50.53125 C 110.363281 50.507812 110.34375 50.484375 110.320312 50.460938 C 110.34375 50.441406 110.363281 50.425781 110.386719 50.410156 C 110.386719 50.449219 110.386719 50.488281 110.386719 50.53125 Z M 108.796875 49.535156 C 108.820312 49.574219 108.847656 49.605469 108.878906 49.640625 C 108.816406 49.621094 108.75 49.613281 108.683594 49.597656 C 108.722656 49.582031 108.761719 49.558594 108.796875 49.535156 Z M 111.074219 51.941406 C 111.164062 51.980469 111.257812 51.988281 111.347656 51.980469 C 111.277344 52.078125 111.207031 52.175781 111.128906 52.277344 C 111.117188 52.167969 111.097656 52.054688 111.074219 51.941406 Z M 111.761719 34.074219 C 111.75 34.058594 111.746094 34.050781 111.730469 34.011719 C 111.738281 34.035156 111.75 34.054688 111.769531 34.074219 C 111.773438 34.058594 111.777344 34.054688 111.785156 34.050781 C 111.863281 33.9375 111.816406 34.105469 111.769531 34.074219 C 111.777344 34.089844 111.792969 34.105469 111.796875 34.125 C 111.832031 34.261719 111.9375 34.40625 111.996094 34.535156 C 112.230469 35.058594 112.386719 35.613281 112.511719 36.164062 C 112.785156 37.371094 112.917969 38.605469 113.066406 39.832031 C 113.203125 40.910156 113.320312 42.003906 113.378906 43.101562 C 113.273438 42.449219 113.136719 41.800781 112.980469 41.15625 C 112.898438 39.660156 112.714844 38.175781 112.472656 36.703125 C 112.382812 36.183594 112.332031 35.601562 112.167969 35.089844 C 112.011719 34.636719 111.535156 34.523438 111.152344 34.6875 C 111.113281 34.664062 111.070312 34.640625 111.027344 34.628906 C 111.082031 34.582031 111.128906 34.542969 111.1875 34.5 C 111.339844 34.378906 111.632812 34.230469 111.761719 34.074219 Z M 20.832031 30.210938 C 16.777344 28.925781 12.558594 28.03125 8.320312 27.652344 C 6.675781 27.496094 4.980469 27.410156 3.332031 27.613281 C 3.28125 27.621094 3.230469 27.636719 3.183594 27.652344 C 3.042969 27.679688 2.917969 27.753906 2.832031 27.886719 C 2.832031 27.890625 2.832031 27.890625 2.824219 27.890625 C 2.8125 27.914062 2.792969 27.9375 2.785156 27.960938 C 2.769531 27.984375 2.761719 28.011719 2.753906 28.042969 C 2.746094 28.050781 2.746094 28.054688 2.742188 28.066406 C 1.402344 32.644531 0.605469 37.382812 0.371094 42.144531 C 0.257812 44.503906 0.28125 46.871094 0.449219 49.21875 C 0.585938 51.136719 0.777344 52.996094 1.402344 54.820312 C 2.003906 56.589844 2.839844 58.589844 4.292969 59.835938 C 4.894531 60.347656 5.761719 59.484375 5.160156 58.96875 C 3.964844 57.941406 3.257812 56.347656 2.730469 54.910156 C 2.441406 54.128906 2.203125 53.324219 2.035156 52.503906 C 1.839844 51.566406 1.78125 50.601562 1.707031 49.652344 C 1.347656 45.097656 1.511719 40.503906 2.222656 35.996094 C 2.601562 33.5625 3.136719 31.152344 3.816406 28.785156 C 5.0625 28.675781 6.328125 28.722656 7.574219 28.808594 C 9.449219 28.945312 11.308594 29.207031 13.152344 29.554688 C 17.449219 30.355469 21.730469 31.558594 25.730469 33.351562 C 27.820312 34.289062 29.882812 35.394531 31.699219 36.816406 C 31.964844 37.019531 32.316406 37.066406 32.566406 36.816406 C 32.777344 36.605469 32.832031 36.152344 32.566406 35.949219 C 29.113281 33.257812 24.980469 31.519531 20.832031 30.210938 Z M 14.929688 40.535156 C 13.363281 38.863281 11.625 37.359375 9.816406 35.964844 C 9 35.339844 8.167969 34.730469 7.300781 34.171875 C 6.816406 33.863281 6.355469 34.339844 6.402344 34.792969 C 6.355469 34.855469 6.316406 34.933594 6.300781 35.035156 C 5.167969 40.433594 4.054688 46.308594 6.65625 51.472656 C 7.285156 52.722656 8.132812 53.863281 9.167969 54.800781 C 9.449219 55.050781 9.941406 55.042969 10.128906 54.679688 C 10.359375 54.238281 10.371094 53.8125 10.300781 53.332031 C 10.246094 53.011719 10.101562 52.605469 10.265625 52.289062 C 10.667969 51.511719 11.882812 51.832031 12.535156 51.984375 C 12.917969 52.078125 13.308594 51.800781 13.308594 51.398438 C 13.3125 50.554688 12.957031 49.757812 12.984375 48.917969 C 12.996094 48.667969 13.050781 48.355469 13.246094 48.183594 C 13.371094 48.070312 13.636719 47.972656 13.777344 48.097656 C 14.191406 48.480469 15.023438 48.113281 14.800781 47.503906 C 14.605469 46.988281 14.933594 46.464844 15.417969 46.238281 C 16.082031 45.917969 16.894531 46.121094 17.566406 46.316406 C 17.808594 46.386719 18 46.316406 18.136719 46.183594 C 18.308594 46.054688 18.410156 45.839844 18.316406 45.5625 C 17.667969 43.640625 16.292969 41.996094 14.929688 40.535156 Z M 9.042969 52.082031 C 9.035156 52.074219 9.023438 52.058594 9.019531 52.050781 C 9 52.03125 8.996094 52.011719 8.980469 51.996094 C 9.019531 51.988281 9.046875 51.980469 9.074219 51.964844 C 9.066406 52.007812 9.050781 52.042969 9.042969 52.082031 Z M 8.480469 43.480469 C 8.339844 43.457031 8.191406 43.480469 8.066406 43.546875 C 8.050781 43.183594 8.027344 42.824219 8.011719 42.46875 C 8.167969 42.800781 8.324219 43.144531 8.480469 43.480469 Z M 9.035156 38.976562 C 9.035156 38.972656 9.027344 38.964844 9.023438 38.957031 C 9.042969 38.949219 9.050781 38.933594 9.066406 38.925781 C 9.050781 38.941406 9.046875 38.957031 9.035156 38.976562 Z M 10.183594 49.511719 C 10.269531 49.527344 10.359375 49.523438 10.449219 49.496094 C 10.511719 49.574219 10.582031 49.664062 10.652344 49.746094 C 10.488281 49.761719 10.324219 49.78125 10.160156 49.800781 C 10.167969 49.707031 10.175781 49.605469 10.183594 49.511719 Z M 14.390625 43.722656 C 14.105469 43.476562 13.816406 43.230469 13.535156 42.984375 C 13.519531 42.867188 13.464844 42.761719 13.371094 42.675781 C 13.285156 42.582031 13.144531 42.515625 13.003906 42.496094 C 12.988281 42.488281 12.984375 42.472656 12.972656 42.46875 C 13.011719 42.410156 13.050781 42.351562 13.074219 42.285156 C 13.355469 42.621094 13.636719 42.949219 13.902344 43.289062 C 14.039062 43.453125 14.273438 43.496094 14.472656 43.441406 C 14.535156 43.503906 14.601562 43.566406 14.660156 43.628906 C 14.671875 43.640625 14.691406 43.652344 14.707031 43.667969 C 14.601562 43.683594 14.496094 43.699219 14.390625 43.722656 Z M 9.792969 38.660156 C 9.792969 38.683594 9.796875 38.714844 9.796875 38.742188 C 9.636719 38.667969 9.457031 38.652344 9.277344 38.742188 C 9.398438 38.601562 9.433594 38.433594 9.410156 38.261719 C 9.539062 38.394531 9.660156 38.527344 9.792969 38.660156 Z M 8.605469 37.769531 C 8.582031 37.660156 8.574219 37.546875 8.566406 37.429688 C 8.667969 37.527344 8.765625 37.621094 8.863281 37.714844 C 8.785156 37.710938 8.695312 37.730469 8.605469 37.769531 Z M 7.058594 37.386719 C 7.105469 37.582031 7.148438 37.777344 7.195312 37.964844 C 7.082031 38.015625 6.984375 38.097656 6.910156 38.199219 C 6.960938 37.925781 7.007812 37.660156 7.058594 37.386719 Z M 6.632812 39.816406 C 6.632812 39.839844 6.632812 39.863281 6.632812 39.886719 C 6.628906 39.914062 6.613281 39.9375 6.609375 39.960938 C 6.613281 39.914062 6.621094 39.867188 6.632812 39.816406 Z M 12 50.535156 C 12.003906 50.574219 12.011719 50.605469 12.019531 50.644531 C 11.988281 50.636719 11.964844 50.636719 11.933594 50.628906 C 11.957031 50.601562 11.980469 50.574219 12 50.535156 Z M 11.859375 48.246094 C 11.855469 48.246094 11.855469 48.238281 11.855469 48.238281 C 11.859375 48.238281 11.859375 48.238281 11.859375 48.238281 C 11.859375 48.238281 11.859375 48.246094 11.859375 48.246094 Z M 15.972656 44.859375 C 16.089844 44.777344 16.183594 44.667969 16.21875 44.527344 C 16.246094 44.386719 16.253906 44.253906 16.253906 44.128906 C 16.410156 44.371094 16.558594 44.625 16.699219 44.882812 C 16.453125 44.855469 16.214844 44.847656 15.972656 44.859375 Z M 118.898438 35.953125 C 118.496094 33.285156 117.910156 30.652344 117.144531 28.066406 C 117.144531 28.058594 117.140625 28.054688 117.140625 28.050781 C 117.128906 28.011719 117.117188 27.984375 117.105469 27.957031 C 117.09375 27.9375 117.089844 27.925781 117.074219 27.910156 C 117.070312 27.894531 117.066406 27.886719 117.050781 27.871094 C 116.964844 27.753906 116.847656 27.679688 116.714844 27.652344 C 116.667969 27.636719 116.613281 27.621094 116.558594 27.613281 C 115.125 27.433594 113.667969 27.488281 112.230469 27.589844 C 110.261719 27.738281 108.304688 28.019531 106.359375 28.382812 C 101.933594 29.214844 97.558594 30.480469 93.449219 32.339844 C 91.285156 33.316406 89.203125 34.480469 87.324219 35.949219 C 87.066406 36.152344 87.113281 36.597656 87.324219 36.816406 C 87.582031 37.074219 87.933594 37.019531 88.191406 36.816406 C 91.503906 34.222656 95.558594 32.582031 99.539062 31.339844 C 103.472656 30.113281 107.550781 29.226562 111.65625 28.863281 C 113.113281 28.734375 114.609375 28.660156 116.082031 28.792969 C 117.308594 33.097656 118.058594 37.527344 118.289062 42.003906 C 118.40625 44.261719 118.386719 46.527344 118.246094 48.785156 C 118.128906 50.660156 117.964844 52.496094 117.378906 54.285156 C 116.839844 55.933594 116.082031 57.808594 114.730469 58.96875 C 114.128906 59.484375 115.003906 60.347656 115.59375 59.835938 C 116.894531 58.722656 117.675781 57.003906 118.265625 55.441406 C 118.933594 53.695312 119.214844 51.9375 119.371094 50.082031 C 119.777344 45.375 119.601562 40.628906 118.898438 35.953125 Z M 95.648438 35.042969 C 95.496094 35.011719 95.308594 35.015625 95.175781 35.109375 C 94.660156 35.472656 94.136719 35.839844 93.613281 36.207031 C 93.480469 36.300781 93.378906 36.410156 93.332031 36.574219 C 93.292969 36.722656 93.308594 36.914062 93.398438 37.042969 C 93.480469 37.175781 93.605469 37.289062 93.761719 37.324219 C 93.914062 37.359375 94.101562 37.359375 94.238281 37.265625 C 94.753906 36.894531 95.273438 36.535156 95.792969 36.164062 C 95.929688 36.070312 96.027344 35.957031 96.074219 35.800781 C 96.117188 35.652344 96.097656 35.457031 96.011719 35.324219 C 95.929688 35.199219 95.808594 35.082031 95.648438 35.042969 Z M 111.769531 34.074219 C 111.761719 34.074219 111.761719 34.074219 111.761719 34.074219 C 111.761719 34.074219 111.769531 34.074219 111.769531 34.074219 Z M 111.769531 34.074219 "/>
</g>
</svg>
