<?xml version="1.0" encoding="UTF-8"?>
<svg xmlns="http://www.w3.org/2000/svg" xmlns:xlink="http://www.w3.org/1999/xlink" width="50px" height="50px" viewBox="0 0 50 50" version="1.1">
<g id="surface1">
<path style=" stroke:none;fill-rule:nonzero;fill:rgb(100%,100%,100%);fill-opacity:1;" d="M 47.230469 10.234375 C 47.160156 9.675781 47.101562 9.109375 46.988281 8.558594 C 46.9375 8.308594 46.867188 8.058594 46.773438 7.824219 C 46.679688 7.597656 46.574219 7.296875 46.316406 7.222656 C 46.042969 7.144531 45.824219 7.359375 45.628906 7.511719 C 45.414062 7.675781 45.207031 7.847656 45 8.019531 C 44.597656 8.355469 44.203125 8.707031 43.824219 9.074219 C 42.953125 9.90625 42.152344 10.808594 41.414062 11.765625 C 41.332031 11.875 41.398438 12.046875 41.503906 12.109375 C 41.613281 12.171875 41.722656 12.140625 41.800781 12.066406 C 41.84375 12.109375 41.902344 12.136719 41.96875 12.132812 C 42.28125 12.113281 42.59375 12.121094 42.90625 12.160156 C 42.898438 12.355469 42.890625 12.550781 42.882812 12.75 C 42.875 12.949219 43.097656 13.050781 43.261719 12.964844 C 43.535156 12.820312 43.910156 13.019531 44.003906 13.300781 C 44.070312 13.5 43.960938 13.71875 43.917969 13.910156 C 43.863281 14.152344 43.851562 14.402344 43.992188 14.617188 C 44.085938 14.761719 44.257812 14.777344 44.386719 14.667969 C 44.621094 14.46875 45.011719 14.558594 45.210938 14.765625 C 45.480469 15.050781 45.46875 15.488281 45.34375 15.832031 C 45.25 16.085938 45.589844 16.222656 45.761719 16.074219 C 47.425781 14.632812 47.46875 12.253906 47.230469 10.234375 Z M 45.570312 8.75 C 45.578125 8.972656 45.585938 9.195312 45.589844 9.414062 C 45.582031 9.414062 45.570312 9.410156 45.5625 9.410156 C 45.5625 9.328125 45.535156 9.257812 45.46875 9.203125 C 45.453125 9.191406 45.433594 9.183594 45.410156 9.171875 C 45.386719 9.109375 45.359375 9.046875 45.328125 8.984375 C 45.410156 8.90625 45.492188 8.828125 45.570312 8.75 Z M 45.101562 10.59375 C 45.035156 10.589844 44.96875 10.609375 44.921875 10.65625 C 44.921875 10.644531 44.925781 10.632812 44.925781 10.621094 C 44.964844 10.609375 45 10.589844 45.027344 10.558594 C 45.054688 10.527344 45.074219 10.5 45.097656 10.46875 C 45.101562 10.511719 45.101562 10.550781 45.101562 10.59375 Z M 45.601562 10.265625 C 45.601562 10.347656 45.601562 10.429688 45.601562 10.511719 C 45.601562 10.480469 45.597656 10.445312 45.597656 10.410156 C 45.59375 10.238281 45.585938 10.066406 45.570312 9.898438 C 45.574219 9.898438 45.578125 9.894531 45.578125 9.894531 C 45.585938 9.890625 45.589844 9.890625 45.597656 9.886719 C 45.597656 10.011719 45.601562 10.140625 45.601562 10.265625 Z M 44.371094 11.582031 C 44.289062 11.21875 44.269531 10.851562 44.308594 10.484375 C 44.347656 10.578125 44.378906 10.671875 44.402344 10.765625 C 44.375 11.039062 44.367188 11.3125 44.371094 11.582031 Z M 43.535156 10.980469 C 43.539062 10.976562 43.542969 10.980469 43.535156 10.980469 Z M 43.402344 11.015625 C 43.398438 11.015625 43.398438 11.015625 43.402344 11.015625 Z M 46.1875 11.253906 C 46.191406 11.550781 46.183594 11.851562 46.148438 12.148438 C 46.136719 11.972656 46.117188 11.800781 46.089844 11.625 C 46.089844 11.613281 46.09375 11.597656 46.09375 11.585938 C 46.121094 11.230469 46.105469 10.871094 46.105469 10.515625 C 46.105469 10.480469 46.105469 10.445312 46.105469 10.410156 C 46.125 10.496094 46.148438 10.578125 46.167969 10.660156 C 46.179688 10.859375 46.1875 11.054688 46.1875 11.253906 Z M 44.546875 9.878906 C 44.527344 9.851562 44.507812 9.824219 44.488281 9.796875 C 44.519531 9.765625 44.554688 9.734375 44.585938 9.703125 C 44.570312 9.761719 44.558594 9.820312 44.546875 9.878906 Z M 43.792969 10.707031 C 43.753906 10.664062 43.714844 10.621094 43.667969 10.589844 C 43.714844 10.542969 43.761719 10.5 43.808594 10.453125 C 43.800781 10.539062 43.792969 10.621094 43.792969 10.707031 Z M 43.40625 11.878906 C 43.394531 11.839844 43.375 11.800781 43.347656 11.769531 C 43.394531 11.78125 43.4375 11.792969 43.484375 11.808594 C 43.457031 11.832031 43.429688 11.855469 43.40625 11.878906 Z M 45.609375 14.460938 C 45.601562 14.449219 45.59375 14.441406 45.582031 14.429688 C 45.59375 14.421875 45.601562 14.417969 45.609375 14.410156 C 45.609375 14.425781 45.609375 14.445312 45.609375 14.460938 Z M 44.960938 14.050781 C 44.96875 14.066406 44.980469 14.082031 44.992188 14.09375 C 44.96875 14.089844 44.941406 14.082031 44.914062 14.078125 C 44.929688 14.070312 44.945312 14.0625 44.960938 14.050781 Z M 45.894531 15.039062 C 45.929688 15.050781 45.964844 15.054688 46.003906 15.050781 C 45.976562 15.09375 45.945312 15.132812 45.917969 15.175781 C 45.910156 15.128906 45.902344 15.082031 45.894531 15.039062 Z M 46.175781 7.726562 C 46.171875 7.722656 46.167969 7.714844 46.164062 7.703125 C 46.164062 7.710938 46.171875 7.71875 46.175781 7.726562 C 46.179688 7.722656 46.179688 7.71875 46.183594 7.714844 C 46.214844 7.671875 46.195312 7.738281 46.175781 7.726562 C 46.179688 7.734375 46.1875 7.742188 46.1875 7.746094 C 46.203125 7.804688 46.246094 7.863281 46.269531 7.914062 C 46.367188 8.128906 46.429688 8.355469 46.480469 8.582031 C 46.59375 9.074219 46.648438 9.582031 46.707031 10.082031 C 46.765625 10.523438 46.8125 10.972656 46.835938 11.421875 C 46.792969 11.152344 46.734375 10.886719 46.671875 10.625 C 46.636719 10.015625 46.566406 9.40625 46.464844 8.804688 C 46.425781 8.589844 46.40625 8.351562 46.339844 8.144531 C 46.277344 7.957031 46.082031 7.910156 45.925781 7.980469 C 45.910156 7.96875 45.890625 7.960938 45.875 7.953125 C 45.894531 7.9375 45.917969 7.917969 45.9375 7.902344 C 46.003906 7.851562 46.121094 7.792969 46.175781 7.726562 Z M 8.976562 6.144531 C 7.316406 5.621094 5.59375 5.253906 3.859375 5.097656 C 3.183594 5.039062 2.492188 5 1.820312 5.085938 C 1.796875 5.089844 1.777344 5.09375 1.757812 5.101562 C 1.699219 5.113281 1.648438 5.144531 1.613281 5.195312 C 1.613281 5.195312 1.613281 5.199219 1.613281 5.199219 C 1.605469 5.207031 1.601562 5.214844 1.59375 5.226562 C 1.589844 5.238281 1.585938 5.25 1.582031 5.257812 C 1.582031 5.261719 1.578125 5.265625 1.578125 5.269531 C 1.027344 7.144531 0.703125 9.082031 0.605469 11.03125 C 0.5625 11.992188 0.570312 12.960938 0.640625 13.921875 C 0.695312 14.707031 0.773438 15.46875 1.027344 16.210938 C 1.273438 16.9375 1.617188 17.753906 2.210938 18.265625 C 2.457031 18.472656 2.8125 18.121094 2.566406 17.910156 C 2.078125 17.492188 1.789062 16.839844 1.570312 16.25 C 1.453125 15.929688 1.355469 15.601562 1.289062 15.269531 C 1.207031 14.882812 1.183594 14.488281 1.152344 14.097656 C 1.007812 12.238281 1.074219 10.355469 1.363281 8.511719 C 1.519531 7.519531 1.738281 6.535156 2.015625 5.566406 C 2.527344 5.519531 3.046875 5.539062 3.554688 5.574219 C 4.320312 5.628906 5.082031 5.738281 5.835938 5.878906 C 7.59375 6.207031 9.34375 6.699219 10.980469 7.429688 C 11.835938 7.816406 12.679688 8.269531 13.421875 8.847656 C 13.53125 8.929688 13.671875 8.953125 13.777344 8.847656 C 13.863281 8.761719 13.886719 8.578125 13.777344 8.492188 C 12.367188 7.390625 10.671875 6.683594 8.976562 6.144531 Z M 6.5625 10.371094 C 5.921875 9.6875 5.210938 9.070312 4.472656 8.5 C 4.136719 8.242188 3.796875 7.996094 3.441406 7.765625 C 3.242188 7.640625 3.054688 7.835938 3.074219 8.019531 C 3.054688 8.046875 3.039062 8.078125 3.03125 8.121094 C 2.570312 10.332031 2.113281 12.730469 3.179688 14.847656 C 3.433594 15.355469 3.78125 15.824219 4.207031 16.207031 C 4.320312 16.308594 4.523438 16.304688 4.601562 16.15625 C 4.695312 15.976562 4.699219 15.800781 4.667969 15.605469 C 4.648438 15.472656 4.585938 15.308594 4.652344 15.179688 C 4.820312 14.859375 5.316406 14.992188 5.582031 15.054688 C 5.742188 15.09375 5.898438 14.980469 5.898438 14.8125 C 5.902344 14.46875 5.757812 14.144531 5.769531 13.800781 C 5.769531 13.699219 5.792969 13.570312 5.875 13.5 C 5.925781 13.453125 6.035156 13.414062 6.089844 13.464844 C 6.261719 13.621094 6.601562 13.46875 6.507812 13.21875 C 6.433594 13.007812 6.566406 12.796875 6.761719 12.703125 C 7.035156 12.570312 7.367188 12.652344 7.640625 12.734375 C 7.738281 12.765625 7.820312 12.738281 7.875 12.679688 C 7.945312 12.628906 7.988281 12.539062 7.949219 12.425781 C 7.683594 11.640625 7.121094 10.96875 6.5625 10.371094 Z M 4.15625 15.09375 C 4.152344 15.089844 4.148438 15.085938 4.144531 15.078125 C 4.136719 15.074219 4.132812 15.066406 4.128906 15.058594 C 4.144531 15.054688 4.15625 15.050781 4.167969 15.046875 C 4.164062 15.0625 4.160156 15.078125 4.15625 15.09375 Z M 3.925781 11.574219 C 3.867188 11.566406 3.808594 11.578125 3.753906 11.601562 C 3.746094 11.453125 3.738281 11.308594 3.734375 11.160156 C 3.796875 11.296875 3.863281 11.4375 3.925781 11.574219 Z M 4.152344 9.730469 C 4.152344 9.730469 4.148438 9.726562 4.148438 9.726562 C 4.152344 9.71875 4.160156 9.714844 4.164062 9.710938 C 4.160156 9.71875 4.15625 9.726562 4.152344 9.730469 Z M 4.621094 14.042969 C 4.65625 14.050781 4.691406 14.046875 4.730469 14.035156 C 4.757812 14.070312 4.785156 14.105469 4.8125 14.136719 C 4.746094 14.144531 4.679688 14.152344 4.609375 14.160156 C 4.617188 14.121094 4.617188 14.082031 4.621094 14.042969 Z M 6.339844 11.675781 C 6.222656 11.574219 6.105469 11.472656 5.992188 11.371094 C 5.984375 11.324219 5.964844 11.28125 5.925781 11.246094 C 5.890625 11.207031 5.832031 11.179688 5.773438 11.171875 C 5.769531 11.167969 5.765625 11.164062 5.761719 11.160156 C 5.78125 11.136719 5.792969 11.113281 5.804688 11.089844 C 5.917969 11.222656 6.03125 11.359375 6.144531 11.496094 C 6.199219 11.5625 6.292969 11.578125 6.375 11.558594 C 6.402344 11.585938 6.425781 11.609375 6.453125 11.636719 C 6.457031 11.640625 6.464844 11.648438 6.472656 11.652344 C 6.429688 11.65625 6.382812 11.664062 6.339844 11.675781 Z M 4.460938 9.601562 C 4.460938 9.613281 4.460938 9.625 4.464844 9.636719 C 4.398438 9.605469 4.324219 9.601562 4.25 9.636719 C 4.300781 9.582031 4.316406 9.507812 4.304688 9.441406 C 4.355469 9.496094 4.410156 9.550781 4.460938 9.601562 Z M 3.976562 9.238281 C 3.96875 9.191406 3.964844 9.148438 3.960938 9.101562 C 4 9.140625 4.042969 9.179688 4.082031 9.21875 C 4.046875 9.214844 4.011719 9.222656 3.976562 9.238281 Z M 3.34375 9.082031 C 3.363281 9.160156 3.378906 9.242188 3.398438 9.320312 C 3.351562 9.339844 3.3125 9.375 3.28125 9.414062 C 3.300781 9.304688 3.324219 9.195312 3.34375 9.082031 Z M 3.167969 10.078125 C 3.167969 10.085938 3.167969 10.09375 3.167969 10.105469 C 3.164062 10.117188 3.164062 10.125 3.160156 10.136719 C 3.160156 10.117188 3.164062 10.097656 3.167969 10.078125 Z M 5.363281 14.460938 C 5.367188 14.476562 5.371094 14.492188 5.371094 14.503906 C 5.359375 14.503906 5.351562 14.5 5.339844 14.5 C 5.347656 14.488281 5.355469 14.476562 5.363281 14.460938 Z M 5.304688 13.523438 Z M 6.988281 12.140625 C 7.039062 12.105469 7.078125 12.058594 7.089844 12 C 7.101562 11.945312 7.105469 11.894531 7.105469 11.839844 C 7.167969 11.941406 7.230469 12.042969 7.285156 12.148438 C 7.1875 12.136719 7.089844 12.132812 6.988281 12.140625 Z M 49.09375 8.496094 C 48.929688 7.40625 48.6875 6.328125 48.378906 5.269531 C 48.375 5.265625 48.375 5.265625 48.375 5.261719 C 48.371094 5.25 48.367188 5.234375 48.359375 5.222656 C 48.355469 5.21875 48.351562 5.210938 48.347656 5.207031 C 48.34375 5.199219 48.34375 5.195312 48.339844 5.191406 C 48.304688 5.140625 48.253906 5.113281 48.199219 5.101562 C 48.179688 5.09375 48.15625 5.089844 48.136719 5.085938 C 47.550781 5.011719 46.953125 5.035156 46.367188 5.078125 C 45.5625 5.136719 44.757812 5.25 43.964844 5.398438 C 42.15625 5.738281 40.363281 6.257812 38.683594 7.015625 C 37.796875 7.417969 36.945312 7.894531 36.175781 8.492188 C 36.070312 8.578125 36.089844 8.761719 36.175781 8.847656 C 36.28125 8.953125 36.425781 8.933594 36.53125 8.847656 C 37.886719 7.789062 39.546875 7.117188 41.175781 6.609375 C 42.78125 6.105469 44.453125 5.746094 46.128906 5.597656 C 46.730469 5.542969 47.339844 5.511719 47.941406 5.566406 C 48.445312 7.328125 48.75 9.140625 48.84375 10.972656 C 48.890625 11.894531 48.886719 12.824219 48.828125 13.746094 C 48.777344 14.511719 48.710938 15.261719 48.472656 15.996094 C 48.25 16.667969 47.941406 17.4375 47.386719 17.910156 C 47.144531 18.121094 47.5 18.472656 47.742188 18.265625 C 48.273438 17.808594 48.589844 17.109375 48.835938 16.46875 C 49.105469 15.753906 49.222656 15.035156 49.289062 14.277344 C 49.453125 12.347656 49.382812 10.40625 49.09375 8.496094 Z M 39.582031 8.125 C 39.519531 8.109375 39.445312 8.113281 39.390625 8.148438 C 39.175781 8.300781 38.964844 8.449219 38.75 8.601562 C 38.695312 8.636719 38.652344 8.683594 38.636719 8.75 C 38.621094 8.808594 38.625 8.890625 38.660156 8.941406 C 38.695312 8.996094 38.746094 9.042969 38.8125 9.058594 C 38.875 9.070312 38.949219 9.070312 39.003906 9.03125 C 39.214844 8.882812 39.429688 8.734375 39.640625 8.582031 C 39.695312 8.542969 39.738281 8.5 39.757812 8.433594 C 39.773438 8.375 39.765625 8.292969 39.730469 8.242188 C 39.699219 8.1875 39.644531 8.140625 39.582031 8.125 Z M 46.175781 7.726562 Z M 46.175781 7.726562 "/>
<path style=" stroke:none;fill-rule:nonzero;fill:rgb(100%,100%,100%);fill-opacity:1;" d="M 16.855469 20.957031 C 16.695312 20.957031 16.554688 20.914062 16.429688 20.824219 C 16.308594 20.734375 16.246094 20.597656 16.246094 20.414062 C 16.246094 20.246094 16.304688 20.113281 16.421875 20.011719 C 16.539062 19.910156 16.683594 19.863281 16.855469 19.863281 C 17.027344 19.863281 17.175781 19.910156 17.292969 20.011719 C 17.410156 20.113281 17.46875 20.246094 17.46875 20.414062 C 17.46875 20.597656 17.40625 20.734375 17.28125 20.824219 C 17.160156 20.914062 17.015625 20.957031 16.855469 20.957031 Z M 18.28125 20.957031 C 18.125 20.957031 17.984375 20.914062 17.859375 20.824219 C 17.734375 20.734375 17.671875 20.597656 17.671875 20.414062 C 17.671875 20.246094 17.730469 20.113281 17.851562 20.011719 C 17.96875 19.910156 18.113281 19.863281 18.28125 19.863281 C 18.457031 19.863281 18.605469 19.910156 18.722656 20.011719 C 18.839844 20.113281 18.898438 20.246094 18.898438 20.414062 C 18.898438 20.597656 18.835938 20.734375 18.710938 20.824219 C 18.585938 20.914062 18.445312 20.957031 18.28125 20.957031 Z M 19.953125 25.121094 L 17.050781 25.121094 C 16.316406 25.121094 15.777344 24.9375 15.433594 24.570312 C 15.089844 24.203125 14.917969 23.679688 14.917969 22.996094 L 14.917969 21.878906 L 16.109375 21.878906 L 16.109375 22.871094 C 16.109375 23.234375 16.214844 23.503906 16.425781 23.675781 C 16.640625 23.84375 16.933594 23.929688 17.308594 23.929688 L 18.761719 23.929688 L 18.761719 21.386719 L 19.953125 21.386719 Z M 19.953125 25.121094 "/>
<path style=" stroke:none;fill-rule:nonzero;fill:rgb(100%,100%,100%);fill-opacity:1;" d="M 22.003906 19.925781 L 22.003906 23.929688 L 22.703125 23.929688 L 22.703125 25.121094 L 20.8125 25.121094 L 20.8125 19.925781 Z M 22.003906 19.925781 "/>
<path style=" stroke:none;fill-rule:nonzero;fill:rgb(100%,100%,100%);fill-opacity:1;" d="M 26.878906 25.121094 L 22.574219 25.121094 L 22.574219 23.929688 L 25.675781 23.929688 L 25.675781 23.46875 C 25.675781 23.261719 25.617188 23.101562 25.503906 22.988281 C 25.386719 22.878906 25.230469 22.820312 25.035156 22.820312 L 23.230469 22.820312 C 23.132812 22.6875 23.050781 22.523438 22.976562 22.320312 C 22.898438 22.117188 22.859375 21.886719 22.855469 21.636719 L 23.765625 19.925781 L 25.222656 19.925781 L 24.203125 21.628906 L 24.882812 21.628906 C 25.542969 21.628906 26.042969 21.796875 26.375 22.128906 C 26.710938 22.457031 26.878906 22.976562 26.878906 23.6875 Z M 26.878906 25.121094 "/>
<path style=" stroke:none;fill-rule:nonzero;fill:rgb(100%,100%,100%);fill-opacity:1;" d="M 30.851562 23.929688 L 31.542969 23.929688 L 31.542969 25.121094 L 30.828125 25.121094 C 30.765625 25.628906 30.59375 25.992188 30.304688 26.207031 C 30.015625 26.421875 29.613281 26.53125 29.097656 26.53125 C 28.933594 26.53125 28.773438 26.527344 28.613281 26.515625 C 28.453125 26.503906 28.289062 26.484375 28.125 26.453125 L 27.925781 25.332031 C 28.105469 25.363281 28.292969 25.386719 28.496094 25.402344 C 28.695312 25.421875 28.894531 25.429688 29.089844 25.429688 C 29.25 25.429688 29.375 25.40625 29.472656 25.363281 C 29.566406 25.324219 29.625 25.242188 29.648438 25.121094 L 29.5 25.121094 C 29.097656 25.121094 28.746094 25.042969 28.441406 24.886719 C 28.140625 24.730469 27.902344 24.515625 27.734375 24.238281 C 27.566406 23.960938 27.480469 23.636719 27.480469 23.265625 L 27.480469 23.257812 C 27.480469 22.882812 27.574219 22.554688 27.753906 22.273438 C 27.9375 21.996094 28.191406 21.777344 28.515625 21.621094 C 28.84375 21.464844 29.226562 21.386719 29.660156 21.386719 L 30.789062 21.386719 C 30.796875 21.386719 30.804688 21.386719 30.816406 21.386719 C 30.828125 21.386719 30.839844 21.386719 30.847656 21.386719 L 30.851562 21.386719 Z M 29.648438 23.929688 L 29.648438 22.578125 L 29.390625 22.578125 C 29.179688 22.578125 28.992188 22.636719 28.835938 22.75 C 28.679688 22.867188 28.605469 23.035156 28.605469 23.257812 L 28.605469 23.265625 C 28.605469 23.476562 28.679688 23.640625 28.835938 23.757812 C 28.992188 23.871094 29.179688 23.929688 29.390625 23.929688 Z M 29.648438 23.929688 "/>
<path style=" stroke:none;fill-rule:nonzero;fill:rgb(100%,100%,100%);fill-opacity:1;" d="M 33.210938 19.925781 L 33.210938 23.929688 L 33.941406 23.929688 L 33.941406 25.121094 L 31.417969 25.121094 L 31.417969 23.929688 L 32.019531 23.929688 L 32.019531 19.925781 Z M 33.210938 19.925781 "/>
<path style=" stroke:none;fill-rule:nonzero;fill:rgb(100%,100%,100%);fill-opacity:1;" d="M 35.574219 25.121094 L 33.8125 25.121094 L 33.8125 23.929688 L 34.382812 23.929688 L 34.382812 21.386719 L 35.574219 21.386719 Z M 34.691406 26.769531 C 34.527344 26.769531 34.382812 26.722656 34.257812 26.628906 C 34.132812 26.539062 34.070312 26.398438 34.070312 26.210938 C 34.070312 26.042969 34.128906 25.910156 34.25 25.8125 C 34.371094 25.710938 34.519531 25.660156 34.691406 25.660156 C 34.863281 25.660156 35.011719 25.710938 35.128906 25.8125 C 35.246094 25.910156 35.304688 26.042969 35.304688 26.210938 C 35.304688 26.398438 35.242188 26.539062 35.121094 26.628906 C 34.996094 26.722656 34.851562 26.769531 34.691406 26.769531 Z M 34.691406 26.769531 "/>
<path style=" stroke:none;fill-rule:nonzero;fill:rgb(100%,100%,100%);fill-opacity:1;" d="M 13.808594 31.714844 L 11.605469 31.714844 L 11.605469 26.519531 L 13.867188 26.519531 C 14.28125 26.519531 14.609375 26.570312 14.851562 26.667969 C 15.09375 26.765625 15.265625 26.90625 15.371094 27.09375 C 15.472656 27.28125 15.527344 27.507812 15.527344 27.777344 L 15.527344 27.789062 C 15.527344 28.117188 15.445312 28.378906 15.28125 28.574219 C 15.121094 28.769531 14.898438 28.898438 14.617188 28.960938 C 14.980469 29.015625 15.261719 29.152344 15.460938 29.371094 C 15.65625 29.589844 15.757812 29.867188 15.757812 30.210938 L 15.757812 30.230469 C 15.757812 30.605469 15.671875 30.902344 15.496094 31.117188 C 15.324219 31.332031 15.09375 31.488281 14.800781 31.578125 C 14.507812 31.671875 14.175781 31.714844 13.808594 31.714844 Z M 12.796875 27.628906 L 12.796875 28.636719 L 13.695312 28.636719 C 13.894531 28.636719 14.050781 28.597656 14.164062 28.519531 C 14.277344 28.441406 14.335938 28.320312 14.335938 28.148438 L 14.335938 28.121094 C 14.335938 27.9375 14.28125 27.8125 14.179688 27.738281 C 14.074219 27.664062 13.921875 27.628906 13.71875 27.628906 Z M 12.796875 29.488281 L 12.796875 30.601562 L 13.886719 30.601562 C 14.101562 30.601562 14.261719 30.554688 14.375 30.453125 C 14.484375 30.355469 14.539062 30.21875 14.539062 30.039062 L 14.539062 30.011719 C 14.539062 29.847656 14.480469 29.714844 14.363281 29.625 C 14.246094 29.53125 14.082031 29.488281 13.867188 29.488281 Z M 12.796875 29.488281 "/>
<path style=" stroke:none;fill-rule:nonzero;fill:rgb(100%,100%,100%);fill-opacity:1;" d="M 17.496094 31.714844 L 16.289062 31.714844 L 16.289062 26.519531 L 17.496094 26.519531 Z M 17.496094 31.714844 "/>
<path style=" stroke:none;fill-rule:nonzero;fill:rgb(100%,100%,100%);fill-opacity:1;" d="M 20.179688 31.824219 C 19.765625 31.824219 19.398438 31.738281 19.082031 31.566406 C 18.765625 31.394531 18.519531 31.15625 18.34375 30.851562 C 18.164062 30.550781 18.078125 30.203125 18.078125 29.820312 L 18.078125 29.8125 C 18.078125 29.425781 18.164062 29.082031 18.34375 28.78125 C 18.519531 28.484375 18.765625 28.246094 19.082031 28.078125 C 19.398438 27.90625 19.765625 27.820312 20.179688 27.820312 C 20.597656 27.820312 20.964844 27.90625 21.277344 28.078125 C 21.589844 28.246094 21.835938 28.484375 22.015625 28.78125 C 22.191406 29.082031 22.28125 29.425781 22.28125 29.8125 L 22.28125 29.820312 C 22.28125 30.203125 22.191406 30.550781 22.015625 30.851562 C 21.835938 31.15625 21.589844 31.394531 21.273438 31.566406 C 20.957031 31.738281 20.59375 31.824219 20.179688 31.824219 Z M 20.179688 30.75 C 20.445312 30.75 20.664062 30.660156 20.824219 30.480469 C 20.988281 30.300781 21.070312 30.078125 21.070312 29.8125 L 21.070312 29.808594 C 21.070312 29.542969 20.988281 29.324219 20.832031 29.152344 C 20.671875 28.984375 20.457031 28.898438 20.179688 28.898438 C 19.90625 28.898438 19.6875 28.984375 19.527344 29.152344 C 19.367188 29.324219 19.289062 29.542969 19.289062 29.808594 L 19.289062 29.8125 C 19.289062 30.078125 19.371094 30.300781 19.53125 30.480469 C 19.691406 30.660156 19.910156 30.75 20.179688 30.75 Z M 20.179688 30.75 "/>
<path style=" stroke:none;fill-rule:nonzero;fill:rgb(100%,100%,100%);fill-opacity:1;" d="M 24.0625 29.753906 L 24.101562 29.824219 L 24.0625 29.890625 L 24.0625 31.714844 L 22.855469 31.714844 L 22.855469 26.519531 L 24.0625 26.519531 Z M 25.417969 29.8125 L 26.597656 31.714844 L 25.21875 31.714844 L 24.101562 29.824219 L 25.246094 27.988281 L 26.554688 27.988281 Z M 25.417969 29.8125 "/>
<path style=" stroke:none;fill-rule:nonzero;fill:rgb(100%,100%,100%);fill-opacity:1;" d="M 28.199219 29.753906 L 28.238281 29.824219 L 28.199219 29.890625 L 28.199219 31.714844 L 26.996094 31.714844 L 26.996094 26.519531 L 28.199219 26.519531 Z M 29.558594 29.8125 L 30.738281 31.714844 L 29.359375 31.714844 L 28.238281 29.824219 L 29.386719 27.988281 L 30.691406 27.988281 Z M 29.558594 29.8125 "/>
<path style=" stroke:none;fill-rule:nonzero;fill:rgb(100%,100%,100%);fill-opacity:1;" d="M 32.902344 27.847656 C 33.261719 27.847656 33.570312 27.894531 33.835938 27.984375 C 34.097656 28.078125 34.300781 28.230469 34.441406 28.449219 C 34.585938 28.667969 34.65625 28.96875 34.65625 29.351562 L 34.65625 31.640625 C 34.402344 31.695312 34.117188 31.738281 33.800781 31.773438 C 33.488281 31.808594 33.195312 31.824219 32.921875 31.824219 C 32.546875 31.824219 32.21875 31.789062 31.9375 31.710938 C 31.65625 31.632812 31.441406 31.507812 31.289062 31.328125 C 31.132812 31.152344 31.058594 30.910156 31.058594 30.609375 L 31.058594 30.601562 C 31.058594 30.199219 31.207031 29.90625 31.511719 29.722656 C 31.816406 29.535156 32.210938 29.441406 32.703125 29.441406 C 32.832031 29.441406 32.957031 29.445312 33.078125 29.453125 C 33.199219 29.457031 33.328125 29.472656 33.460938 29.492188 L 33.460938 29.390625 C 33.460938 29.1875 33.386719 29.042969 33.238281 28.964844 C 33.089844 28.886719 32.890625 28.847656 32.640625 28.847656 C 32.464844 28.847656 32.253906 28.867188 32.011719 28.90625 C 31.769531 28.949219 31.542969 29.003906 31.339844 29.078125 L 31.613281 28.027344 C 31.699219 27.996094 31.8125 27.96875 31.953125 27.941406 C 32.089844 27.917969 32.242188 27.894531 32.410156 27.875 C 32.574219 27.855469 32.742188 27.847656 32.902344 27.847656 Z M 32.292969 30.523438 L 32.292969 30.53125 C 32.292969 30.667969 32.355469 30.769531 32.476562 30.832031 C 32.597656 30.898438 32.765625 30.929688 32.972656 30.929688 C 33.050781 30.929688 33.128906 30.925781 33.214844 30.917969 C 33.296875 30.914062 33.378906 30.90625 33.460938 30.898438 L 33.460938 30.179688 C 33.378906 30.160156 33.292969 30.148438 33.207031 30.144531 C 33.121094 30.136719 33.042969 30.132812 32.972656 30.132812 C 32.765625 30.132812 32.597656 30.164062 32.476562 30.21875 C 32.355469 30.277344 32.292969 30.378906 32.292969 30.523438 Z M 32.292969 30.523438 "/>
<path style=" stroke:none;fill-rule:nonzero;fill:rgb(100%,100%,100%);fill-opacity:1;" d="M 38.257812 31.714844 L 36.933594 31.714844 C 36.503906 31.714844 36.199219 31.613281 36.011719 31.414062 C 35.828125 31.210938 35.734375 30.902344 35.734375 30.488281 L 35.734375 29.097656 L 35.105469 29.097656 L 35.105469 27.980469 L 35.734375 27.980469 L 35.734375 26.886719 L 36.945312 26.886719 L 36.945312 27.980469 L 38.253906 27.980469 L 38.253906 29.097656 L 36.945312 29.097656 L 36.945312 30.101562 C 36.945312 30.269531 36.988281 30.390625 37.074219 30.472656 C 37.160156 30.554688 37.296875 30.59375 37.484375 30.59375 L 38.257812 30.59375 Z M 38.257812 31.714844 "/>
<path style="fill:none;stroke-width:15;stroke-linecap:butt;stroke-linejoin:miter;stroke:rgb(100%,100%,100%);stroke-opacity:1;stroke-miterlimit:4;" d="M 0.0372233 7.462549 L 99.515348 7.462549 " transform="matrix(0.0462963,0,0,0.0462963,4.46312,27.099824)"/>
<path style="fill:none;stroke-width:15;stroke-linecap:butt;stroke-linejoin:miter;stroke:rgb(100%,100%,100%);stroke-opacity:1;stroke-miterlimit:4;" d="M -0.0172363 7.490104 L 135.657764 7.490104 " transform="matrix(0.0462963,0,0,0.0462963,2.78986,29.059486)"/>
<path style="fill:none;stroke-width:15;stroke-linecap:butt;stroke-linejoin:miter;stroke:rgb(100%,100%,100%);stroke-opacity:1;stroke-miterlimit:4;" d="M -0.0334737 7.478662 L 165.847776 7.478662 " transform="matrix(0.0462963,0,0,0.0462963,1.392175,31.122516)"/>
<path style="fill:none;stroke-width:15;stroke-linecap:butt;stroke-linejoin:miter;stroke:rgb(100%,100%,100%);stroke-opacity:1;stroke-miterlimit:4;" d="M 0.0102865 7.462549 L 99.488411 7.462549 " transform="matrix(0.0462963,0,0,0.0462963,40.929211,27.099824)"/>
<path style="fill:none;stroke-width:15;stroke-linecap:butt;stroke-linejoin:miter;stroke:rgb(100%,100%,100%);stroke-opacity:1;stroke-miterlimit:4;" d="M 0.0102865 7.490104 L 135.685286 7.490104 " transform="matrix(0.0462963,0,0,0.0462963,40.929211,29.059486)"/>
<path style="fill:none;stroke-width:15;stroke-linecap:butt;stroke-linejoin:miter;stroke:rgb(100%,100%,100%);stroke-opacity:1;stroke-miterlimit:4;" d="M 0.0102865 7.478662 L 165.891536 7.478662 " transform="matrix(0.0462963,0,0,0.0462963,40.929211,31.122516)"/>
</g>
</svg>
