<svg xmlns="http://www.w3.org/2000/svg" xmlns:xlink="http://www.w3.org/1999/xlink" width="1080" zoomAndPan="magnify" viewBox="0 0 810 809.999993" height="1080" preserveAspectRatio="xMidYMid meet" version="1.0"><defs><g/></defs><path fill="#ffffff" d="M 765.105469 165.804688 C 764.023438 156.746094 763.039062 147.574219 761.199219 138.632812 C 760.363281 134.574219 759.265625 130.570312 757.707031 126.730469 C 756.230469 123.101562 754.496094 118.234375 750.316406 117.019531 C 745.878906 115.726562 742.371094 119.195312 739.160156 121.695312 C 735.734375 124.371094 732.355469 127.101562 729.023438 129.890625 C 722.472656 135.375 716.109375 141.078125 709.941406 146.988281 C 695.832031 160.511719 682.851562 175.128906 670.925781 190.605469 C 669.585938 192.34375 670.660156 195.152344 672.378906 196.160156 C 674.128906 197.183594 675.882812 196.6875 677.199219 195.488281 C 677.886719 196.164062 678.816406 196.585938 679.917969 196.527344 C 684.976562 196.257812 690.046875 196.390625 695.078125 196.964844 C 694.953125 200.15625 694.828125 203.347656 694.707031 206.542969 C 694.582031 209.75 698.210938 211.421875 700.8125 210.046875 C 705.253906 207.699219 711.355469 210.929688 712.871094 215.488281 C 713.933594 218.675781 712.1875 222.257812 711.472656 225.332031 C 710.554688 229.269531 710.367188 233.308594 712.667969 236.824219 C 714.179688 239.140625 716.988281 239.386719 719.042969 237.648438 C 722.886719 234.382812 729.1875 235.824219 732.433594 239.230469 C 736.808594 243.8125 736.585938 250.910156 734.546875 256.472656 C 733.039062 260.59375 738.546875 262.832031 741.332031 260.421875 C 768.324219 237.03125 769.007812 198.484375 765.105469 165.804688 Z M 738.257812 141.75 C 738.375 145.339844 738.488281 148.933594 738.5625 152.527344 C 738.414062 152.476562 738.261719 152.445312 738.105469 152.414062 C 738.117188 151.140625 737.683594 149.972656 736.578125 149.121094 C 736.316406 148.917969 736.003906 148.746094 735.667969 148.601562 C 735.28125 147.566406 734.835938 146.542969 734.339844 145.535156 C 735.644531 144.273438 736.953125 143.011719 738.257812 141.75 Z M 730.644531 171.597656 C 729.578125 171.535156 728.515625 171.859375 727.730469 172.605469 C 727.75 172.414062 727.777344 172.226562 727.800781 172.035156 C 728.425781 171.867188 729.007812 171.550781 729.464844 171.019531 C 729.859375 170.5625 730.230469 170.085938 730.605469 169.609375 C 730.617188 170.273438 730.628906 170.9375 730.644531 171.597656 Z M 738.765625 166.320312 C 738.773438 167.648438 738.753906 168.972656 738.757812 170.300781 C 738.746094 170.304688 738.738281 170.300781 738.730469 170.304688 C 738.71875 169.753906 738.710938 169.199219 738.699219 168.65625 C 738.628906 165.878906 738.5 163.097656 738.226562 160.34375 C 738.277344 160.324219 738.335938 160.296875 738.382812 160.285156 C 738.484375 160.253906 738.578125 160.203125 738.675781 160.167969 C 738.699219 162.21875 738.753906 164.269531 738.765625 166.320312 Z M 718.8125 187.65625 C 717.484375 181.769531 717.152344 175.789062 717.808594 169.867188 C 718.425781 171.347656 718.925781 172.875 719.3125 174.429688 C 718.890625 178.820312 718.738281 183.238281 718.8125 187.65625 Z M 705.289062 177.90625 C 705.34375 177.847656 705.367188 177.855469 705.289062 177.90625 Z M 703.101562 178.484375 C 703.027344 178.46875 703.035156 178.453125 703.101562 178.484375 Z M 748.253906 182.308594 C 748.3125 187.117188 748.183594 192.007812 747.597656 196.808594 C 747.394531 193.980469 747.070312 191.160156 746.648438 188.351562 C 746.671875 188.125 746.703125 187.898438 746.722656 187.671875 C 747.160156 181.949219 746.910156 176.101562 746.898438 170.367188 C 746.898438 169.800781 746.882812 169.234375 746.878906 168.667969 C 747.234375 170.007812 747.578125 171.347656 747.921875 172.691406 C 748.089844 175.894531 748.210938 179.097656 748.253906 182.308594 Z M 721.632812 160.066406 C 721.332031 159.609375 721.011719 159.167969 720.691406 158.71875 C 721.226562 158.203125 721.765625 157.683594 722.300781 157.164062 C 722.058594 158.128906 721.847656 159.097656 721.632812 160.066406 Z M 709.417969 173.445312 C 708.808594 172.734375 708.152344 172.085938 707.40625 171.554688 C 708.171875 170.816406 708.9375 170.078125 709.703125 169.335938 C 709.5625 170.703125 709.46875 172.074219 709.417969 173.445312 Z M 703.1875 192.425781 C 703.015625 191.800781 702.683594 191.183594 702.238281 190.675781 C 702.972656 190.859375 703.703125 191.058594 704.421875 191.292969 C 703.984375 191.652344 703.570312 192.03125 703.1875 192.425781 Z M 738.882812 234.261719 C 738.738281 234.097656 738.605469 233.925781 738.457031 233.769531 C 738.601562 233.65625 738.742188 233.542969 738.886719 233.429688 C 738.875 233.707031 738.886719 233.984375 738.882812 234.261719 Z M 728.363281 227.652344 C 728.519531 227.898438 728.703125 228.121094 728.898438 228.332031 C 728.472656 228.234375 728.046875 228.152344 727.621094 228.082031 C 727.871094 227.941406 728.125 227.808594 728.363281 227.652344 Z M 743.464844 243.617188 C 744.042969 243.824219 744.660156 243.910156 745.277344 243.839844 C 744.8125 244.511719 744.332031 245.171875 743.839844 245.828125 C 743.746094 245.082031 743.625 244.34375 743.464844 243.617188 Z M 748.027344 125.167969 C 747.957031 125.109375 747.890625 125.011719 747.828125 124.796875 C 747.863281 124.925781 747.953125 125.042969 748.039062 125.15625 C 748.082031 125.105469 748.132812 125.054688 748.167969 125.003906 C 748.695312 124.273438 748.386719 125.390625 748.054688 125.1875 C 748.132812 125.289062 748.210938 125.394531 748.242188 125.515625 C 748.484375 126.417969 749.203125 127.367188 749.589844 128.234375 C 751.128906 131.683594 752.164062 135.371094 752.996094 139.046875 C 754.796875 147.019531 755.675781 155.226562 756.683594 163.328125 C 757.574219 170.484375 758.34375 177.746094 758.71875 185.019531 C 758.039062 180.679688 757.125 176.390625 756.078125 172.125 C 755.542969 162.230469 754.355469 152.351562 752.714844 142.625 C 752.128906 139.140625 751.78125 135.300781 750.679688 131.9375 C 749.683594 128.894531 746.5 128.15625 743.976562 129.261719 C 743.714844 129.089844 743.4375 128.953125 743.144531 128.839844 C 743.5 128.5625 743.839844 128.269531 744.195312 127.992188 C 745.238281 127.171875 747.152344 126.214844 748.027344 125.167969 Z M 145.425781 99.566406 C 118.546875 91.074219 90.609375 85.128906 62.515625 82.597656 C 51.589844 81.613281 40.390625 81 29.472656 82.390625 C 29.125 82.433594 28.789062 82.515625 28.464844 82.617188 C 27.550781 82.804688 26.71875 83.316406 26.136719 84.175781 C 26.125 84.1875 26.117188 84.199219 26.109375 84.210938 C 26.011719 84.359375 25.917969 84.511719 25.835938 84.679688 C 25.753906 84.84375 25.6875 85.019531 25.628906 85.199219 C 25.609375 85.257812 25.578125 85.308594 25.558594 85.371094 C 16.652344 115.710938 11.375 147.109375 9.839844 178.695312 C 9.082031 194.304688 9.25 209.960938 10.351562 225.546875 C 11.25 238.222656 12.542969 250.574219 16.65625 262.648438 C 20.65625 274.375 26.210938 287.628906 35.84375 295.890625 C 39.789062 299.273438 45.558594 293.558594 41.582031 290.152344 C 33.679688 283.375 28.976562 272.820312 25.460938 263.246094 C 23.558594 258.066406 21.960938 252.746094 20.851562 247.335938 C 19.582031 241.125 19.175781 234.71875 18.683594 228.410156 C 16.328125 198.265625 17.417969 167.789062 22.085938 137.910156 C 24.601562 121.789062 28.167969 105.851562 32.65625 90.164062 C 40.933594 89.410156 49.332031 89.726562 57.597656 90.316406 C 70.003906 91.207031 82.335938 92.960938 94.558594 95.242188 C 123.035156 100.554688 151.398438 108.523438 177.871094 120.390625 C 191.761719 126.621094 205.425781 133.949219 217.457031 143.339844 C 219.183594 144.6875 221.515625 145.023438 223.199219 143.339844 C 224.601562 141.9375 224.9375 138.957031 223.199219 137.601562 C 200.335938 119.757812 172.90625 108.246094 145.425781 99.566406 Z M 106.304688 167.984375 C 95.941406 156.925781 84.433594 146.949219 72.441406 137.703125 C 67.035156 133.539062 61.503906 129.523438 55.765625 125.832031 C 52.539062 123.761719 49.507812 126.960938 49.820312 129.933594 C 49.5 130.355469 49.253906 130.886719 49.117188 131.535156 C 41.613281 167.351562 34.246094 206.230469 51.480469 240.507812 C 55.640625 248.78125 61.265625 256.351562 68.160156 262.539062 C 70.003906 264.195312 73.269531 264.15625 74.535156 261.71875 C 76.042969 258.816406 76.113281 255.980469 75.636719 252.808594 C 75.3125 250.648438 74.316406 247.976562 75.398438 245.90625 C 78.101562 240.738281 86.136719 242.875 90.441406 243.886719 C 93.003906 244.492188 95.5625 242.6875 95.578125 239.972656 C 95.613281 234.402344 93.25 229.113281 93.4375 223.570312 C 93.496094 221.910156 93.863281 219.851562 95.164062 218.683594 C 95.980469 217.949219 97.753906 217.277344 98.671875 218.117188 C 101.433594 220.644531 106.941406 218.21875 105.453125 214.167969 C 104.199219 210.742188 106.371094 207.3125 109.527344 205.796875 C 113.957031 203.664062 119.335938 204.988281 123.785156 206.320312 C 125.375 206.796875 126.667969 206.335938 127.546875 205.4375 C 128.722656 204.59375 129.398438 203.15625 128.78125 201.328125 C 124.460938 188.582031 115.378906 177.667969 106.304688 167.984375 Z M 67.300781 244.53125 C 67.242188 244.453125 67.179688 244.371094 67.121094 244.289062 C 67.042969 244.183594 66.96875 244.070312 66.894531 243.960938 C 67.121094 243.910156 67.332031 243.832031 67.542969 243.761719 C 67.457031 244.015625 67.371094 244.273438 67.300781 244.53125 Z M 63.570312 187.53125 C 62.640625 187.390625 61.667969 187.542969 60.839844 187.953125 C 60.714844 185.566406 60.589844 183.179688 60.46875 180.792969 C 61.527344 183.027344 62.5625 185.273438 63.570312 187.53125 Z M 67.257812 157.664062 C 67.238281 157.625 67.214844 157.585938 67.199219 157.550781 C 67.277344 157.46875 67.371094 157.410156 67.457031 157.335938 C 67.382812 157.4375 67.324219 157.554688 67.257812 157.664062 Z M 74.871094 227.492188 C 75.441406 227.601562 76.03125 227.570312 76.613281 227.359375 C 77.058594 227.921875 77.519531 228.480469 77.984375 229.03125 C 76.886719 229.148438 75.792969 229.265625 74.699219 229.382812 C 74.769531 228.753906 74.820312 228.125 74.871094 227.492188 Z M 102.734375 189.125 C 100.832031 187.5 98.933594 185.875 97.066406 184.210938 C 96.941406 183.472656 96.617188 182.769531 96.007812 182.160156 C 95.40625 181.558594 94.492188 181.128906 93.554688 180.996094 C 93.480469 180.929688 93.410156 180.867188 93.335938 180.800781 C 93.640625 180.425781 93.867188 180.035156 94.007812 179.625 C 95.855469 181.828125 97.734375 184 99.535156 186.242188 C 100.410156 187.324219 101.949219 187.589844 103.292969 187.277344 C 103.707031 187.679688 104.128906 188.078125 104.535156 188.488281 C 104.625 188.574219 104.730469 188.675781 104.839844 188.78125 C 104.132812 188.855469 103.429688 188.96875 102.734375 189.125 Z M 72.265625 155.566406 C 72.269531 155.75 72.292969 155.933594 72.324219 156.113281 C 71.261719 155.597656 70.035156 155.539062 68.859375 156.136719 C 69.671875 155.199219 69.917969 154.046875 69.730469 152.949219 C 70.585938 153.8125 71.417969 154.695312 72.265625 155.566406 Z M 64.410156 149.660156 C 64.28125 148.921875 64.199219 148.175781 64.148438 147.429688 C 64.804688 148.070312 65.480469 148.691406 66.132812 149.335938 C 65.585938 149.296875 65.003906 149.402344 64.410156 149.660156 Z M 54.1875 147.160156 C 54.472656 148.425781 54.757812 149.695312 55.046875 150.960938 C 54.308594 151.316406 53.683594 151.851562 53.164062 152.503906 C 53.496094 150.722656 53.835938 148.941406 54.1875 147.160156 Z M 51.320312 163.238281 C 51.328125 163.394531 51.339844 163.546875 51.347656 163.699219 C 51.28125 163.867188 51.230469 164.035156 51.167969 164.203125 C 51.214844 163.882812 51.269531 163.5625 51.320312 163.238281 Z M 86.90625 234.273438 C 86.945312 234.507812 86.980469 234.742188 87.019531 234.972656 C 86.84375 234.949219 86.667969 234.929688 86.492188 234.90625 C 86.652344 234.710938 86.789062 234.5 86.90625 234.273438 Z M 85.953125 219.09375 C 85.949219 219.085938 85.949219 219.078125 85.949219 219.074219 C 85.953125 219.070312 85.957031 219.070312 85.960938 219.066406 C 85.957031 219.078125 85.953125 219.085938 85.953125 219.09375 Z M 113.234375 196.664062 C 114.019531 196.128906 114.636719 195.355469 114.851562 194.429688 C 115.066406 193.519531 115.113281 192.660156 115.082031 191.820312 C 116.136719 193.445312 117.132812 195.105469 118.039062 196.8125 C 116.433594 196.632812 114.824219 196.570312 113.234375 196.664062 Z M 795.308594 137.640625 C 792.636719 119.976562 788.75 102.511719 783.714844 85.371094 C 783.703125 85.328125 783.683594 85.292969 783.667969 85.25 C 783.601562 85.03125 783.519531 84.820312 783.414062 84.625 C 783.363281 84.519531 783.300781 84.421875 783.242188 84.324219 C 783.191406 84.25 783.144531 84.171875 783.089844 84.101562 C 782.515625 83.296875 781.710938 82.8125 780.832031 82.621094 C 780.5 82.519531 780.160156 82.4375 779.800781 82.390625 C 770.324219 81.183594 760.640625 81.539062 751.140625 82.238281 C 738.089844 83.203125 725.09375 85.0625 712.234375 87.472656 C 682.910156 92.96875 653.90625 101.382812 626.679688 113.664062 C 612.308594 120.148438 598.523438 127.886719 586.078125 137.601562 C 584.347656 138.949219 584.660156 141.925781 586.078125 143.339844 C 587.785156 145.046875 590.082031 144.695312 591.816406 143.339844 C 613.78125 126.199219 640.640625 115.328125 667.023438 107.074219 C 693.058594 98.925781 720.113281 93.0625 747.316406 90.667969 C 757.003906 89.8125 766.902344 89.273438 776.625 90.175781 C 784.785156 118.707031 789.757812 148.089844 791.269531 177.738281 C 792.03125 192.710938 791.945312 207.722656 790.996094 222.683594 C 790.210938 235.105469 789.140625 247.246094 785.246094 259.121094 C 781.664062 270.050781 776.640625 282.476562 767.691406 290.152344 C 763.71875 293.558594 769.484375 299.277344 773.429688 295.890625 C 782.027344 288.519531 787.179688 277.148438 791.125 266.785156 C 795.535156 255.203125 797.421875 243.574219 798.476562 231.273438 C 801.144531 200.0625 799.988281 168.605469 795.308594 137.640625 Z M 641.234375 131.625 C 640.222656 131.394531 638.992188 131.414062 638.109375 132.035156 C 634.660156 134.460938 631.210938 136.890625 627.765625 139.316406 C 626.882812 139.9375 626.195312 140.671875 625.898438 141.742188 C 625.632812 142.714844 625.753906 144.007812 626.308594 144.871094 C 626.867188 145.734375 627.699219 146.5 628.734375 146.734375 C 629.746094 146.964844 630.976562 146.949219 631.863281 146.324219 C 635.308594 143.898438 638.757812 141.472656 642.207031 139.042969 C 643.085938 138.425781 643.777344 137.6875 644.070312 136.617188 C 644.339844 135.648438 644.21875 134.355469 643.660156 133.492188 C 643.101562 132.625 642.269531 131.863281 641.234375 131.625 Z M 748.039062 125.15625 C 748.035156 125.160156 748.03125 125.164062 748.027344 125.167969 C 748.035156 125.175781 748.046875 125.179688 748.054688 125.1875 C 748.046875 125.175781 748.042969 125.164062 748.039062 125.15625 Z M 748.039062 125.15625 " fill-opacity="1" fill-rule="nonzero"/><g fill="#ffffff" fill-opacity="1"><g transform="translate(237.215983, 406.977069)"><g><path d="M 35.8125 -67.46875 C 33.25 -67.46875 30.960938 -68.191406 28.953125 -69.640625 C 26.953125 -71.097656 25.953125 -73.316406 25.953125 -76.296875 C 25.953125 -78.992188 26.898438 -81.15625 28.796875 -82.78125 C 30.703125 -84.40625 33.039062 -85.21875 35.8125 -85.21875 C 38.644531 -85.21875 41.015625 -84.40625 42.921875 -82.78125 C 44.828125 -81.15625 45.78125 -78.992188 45.78125 -76.296875 C 45.78125 -73.316406 44.773438 -71.097656 42.765625 -69.640625 C 40.753906 -68.191406 38.4375 -67.46875 35.8125 -67.46875 Z M 58.953125 -67.46875 C 56.390625 -67.46875 54.101562 -68.191406 52.09375 -69.640625 C 50.09375 -71.097656 49.09375 -73.316406 49.09375 -76.296875 C 49.09375 -78.992188 50.046875 -81.15625 51.953125 -82.78125 C 53.859375 -84.40625 56.191406 -85.21875 58.953125 -85.21875 C 61.796875 -85.21875 64.164062 -84.40625 66.0625 -82.78125 C 67.96875 -81.15625 68.921875 -78.992188 68.921875 -76.296875 C 68.921875 -73.316406 67.914062 -71.097656 65.90625 -69.640625 C 63.90625 -68.191406 61.585938 -67.46875 58.953125 -67.46875 Z M 86.046875 0 L 39.03125 0 C 27.125 0 18.382812 -2.972656 12.8125 -8.921875 C 7.25 -14.878906 4.46875 -23.390625 4.46875 -34.453125 L 4.46875 -52.515625 L 23.765625 -52.515625 L 23.765625 -36.4375 C 23.765625 -30.550781 25.476562 -26.222656 28.90625 -23.453125 C 32.332031 -20.691406 37.085938 -19.3125 43.171875 -19.3125 L 66.734375 -19.3125 L 66.734375 -60.515625 L 86.046875 -60.515625 Z M 86.046875 0 "/></g></g></g><g fill="#ffffff" fill-opacity="1"><g transform="translate(329.487871, 406.977069)"><g><path d="M 26.984375 -84.171875 L 26.984375 -19.3125 L 38.296875 -19.3125 L 38.296875 0 L 7.6875 0 L 7.6875 -84.171875 Z M 26.984375 -84.171875 "/></g></g></g><g fill="#ffffff" fill-opacity="1"><g transform="translate(365.71159, 406.977069)"><g><path d="M 69.75 0 L 0 0 L 0 -19.3125 L 50.234375 -19.3125 L 50.234375 -26.78125 C 50.234375 -30.164062 49.296875 -32.757812 47.421875 -34.5625 C 45.554688 -36.363281 43.035156 -37.265625 39.859375 -37.265625 L 10.59375 -37.265625 C 9.0625 -39.410156 7.691406 -42.125 6.484375 -45.40625 C 5.273438 -48.695312 4.632812 -52.382812 4.5625 -56.46875 L 19.3125 -84.171875 L 42.875 -84.171875 L 26.359375 -56.5625 L 37.359375 -56.5625 C 48.085938 -56.5625 56.164062 -53.878906 61.59375 -48.515625 C 67.03125 -43.160156 69.75 -34.738281 69.75 -23.25 Z M 69.75 0 "/></g></g></g><g fill="#ffffff" fill-opacity="1"><g transform="translate(440.650063, 406.977069)"><g><path d="M 59.171875 -19.3125 L 70.375 -19.3125 L 70.375 0 L 58.75 0 C 57.78125 8.238281 54.957031 14.101562 50.28125 17.59375 C 45.613281 21.082031 39.09375 22.828125 30.71875 22.828125 C 28.09375 22.828125 25.484375 22.738281 22.890625 22.5625 C 20.296875 22.394531 17.648438 22.070312 14.953125 21.59375 L 11.734375 3.421875 C 14.640625 3.910156 17.71875 4.289062 20.96875 4.5625 C 24.21875 4.84375 27.4375 4.984375 30.625 4.984375 C 33.175781 4.984375 35.226562 4.632812 36.78125 3.9375 C 38.34375 3.25 39.300781 1.9375 39.65625 0 L 37.265625 0 C 30.753906 0 25.039062 -1.257812 20.125 -3.78125 C 15.21875 -6.3125 11.394531 -9.828125 8.65625 -14.328125 C 5.925781 -18.828125 4.5625 -24.082031 4.5625 -30.09375 L 4.5625 -30.203125 C 4.5625 -36.296875 6.03125 -41.609375 8.96875 -46.140625 C 11.914062 -50.671875 16.035156 -54.195312 21.328125 -56.71875 C 26.617188 -59.25 32.796875 -60.515625 39.859375 -60.515625 L 58.125 -60.515625 C 58.257812 -60.515625 58.414062 -60.515625 58.59375 -60.515625 C 58.769531 -60.515625 58.925781 -60.515625 59.0625 -60.515625 L 59.171875 -60.515625 Z M 39.65625 -19.3125 L 39.65625 -41.203125 L 35.5 -41.203125 C 32.039062 -41.203125 29.046875 -40.269531 26.515625 -38.40625 C 23.992188 -36.539062 22.734375 -33.804688 22.734375 -30.203125 L 22.734375 -30.09375 C 22.734375 -26.632812 23.992188 -23.972656 26.515625 -22.109375 C 29.046875 -20.242188 32.039062 -19.3125 35.5 -19.3125 Z M 39.65625 -19.3125 "/></g></g></g><g fill="#ffffff" fill-opacity="1"><g transform="translate(508.94579, 406.977069)"><g><path d="M 29.0625 -84.171875 L 29.0625 -19.3125 L 40.890625 -19.3125 L 40.890625 0 L 0 0 L 0 -19.3125 L 9.75 -19.3125 L 9.75 -84.171875 Z M 29.0625 -84.171875 "/></g></g></g><g fill="#ffffff" fill-opacity="1"><g transform="translate(547.764331, 406.977069)"><g><path d="M 28.546875 0 L 0 0 L 0 -19.3125 L 9.234375 -19.3125 L 9.234375 -60.515625 L 28.546875 -60.515625 Z M 14.21875 26.671875 C 11.59375 26.671875 9.257812 25.925781 7.21875 24.4375 C 5.175781 22.957031 4.15625 20.691406 4.15625 17.640625 C 4.15625 14.941406 5.140625 12.78125 7.109375 11.15625 C 9.078125 9.53125 11.445312 8.71875 14.21875 8.71875 C 17.050781 8.71875 19.421875 9.53125 21.328125 11.15625 C 23.234375 12.78125 24.1875 14.941406 24.1875 17.640625 C 24.1875 20.691406 23.179688 22.957031 21.171875 24.4375 C 19.171875 25.925781 16.851562 26.671875 14.21875 26.671875 Z M 14.21875 26.671875 "/></g></g></g><g fill="#ffffff" fill-opacity="1"><g transform="translate(182.720554, 513.807258)"><g><path d="M 41 0 L 5.296875 0 L 5.296875 -84.171875 L 41.9375 -84.171875 C 48.644531 -84.171875 53.953125 -83.375 57.859375 -81.78125 C 61.773438 -80.195312 64.578125 -77.898438 66.265625 -74.890625 C 67.960938 -71.878906 68.8125 -68.191406 68.8125 -63.828125 L 68.8125 -63.625 C 68.8125 -58.300781 67.492188 -54.0625 64.859375 -50.90625 C 62.234375 -47.757812 58.640625 -45.664062 54.078125 -44.625 C 59.960938 -43.726562 64.507812 -41.515625 67.71875 -37.984375 C 70.9375 -34.460938 72.546875 -29.929688 72.546875 -24.390625 L 72.546875 -24.078125 C 72.546875 -17.992188 71.144531 -13.203125 68.34375 -9.703125 C 65.539062 -6.210938 61.769531 -3.722656 57.03125 -2.234375 C 52.289062 -0.742188 46.945312 0 41 0 Z M 24.59375 -66.21875 L 24.59375 -49.921875 L 39.125 -49.921875 C 42.382812 -49.921875 44.929688 -50.539062 46.765625 -51.78125 C 48.597656 -53.03125 49.515625 -55.039062 49.515625 -57.8125 L 49.515625 -58.234375 C 49.515625 -61.203125 48.664062 -63.273438 46.96875 -64.453125 C 45.269531 -65.628906 42.796875 -66.21875 39.546875 -66.21875 Z M 24.59375 -36.125 L 24.59375 -18.0625 L 42.25 -18.0625 C 45.707031 -18.0625 48.332031 -18.851562 50.125 -20.4375 C 51.925781 -22.03125 52.828125 -24.28125 52.828125 -27.1875 L 52.828125 -27.609375 C 52.828125 -30.304688 51.875 -32.398438 49.96875 -33.890625 C 48.070312 -35.378906 45.394531 -36.125 41.9375 -36.125 Z M 24.59375 -36.125 "/></g></g></g><g fill="#ffffff" fill-opacity="1"><g transform="translate(258.593163, 513.807258)"><g><path d="M 24.8125 0 L 5.296875 0 L 5.296875 -84.171875 L 24.8125 -84.171875 Z M 24.8125 0 "/></g></g></g><g fill="#ffffff" fill-opacity="1"><g transform="translate(288.7969, 513.807258)"><g><path d="M 38.09375 1.765625 C 31.382812 1.765625 25.46875 0.363281 20.34375 -2.4375 C 15.21875 -5.238281 11.21875 -9.09375 8.34375 -14 C 5.476562 -18.914062 4.046875 -24.488281 4.046875 -30.71875 L 4.046875 -30.828125 C 4.046875 -37.117188 5.476562 -42.6875 8.34375 -47.53125 C 11.21875 -52.382812 15.21875 -56.191406 20.34375 -58.953125 C 25.46875 -61.722656 31.382812 -63.109375 38.09375 -63.109375 C 44.875 -63.109375 50.804688 -61.722656 55.890625 -58.953125 C 60.984375 -56.191406 64.960938 -52.382812 67.828125 -47.53125 C 70.703125 -42.6875 72.140625 -37.117188 72.140625 -30.828125 L 72.140625 -30.71875 C 72.140625 -24.488281 70.703125 -18.914062 67.828125 -14 C 64.960938 -9.09375 60.96875 -5.238281 55.84375 -2.4375 C 50.71875 0.363281 44.800781 1.765625 38.09375 1.765625 Z M 38.09375 -15.671875 C 42.445312 -15.671875 45.9375 -17.125 48.5625 -20.03125 C 51.195312 -22.9375 52.515625 -26.535156 52.515625 -30.828125 L 52.515625 -30.9375 C 52.515625 -35.21875 51.234375 -38.742188 48.671875 -41.515625 C 46.117188 -44.285156 42.59375 -45.671875 38.09375 -45.671875 C 33.664062 -45.671875 30.15625 -44.285156 27.5625 -41.515625 C 24.96875 -38.742188 23.671875 -35.21875 23.671875 -30.9375 L 23.671875 -30.828125 C 23.671875 -26.535156 24.984375 -22.9375 27.609375 -20.03125 C 30.234375 -17.125 33.726562 -15.671875 38.09375 -15.671875 Z M 38.09375 -15.671875 "/></g></g></g><g fill="#ffffff" fill-opacity="1"><g transform="translate(364.980891, 513.807258)"><g><path d="M 24.8125 -31.765625 L 25.4375 -30.625 L 24.8125 -29.578125 L 24.8125 0 L 5.296875 0 L 5.296875 -84.171875 L 24.8125 -84.171875 Z M 46.8125 -30.828125 L 65.90625 0 L 43.59375 0 L 25.4375 -30.625 L 44.015625 -60.40625 L 65.1875 -60.40625 Z M 46.8125 -30.828125 "/></g></g></g><g fill="#ffffff" fill-opacity="1"><g transform="translate(432.031089, 513.807258)"><g><path d="M 24.8125 -31.765625 L 25.4375 -30.625 L 24.8125 -29.578125 L 24.8125 0 L 5.296875 0 L 5.296875 -84.171875 L 24.8125 -84.171875 Z M 46.8125 -30.828125 L 65.90625 0 L 43.59375 0 L 25.4375 -30.625 L 44.015625 -60.40625 L 65.1875 -60.40625 Z M 46.8125 -30.828125 "/></g></g></g><g fill="#ffffff" fill-opacity="1"><g transform="translate(499.081287, 513.807258)"><g><path d="M 33.9375 -62.6875 C 39.75 -62.6875 44.78125 -61.941406 49.03125 -60.453125 C 53.289062 -58.972656 56.578125 -56.46875 58.890625 -52.9375 C 61.210938 -49.40625 62.375 -44.523438 62.375 -38.296875 L 62.375 -1.25 C 58.226562 -0.34375 53.609375 0.382812 48.515625 0.9375 C 43.429688 1.488281 38.675781 1.765625 34.25 1.765625 C 28.164062 1.765625 22.851562 1.144531 18.3125 -0.09375 C 13.78125 -1.34375 10.269531 -3.40625 7.78125 -6.28125 C 5.289062 -9.15625 4.046875 -13.046875 4.046875 -17.953125 L 4.046875 -18.0625 C 4.046875 -24.5625 6.5 -29.316406 11.40625 -32.328125 C 16.320312 -35.335938 22.757812 -36.84375 30.71875 -36.84375 C 32.800781 -36.84375 34.828125 -36.789062 36.796875 -36.6875 C 38.765625 -36.582031 40.820312 -36.359375 42.96875 -36.015625 L 42.96875 -37.671875 C 42.96875 -40.992188 41.773438 -43.296875 39.390625 -44.578125 C 37.003906 -45.859375 33.769531 -46.5 29.6875 -46.5 C 26.851562 -46.5 23.460938 -46.171875 19.515625 -45.515625 C 15.566406 -44.859375 11.929688 -43.941406 8.609375 -42.765625 L 13.078125 -59.78125 C 14.460938 -60.269531 16.28125 -60.722656 18.53125 -61.140625 C 20.78125 -61.554688 23.253906 -61.914062 25.953125 -62.21875 C 28.648438 -62.53125 31.3125 -62.6875 33.9375 -62.6875 Z M 24.078125 -19.3125 L 24.078125 -19.203125 C 24.078125 -16.984375 25.0625 -15.351562 27.03125 -14.3125 C 29.007812 -13.28125 31.691406 -12.765625 35.078125 -12.765625 C 36.328125 -12.765625 37.625 -12.816406 38.96875 -12.921875 C 40.320312 -13.023438 41.65625 -13.144531 42.96875 -13.28125 L 42.96875 -24.90625 C 41.65625 -25.1875 40.289062 -25.378906 38.875 -25.484375 C 37.457031 -25.585938 36.191406 -25.640625 35.078125 -25.640625 C 31.691406 -25.640625 29.007812 -25.171875 27.03125 -24.234375 C 25.0625 -23.296875 24.078125 -21.65625 24.078125 -19.3125 Z M 24.078125 -19.3125 "/></g></g></g><g fill="#ffffff" fill-opacity="1"><g transform="translate(566.650452, 513.807258)"><g><path d="M 53.140625 0 L 31.65625 0 C 24.738281 0 19.773438 -1.640625 16.765625 -4.921875 C 13.753906 -8.210938 12.25 -13.210938 12.25 -19.921875 L 12.25 -42.453125 L 2.078125 -42.453125 L 2.078125 -60.515625 L 12.25 -60.515625 L 12.25 -78.265625 L 31.859375 -78.265625 L 31.859375 -60.515625 L 53.046875 -60.515625 L 53.046875 -42.453125 L 31.859375 -42.453125 L 31.859375 -26.15625 C 31.859375 -23.457031 32.550781 -21.453125 33.9375 -20.140625 C 35.320312 -18.828125 37.535156 -18.171875 40.578125 -18.171875 L 53.140625 -18.171875 Z M 53.140625 0 "/></g></g></g><g fill="#ffffff" fill-opacity="1"><g transform="translate(624.048661, 513.807258)"><g/></g></g><path stroke-linecap="butt" transform="matrix(0.75, 0, 0, 0.75, 72.302549, 439.017166)" fill="none" stroke-linejoin="miter" d="M -0.00235655 7.497946 L 99.52369 7.497946 " stroke="#ffffff" stroke-width="15" stroke-opacity="1" stroke-miterlimit="4"/><path stroke-linecap="butt" transform="matrix(0.75, 0, 0, 0.75, 45.195738, 470.763668)" fill="none" stroke-linejoin="miter" d="M -0.000567368 7.497401 L 135.666106 7.497401 " stroke="#ffffff" stroke-width="15" stroke-opacity="1" stroke-miterlimit="4"/><path stroke-linecap="butt" transform="matrix(0.75, 0, 0, 0.75, 22.553231, 504.184747)" fill="none" stroke-linejoin="miter" d="M 0.00194199 7.498463 L 165.856117 7.498463 " stroke="#ffffff" stroke-width="15" stroke-opacity="1" stroke-miterlimit="4"/><path stroke-linecap="butt" transform="matrix(0.75, 0, 0, 0.75, 663.053226, 439.017166)" fill="none" stroke-linejoin="miter" d="M 0.00194848 7.497946 L 99.527995 7.497946 " stroke="#ffffff" stroke-width="15" stroke-opacity="1" stroke-miterlimit="4"/><path stroke-linecap="butt" transform="matrix(0.75, 0, 0, 0.75, 663.053226, 470.763668)" fill="none" stroke-linejoin="miter" d="M 0.00194848 7.497401 L 135.668622 7.497401 " stroke="#ffffff" stroke-width="15" stroke-opacity="1" stroke-miterlimit="4"/><path stroke-linecap="butt" transform="matrix(0.75, 0, 0, 0.75, 663.053226, 504.184747)" fill="none" stroke-linejoin="miter" d="M 0.00194848 7.498463 L 165.856123 7.498463 " stroke="#ffffff" stroke-width="15" stroke-opacity="1" stroke-miterlimit="4"/></svg>