<?xml version="1.0" encoding="UTF-8"?>
<svg xmlns="http://www.w3.org/2000/svg" xmlns:xlink="http://www.w3.org/1999/xlink" width="810px" height="810px" viewBox="0 0 810 810" version="1.1">
<g id="surface1">
<path style=" stroke:none;fill-rule:nonzero;fill:rgb(0%,0%,0%);fill-opacity:1;" d="M 765.105469 165.808594 C 764.027344 156.75 763.042969 147.574219 761.203125 138.632812 C 760.359375 134.578125 759.269531 130.570312 757.710938 126.726562 C 756.234375 123.105469 754.5 118.230469 750.316406 117.023438 C 745.875 115.722656 742.371094 119.191406 739.160156 121.699219 C 735.738281 124.371094 732.351562 127.101562 729.023438 129.890625 C 722.472656 135.375 716.109375 141.082031 709.945312 146.988281 C 695.835938 160.511719 682.851562 175.125 670.921875 190.605469 C 669.585938 192.339844 670.664062 195.152344 672.375 196.160156 C 674.132812 197.179688 675.878906 196.6875 677.203125 195.492188 C 677.882812 196.160156 678.820312 196.582031 679.921875 196.523438 C 684.972656 196.253906 690.046875 196.394531 695.074219 196.96875 C 694.957031 200.15625 694.828125 203.34375 694.710938 206.542969 C 694.582031 209.753906 698.214844 211.417969 700.816406 210.046875 C 705.257812 207.703125 711.351562 210.925781 712.875 215.484375 C 713.929688 218.671875 712.183594 222.257812 711.46875 225.328125 C 710.554688 229.265625 710.367188 233.308594 712.664062 236.824219 C 714.175781 239.144531 716.988281 239.390625 719.039062 237.644531 C 722.882812 234.386719 729.1875 235.828125 732.433594 239.226562 C 736.804688 243.808594 736.582031 250.910156 734.542969 256.476562 C 733.042969 260.589844 738.550781 262.828125 741.328125 260.425781 C 768.328125 237.035156 769.007812 198.480469 765.105469 165.808594 Z M 738.257812 141.75 C 738.375 145.335938 738.492188 148.933594 738.5625 152.53125 C 738.410156 152.472656 738.257812 152.449219 738.105469 152.414062 C 738.117188 151.136719 737.683594 149.976562 736.582031 149.121094 C 736.3125 148.921875 736.007812 148.746094 735.667969 148.605469 C 735.28125 147.5625 734.835938 146.542969 734.34375 145.535156 C 735.644531 144.269531 736.957031 143.015625 738.257812 141.75 Z M 730.640625 171.597656 C 729.574219 171.539062 728.519531 171.855469 727.734375 172.605469 C 727.746094 172.417969 727.78125 172.230469 727.804688 172.03125 C 728.425781 171.867188 729.011719 171.550781 729.46875 171.023438 C 729.855469 170.566406 730.230469 170.085938 730.605469 169.605469 C 730.617188 170.273438 730.628906 170.941406 730.640625 171.597656 Z M 738.761719 166.324219 C 738.773438 167.648438 738.75 168.972656 738.761719 170.296875 C 738.75 170.308594 738.738281 170.296875 738.726562 170.308594 C 738.714844 169.757812 738.714844 169.195312 738.703125 168.65625 C 738.632812 165.878906 738.503906 163.101562 738.222656 160.347656 C 738.28125 160.324219 738.339844 160.300781 738.386719 160.289062 C 738.480469 160.253906 738.574219 160.207031 738.679688 160.171875 C 738.703125 162.222656 738.75 164.273438 738.761719 166.324219 Z M 718.816406 187.652344 C 717.480469 181.769531 717.152344 175.792969 717.808594 169.863281 C 718.429688 171.351562 718.921875 172.875 719.308594 174.433594 C 718.886719 178.816406 718.734375 183.234375 718.816406 187.652344 Z M 705.292969 177.902344 C 705.339844 177.84375 705.363281 177.855469 705.292969 177.902344 Z M 703.101562 178.488281 C 703.03125 178.464844 703.03125 178.453125 703.101562 178.488281 Z M 748.253906 182.308594 C 748.3125 187.113281 748.183594 192.011719 747.597656 196.804688 C 747.398438 193.980469 747.070312 191.15625 746.648438 188.355469 C 746.671875 188.121094 746.707031 187.898438 746.71875 187.675781 C 747.164062 181.945312 746.90625 176.097656 746.894531 170.367188 C 746.894531 169.804688 746.882812 169.230469 746.882812 168.667969 C 747.234375 170.003906 747.574219 171.351562 747.925781 172.6875 C 748.089844 175.898438 748.207031 179.097656 748.253906 182.308594 Z M 721.628906 160.066406 C 721.335938 159.609375 721.007812 159.164062 720.691406 158.71875 C 721.230469 158.203125 721.769531 157.6875 722.296875 157.160156 C 722.0625 158.132812 721.851562 159.09375 721.628906 160.066406 Z M 709.417969 173.449219 C 708.808594 172.734375 708.152344 172.089844 707.402344 171.550781 C 708.175781 170.8125 708.9375 170.074219 709.699219 169.335938 C 709.558594 170.707031 709.464844 172.078125 709.417969 173.449219 Z M 703.183594 192.421875 C 703.019531 191.800781 702.679688 191.179688 702.234375 190.675781 C 702.972656 190.863281 703.699219 191.0625 704.425781 191.296875 C 703.980469 191.648438 703.570312 192.035156 703.183594 192.421875 Z M 738.878906 234.257812 C 738.738281 234.09375 738.609375 233.929688 738.457031 233.765625 C 738.597656 233.660156 738.738281 233.542969 738.890625 233.425781 C 738.878906 233.707031 738.890625 233.988281 738.878906 234.257812 Z M 728.367188 227.648438 C 728.519531 227.894531 728.707031 228.117188 728.894531 228.328125 C 728.472656 228.234375 728.050781 228.152344 727.617188 228.082031 C 727.875 227.941406 728.121094 227.8125 728.367188 227.648438 Z M 743.460938 243.621094 C 744.046875 243.820312 744.65625 243.914062 745.277344 243.84375 C 744.808594 244.511719 744.328125 245.167969 743.835938 245.824219 C 743.742188 245.085938 743.625 244.347656 743.460938 243.621094 Z M 748.03125 125.167969 C 747.960938 125.109375 747.890625 125.015625 747.832031 124.792969 C 747.867188 124.921875 747.949219 125.039062 748.042969 125.15625 C 748.078125 125.109375 748.136719 125.050781 748.171875 125.003906 C 748.699219 124.277344 748.382812 125.390625 748.054688 125.191406 C 748.136719 125.285156 748.207031 125.390625 748.242188 125.519531 C 748.488281 126.421875 749.203125 127.371094 749.589844 128.238281 C 751.125 131.683594 752.167969 135.375 753 139.042969 C 754.792969 147.023438 755.671875 155.226562 756.679688 163.324219 C 757.570312 170.484375 758.34375 177.75 758.71875 185.015625 C 758.039062 180.679688 757.125 176.390625 756.082031 172.125 C 755.542969 162.234375 754.359375 152.355469 752.71875 142.628906 C 752.132812 139.136719 751.78125 135.304688 750.679688 131.941406 C 749.683594 128.894531 746.496094 128.15625 743.976562 129.257812 C 743.71875 129.09375 743.4375 128.953125 743.144531 128.835938 C 743.496094 128.566406 743.835938 128.273438 744.199219 127.992188 C 745.242188 127.171875 747.152344 126.210938 748.03125 125.167969 Z M 145.429688 99.5625 C 118.546875 91.078125 90.609375 85.125 62.519531 82.59375 C 51.585938 81.609375 40.394531 81 29.472656 82.394531 C 29.121094 82.429688 28.792969 82.511719 28.464844 82.617188 C 27.550781 82.804688 26.71875 83.320312 26.132812 84.175781 C 26.121094 84.1875 26.121094 84.199219 26.109375 84.210938 C 26.015625 84.363281 25.921875 84.515625 25.839844 84.679688 C 25.757812 84.84375 25.6875 85.019531 25.628906 85.195312 C 25.605469 85.253906 25.582031 85.3125 25.558594 85.371094 C 16.652344 115.710938 11.378906 147.105469 9.84375 178.699219 C 9.082031 194.308594 9.246094 209.964844 10.347656 225.550781 C 11.25 238.21875 12.539062 250.570312 16.652344 262.652344 C 20.660156 274.371094 26.214844 287.625 35.847656 295.886719 C 39.785156 299.273438 45.5625 293.554688 41.578125 290.15625 C 33.679688 283.371094 28.980469 272.824219 25.464844 263.25 C 23.554688 258.070312 21.960938 252.75 20.847656 247.335938 C 19.582031 241.125 19.171875 234.714844 18.679688 228.410156 C 16.324219 198.269531 17.414062 167.789062 22.089844 137.90625 C 24.597656 121.792969 28.171875 105.855469 32.660156 90.164062 C 40.933594 89.414062 49.335938 89.730469 57.597656 90.316406 C 70.007812 91.207031 82.335938 92.964844 94.558594 95.238281 C 123.035156 100.558594 151.394531 108.527344 177.867188 120.386719 C 191.765625 126.621094 205.429688 133.945312 217.453125 143.34375 C 219.1875 144.691406 221.519531 145.019531 223.195312 143.34375 C 224.601562 141.9375 224.941406 138.960938 223.195312 137.601562 C 200.332031 119.753906 172.910156 108.246094 145.429688 99.5625 Z M 106.300781 167.988281 C 95.941406 156.925781 84.433594 146.953125 72.445312 137.707031 C 67.03125 133.535156 61.5 129.527344 55.769531 125.835938 C 52.535156 123.761719 49.511719 126.960938 49.816406 129.9375 C 49.5 130.359375 49.253906 130.886719 49.113281 131.53125 C 41.613281 167.355469 34.242188 206.226562 51.480469 240.503906 C 55.640625 248.777344 61.265625 256.347656 68.15625 262.535156 C 70.007812 264.199219 73.265625 264.152344 74.53125 261.714844 C 76.042969 258.820312 76.113281 255.984375 75.632812 252.808594 C 75.316406 250.652344 74.320312 247.980469 75.398438 245.90625 C 78.105469 240.738281 86.132812 242.871094 90.445312 243.890625 C 93 244.488281 95.566406 242.683594 95.578125 239.976562 C 95.613281 234.398438 93.246094 229.113281 93.433594 223.570312 C 93.492188 221.90625 93.867188 219.855469 95.167969 218.683594 C 95.976562 217.945312 97.757812 217.277344 98.671875 218.121094 C 101.4375 220.640625 106.945312 218.214844 105.457031 214.171875 C 104.203125 210.738281 106.371094 207.316406 109.523438 205.792969 C 113.953125 203.660156 119.332031 204.984375 123.785156 206.320312 C 125.378906 206.800781 126.667969 206.332031 127.546875 205.441406 C 128.71875 204.597656 129.398438 203.15625 128.777344 201.328125 C 124.464844 188.578125 115.382812 177.667969 106.300781 167.988281 Z M 67.300781 244.535156 C 67.242188 244.453125 67.183594 244.371094 67.125 244.289062 C 67.042969 244.183594 66.972656 244.066406 66.890625 243.960938 C 67.125 243.914062 67.335938 243.832031 67.546875 243.761719 C 67.453125 244.019531 67.371094 244.277344 67.300781 244.535156 Z M 63.574219 187.535156 C 62.636719 187.394531 61.664062 187.546875 60.84375 187.957031 C 60.714844 185.566406 60.585938 183.175781 60.46875 180.796875 C 61.523438 183.023438 62.566406 185.273438 63.574219 187.535156 Z M 67.253906 157.664062 C 67.242188 157.628906 67.21875 157.582031 67.195312 157.546875 C 67.277344 157.464844 67.371094 157.40625 67.453125 157.335938 C 67.382812 157.441406 67.324219 157.558594 67.253906 157.664062 Z M 74.871094 227.496094 C 75.445312 227.601562 76.03125 227.566406 76.617188 227.355469 C 77.0625 227.917969 77.519531 228.480469 77.988281 229.03125 C 76.886719 229.148438 75.796875 229.265625 74.695312 229.382812 C 74.765625 228.75 74.824219 228.128906 74.871094 227.496094 Z M 102.738281 189.128906 C 100.828125 187.5 98.929688 185.871094 97.066406 184.207031 C 96.9375 183.46875 96.621094 182.765625 96.011719 182.15625 C 95.402344 181.558594 94.488281 181.125 93.550781 180.996094 C 93.480469 180.925781 93.410156 180.867188 93.339844 180.796875 C 93.644531 180.421875 93.867188 180.035156 94.007812 179.625 C 95.859375 181.828125 97.734375 183.996094 99.539062 186.246094 C 100.40625 187.324219 101.953125 187.59375 103.289062 187.277344 C 103.710938 187.675781 104.132812 188.074219 104.53125 188.484375 C 104.625 188.578125 104.730469 188.671875 104.835938 188.777344 C 104.132812 188.859375 103.429688 188.964844 102.738281 189.128906 Z M 72.269531 155.566406 C 72.269531 155.753906 72.292969 155.929688 72.328125 156.117188 C 71.261719 155.601562 70.03125 155.542969 68.859375 156.140625 C 69.667969 155.203125 69.914062 154.042969 69.726562 152.953125 C 70.582031 153.808594 71.414062 154.699219 72.269531 155.566406 Z M 64.40625 149.660156 C 64.277344 148.921875 64.195312 148.171875 64.148438 147.433594 C 64.804688 148.066406 65.484375 148.6875 66.128906 149.332031 C 65.589844 149.296875 65.003906 149.402344 64.40625 149.660156 Z M 54.1875 147.164062 C 54.46875 148.429688 54.761719 149.695312 55.042969 150.960938 C 54.304688 151.3125 53.683594 151.851562 53.167969 152.507812 C 53.496094 150.726562 53.835938 148.945312 54.1875 147.164062 Z M 51.316406 163.242188 C 51.328125 163.394531 51.339844 163.546875 51.351562 163.699219 C 51.28125 163.863281 51.234375 164.039062 51.164062 164.203125 C 51.210938 163.886719 51.269531 163.558594 51.316406 163.242188 Z M 86.90625 234.269531 C 86.941406 234.503906 86.976562 234.738281 87.023438 234.972656 C 86.847656 234.949219 86.671875 234.925781 86.496094 234.902344 C 86.648438 234.714844 86.789062 234.503906 86.90625 234.269531 Z M 85.957031 219.09375 C 85.945312 219.082031 85.945312 219.082031 85.945312 219.070312 C 85.957031 219.070312 85.957031 219.070312 85.957031 219.070312 C 85.957031 219.082031 85.957031 219.082031 85.957031 219.09375 Z M 113.238281 196.664062 C 114.023438 196.125 114.632812 195.351562 114.855469 194.425781 C 115.066406 193.523438 115.113281 192.65625 115.078125 191.824219 C 116.132812 193.441406 117.128906 195.105469 118.042969 196.816406 C 116.4375 196.628906 114.820312 196.570312 113.238281 196.664062 Z M 795.304688 137.636719 C 792.632812 119.976562 788.753906 102.515625 783.714844 85.371094 C 783.703125 85.324219 783.679688 85.289062 783.667969 85.253906 C 783.597656 85.03125 783.515625 84.820312 783.410156 84.621094 C 783.363281 84.515625 783.304688 84.421875 783.246094 84.328125 C 783.1875 84.246094 783.140625 84.175781 783.09375 84.105469 C 782.519531 83.296875 781.710938 82.816406 780.832031 82.617188 C 780.503906 82.523438 780.164062 82.441406 779.800781 82.394531 C 770.320312 81.1875 760.640625 81.539062 751.136719 82.242188 C 738.09375 83.203125 725.097656 85.066406 712.230469 87.46875 C 682.910156 92.964844 653.90625 101.378906 626.683594 113.660156 C 612.304688 120.152344 598.523438 127.886719 586.078125 137.601562 C 584.34375 138.949219 584.660156 141.925781 586.078125 143.34375 C 587.789062 145.042969 590.085938 144.691406 591.820312 143.34375 C 613.78125 126.199219 640.640625 115.324219 667.019531 107.074219 C 693.058594 98.929688 720.117188 93.058594 747.316406 90.667969 C 757.007812 89.8125 766.898438 89.273438 776.625 90.175781 C 784.78125 118.710938 789.761719 148.089844 791.273438 177.738281 C 792.035156 192.714844 791.941406 207.726562 790.992188 222.679688 C 790.207031 235.101562 789.140625 247.242188 785.25 259.125 C 781.664062 270.046875 776.636719 282.480469 767.695312 290.15625 C 763.722656 293.554688 769.488281 299.273438 773.425781 295.886719 C 782.027344 288.515625 787.183594 277.148438 791.121094 266.789062 C 795.539062 255.199219 797.425781 243.574219 798.480469 231.269531 C 801.140625 200.0625 799.992188 168.609375 795.304688 137.636719 Z M 641.238281 131.625 C 640.21875 131.390625 638.988281 131.414062 638.109375 132.035156 C 634.664062 134.460938 631.207031 136.886719 627.761719 139.3125 C 626.882812 139.933594 626.191406 140.671875 625.898438 141.738281 C 625.628906 142.710938 625.757812 144.011719 626.308594 144.867188 C 626.871094 145.734375 627.703125 146.496094 628.734375 146.730469 C 629.742188 146.964844 630.972656 146.953125 631.863281 146.320312 C 635.308594 143.894531 638.753906 141.46875 642.210938 139.042969 C 643.089844 138.421875 643.78125 137.683594 644.074219 136.617188 C 644.34375 135.644531 644.214844 134.355469 643.664062 133.488281 C 643.101562 132.621094 642.269531 131.859375 641.238281 131.625 Z M 748.042969 125.15625 C 748.03125 125.15625 748.03125 125.167969 748.03125 125.167969 C 748.03125 125.179688 748.042969 125.179688 748.054688 125.191406 C 748.042969 125.179688 748.042969 125.167969 748.042969 125.15625 Z M 748.042969 125.15625 "/>
<path style=" stroke:none;fill-rule:nonzero;fill:rgb(0%,0%,0%);fill-opacity:1;" d="M 273.023438 339.503906 C 270.46875 339.503906 268.171875 338.789062 266.167969 337.335938 C 264.164062 335.882812 263.167969 333.65625 263.167969 330.679688 C 263.167969 327.984375 264.117188 325.816406 266.015625 324.199219 C 267.914062 322.570312 270.257812 321.761719 273.023438 321.761719 C 275.859375 321.761719 278.226562 322.570312 280.136719 324.199219 C 282.046875 325.816406 282.996094 327.984375 282.996094 330.679688 C 282.996094 333.65625 281.988281 335.882812 279.984375 337.335938 C 277.96875 338.789062 275.648438 339.503906 273.023438 339.503906 Z M 296.167969 339.503906 C 293.601562 339.503906 291.316406 338.789062 289.3125 337.335938 C 287.308594 335.882812 286.3125 333.65625 286.3125 330.679688 C 286.3125 327.984375 287.261719 325.816406 289.171875 324.199219 C 291.070312 322.570312 293.402344 321.761719 296.167969 321.761719 C 299.015625 321.761719 301.382812 322.570312 303.28125 324.199219 C 305.179688 325.816406 306.140625 327.984375 306.140625 330.679688 C 306.140625 333.65625 305.132812 335.882812 303.117188 337.335938 C 301.125 338.789062 298.804688 339.503906 296.167969 339.503906 Z M 323.261719 406.980469 L 276.246094 406.980469 C 264.339844 406.980469 255.597656 404.003906 250.03125 398.050781 C 244.464844 392.097656 241.6875 383.589844 241.6875 372.527344 L 241.6875 354.457031 L 260.976562 354.457031 L 260.976562 370.535156 C 260.976562 376.429688 262.6875 380.753906 266.121094 383.519531 C 269.542969 386.285156 274.300781 387.667969 280.382812 387.667969 L 303.949219 387.667969 L 303.949219 346.464844 L 323.261719 346.464844 Z M 323.261719 406.980469 "/>
<path style=" stroke:none;fill-rule:nonzero;fill:rgb(0%,0%,0%);fill-opacity:1;" d="M 356.472656 322.804688 L 356.472656 387.667969 L 367.78125 387.667969 L 367.78125 406.980469 L 337.171875 406.980469 L 337.171875 322.804688 Z M 356.472656 322.804688 "/>
<path style=" stroke:none;fill-rule:nonzero;fill:rgb(0%,0%,0%);fill-opacity:1;" d="M 435.457031 406.980469 L 365.707031 406.980469 L 365.707031 387.667969 L 415.945312 387.667969 L 415.945312 380.191406 C 415.945312 376.816406 415.007812 374.214844 413.132812 372.410156 C 411.269531 370.617188 408.75 369.714844 405.574219 369.714844 L 376.300781 369.714844 C 374.777344 367.570312 373.40625 364.851562 372.199219 361.570312 C 370.980469 358.277344 370.347656 354.597656 370.277344 350.507812 L 385.019531 322.804688 L 408.585938 322.804688 L 392.074219 350.414062 L 403.066406 350.414062 C 413.800781 350.414062 421.875 353.097656 427.300781 358.464844 C 432.738281 363.820312 435.457031 372.234375 435.457031 383.730469 Z M 435.457031 406.980469 "/>
<path style=" stroke:none;fill-rule:nonzero;fill:rgb(0%,0%,0%);fill-opacity:1;" d="M 499.816406 387.667969 L 511.019531 387.667969 L 511.019531 406.980469 L 499.394531 406.980469 C 498.433594 415.21875 495.609375 421.078125 490.933594 424.570312 C 486.257812 428.0625 479.742188 429.808594 471.363281 429.808594 C 468.738281 429.808594 466.136719 429.714844 463.535156 429.539062 C 460.945312 429.375 458.296875 429.046875 455.601562 428.566406 L 452.378906 410.402344 C 455.285156 410.882812 458.367188 411.269531 461.613281 411.539062 C 464.871094 411.820312 468.082031 411.960938 471.269531 411.960938 C 473.824219 411.960938 475.875 411.609375 477.433594 410.917969 C 478.992188 410.226562 479.953125 408.914062 480.304688 406.980469 L 477.914062 406.980469 C 471.398438 406.980469 465.691406 405.714844 460.769531 403.195312 C 455.871094 400.664062 452.039062 397.148438 449.308594 392.648438 C 446.578125 388.148438 445.207031 382.898438 445.207031 376.886719 L 445.207031 376.769531 C 445.207031 370.675781 446.683594 365.367188 449.613281 360.832031 C 452.566406 356.308594 456.679688 352.78125 461.976562 350.261719 C 467.261719 347.730469 473.449219 346.464844 480.503906 346.464844 L 498.773438 346.464844 C 498.902344 346.464844 499.066406 346.464844 499.242188 346.464844 C 499.417969 346.464844 499.570312 346.464844 499.710938 346.464844 L 499.816406 346.464844 Z M 480.304688 387.667969 L 480.304688 365.777344 L 476.144531 365.777344 C 472.6875 365.777344 469.699219 366.703125 467.167969 368.566406 C 464.636719 370.441406 463.382812 373.171875 463.382812 376.769531 L 463.382812 376.886719 C 463.382812 380.34375 464.636719 383.003906 467.167969 384.867188 C 469.699219 386.730469 472.6875 387.667969 476.144531 387.667969 Z M 480.304688 387.667969 "/>
<path style=" stroke:none;fill-rule:nonzero;fill:rgb(0%,0%,0%);fill-opacity:1;" d="M 538.007812 322.804688 L 538.007812 387.667969 L 549.832031 387.667969 L 549.832031 406.980469 L 508.945312 406.980469 L 508.945312 387.667969 L 518.695312 387.667969 L 518.695312 322.804688 Z M 538.007812 322.804688 "/>
<path style=" stroke:none;fill-rule:nonzero;fill:rgb(0%,0%,0%);fill-opacity:1;" d="M 576.316406 406.980469 L 547.769531 406.980469 L 547.769531 387.667969 L 557.003906 387.667969 L 557.003906 346.464844 L 576.316406 346.464844 Z M 561.984375 433.652344 C 559.359375 433.652344 557.027344 432.902344 554.988281 431.414062 C 552.9375 429.9375 551.917969 427.664062 551.917969 424.617188 C 551.917969 421.921875 552.902344 419.753906 554.871094 418.136719 C 556.839844 416.507812 559.207031 415.699219 561.984375 415.699219 C 564.820312 415.699219 567.1875 416.507812 569.097656 418.136719 C 570.996094 419.753906 571.957031 421.921875 571.957031 424.617188 C 571.957031 427.664062 570.949219 429.9375 568.933594 431.414062 C 566.941406 432.902344 564.621094 433.652344 561.984375 433.652344 Z M 561.984375 433.652344 "/>
<path style=" stroke:none;fill-rule:nonzero;fill:rgb(0%,0%,0%);fill-opacity:1;" d="M 223.722656 513.808594 L 188.015625 513.808594 L 188.015625 429.632812 L 224.660156 429.632812 C 231.363281 429.632812 236.671875 430.429688 240.574219 432.023438 C 244.488281 433.617188 247.300781 435.914062 248.988281 438.914062 C 250.675781 441.925781 251.53125 445.617188 251.53125 449.976562 L 251.53125 450.1875 C 251.53125 455.507812 250.207031 459.75 247.582031 462.902344 C 244.957031 466.054688 241.359375 468.140625 236.800781 469.183594 C 242.683594 470.085938 247.230469 472.289062 250.441406 475.828125 C 253.652344 479.34375 255.269531 483.878906 255.269531 489.421875 L 255.269531 489.726562 C 255.269531 495.820312 253.863281 500.601562 251.0625 504.105469 C 248.261719 507.597656 244.488281 510.082031 239.753906 511.570312 C 235.007812 513.070312 229.664062 513.808594 223.722656 513.808594 Z M 207.316406 447.585938 L 207.316406 463.886719 L 221.847656 463.886719 C 225.105469 463.886719 227.648438 463.265625 229.488281 462.023438 C 231.316406 460.78125 232.230469 458.765625 232.230469 456 L 232.230469 455.578125 C 232.230469 452.601562 231.386719 450.539062 229.6875 449.355469 C 227.988281 448.183594 225.515625 447.585938 222.269531 447.585938 Z M 207.316406 477.679688 L 207.316406 495.75 L 224.964844 495.75 C 228.421875 495.75 231.046875 494.953125 232.839844 493.371094 C 234.644531 491.777344 235.546875 489.527344 235.546875 486.621094 L 235.546875 486.199219 C 235.546875 483.503906 234.597656 481.40625 232.6875 479.917969 C 230.789062 478.429688 228.117188 477.679688 224.660156 477.679688 Z M 207.316406 477.679688 "/>
<path style=" stroke:none;fill-rule:nonzero;fill:rgb(0%,0%,0%);fill-opacity:1;" d="M 283.40625 513.808594 L 263.894531 513.808594 L 263.894531 429.632812 L 283.40625 429.632812 Z M 283.40625 513.808594 "/>
<path style=" stroke:none;fill-rule:nonzero;fill:rgb(0%,0%,0%);fill-opacity:1;" d="M 326.894531 515.578125 C 320.179688 515.578125 314.261719 514.171875 309.140625 511.371094 C 304.019531 508.570312 300.011719 504.714844 297.140625 499.804688 C 294.269531 494.894531 292.839844 489.316406 292.839844 483.09375 L 292.839844 482.976562 C 292.839844 476.695312 294.269531 471.117188 297.140625 466.277344 C 300.011719 461.425781 304.019531 457.617188 309.140625 454.851562 C 314.261719 452.085938 320.179688 450.703125 326.894531 450.703125 C 333.667969 450.703125 339.597656 452.085938 344.683594 454.851562 C 349.78125 457.617188 353.753906 461.425781 356.625 466.277344 C 359.496094 471.117188 360.9375 476.695312 360.9375 482.976562 L 360.9375 483.09375 C 360.9375 489.316406 359.496094 494.894531 356.625 499.804688 C 353.753906 504.714844 349.769531 508.570312 344.636719 511.371094 C 339.515625 514.171875 333.597656 515.578125 326.894531 515.578125 Z M 326.894531 498.140625 C 331.242188 498.140625 334.734375 496.6875 337.359375 493.78125 C 339.996094 490.875 341.308594 487.277344 341.308594 482.976562 L 341.308594 482.871094 C 341.308594 478.59375 340.03125 475.066406 337.464844 472.289062 C 334.910156 469.523438 331.394531 468.140625 326.894531 468.140625 C 322.464844 468.140625 318.949219 469.523438 316.359375 472.289062 C 313.769531 475.066406 312.46875 478.59375 312.46875 482.871094 L 312.46875 482.976562 C 312.46875 487.277344 313.78125 490.875 316.40625 493.78125 C 319.03125 496.6875 322.523438 498.140625 326.894531 498.140625 Z M 326.894531 498.140625 "/>
<path style=" stroke:none;fill-rule:nonzero;fill:rgb(0%,0%,0%);fill-opacity:1;" d="M 389.789062 482.039062 L 390.421875 483.1875 L 389.789062 484.230469 L 389.789062 513.808594 L 370.277344 513.808594 L 370.277344 429.632812 L 389.789062 429.632812 Z M 411.796875 482.976562 L 430.886719 513.808594 L 408.574219 513.808594 L 390.421875 483.1875 L 408.996094 453.398438 L 430.171875 453.398438 Z M 411.796875 482.976562 "/>
<path style=" stroke:none;fill-rule:nonzero;fill:rgb(0%,0%,0%);fill-opacity:1;" d="M 456.84375 482.039062 L 457.464844 483.1875 L 456.84375 484.230469 L 456.84375 513.808594 L 437.332031 513.808594 L 437.332031 429.632812 L 456.84375 429.632812 Z M 478.839844 482.976562 L 497.941406 513.808594 L 475.628906 513.808594 L 457.464844 483.1875 L 476.050781 453.398438 L 497.214844 453.398438 Z M 478.839844 482.976562 "/>
<path style=" stroke:none;fill-rule:nonzero;fill:rgb(0%,0%,0%);fill-opacity:1;" d="M 533.015625 451.125 C 538.828125 451.125 543.867188 451.863281 548.109375 453.351562 C 552.375 454.839844 555.65625 457.335938 557.976562 460.875 C 560.296875 464.402344 561.457031 469.289062 561.457031 475.511719 L 561.457031 512.554688 C 557.308594 513.46875 552.691406 514.195312 547.59375 514.746094 C 542.507812 515.296875 537.761719 515.578125 533.332031 515.578125 C 527.25 515.578125 521.929688 514.957031 517.394531 513.714844 C 512.859375 512.460938 509.355469 510.398438 506.859375 507.527344 C 504.375 504.65625 503.132812 500.765625 503.132812 495.855469 L 503.132812 495.75 C 503.132812 489.246094 505.582031 484.488281 510.492188 481.476562 C 515.402344 478.476562 521.835938 476.964844 529.804688 476.964844 C 531.878906 476.964844 533.90625 477.023438 535.875 477.117188 C 537.84375 477.222656 539.90625 477.445312 542.050781 477.796875 L 542.050781 476.132812 C 542.050781 472.816406 540.855469 470.507812 538.476562 469.230469 C 536.085938 467.953125 532.851562 467.308594 528.773438 467.308594 C 525.9375 467.308594 522.539062 467.636719 518.601562 468.292969 C 514.652344 468.949219 511.007812 469.863281 507.691406 471.046875 L 512.15625 454.03125 C 513.539062 453.539062 515.367188 453.082031 517.617188 452.671875 C 519.867188 452.25 522.339844 451.898438 525.035156 451.59375 C 527.730469 451.277344 530.390625 451.125 533.015625 451.125 Z M 523.160156 494.496094 L 523.160156 494.601562 C 523.160156 496.828125 524.144531 498.457031 526.113281 499.5 C 528.09375 500.53125 530.777344 501.046875 534.164062 501.046875 C 535.40625 501.046875 536.707031 500.988281 538.054688 500.882812 C 539.402344 500.789062 540.738281 500.660156 542.050781 500.53125 L 542.050781 488.90625 C 540.738281 488.625 539.367188 488.425781 537.960938 488.320312 C 536.542969 488.226562 535.277344 488.167969 534.164062 488.167969 C 530.777344 488.167969 528.09375 488.636719 526.113281 489.574219 C 524.144531 490.511719 523.160156 492.152344 523.160156 494.496094 Z M 523.160156 494.496094 "/>
<path style=" stroke:none;fill-rule:nonzero;fill:rgb(0%,0%,0%);fill-opacity:1;" d="M 619.792969 513.808594 L 598.3125 513.808594 C 591.386719 513.808594 586.429688 512.167969 583.417969 508.886719 C 580.40625 505.59375 578.90625 500.601562 578.90625 493.886719 L 578.90625 471.351562 L 568.734375 471.351562 L 568.734375 453.292969 L 578.90625 453.292969 L 578.90625 435.539062 L 598.511719 435.539062 L 598.511719 453.292969 L 619.699219 453.292969 L 619.699219 471.351562 L 598.511719 471.351562 L 598.511719 487.652344 C 598.511719 490.347656 599.203125 492.351562 600.585938 493.664062 C 601.96875 494.976562 604.183594 495.632812 607.230469 495.632812 L 619.792969 495.632812 Z M 619.792969 513.808594 "/>
<path style="fill:none;stroke-width:15;stroke-linecap:butt;stroke-linejoin:miter;stroke:rgb(0%,0%,0%);stroke-opacity:1;stroke-miterlimit:4;" d="M 0.00285339 7.503174 L 99.518478 7.503174 " transform="matrix(0.75,0,0,0.75,72.302547,439.017151)"/>
<path style="fill:none;stroke-width:15;stroke-linecap:butt;stroke-linejoin:miter;stroke:rgb(0%,0%,0%);stroke-opacity:1;stroke-miterlimit:4;" d="M 0.00463867 7.502625 L 135.660889 7.502625 " transform="matrix(0.75,0,0,0.75,45.19574,470.763657)"/>
<path style="fill:none;stroke-width:15;stroke-linecap:butt;stroke-linejoin:miter;stroke:rgb(0%,0%,0%);stroke-opacity:1;stroke-miterlimit:4;" d="M 0.00715256 7.503662 L 165.850903 7.503662 " transform="matrix(0.75,0,0,0.75,22.553229,504.184753)"/>
<path style="fill:none;stroke-width:15;stroke-linecap:butt;stroke-linejoin:miter;stroke:rgb(0%,0%,0%);stroke-opacity:1;stroke-miterlimit:4;" d="M 0.00714111 7.503174 L 99.522766 7.503174 " transform="matrix(0.75,0,0,0.75,663.053238,439.017151)"/>
<path style="fill:none;stroke-width:15;stroke-linecap:butt;stroke-linejoin:miter;stroke:rgb(0%,0%,0%);stroke-opacity:1;stroke-miterlimit:4;" d="M 0.00714111 7.502625 L 135.663391 7.502625 " transform="matrix(0.75,0,0,0.75,663.053238,470.763657)"/>
<path style="fill:none;stroke-width:15;stroke-linecap:butt;stroke-linejoin:miter;stroke:rgb(0%,0%,0%);stroke-opacity:1;stroke-miterlimit:4;" d="M 0.00714111 7.503662 L 165.850891 7.503662 " transform="matrix(0.75,0,0,0.75,663.053238,504.184753)"/>
</g>
</svg>
