<?xml version="1.0" encoding="UTF-8"?>
<svg id="Layer_2" data-name="Layer 2" xmlns="http://www.w3.org/2000/svg" viewBox="0 0 1370 360">
  <defs>
    <style>
      .cls-1 {
        fill: #fff;
      }
    </style>
  </defs>
  <g id="Layer_1-2" data-name="Layer 1-2">
    <g>
      <path class="cls-1" d="m847.03,126.1v-29.17h-31.96v167.02h32.66v-83.68c0-36.81,18.4-53.82,45.84-53.82h13.42v-29.51h-10.87c-17.02,0-36.94,3.47-49.09,29.17h0Z"/>
      <path class="cls-1" d="m1089.05,92.04c-42,0-79.83,35.71-79.83,88.04,0,56.51,39.23,89.09,84,89.09,38.57,0,65.18-22.86,74.75-52h-32.41c-7.51,13.55-20.52,23.23-42.34,23.23-28.11,0-49.63-20.8-50.33-50.61h125.65c.36-2.08.7-6.24.7-10.4,0-52-28.81-87.36-80.19-87.36h0Zm-45.13,71.42c1.39-21.49,18.05-42.64,45.47-42.64,29.51,0,45.13,18.72,45.82,42.64h-91.29,0Z"/>
      <rect class="cls-1" x="1325.26" y="97.29" width="31.09" height="166.65"/>
      <path class="cls-1" d="m1340.63,35.09c-12.55,0-22.73,10.15-22.73,23.01s10.18,22.68,22.73,22.68,23.08-10.16,23.08-22.68-10.18-23.01-23.08-23.01Z"/>
      <path class="cls-1" d="m953.61,44.15h-32.65v187.92c0,17.6,14.27,31.87,31.87,31.87h48.48v-29.51h-47.71v-107.99h47.71v-29.51h-47.71v-52.77h.01Z"/>
      <path class="cls-1" d="m559.32,239.02c-26.95,0-50.94-20.75-50.94-58.59s24.26-58.23,50.6-58.23c21.26,0,33.39,10.67,39.9,22.88h34.25c-6.94-25.31-29.8-53.04-74.15-53.04-47.47,0-83.86,36.4-83.86,88.39s35.69,88.74,84.2,88.74c43.31,0,67.22-28.08,75.18-52h-34.13c-5.19,9-16.62,21.84-41.06,21.84h.01Z"/>
      <path class="cls-1" d="m1263.68,167.96l-26.98-5.89c-12.8-2.77-19.04-10.05-19.04-20.11,0-11.44,10.07-22.18,26.69-22.18,23.16,0,31.16,14.49,32.84,24.23h30.28c-4.14-31.47-25.88-51.96-63.12-51.96-32.52,0-58.17,24.27-58.17,52.69,0,23.58,15.58,41.25,41.52,46.8l28.37,6.24c13.85,3.12,21.46,11.09,21.46,21.49,0,11.79-10.04,22.18-28.38,22.18-20.28,0-32.83-10.32-37.24-24.27h-32.34c6.17,35.4,31.02,52,69.24,52,41.17,0,60.89-28.08,60.89-51.65s-15.9-42.99-46.02-49.57h0Z"/>
      <path class="cls-1" d="m719.7,92.05c-39.52,0-65.21,25.73-68.11,53.03h32.7c4.48-15.02,16.65-25.3,36.1-25.3,25.29,0,36.02,13.52,36.02,29.81,0,5.89-2.77,11.09-12.82,12.48l-45.02,6.59c-28.75,4.15-50.58,20.79-50.58,50.6,0,26.35,21.83,49.92,55.78,49.92,29.79,0,46.41-15.94,53.7-27.73v22.53h31.52v-110.92c0-32.58-19.4-61.01-69.29-61.01h0Zm36.72,100.53c0,36.39-21.48,49.22-48.15,49.22-16.62,0-27.03-11.79-27.03-24.27,0-14.9,10.41-22.87,24.26-24.95l50.91-7.63v7.63h.01Z"/>
    </g>
  </g>
  <path class="cls-1" d="m313.98,118.89h-73.12S193.31,2.82,193.31,2.82l-113.77,116.06H6.29l43.39,123.11h73.12l47.53,116.02,114.12-116.02h72.92l-43.39-123.11ZM184.23,49.23l31.85,77.73-29.15,29.72-13.44-37.79h-57.54l68.28-69.65Zm-116.15,166.76l-25.06-71.11h112.12l11.54,32.44-37.92,38.67h-60.67Zm111.37,95.68l-31.86-77.76,28.78-29.34,13.3,37.42h58.31l-68.54,69.68Zm28.57-95.68l-11.4-32.07,38.29-39.04h60.67l25.06,71.11h-112.62Z"/>
</svg>