<?xml version="1.0" encoding="UTF-8"?>
<svg xmlns="http://www.w3.org/2000/svg" xmlns:xlink="http://www.w3.org/1999/xlink" width="80px" height="80px" viewBox="0 0 80 80" version="1.1">
<defs>
<clipPath id="clip1">
  <path d="M 11.65625 35.707031 L 68.148438 35.707031 L 68.148438 58.839844 L 11.65625 58.839844 Z M 11.65625 35.707031 "/>
</clipPath>
<clipPath id="clip2">
  <path d="M 0.199219 17.589844 L 79.800781 17.589844 L 79.800781 39.40625 L 0.199219 39.40625 Z M 0.199219 17.589844 "/>
</clipPath>
</defs>
<g id="surface1">
<g clip-path="url(#clip1)" clip-rule="nonzero">
<path style=" stroke:none;fill-rule:nonzero;fill:rgb(87.843138%,40.000001%,100%);fill-opacity:1;" d="M 55.359375 38.875 C 52.710938 38.84375 49.941406 38.886719 47.425781 39.804688 C 46.058594 40.238281 44.746094 40.871094 44.230469 42.316406 C 43.507812 44.328125 43.953125 46.714844 44.429688 48.742188 C 44.902344 50.777344 45.710938 52.847656 47.117188 54.425781 C 48.332031 55.789062 50.238281 56.214844 51.964844 56.511719 C 53.949219 56.851562 56.054688 56.871094 57.988281 56.257812 C 59.882812 55.65625 60.964844 54.265625 61.734375 52.5 C 62.625 50.453125 63.019531 48.183594 63.144531 45.964844 C 63.226562 44.433594 63.3125 42.132812 62.296875 40.84375 C 60.773438 38.910156 57.585938 38.902344 55.359375 38.875 Z M 51.082031 39.859375 L 44.917969 47.128906 C 44.765625 46.183594 44.695312 45.234375 44.707031 44.277344 C 44.726562 42.371094 45.636719 41.238281 47.652344 40.601562 C 48.765625 40.210938 49.90625 39.964844 51.082031 39.859375 Z M 46.160156 51.355469 C 45.726562 50.398438 45.394531 49.40625 45.160156 48.382812 L 52.472656 39.757812 C 52.769531 39.742188 53.058594 39.730469 53.339844 39.726562 C 53.9375 39.710938 54.519531 39.699219 55.101562 39.699219 C 56.074219 39.6875 57.039062 39.746094 58.003906 39.863281 L 46.984375 52.851562 C 46.667969 52.375 46.390625 51.878906 46.160156 51.355469 Z M 32.285156 39.804688 C 30.53125 39.164062 28.621094 38.949219 26.765625 38.90625 C 24.859375 38.867188 22.957031 38.828125 21.070312 39.113281 C 19.554688 39.34375 17.796875 39.894531 17.09375 41.378906 C 16.300781 43.042969 16.480469 45.324219 16.652344 47.089844 C 16.863281 49.28125 17.40625 51.484375 18.429688 53.445312 C 19.324219 55.167969 20.808594 56.101562 22.675781 56.511719 C 24.648438 56.945312 26.761719 56.746094 28.722656 56.320312 C 30.480469 55.9375 32.019531 55.300781 33.105469 53.800781 C 34.875 51.359375 35.621094 48.179688 35.8125 45.214844 C 35.898438 43.894531 35.792969 42.324219 34.882812 41.277344 C 34.195312 40.488281 33.261719 40.113281 32.285156 39.804688 Z M 18.179688 50.628906 C 17.914062 49.761719 17.714844 48.878906 17.578125 47.976562 L 24.605469 39.691406 C 25.160156 39.695312 25.710938 39.707031 26.246094 39.722656 L 26.757812 39.734375 C 27.824219 39.75 28.882812 39.851562 29.933594 40.035156 L 19.0625 52.851562 C 18.699219 52.140625 18.40625 51.398438 18.179688 50.628906 Z M 17.429688 46.617188 C 17.347656 45.621094 17.351562 44.625 17.4375 43.632812 C 17.515625 42.710938 17.667969 41.773438 18.238281 41.144531 C 18.859375 40.457031 19.890625 40.195312 20.808594 40 C 21.625 39.835938 22.449219 39.738281 23.28125 39.710938 Z M 65.449219 36.359375 C 63.410156 35.847656 61.214844 35.777344 59.140625 35.777344 C 58.707031 35.777344 58.277344 35.777344 57.851562 35.78125 L 57.09375 35.785156 C 54.214844 35.796875 51.136719 35.882812 48.121094 36.421875 C 46.441406 36.722656 44.78125 37.226562 43.359375 37.679688 C 42.324219 38.003906 41.300781 38.144531 39.898438 38.152344 L 39.644531 38.152344 C 38.910156 38.148438 38.148438 38.148438 37.464844 37.976562 C 36.929688 37.84375 36.386719 37.667969 35.863281 37.5 C 35.519531 37.386719 35.175781 37.273438 34.828125 37.171875 C 32.542969 36.515625 30.210938 36.113281 27.839844 35.964844 C 25.460938 35.796875 23.546875 35.722656 21.808594 35.722656 C 19.550781 35.699219 17.308594 35.867188 15.078125 36.214844 C 13.933594 36.402344 12.355469 36.878906 11.847656 38.835938 C 11.570312 39.902344 11.636719 41.234375 12.042969 42.785156 C 12.164062 43.261719 12.660156 43.433594 13.019531 43.558594 C 13.109375 43.585938 13.191406 43.621094 13.277344 43.65625 C 14.003906 44.011719 14.035156 44.472656 14.089844 45.308594 C 14.097656 45.429688 14.105469 45.554688 14.117188 45.683594 L 14.171875 46.390625 C 14.359375 48.726562 14.550781 51.148438 15.277344 53.4375 C 16.042969 55.84375 17.878906 57.484375 20.59375 58.183594 C 22.246094 58.597656 23.921875 58.804688 25.628906 58.800781 C 27.34375 58.808594 29.03125 58.589844 30.6875 58.140625 C 33.207031 57.425781 35.136719 55.671875 36.585938 52.769531 C 36.949219 52.058594 37.25 51.320312 37.484375 50.558594 C 37.71875 49.792969 37.882812 49.015625 37.980469 48.222656 C 37.996094 48.09375 38.007812 47.964844 38.023438 47.828125 C 38.195312 46.140625 38.429688 44.851562 39.726562 44.851562 C 39.769531 44.851562 39.8125 44.851562 39.878906 44.855469 C 39.894531 44.855469 39.964844 44.855469 39.96875 44.855469 C 40.011719 44.851562 40.054688 44.851562 40.097656 44.851562 C 41.480469 44.851562 41.75 46.402344 41.953125 48.425781 C 41.996094 48.960938 42.070312 49.492188 42.1875 50.019531 C 42.824219 52.441406 44.074219 54.699219 45.625 56.207031 C 47.386719 57.917969 50.082031 58.789062 53.640625 58.789062 C 55.167969 58.777344 56.6875 58.644531 58.195312 58.394531 C 60.359375 58.054688 62.03125 57.234375 63.167969 55.957031 C 64.632812 54.3125 65.042969 51.945312 65.335938 49.664062 C 65.496094 48.4375 65.59375 47.199219 65.691406 45.933594 C 65.703125 45.777344 65.710938 45.617188 65.71875 45.457031 C 65.753906 44.625 65.804688 44.09375 66.351562 43.765625 C 66.464844 43.707031 66.582031 43.660156 66.699219 43.625 C 67.121094 43.476562 67.644531 43.289062 67.769531 42.835938 C 67.902344 42.34375 67.996094 41.84375 68.054688 41.339844 C 68.410156 38.679688 67.460938 36.863281 65.449219 36.359375 Z M 64.824219 44.757812 C 64.6875 45.925781 64.636719 47.105469 64.523438 48.277344 C 64.285156 50.757812 63.992188 53.714844 62.175781 55.597656 C 60.335938 57.507812 57.1875 57.644531 54.71875 57.738281 C 52.035156 57.839844 49.148438 57.585938 46.894531 55.996094 C 44.574219 54.363281 43.128906 50.917969 42.816406 48.179688 C 42.609375 46.351562 42.394531 43.734375 39.949219 43.886719 C 39.9375 43.882812 39.925781 43.886719 39.914062 43.890625 C 39.902344 43.886719 39.890625 43.882812 39.878906 43.886719 C 38.058594 43.773438 37.382812 45.308594 37.136719 46.875 C 36.949219 48.0625 36.890625 49.191406 36.527344 50.34375 C 36.09375 51.703125 35.472656 52.96875 34.667969 54.148438 C 31.875 58.324219 25.738281 58.207031 21.339844 57.355469 C 19.261719 56.953125 17.523438 55.953125 16.554688 54.019531 C 15.34375 51.609375 15.308594 48.542969 15.105469 45.90625 C 15.050781 45.199219 15.03125 44.449219 14.828125 43.761719 C 14.636719 43.128906 13.785156 42.800781 13.238281 42.570312 C 13.144531 42.535156 13.054688 42.496094 12.964844 42.460938 C 12.921875 42.300781 12.886719 42.140625 12.851562 41.976562 C 12.683594 41.1875 12.636719 40.390625 12.703125 39.585938 C 12.921875 37.050781 15.613281 37.050781 17.589844 36.902344 C 20.230469 36.726562 22.875 36.699219 25.515625 36.816406 C 28.296875 36.914062 31.027344 37.171875 33.726562 37.875 C 34.851562 38.167969 35.949219 38.554688 37.070312 38.875 C 37.976562 39.132812 38.960938 39.117188 39.894531 39.121094 L 39.9375 39.121094 C 41.699219 39.109375 43.082031 38.769531 44.75 38.261719 C 47.121094 37.542969 49.542969 37.097656 52.015625 36.933594 C 56.207031 36.640625 60.730469 36.421875 64.878906 37.226562 C 65.707031 37.386719 66.398438 37.664062 66.820312 38.441406 C 67.246094 39.226562 67.191406 40.257812 67.109375 41.121094 C 67.0625 41.574219 66.980469 42.019531 66.867188 42.460938 C 66.75 42.503906 66.632812 42.550781 66.515625 42.605469 C 66.035156 42.804688 65.597656 43.070312 65.199219 43.40625 C 64.867188 43.695312 64.871094 44.363281 64.824219 44.757812 Z M 64.824219 44.757812 "/>
</g>
<g clip-path="url(#clip2)" clip-rule="nonzero">
<path style=" stroke:none;fill-rule:nonzero;fill:rgb(87.843138%,40.000001%,100%);fill-opacity:1;" d="M 76.222656 26.121094 C 76.113281 25.210938 76.015625 24.285156 75.832031 23.386719 C 75.746094 22.980469 75.636719 22.578125 75.480469 22.191406 C 75.332031 21.824219 75.15625 21.335938 74.734375 21.214844 C 74.289062 21.082031 73.9375 21.433594 73.613281 21.683594 C 73.269531 21.953125 72.929688 22.226562 72.59375 22.507812 C 71.933594 23.058594 71.296875 23.632812 70.675781 24.226562 C 69.253906 25.589844 67.949219 27.058594 66.75 28.617188 C 66.617188 28.789062 66.722656 29.074219 66.894531 29.175781 C 67.070312 29.277344 67.25 29.226562 67.382812 29.105469 C 67.449219 29.175781 67.542969 29.21875 67.65625 29.210938 C 68.164062 29.183594 68.671875 29.199219 69.179688 29.253906 C 69.167969 29.578125 69.15625 29.898438 69.140625 30.21875 C 69.128906 30.542969 69.496094 30.710938 69.757812 30.570312 C 70.203125 30.335938 70.816406 30.660156 70.96875 31.117188 C 71.074219 31.4375 70.902344 31.800781 70.828125 32.109375 C 70.738281 32.503906 70.71875 32.910156 70.949219 33.265625 C 71.101562 33.5 71.382812 33.523438 71.589844 33.347656 C 71.976562 33.019531 72.609375 33.164062 72.9375 33.507812 C 73.378906 33.96875 73.355469 34.683594 73.148438 35.242188 C 73 35.65625 73.550781 35.882812 73.832031 35.636719 C 76.546875 33.285156 76.617188 29.40625 76.222656 26.121094 Z M 73.523438 23.699219 C 73.535156 24.0625 73.546875 24.421875 73.554688 24.785156 C 73.539062 24.78125 73.523438 24.777344 73.507812 24.773438 C 73.507812 24.644531 73.464844 24.527344 73.355469 24.441406 C 73.328125 24.421875 73.296875 24.40625 73.261719 24.390625 C 73.222656 24.285156 73.179688 24.183594 73.128906 24.082031 C 73.261719 23.953125 73.390625 23.828125 73.523438 23.699219 Z M 72.757812 26.703125 C 72.648438 26.695312 72.542969 26.730469 72.464844 26.804688 C 72.464844 26.785156 72.46875 26.765625 72.472656 26.746094 C 72.535156 26.730469 72.59375 26.699219 72.636719 26.644531 C 72.679688 26.597656 72.714844 26.550781 72.753906 26.503906 C 72.753906 26.570312 72.753906 26.636719 72.757812 26.703125 Z M 73.574219 26.171875 C 73.574219 26.304688 73.574219 26.441406 73.574219 26.574219 C 73.570312 26.574219 73.570312 26.574219 73.570312 26.574219 C 73.570312 26.519531 73.570312 26.460938 73.566406 26.40625 C 73.5625 26.128906 73.546875 25.847656 73.519531 25.570312 C 73.523438 25.570312 73.53125 25.566406 73.535156 25.566406 C 73.546875 25.5625 73.554688 25.558594 73.566406 25.554688 C 73.566406 25.761719 73.574219 25.964844 73.574219 26.171875 Z M 71.566406 28.320312 C 71.433594 27.726562 71.398438 27.125 71.464844 26.53125 C 71.527344 26.679688 71.578125 26.832031 71.617188 26.988281 C 71.574219 27.429688 71.558594 27.875 71.566406 28.320312 Z M 70.207031 27.339844 C 70.210938 27.332031 70.214844 27.332031 70.207031 27.339844 Z M 69.988281 27.394531 C 69.980469 27.394531 69.980469 27.394531 69.988281 27.394531 Z M 74.527344 27.78125 C 74.535156 28.265625 74.519531 28.757812 74.460938 29.238281 C 74.441406 28.957031 74.410156 28.671875 74.367188 28.390625 C 74.371094 28.367188 74.371094 28.34375 74.375 28.320312 C 74.417969 27.746094 74.394531 27.15625 74.390625 26.578125 C 74.390625 26.523438 74.390625 26.464844 74.390625 26.410156 C 74.425781 26.542969 74.460938 26.679688 74.496094 26.8125 C 74.511719 27.136719 74.523438 27.457031 74.527344 27.78125 Z M 71.851562 25.542969 C 71.820312 25.5 71.789062 25.453125 71.757812 25.40625 C 71.808594 25.355469 71.863281 25.304688 71.917969 25.25 C 71.894531 25.347656 71.871094 25.445312 71.851562 25.542969 Z M 70.621094 26.890625 C 70.5625 26.816406 70.496094 26.753906 70.417969 26.699219 C 70.496094 26.625 70.574219 26.550781 70.652344 26.476562 C 70.636719 26.613281 70.625 26.75 70.621094 26.890625 Z M 69.996094 28.800781 C 69.976562 28.734375 69.945312 28.675781 69.898438 28.621094 C 69.972656 28.640625 70.046875 28.660156 70.121094 28.683594 C 70.074219 28.722656 70.035156 28.757812 69.996094 28.800781 Z M 73.585938 33.007812 C 73.570312 32.992188 73.558594 32.972656 73.542969 32.957031 C 73.558594 32.945312 73.570312 32.933594 73.585938 32.921875 C 73.585938 32.953125 73.585938 32.980469 73.585938 33.007812 Z M 72.527344 32.34375 C 72.542969 32.367188 72.5625 32.390625 72.582031 32.410156 C 72.539062 32.402344 72.496094 32.390625 72.453125 32.386719 C 72.476562 32.371094 72.503906 32.359375 72.527344 32.34375 Z M 74.046875 33.949219 C 74.105469 33.96875 74.167969 33.976562 74.230469 33.96875 C 74.183594 34.039062 74.132812 34.105469 74.085938 34.171875 C 74.074219 34.09375 74.0625 34.023438 74.046875 33.949219 Z M 74.503906 22.03125 C 74.5 22.027344 74.492188 22.015625 74.484375 21.996094 C 74.488281 22.007812 74.5 22.019531 74.507812 22.03125 C 74.511719 22.027344 74.515625 22.023438 74.519531 22.015625 C 74.574219 21.941406 74.542969 22.054688 74.507812 22.035156 C 74.515625 22.046875 74.523438 22.054688 74.527344 22.066406 C 74.550781 22.160156 74.625 22.253906 74.664062 22.339844 C 74.816406 22.6875 74.921875 23.058594 75.003906 23.429688 C 75.1875 24.230469 75.273438 25.058594 75.375 25.871094 C 75.464844 26.589844 75.542969 27.320312 75.582031 28.054688 C 75.511719 27.617188 75.421875 27.1875 75.316406 26.757812 C 75.261719 25.761719 75.140625 24.765625 74.976562 23.789062 C 74.917969 23.4375 74.882812 23.050781 74.773438 22.714844 C 74.671875 22.40625 74.351562 22.332031 74.097656 22.445312 C 74.070312 22.429688 74.042969 22.414062 74.015625 22.402344 C 74.050781 22.375 74.085938 22.34375 74.121094 22.316406 C 74.226562 22.234375 74.417969 22.136719 74.503906 22.03125 Z M 13.890625 19.457031 C 11.183594 18.601562 8.375 18.003906 5.546875 17.75 C 4.449219 17.652344 3.324219 17.589844 2.222656 17.730469 C 2.191406 17.734375 2.15625 17.742188 2.125 17.753906 C 2.03125 17.773438 1.949219 17.824219 1.890625 17.910156 C 1.886719 17.910156 1.886719 17.910156 1.886719 17.914062 C 1.875 17.929688 1.867188 17.945312 1.859375 17.960938 C 1.851562 17.976562 1.84375 17.996094 1.839844 18.011719 C 1.835938 18.019531 1.832031 18.023438 1.832031 18.03125 C 0.933594 21.082031 0.402344 24.242188 0.25 27.417969 C 0.171875 28.988281 0.191406 30.5625 0.300781 32.128906 C 0.390625 33.40625 0.523438 34.648438 0.9375 35.863281 C 1.335938 37.042969 1.898438 38.375 2.867188 39.207031 C 3.261719 39.546875 3.84375 38.972656 3.441406 38.628906 C 2.648438 37.949219 2.175781 36.886719 1.820312 35.921875 C 1.628906 35.402344 1.46875 34.867188 1.359375 34.320312 C 1.230469 33.699219 1.1875 33.054688 1.140625 32.417969 C 0.902344 29.386719 1.011719 26.320312 1.480469 23.316406 C 1.734375 21.691406 2.09375 20.089844 2.546875 18.511719 C 3.378906 18.4375 4.222656 18.46875 5.054688 18.527344 C 6.300781 18.617188 7.542969 18.792969 8.773438 19.023438 C 11.636719 19.558594 14.488281 20.359375 17.152344 21.554688 C 18.550781 22.179688 19.925781 22.917969 21.132812 23.859375 C 21.308594 23.996094 21.542969 24.03125 21.710938 23.859375 C 21.851562 23.71875 21.886719 23.421875 21.710938 23.285156 C 19.410156 21.488281 16.652344 20.332031 13.890625 19.457031 Z M 9.953125 26.339844 C 8.910156 25.226562 7.753906 24.222656 6.546875 23.292969 C 6.003906 22.875 5.445312 22.472656 4.871094 22.101562 C 4.546875 21.890625 4.242188 22.214844 4.273438 22.511719 C 4.238281 22.554688 4.214844 22.609375 4.199219 22.671875 C 3.445312 26.277344 2.703125 30.1875 4.4375 33.636719 C 4.855469 34.46875 5.421875 35.230469 6.117188 35.851562 C 6.300781 36.019531 6.628906 36.015625 6.757812 35.769531 C 6.910156 35.476562 6.917969 35.191406 6.867188 34.871094 C 6.835938 34.65625 6.734375 34.386719 6.84375 34.179688 C 7.117188 33.660156 7.925781 33.875 8.359375 33.976562 C 8.617188 34.035156 8.871094 33.855469 8.875 33.582031 C 8.878906 33.023438 8.640625 32.488281 8.660156 31.933594 C 8.664062 31.765625 8.703125 31.558594 8.832031 31.441406 C 8.914062 31.367188 9.09375 31.296875 9.1875 31.382812 C 9.464844 31.636719 10.015625 31.394531 9.867188 30.984375 C 9.742188 30.640625 9.960938 30.296875 10.277344 30.144531 C 10.722656 29.929688 11.265625 30.0625 11.710938 30.195312 C 11.871094 30.246094 12 30.199219 12.089844 30.109375 C 12.207031 30.023438 12.277344 29.878906 12.214844 29.695312 C 11.78125 28.410156 10.867188 27.3125 9.953125 26.339844 Z M 6.03125 34.039062 C 6.023438 34.03125 6.019531 34.023438 6.011719 34.015625 C 6.003906 34.003906 5.996094 33.992188 5.988281 33.984375 C 6.011719 33.976562 6.03125 33.96875 6.054688 33.960938 C 6.046875 33.988281 6.035156 34.015625 6.03125 34.039062 Z M 5.65625 28.304688 C 5.5625 28.292969 5.464844 28.308594 5.378906 28.347656 C 5.367188 28.109375 5.355469 27.867188 5.34375 27.628906 C 5.449219 27.851562 5.554688 28.078125 5.65625 28.304688 Z M 6.027344 25.300781 C 6.023438 25.296875 6.023438 25.292969 6.019531 25.289062 C 6.027344 25.28125 6.035156 25.277344 6.046875 25.269531 C 6.039062 25.28125 6.03125 25.289062 6.027344 25.300781 Z M 6.792969 32.328125 C 6.847656 32.335938 6.90625 32.335938 6.96875 32.3125 C 7.011719 32.371094 7.058594 32.425781 7.105469 32.480469 C 6.996094 32.492188 6.882812 32.503906 6.773438 32.515625 C 6.78125 32.453125 6.785156 32.390625 6.792969 32.328125 Z M 9.59375 28.46875 C 9.402344 28.304688 9.210938 28.140625 9.023438 27.972656 C 9.011719 27.898438 8.980469 27.828125 8.917969 27.765625 C 8.855469 27.707031 8.765625 27.664062 8.671875 27.648438 C 8.664062 27.640625 8.65625 27.636719 8.648438 27.628906 C 8.679688 27.59375 8.703125 27.550781 8.714844 27.511719 C 8.902344 27.734375 9.089844 27.953125 9.273438 28.175781 C 9.359375 28.285156 9.515625 28.3125 9.652344 28.28125 C 9.691406 28.320312 9.734375 28.363281 9.777344 28.402344 C 9.785156 28.410156 9.796875 28.421875 9.804688 28.433594 C 9.734375 28.441406 9.664062 28.453125 9.59375 28.46875 Z M 6.53125 25.089844 C 6.53125 25.109375 6.53125 25.128906 6.535156 25.144531 C 6.429688 25.09375 6.304688 25.089844 6.1875 25.148438 C 6.269531 25.054688 6.292969 24.9375 6.273438 24.828125 C 6.359375 24.914062 6.445312 25.003906 6.53125 25.089844 Z M 5.738281 24.496094 C 5.726562 24.421875 5.71875 24.347656 5.710938 24.273438 C 5.777344 24.335938 5.847656 24.398438 5.914062 24.464844 C 5.859375 24.460938 5.800781 24.46875 5.738281 24.496094 Z M 4.710938 24.246094 C 4.738281 24.375 4.769531 24.5 4.796875 24.628906 C 4.722656 24.664062 4.660156 24.71875 4.609375 24.78125 C 4.640625 24.605469 4.675781 24.425781 4.710938 24.246094 Z M 4.421875 25.863281 C 4.421875 25.878906 4.425781 25.894531 4.425781 25.910156 C 4.417969 25.925781 4.414062 25.941406 4.40625 25.960938 C 4.410156 25.925781 4.417969 25.894531 4.421875 25.863281 Z M 8 33.007812 C 8.007812 33.03125 8.007812 33.054688 8.011719 33.078125 C 7.996094 33.078125 7.976562 33.074219 7.960938 33.070312 C 7.976562 33.050781 7.992188 33.03125 8 33.007812 Z M 7.90625 31.480469 Z M 10.652344 29.226562 C 10.730469 29.171875 10.792969 29.09375 10.8125 29 C 10.835938 28.910156 10.839844 28.820312 10.835938 28.738281 C 10.941406 28.902344 11.042969 29.066406 11.132812 29.238281 C 10.972656 29.222656 10.808594 29.214844 10.652344 29.226562 Z M 79.261719 23.289062 C 78.992188 21.511719 78.601562 19.753906 78.09375 18.03125 C 78.09375 18.027344 78.09375 18.023438 78.089844 18.019531 C 78.085938 17.996094 78.074219 17.972656 78.066406 17.953125 C 78.058594 17.945312 78.054688 17.933594 78.046875 17.925781 C 78.042969 17.917969 78.039062 17.910156 78.03125 17.902344 C 77.976562 17.820312 77.894531 17.773438 77.804688 17.753906 C 77.773438 17.742188 77.738281 17.734375 77.703125 17.730469 C 76.75 17.609375 75.773438 17.644531 74.820312 17.714844 C 73.507812 17.8125 72.199219 18 70.90625 18.242188 C 67.957031 18.792969 65.039062 19.640625 62.300781 20.875 C 60.855469 21.527344 59.46875 22.308594 58.214844 23.285156 C 58.039062 23.417969 58.074219 23.71875 58.214844 23.859375 C 58.386719 24.03125 58.617188 23.996094 58.792969 23.859375 C 61 22.136719 63.703125 21.042969 66.355469 20.214844 C 68.976562 19.394531 71.699219 18.804688 74.433594 18.5625 C 75.410156 18.476562 76.40625 18.421875 77.382812 18.511719 C 78.203125 21.382812 78.703125 24.339844 78.855469 27.320312 C 78.933594 28.828125 78.921875 30.335938 78.828125 31.84375 C 78.75 33.09375 78.640625 34.3125 78.25 35.507812 C 77.890625 36.605469 77.382812 37.855469 76.484375 38.628906 C 76.085938 38.972656 76.664062 39.546875 77.0625 39.207031 C 77.925781 38.464844 78.445312 37.320312 78.839844 36.277344 C 79.285156 35.113281 79.472656 33.945312 79.582031 32.707031 C 79.847656 29.566406 79.734375 26.402344 79.261719 23.289062 Z M 63.761719 22.683594 C 63.660156 22.660156 63.539062 22.660156 63.449219 22.722656 C 63.101562 22.96875 62.753906 23.210938 62.40625 23.457031 C 62.320312 23.519531 62.25 23.59375 62.21875 23.699219 C 62.195312 23.796875 62.207031 23.929688 62.261719 24.015625 C 62.316406 24.101562 62.402344 24.179688 62.503906 24.203125 C 62.609375 24.226562 62.730469 24.222656 62.820312 24.160156 C 63.167969 23.917969 63.515625 23.671875 63.859375 23.429688 C 63.949219 23.367188 64.019531 23.292969 64.046875 23.183594 C 64.074219 23.085938 64.0625 22.957031 64.007812 22.871094 C 63.953125 22.78125 63.867188 22.707031 63.761719 22.683594 Z M 74.507812 22.03125 C 74.507812 22.03125 74.507812 22.03125 74.503906 22.03125 C 74.507812 22.035156 74.507812 22.035156 74.507812 22.035156 C 74.507812 22.035156 74.507812 22.03125 74.507812 22.03125 Z M 74.507812 22.03125 "/>
</g>
</g>
</svg>
