<?xml version="1.0" encoding="UTF-8"?>
<svg xmlns="http://www.w3.org/2000/svg" xmlns:xlink="http://www.w3.org/1999/xlink" width="80px" height="80px" viewBox="0 0 80 80" version="1.1">
<defs>
<clipPath id="clip1">
  <path d="M 9.59375 37 L 69.964844 37 L 69.964844 61.371094 L 9.59375 61.371094 Z M 9.59375 37 "/>
</clipPath>
<clipPath id="clip2">
  <path d="M 0.199219 17.886719 L 79.800781 17.886719 L 79.800781 39.703125 L 0.199219 39.703125 Z M 0.199219 17.886719 "/>
</clipPath>
</defs>
<g id="surface1">
<g clip-path="url(#clip1)" clip-rule="nonzero">
<path style=" stroke:none;fill-rule:nonzero;fill:rgb(0%,78.431374%,5.490196%);fill-opacity:1;" d="M 58.136719 40.65625 C 56.960938 40.210938 55.585938 40.351562 54.347656 40.351562 C 53.148438 40.351562 51.925781 40.285156 50.722656 40.375 C 48.839844 40.511719 47.234375 41.730469 46.285156 43.3125 C 45.53125 44.574219 45.457031 45.980469 45.457031 47.402344 L 45.457031 51.59375 C 45.457031 53.761719 46.285156 55.699219 48.046875 57.007812 C 49.578125 58.152344 51.414062 58.027344 53.214844 58.027344 C 54.902344 58.027344 56.761719 58.246094 58.371094 57.632812 C 60.714844 56.738281 62.054688 54.316406 62.105469 51.894531 L 62.105469 48.425781 C 62.105469 47.121094 62.183594 45.824219 61.816406 44.558594 C 61.292969 42.746094 59.878906 41.320312 58.136719 40.65625 Z M 46.425781 49.132812 C 46.410156 47.117188 46.222656 45.035156 47.453125 43.304688 C 47.558594 43.152344 47.675781 43.007812 47.800781 42.871094 C 47.925781 42.734375 48.058594 42.601562 48.199219 42.480469 C 48.339844 42.359375 48.484375 42.246094 48.640625 42.140625 C 48.792969 42.039062 48.953125 41.941406 49.117188 41.855469 C 49.28125 41.769531 49.449219 41.695312 49.625 41.628906 C 49.796875 41.5625 49.976562 41.507812 50.15625 41.464844 C 50.335938 41.417969 50.519531 41.382812 50.703125 41.359375 C 50.886719 41.335938 51.074219 41.324219 51.257812 41.324219 L 53.410156 41.324219 C 51.082031 43.925781 48.753906 46.527344 46.425781 49.132812 Z M 46.429688 51.761719 L 46.429688 50.757812 C 46.429688 50.691406 46.417969 50.675781 46.410156 50.671875 C 46.429688 50.65625 46.449219 50.640625 46.464844 50.625 C 47.074219 49.941406 47.6875 49.257812 48.296875 48.574219 C 50.230469 46.414062 52.164062 44.253906 54.09375 42.09375 C 54.28125 41.886719 54.464844 41.679688 54.648438 41.472656 C 54.691406 41.425781 54.734375 41.378906 54.777344 41.328125 C 54.78125 41.324219 54.785156 41.320312 54.789062 41.316406 C 54.808594 41.324219 54.828125 41.324219 54.851562 41.324219 L 56.296875 41.324219 C 56.78125 41.328125 57.253906 41.402344 57.714844 41.550781 C 58.179688 41.703125 58.605469 41.917969 59 42.203125 C 55.78125 45.800781 52.5625 49.402344 49.34375 53 C 48.71875 53.695312 48.09375 54.394531 47.46875 55.09375 C 47.296875 54.851562 47.144531 54.597656 47.011719 54.332031 C 46.882812 54.066406 46.773438 53.792969 46.683594 53.511719 C 46.59375 53.226562 46.53125 52.941406 46.488281 52.648438 C 46.445312 52.351562 46.425781 52.058594 46.429688 51.761719 Z M 33.621094 44.003906 C 32.839844 42.210938 31.351562 40.890625 29.429688 40.460938 C 27.878906 40.113281 26.082031 40.351562 24.511719 40.351562 C 22.59375 40.351562 20.933594 40.539062 19.425781 41.882812 C 17.863281 43.28125 17.46875 45.265625 17.46875 47.257812 L 17.46875 51.894531 C 17.507812 53.800781 18.300781 55.699219 19.859375 56.863281 C 21.089844 57.777344 22.414062 58.027344 23.90625 58.027344 C 26.738281 58.027344 29.878906 58.53125 32.160156 56.496094 C 34.609375 54.3125 34.117188 50.824219 34.117188 47.886719 C 34.117188 46.5625 34.164062 45.25 33.621094 44.003906 Z M 18.441406 51.714844 L 18.441406 50.699219 C 18.441406 50.597656 18.484375 50.507812 18.414062 50.585938 C 18.433594 50.566406 18.449219 50.546875 18.464844 50.527344 C 19.066406 49.855469 19.667969 49.183594 20.269531 48.511719 C 22.195312 46.359375 24.121094 44.210938 26.042969 42.058594 C 26.222656 41.855469 26.402344 41.65625 26.582031 41.453125 C 26.621094 41.414062 26.65625 41.371094 26.695312 41.332031 C 26.695312 41.34375 26.742188 41.324219 26.820312 41.324219 L 28.308594 41.324219 C 28.78125 41.324219 29.242188 41.398438 29.695312 41.539062 C 30.144531 41.683594 30.5625 41.890625 30.953125 42.160156 C 27.738281 45.753906 24.523438 49.347656 21.304688 52.941406 C 20.683594 53.640625 20.0625 54.335938 19.4375 55.03125 C 19.273438 54.789062 19.125 54.535156 19 54.269531 C 18.871094 54.003906 18.765625 53.730469 18.679688 53.449219 C 18.597656 53.167969 18.535156 52.882812 18.492188 52.589844 C 18.453125 52.300781 18.4375 52.007812 18.441406 51.714844 Z M 23.269531 41.324219 L 25.328125 41.324219 C 23.03125 43.886719 20.738281 46.453125 18.441406 49.019531 C 18.425781 47.039062 18.253906 45.007812 19.464844 43.304688 C 19.570312 43.152344 19.6875 43.007812 19.8125 42.871094 C 19.9375 42.734375 20.070312 42.601562 20.210938 42.480469 C 20.351562 42.359375 20.5 42.246094 20.652344 42.140625 C 20.804688 42.039062 20.964844 41.941406 21.128906 41.855469 C 21.292969 41.769531 21.464844 41.695312 21.636719 41.628906 C 21.8125 41.5625 21.988281 41.507812 22.167969 41.464844 C 22.347656 41.417969 22.53125 41.382812 22.714844 41.359375 C 22.898438 41.335938 23.085938 41.324219 23.269531 41.324219 Z M 69.363281 45.242188 C 68.753906 44.59375 67.707031 44.277344 66.167969 44.277344 C 65.722656 44.277344 65.296875 44.304688 64.957031 44.332031 C 64.226562 41.171875 62.0625 38.652344 59.117188 37.558594 C 57.839844 37.078125 56.417969 37.019531 55.328125 37.019531 C 54.804688 37.019531 54.277344 37.035156 53.769531 37.050781 C 53.28125 37.0625 52.800781 37.078125 52.335938 37.078125 C 49.289062 37.078125 47.128906 37.816406 45.328125 39.46875 C 43.492188 41.15625 42.527344 43.503906 42.382812 46.640625 C 41.550781 46.417969 40.703125 46.300781 39.839844 46.28125 C 39.828125 46.28125 39.808594 46.28125 39.785156 46.28125 C 39.769531 46.28125 39.722656 46.28125 39.71875 46.28125 C 38.863281 46.300781 38.019531 46.421875 37.191406 46.640625 C 37.054688 43.679688 36.171875 41.453125 34.441406 39.660156 C 32.761719 37.921875 30.453125 37.078125 27.394531 37.078125 C 26.921875 37.078125 26.445312 37.066406 25.960938 37.054688 C 25.460938 37.042969 24.957031 37.03125 24.453125 37.03125 C 23.398438 37.03125 22.023438 37.078125 20.726562 37.464844 C 17.757812 38.351562 15.386719 41.027344 14.617188 44.332031 C 14.246094 44.296875 13.8125 44.269531 13.375 44.269531 C 11.011719 44.269531 9.757812 45.171875 9.644531 46.953125 C 9.601562 47.675781 9.789062 48.265625 10.207031 48.710938 C 10.8125 49.351562 11.863281 49.664062 13.421875 49.664062 C 13.757812 49.664062 14.078125 49.652344 14.371094 49.632812 C 14.367188 52.210938 14.398438 54.648438 15.800781 57.007812 C 17.425781 59.734375 20.335938 61.300781 23.78125 61.300781 C 24.289062 61.300781 24.816406 61.3125 25.34375 61.328125 C 25.894531 61.34375 26.449219 61.359375 27.003906 61.359375 C 28.230469 61.359375 29.832031 61.289062 31.292969 60.761719 C 34.535156 59.589844 36.875 56.320312 37.179688 52.570312 C 38.035156 52.382812 38.898438 52.273438 39.769531 52.25 C 40.65625 52.273438 41.527344 52.378906 42.390625 52.570312 C 42.6875 56.25 44.882812 59.410156 48.035156 60.664062 C 49.566406 61.273438 51.203125 61.355469 52.601562 61.355469 C 53.152344 61.355469 53.699219 61.34375 54.242188 61.328125 C 54.769531 61.3125 55.285156 61.300781 55.796875 61.300781 C 59.121094 61.300781 61.828125 59.894531 63.625 57.242188 C 65.210938 54.898438 65.214844 52.226562 65.203125 49.636719 C 65.527344 49.65625 65.863281 49.671875 66.203125 49.671875 L 66.207031 49.671875 C 67.089844 49.671875 69.757812 49.667969 69.929688 47 C 69.972656 46.28125 69.785156 45.691406 69.363281 45.242188 Z M 64.558594 48.652344 C 64.519531 48.652344 64.484375 48.660156 64.449219 48.675781 C 64.410156 48.691406 64.378906 48.710938 64.351562 48.738281 C 64.324219 48.765625 64.304688 48.796875 64.289062 48.832031 C 64.273438 48.871094 64.269531 48.90625 64.269531 48.945312 C 64.269531 51.417969 64.40625 53.816406 63.222656 56.089844 C 61.746094 58.929688 58.90625 60.367188 55.796875 60.367188 C 53.757812 60.367188 51.527344 60.605469 49.519531 60.167969 C 45.796875 59.347656 43.417969 55.730469 43.296875 52.066406 C 43.296875 52.035156 43.292969 52.003906 43.28125 51.972656 C 43.273438 51.941406 43.257812 51.914062 43.238281 51.890625 C 43.21875 51.863281 43.195312 51.84375 43.167969 51.824219 C 43.144531 51.804688 43.113281 51.792969 43.082031 51.785156 C 42.042969 51.503906 40.984375 51.351562 39.90625 51.320312 C 39.878906 51.3125 39.851562 51.3125 39.820312 51.3125 C 39.8125 51.3125 39.800781 51.3125 39.785156 51.3125 C 39.777344 51.3125 39.765625 51.3125 39.75 51.3125 C 39.746094 51.3125 39.742188 51.3125 39.738281 51.3125 L 39.734375 51.3125 C 39.714844 51.3125 39.691406 51.316406 39.667969 51.320312 C 38.589844 51.351562 37.53125 51.503906 36.492188 51.785156 C 36.460938 51.792969 36.429688 51.804688 36.40625 51.824219 C 36.378906 51.84375 36.355469 51.863281 36.335938 51.890625 C 36.316406 51.914062 36.300781 51.941406 36.292969 51.972656 C 36.28125 52.003906 36.277344 52.035156 36.277344 52.066406 C 36.15625 55.734375 33.886719 59.0625 30.296875 60.105469 C 28.285156 60.6875 25.847656 60.367188 23.78125 60.367188 C 20.695312 60.367188 18.074219 59 16.476562 56.316406 C 15.125 54.042969 15.308594 51.472656 15.308594 48.945312 C 15.304688 48.90625 15.300781 48.867188 15.285156 48.832031 C 15.269531 48.796875 15.25 48.765625 15.21875 48.738281 C 15.195312 48.710938 15.160156 48.691406 15.125 48.675781 C 15.089844 48.660156 15.054688 48.652344 15.015625 48.652344 C 13.464844 48.773438 10.714844 49.121094 10.578125 46.976562 C 10.441406 44.8125 13.75 45.171875 15.132812 45.316406 C 15.164062 45.316406 15.195312 45.3125 15.226562 45.304688 C 15.253906 45.292969 15.28125 45.277344 15.308594 45.257812 C 15.335938 45.238281 15.355469 45.214844 15.375 45.1875 C 15.390625 45.164062 15.402344 45.132812 15.410156 45.101562 C 15.964844 41.917969 18.089844 39.226562 21.230469 38.289062 C 23.042969 37.75 25.210938 38.011719 27.074219 38.011719 C 29.535156 38.011719 31.703125 38.40625 33.597656 40.140625 C 35.726562 42.097656 36.28125 44.765625 36.28125 47.53125 C 36.28125 47.554688 36.28125 47.574219 36.289062 47.597656 C 36.292969 47.621094 36.300781 47.640625 36.3125 47.660156 C 36.320312 47.679688 36.332031 47.699219 36.347656 47.714844 C 36.363281 47.734375 36.378906 47.75 36.394531 47.761719 C 36.414062 47.777344 36.433594 47.789062 36.453125 47.796875 C 36.472656 47.804688 36.496094 47.8125 36.515625 47.816406 C 36.539062 47.820312 36.5625 47.824219 36.585938 47.820312 C 36.605469 47.820312 36.628906 47.816406 36.648438 47.8125 C 37.640625 47.429688 38.667969 47.230469 39.734375 47.214844 C 39.769531 47.203125 39.804688 47.203125 39.839844 47.214844 C 40.90625 47.230469 41.933594 47.429688 42.925781 47.8125 C 42.949219 47.816406 42.96875 47.820312 42.992188 47.820312 C 43.015625 47.824219 43.035156 47.820312 43.058594 47.816406 C 43.082031 47.8125 43.101562 47.804688 43.121094 47.796875 C 43.140625 47.785156 43.160156 47.777344 43.179688 47.761719 C 43.195312 47.75 43.214844 47.734375 43.226562 47.714844 C 43.242188 47.699219 43.253906 47.679688 43.261719 47.660156 C 43.273438 47.640625 43.28125 47.621094 43.285156 47.597656 C 43.292969 47.574219 43.292969 47.554688 43.292969 47.53125 C 43.292969 44.800781 43.835938 42.34375 45.796875 40.316406 C 47.585938 38.46875 49.882812 38.011719 52.335938 38.011719 C 54.210938 38.011719 56.25 37.808594 58.089844 38.222656 C 61.359375 38.964844 63.605469 41.910156 64.164062 45.101562 C 64.171875 45.132812 64.183594 45.164062 64.199219 45.1875 C 64.21875 45.214844 64.238281 45.238281 64.265625 45.257812 C 64.289062 45.277344 64.320312 45.292969 64.347656 45.304688 C 64.378906 45.3125 64.410156 45.316406 64.441406 45.316406 C 66.003906 45.152344 68.859375 44.824219 68.996094 46.976562 C 69.132812 49.125 65.929688 48.757812 64.558594 48.652344 Z M 64.558594 48.652344 "/>
</g>
<g clip-path="url(#clip2)" clip-rule="nonzero">
<path style=" stroke:none;fill-rule:nonzero;fill:rgb(0%,78.431374%,5.490196%);fill-opacity:1;" d="M 76.226562 26.417969 C 76.117188 25.503906 76.019531 24.582031 75.832031 23.683594 C 75.75 23.273438 75.640625 22.871094 75.484375 22.484375 C 75.335938 22.121094 75.160156 21.632812 74.738281 21.507812 C 74.292969 21.378906 73.9375 21.726562 73.617188 21.980469 C 73.273438 22.25 72.933594 22.523438 72.597656 22.804688 C 71.9375 23.355469 71.296875 23.929688 70.675781 24.523438 C 69.257812 25.882812 67.953125 27.355469 66.753906 28.910156 C 66.617188 29.085938 66.726562 29.371094 66.898438 29.46875 C 67.074219 29.574219 67.25 29.523438 67.382812 29.402344 C 67.453125 29.472656 67.546875 29.511719 67.65625 29.507812 C 68.164062 29.480469 68.675781 29.492188 69.183594 29.550781 C 69.167969 29.871094 69.15625 30.195312 69.144531 30.515625 C 69.132812 30.835938 69.496094 31.003906 69.757812 30.867188 C 70.207031 30.632812 70.820312 30.957031 70.972656 31.414062 C 71.078125 31.734375 70.902344 32.09375 70.832031 32.40625 C 70.738281 32.800781 70.71875 33.207031 70.953125 33.5625 C 71.105469 33.792969 71.386719 33.820312 71.59375 33.644531 C 71.980469 33.316406 72.613281 33.460938 72.941406 33.804688 C 73.378906 34.265625 73.359375 34.976562 73.152344 35.539062 C 73 35.953125 73.554688 36.179688 73.835938 35.933594 C 76.550781 33.582031 76.621094 29.703125 76.226562 26.417969 Z M 73.527344 23.996094 C 73.539062 24.359375 73.550781 24.71875 73.558594 25.082031 C 73.542969 25.074219 73.527344 25.074219 73.511719 25.070312 C 73.511719 24.941406 73.46875 24.824219 73.355469 24.738281 C 73.332031 24.71875 73.300781 24.699219 73.265625 24.6875 C 73.226562 24.582031 73.183594 24.480469 73.132812 24.378906 C 73.261719 24.25 73.394531 24.125 73.527344 23.996094 Z M 72.761719 27 C 72.652344 26.992188 72.546875 27.027344 72.46875 27.101562 C 72.46875 27.082031 72.472656 27.0625 72.472656 27.042969 C 72.535156 27.027344 72.59375 26.996094 72.640625 26.941406 C 72.679688 26.894531 72.71875 26.847656 72.753906 26.800781 C 72.757812 26.867188 72.757812 26.933594 72.761719 27 Z M 73.578125 26.46875 C 73.578125 26.601562 73.574219 26.734375 73.574219 26.871094 C 73.574219 26.8125 73.570312 26.757812 73.570312 26.703125 C 73.5625 26.425781 73.550781 26.144531 73.523438 25.867188 C 73.527344 25.867188 73.535156 25.863281 73.539062 25.859375 C 73.546875 25.859375 73.558594 25.851562 73.566406 25.847656 C 73.570312 26.054688 73.574219 26.261719 73.578125 26.46875 Z M 71.570312 28.613281 C 71.4375 28.023438 71.402344 27.421875 71.46875 26.824219 C 71.53125 26.972656 71.582031 27.128906 71.621094 27.285156 C 71.578125 27.726562 71.5625 28.171875 71.570312 28.613281 Z M 70.210938 27.632812 C 70.214844 27.628906 70.21875 27.628906 70.210938 27.632812 Z M 69.988281 27.691406 C 69.980469 27.691406 69.980469 27.6875 69.988281 27.691406 Z M 74.53125 28.078125 C 74.539062 28.5625 74.523438 29.050781 74.464844 29.535156 C 74.445312 29.25 74.414062 28.96875 74.371094 28.683594 C 74.371094 28.660156 74.375 28.640625 74.378906 28.617188 C 74.421875 28.039062 74.394531 27.453125 74.394531 26.875 C 74.394531 26.816406 74.394531 26.761719 74.394531 26.703125 C 74.429688 26.839844 74.464844 26.972656 74.5 27.109375 C 74.515625 27.433594 74.527344 27.753906 74.53125 28.078125 Z M 71.851562 25.839844 C 71.824219 25.792969 71.789062 25.75 71.757812 25.703125 C 71.8125 25.652344 71.867188 25.597656 71.921875 25.546875 C 71.894531 25.644531 71.875 25.742188 71.851562 25.839844 Z M 70.625 27.183594 C 70.5625 27.113281 70.496094 27.046875 70.421875 26.996094 C 70.5 26.921875 70.578125 26.847656 70.652344 26.773438 C 70.640625 26.910156 70.628906 27.046875 70.625 27.183594 Z M 70 29.09375 C 69.980469 29.03125 69.945312 28.96875 69.902344 28.917969 C 69.976562 28.9375 70.050781 28.957031 70.121094 28.980469 C 70.078125 29.015625 70.035156 29.054688 70 29.09375 Z M 73.589844 33.304688 C 73.574219 33.285156 73.5625 33.269531 73.546875 33.253906 C 73.5625 33.242188 73.574219 33.230469 73.589844 33.21875 C 73.589844 33.246094 73.589844 33.277344 73.589844 33.304688 Z M 72.53125 32.636719 C 72.546875 32.664062 72.566406 32.6875 72.585938 32.707031 C 72.542969 32.695312 72.5 32.6875 72.457031 32.683594 C 72.480469 32.667969 72.507812 32.65625 72.53125 32.636719 Z M 74.050781 34.246094 C 74.109375 34.265625 74.171875 34.273438 74.230469 34.265625 C 74.183594 34.335938 74.136719 34.402344 74.085938 34.46875 C 74.078125 34.390625 74.066406 34.316406 74.050781 34.246094 Z M 74.507812 22.328125 C 74.5 22.324219 74.496094 22.3125 74.488281 22.292969 C 74.492188 22.304688 74.5 22.316406 74.511719 22.328125 C 74.515625 22.320312 74.519531 22.316406 74.523438 22.3125 C 74.574219 22.238281 74.542969 22.351562 74.511719 22.332031 C 74.519531 22.339844 74.527344 22.351562 74.53125 22.363281 C 74.554688 22.453125 74.625 22.550781 74.664062 22.636719 C 74.820312 22.984375 74.925781 23.355469 75.007812 23.726562 C 75.191406 24.527344 75.277344 25.351562 75.378906 26.167969 C 75.46875 26.886719 75.546875 27.617188 75.585938 28.347656 C 75.515625 27.914062 75.425781 27.480469 75.320312 27.050781 C 75.265625 26.058594 75.144531 25.0625 74.980469 24.085938 C 74.921875 23.734375 74.886719 23.347656 74.777344 23.007812 C 74.675781 22.703125 74.355469 22.628906 74.101562 22.742188 C 74.074219 22.722656 74.046875 22.710938 74.019531 22.699219 C 74.054688 22.667969 74.085938 22.640625 74.125 22.613281 C 74.226562 22.53125 74.421875 22.433594 74.507812 22.328125 Z M 13.886719 19.753906 C 11.183594 18.898438 8.371094 18.300781 5.546875 18.046875 C 4.449219 17.945312 3.320312 17.886719 2.222656 18.023438 C 2.1875 18.03125 2.152344 18.039062 2.121094 18.046875 C 2.027344 18.066406 1.945312 18.117188 1.886719 18.203125 C 1.886719 18.207031 1.886719 18.207031 1.882812 18.207031 C 1.875 18.222656 1.863281 18.238281 1.855469 18.253906 C 1.847656 18.273438 1.839844 18.289062 1.835938 18.308594 C 1.832031 18.3125 1.832031 18.320312 1.828125 18.324219 C 0.933594 21.375 0.402344 24.535156 0.246094 27.714844 C 0.171875 29.285156 0.1875 30.859375 0.300781 32.425781 C 0.390625 33.703125 0.519531 34.945312 0.933594 36.160156 C 1.335938 37.339844 1.894531 38.671875 2.863281 39.503906 C 3.261719 39.84375 3.839844 39.269531 3.441406 38.925781 C 2.644531 38.242188 2.171875 37.183594 1.820312 36.21875 C 1.628906 35.699219 1.46875 35.164062 1.355469 34.617188 C 1.226562 33.992188 1.1875 33.347656 1.136719 32.714844 C 0.898438 29.683594 1.007812 26.617188 1.480469 23.609375 C 1.734375 21.988281 2.089844 20.386719 2.542969 18.808594 C 3.375 18.730469 4.21875 18.761719 5.050781 18.824219 C 6.300781 18.910156 7.539062 19.089844 8.769531 19.316406 C 11.632812 19.851562 14.488281 20.65625 17.152344 21.847656 C 18.546875 22.472656 19.921875 23.210938 21.132812 24.15625 C 21.308594 24.292969 21.542969 24.324219 21.710938 24.15625 C 21.851562 24.015625 21.886719 23.714844 21.710938 23.578125 C 19.410156 21.785156 16.652344 20.625 13.886719 19.753906 Z M 9.953125 26.636719 C 8.910156 25.523438 7.75 24.519531 6.542969 23.589844 C 6 23.171875 5.445312 22.765625 4.867188 22.394531 C 4.542969 22.1875 4.238281 22.507812 4.269531 22.808594 C 4.238281 22.851562 4.210938 22.902344 4.199219 22.96875 C 3.445312 26.570312 2.703125 30.484375 4.4375 33.933594 C 4.855469 34.765625 5.421875 35.527344 6.113281 36.148438 C 6.300781 36.316406 6.628906 36.3125 6.753906 36.066406 C 6.90625 35.773438 6.914062 35.488281 6.867188 35.167969 C 6.832031 34.953125 6.734375 34.683594 6.84375 34.476562 C 7.113281 33.953125 7.921875 34.167969 8.355469 34.273438 C 8.613281 34.332031 8.871094 34.152344 8.871094 33.878906 C 8.875 33.316406 8.636719 32.785156 8.65625 32.226562 C 8.664062 32.0625 8.699219 31.855469 8.832031 31.734375 C 8.914062 31.664062 9.089844 31.59375 9.183594 31.679688 C 9.460938 31.933594 10.015625 31.6875 9.867188 31.28125 C 9.738281 30.9375 9.957031 30.59375 10.277344 30.441406 C 10.722656 30.226562 11.261719 30.359375 11.710938 30.492188 C 11.871094 30.539062 12 30.492188 12.089844 30.402344 C 12.207031 30.320312 12.273438 30.175781 12.210938 29.992188 C 11.777344 28.707031 10.863281 27.609375 9.953125 26.636719 Z M 6.027344 34.335938 C 6.023438 34.328125 6.015625 34.320312 6.011719 34.3125 C 6 34.300781 5.996094 34.289062 5.988281 34.277344 C 6.011719 34.273438 6.03125 34.265625 6.050781 34.257812 C 6.042969 34.285156 6.035156 34.3125 6.027344 34.335938 Z M 5.652344 28.601562 C 5.558594 28.589844 5.460938 28.605469 5.378906 28.644531 C 5.367188 28.40625 5.351562 28.164062 5.339844 27.925781 C 5.445312 28.148438 5.550781 28.375 5.652344 28.601562 Z M 6.023438 25.597656 C 6.023438 25.59375 6.019531 25.589844 6.015625 25.585938 C 6.027344 25.578125 6.035156 25.570312 6.042969 25.566406 C 6.035156 25.574219 6.03125 25.585938 6.023438 25.597656 Z M 6.789062 32.621094 C 6.847656 32.632812 6.90625 32.628906 6.964844 32.609375 C 7.007812 32.664062 7.054688 32.722656 7.101562 32.777344 C 6.992188 32.789062 6.882812 32.800781 6.773438 32.8125 C 6.777344 32.75 6.785156 32.6875 6.789062 32.621094 Z M 9.59375 28.761719 C 9.402344 28.597656 9.210938 28.4375 9.023438 28.269531 C 9.011719 28.195312 8.976562 28.125 8.914062 28.0625 C 8.855469 28 8.761719 27.957031 8.667969 27.945312 C 8.660156 27.9375 8.65625 27.933594 8.648438 27.925781 C 8.675781 27.886719 8.699219 27.847656 8.714844 27.808594 C 8.902344 28.027344 9.089844 28.246094 9.269531 28.472656 C 9.359375 28.582031 9.515625 28.609375 9.648438 28.578125 C 9.691406 28.617188 9.734375 28.65625 9.773438 28.699219 C 9.78125 28.707031 9.792969 28.71875 9.804688 28.726562 C 9.734375 28.734375 9.664062 28.746094 9.59375 28.761719 Z M 6.527344 25.386719 C 6.527344 25.40625 6.53125 25.421875 6.53125 25.441406 C 6.425781 25.390625 6.304688 25.382812 6.183594 25.445312 C 6.265625 25.351562 6.289062 25.234375 6.273438 25.125 C 6.359375 25.210938 6.441406 25.300781 6.527344 25.386719 Z M 5.738281 24.792969 C 5.722656 24.71875 5.714844 24.644531 5.710938 24.566406 C 5.777344 24.632812 5.84375 24.695312 5.910156 24.761719 C 5.855469 24.753906 5.796875 24.765625 5.738281 24.792969 Z M 4.707031 24.539062 C 4.738281 24.667969 4.765625 24.796875 4.796875 24.921875 C 4.722656 24.960938 4.65625 25.011719 4.605469 25.078125 C 4.640625 24.898438 4.671875 24.71875 4.707031 24.539062 Z M 4.421875 26.160156 C 4.421875 26.175781 4.421875 26.1875 4.421875 26.203125 C 4.417969 26.222656 4.410156 26.238281 4.40625 26.253906 C 4.410156 26.222656 4.414062 26.191406 4.421875 26.160156 Z M 8 33.304688 C 8.003906 33.328125 8.007812 33.351562 8.011719 33.375 C 7.992188 33.371094 7.976562 33.371094 7.957031 33.367188 C 7.972656 33.347656 7.988281 33.328125 8 33.304688 Z M 7.90625 31.777344 C 7.902344 31.777344 7.902344 31.777344 7.902344 31.777344 C 7.90625 31.773438 7.90625 31.773438 7.90625 31.773438 C 7.90625 31.777344 7.90625 31.777344 7.90625 31.777344 Z M 10.648438 29.519531 C 10.726562 29.46875 10.789062 29.390625 10.8125 29.296875 C 10.832031 29.203125 10.835938 29.117188 10.835938 29.035156 C 10.941406 29.195312 11.039062 29.363281 11.132812 29.535156 C 10.96875 29.519531 10.808594 29.511719 10.648438 29.519531 Z M 79.265625 23.582031 C 78.996094 21.804688 78.605469 20.050781 78.097656 18.324219 C 78.097656 18.320312 78.09375 18.316406 78.09375 18.3125 C 78.085938 18.289062 78.078125 18.269531 78.070312 18.25 C 78.0625 18.238281 78.058594 18.230469 78.050781 18.21875 C 78.046875 18.210938 78.042969 18.203125 78.035156 18.199219 C 77.976562 18.117188 77.898438 18.066406 77.808594 18.046875 C 77.777344 18.039062 77.742188 18.03125 77.707031 18.023438 C 76.75 17.902344 75.777344 17.9375 74.820312 18.011719 C 73.507812 18.105469 72.203125 18.292969 70.90625 18.535156 C 67.957031 19.089844 65.039062 19.9375 62.300781 21.171875 C 60.855469 21.824219 59.46875 22.601562 58.214844 23.578125 C 58.042969 23.714844 58.074219 24.015625 58.214844 24.15625 C 58.386719 24.328125 58.621094 24.292969 58.792969 24.15625 C 61.003906 22.433594 63.707031 21.339844 66.359375 20.507812 C 68.980469 19.6875 71.699219 19.097656 74.4375 18.859375 C 75.410156 18.773438 76.40625 18.71875 77.386719 18.808594 C 78.207031 21.679688 78.707031 24.632812 78.859375 27.617188 C 78.9375 29.125 78.925781 30.632812 78.832031 32.140625 C 78.753906 33.386719 78.644531 34.609375 78.253906 35.804688 C 77.894531 36.902344 77.386719 38.152344 76.488281 38.925781 C 76.085938 39.269531 76.667969 39.84375 77.0625 39.503906 C 77.929688 38.761719 78.449219 37.617188 78.84375 36.574219 C 79.289062 35.410156 79.476562 34.242188 79.582031 33.003906 C 79.851562 29.863281 79.734375 26.699219 79.265625 23.582031 Z M 63.765625 22.976562 C 63.664062 22.953125 63.539062 22.957031 63.449219 23.019531 C 63.105469 23.261719 62.757812 23.507812 62.410156 23.75 C 62.320312 23.8125 62.253906 23.886719 62.222656 23.996094 C 62.195312 24.09375 62.207031 24.222656 62.265625 24.3125 C 62.320312 24.398438 62.402344 24.472656 62.507812 24.5 C 62.609375 24.519531 62.734375 24.519531 62.824219 24.457031 C 63.167969 24.214844 63.515625 23.96875 63.863281 23.722656 C 63.953125 23.660156 64.019531 23.589844 64.050781 23.480469 C 64.078125 23.382812 64.066406 23.253906 64.007812 23.164062 C 63.953125 23.078125 63.871094 23 63.765625 22.976562 Z M 74.511719 22.328125 C 74.507812 22.328125 74.507812 22.328125 74.507812 22.328125 C 74.507812 22.328125 74.511719 22.328125 74.511719 22.332031 C 74.511719 22.328125 74.511719 22.328125 74.511719 22.328125 Z M 74.511719 22.328125 "/>
</g>
</g>
</svg>
