<?xml version="1.0" encoding="UTF-8"?>
<svg xmlns="http://www.w3.org/2000/svg" xmlns:xlink="http://www.w3.org/1999/xlink" width="80px" height="80px" viewBox="0 0 80 80" version="1.1">
<defs>
<clipPath id="clip1">
  <path d="M 11.425781 37.097656 L 68.609375 37.097656 L 68.609375 60.652344 L 11.425781 60.652344 Z M 11.425781 37.097656 "/>
</clipPath>
</defs>
<g id="surface1">
<g clip-path="url(#clip1)" clip-rule="nonzero">
<path style=" stroke:none;fill-rule:nonzero;fill:rgb(0%,49.019608%,100%);fill-opacity:1;" d="M 55.390625 40.207031 C 51.332031 39.246094 47.144531 41.457031 45.375 45.15625 C 43.632812 48.8125 44.773438 53.445312 47.980469 55.898438 C 48.179688 56.050781 48.386719 56.195312 48.597656 56.332031 C 48.8125 56.46875 49.027344 56.59375 49.25 56.710938 C 49.472656 56.828125 49.703125 56.9375 49.933594 57.035156 C 50.164062 57.132812 50.402344 57.222656 50.640625 57.300781 C 50.878906 57.378906 51.121094 57.445312 51.367188 57.503906 C 51.613281 57.5625 51.859375 57.609375 52.109375 57.648438 C 52.359375 57.6875 52.609375 57.714844 52.859375 57.730469 C 53.109375 57.746094 53.363281 57.75 53.613281 57.746094 C 53.867188 57.742188 54.117188 57.726562 54.367188 57.703125 C 54.617188 57.675781 54.867188 57.640625 55.117188 57.59375 C 55.363281 57.546875 55.609375 57.488281 55.851562 57.421875 C 56.09375 57.355469 56.332031 57.277344 56.570312 57.191406 C 56.804688 57.105469 57.039062 57.007812 57.265625 56.898438 C 57.496094 56.792969 57.71875 56.675781 57.9375 56.550781 C 58.15625 56.425781 58.367188 56.292969 58.574219 56.148438 C 58.78125 56.003906 58.984375 55.855469 59.179688 55.691406 C 61.207031 54.042969 62.300781 51.480469 62.34375 48.898438 L 62.34375 48.882812 C 62.339844 48.632812 62.328125 48.382812 62.304688 48.132812 C 62.28125 47.886719 62.246094 47.636719 62.203125 47.394531 C 62.15625 47.148438 62.105469 46.902344 62.039062 46.664062 C 61.976562 46.421875 61.902344 46.183594 61.816406 45.949219 C 61.730469 45.714844 61.636719 45.480469 61.535156 45.253906 C 61.433594 45.027344 61.320312 44.804688 61.195312 44.585938 C 61.074219 44.367188 60.945312 44.15625 60.804688 43.949219 C 60.664062 43.742188 60.519531 43.542969 60.363281 43.347656 C 60.207031 43.152344 60.042969 42.964844 59.871094 42.78125 C 59.699219 42.601562 59.519531 42.429688 59.332031 42.261719 C 59.144531 42.09375 58.953125 41.9375 58.753906 41.785156 C 58.554688 41.636719 58.347656 41.496094 58.136719 41.363281 C 57.925781 41.226562 57.710938 41.105469 57.488281 40.988281 C 57.269531 40.875 57.042969 40.765625 56.8125 40.671875 C 56.582031 40.574219 56.347656 40.488281 56.109375 40.410156 C 55.875 40.332031 55.632812 40.265625 55.390625 40.207031 Z M 48.25 54.953125 C 48.328125 54.863281 48.09375 54.710938 48.019531 54.644531 C 47.746094 54.386719 47.492188 54.109375 47.257812 53.816406 C 47.027344 53.527344 46.820312 53.226562 46.632812 52.90625 C 46.589844 52.835938 46.207031 52.125 46.175781 52.160156 C 46.210938 52.117188 46.246094 52.078125 46.28125 52.035156 L 51.066406 46.464844 C 52.558594 44.730469 54.050781 42.992188 55.542969 41.257812 C 56.195312 41.441406 56.8125 41.699219 57.402344 42.035156 C 57.601562 42.144531 58.539062 42.863281 58.65625 42.832031 C 58.660156 42.832031 58.660156 42.835938 58.660156 42.835938 C 58.523438 42.996094 58.386719 43.152344 58.25 43.3125 C 57.53125 44.152344 56.808594 44.992188 56.085938 45.835938 C 54.089844 48.160156 52.089844 50.484375 50.09375 52.808594 C 49.519531 53.480469 48.941406 54.148438 48.367188 54.816406 C 48.328125 54.863281 48.289062 54.90625 48.25 54.953125 Z M 53.960938 40.996094 C 51.214844 44.191406 48.46875 47.386719 45.71875 50.585938 C 45.6875 50.4375 45.660156 50.285156 45.632812 50.136719 C 45.609375 49.984375 45.589844 49.835938 45.574219 49.683594 C 45.558594 49.53125 45.550781 49.378906 45.542969 49.226562 C 45.535156 49.074219 45.535156 48.921875 45.535156 48.769531 C 45.539062 48.617188 45.546875 48.460938 45.558594 48.3125 C 45.566406 48.15625 45.582031 48.007812 45.601562 47.855469 C 45.625 47.703125 45.648438 47.554688 45.675781 47.402344 C 45.707031 47.253906 45.738281 47.105469 45.777344 46.957031 C 45.8125 46.808594 45.855469 46.660156 45.898438 46.515625 C 45.945312 46.371094 45.996094 46.226562 46.050781 46.082031 C 46.105469 45.941406 46.164062 45.800781 46.222656 45.660156 C 46.285156 45.519531 46.351562 45.382812 46.421875 45.246094 C 46.492188 45.113281 46.566406 44.980469 46.644531 44.847656 C 46.722656 44.714844 46.804688 44.585938 46.890625 44.460938 C 46.976562 44.335938 47.066406 44.210938 47.15625 44.089844 C 47.25 43.96875 47.347656 43.847656 47.445312 43.734375 C 47.546875 43.617188 47.648438 43.503906 47.753906 43.394531 C 47.859375 43.285156 47.96875 43.179688 48.082031 43.074219 C 48.195312 42.972656 48.308594 42.871094 48.425781 42.773438 C 48.546875 42.675781 48.664062 42.585938 48.789062 42.496094 C 48.914062 42.40625 49.039062 42.316406 49.167969 42.234375 C 49.296875 42.152344 49.425781 42.074219 49.558594 42 C 49.691406 41.925781 49.828125 41.851562 49.964844 41.785156 C 50.101562 41.71875 50.238281 41.65625 50.378906 41.597656 C 50.523438 41.535156 50.664062 41.480469 50.808594 41.429688 C 50.953125 41.378906 51.097656 41.332031 51.242188 41.289062 C 51.390625 41.25 51.539062 41.210938 51.6875 41.175781 C 51.835938 41.140625 51.984375 41.113281 52.136719 41.085938 C 52.285156 41.0625 52.4375 41.039062 52.589844 41.023438 C 52.742188 41.007812 52.894531 40.996094 53.046875 40.988281 C 53.199219 40.980469 53.351562 40.976562 53.503906 40.976562 C 53.65625 40.980469 53.808594 40.984375 53.960938 40.996094 Z M 32.011719 41.878906 C 31.8125 41.726562 31.605469 41.582031 31.394531 41.445312 C 31.179688 41.3125 30.964844 41.183594 30.738281 41.066406 C 30.515625 40.949219 30.289062 40.84375 30.058594 40.746094 C 29.824219 40.644531 29.589844 40.558594 29.351562 40.480469 C 29.113281 40.402344 28.871094 40.332031 28.625 40.273438 C 28.378906 40.214844 28.132812 40.167969 27.882812 40.128906 C 27.632812 40.09375 27.382812 40.066406 27.132812 40.050781 C 26.878906 40.03125 26.628906 40.027344 26.378906 40.03125 C 26.125 40.035156 25.875 40.050781 25.625 40.078125 C 25.375 40.101562 25.125 40.140625 24.875 40.1875 C 24.628906 40.234375 24.382812 40.289062 24.140625 40.355469 C 23.898438 40.425781 23.660156 40.5 23.421875 40.589844 C 23.1875 40.675781 22.953125 40.773438 22.726562 40.878906 C 22.496094 40.988281 22.273438 41.101562 22.054688 41.226562 C 21.835938 41.355469 21.625 41.488281 21.417969 41.632812 C 21.210938 41.773438 21.007812 41.925781 20.816406 42.085938 C 18.785156 43.738281 17.691406 46.296875 17.648438 48.882812 L 17.648438 48.898438 C 17.652344 49.148438 17.664062 49.394531 17.6875 49.644531 C 17.710938 49.894531 17.746094 50.140625 17.789062 50.386719 C 17.835938 50.632812 17.886719 50.875 17.953125 51.117188 C 18.015625 51.355469 18.089844 51.59375 18.175781 51.832031 C 18.257812 52.066406 18.351562 52.296875 18.457031 52.523438 C 18.558594 52.75 18.671875 52.972656 18.792969 53.191406 C 18.917969 53.410156 19.046875 53.621094 19.1875 53.828125 C 19.324219 54.035156 19.472656 54.238281 19.628906 54.433594 C 19.785156 54.625 19.949219 54.816406 20.121094 54.996094 C 20.292969 55.175781 20.472656 55.351562 20.660156 55.515625 C 20.84375 55.683594 21.039062 55.84375 21.238281 55.992188 C 21.4375 56.140625 21.640625 56.285156 21.851562 56.417969 C 22.0625 56.550781 22.28125 56.675781 22.5 56.789062 C 22.722656 56.90625 22.949219 57.011719 23.179688 57.109375 C 23.410156 57.203125 23.644531 57.292969 23.878906 57.367188 C 24.117188 57.445312 24.359375 57.511719 24.601562 57.570312 C 28.660156 58.53125 32.851562 56.324219 34.617188 52.621094 C 36.359375 48.964844 35.222656 44.335938 32.011719 41.878906 Z M 21.316406 54.863281 C 21.304688 54.875 21.292969 54.890625 21.285156 54.902344 C 21.28125 54.902344 21.28125 54.902344 21.28125 54.898438 C 21.351562 54.785156 20.914062 54.449219 20.828125 54.359375 C 20.347656 53.859375 19.9375 53.304688 19.601562 52.695312 C 19.566406 52.636719 19.273438 52.035156 19.234375 52.082031 C 19.246094 52.0625 19.261719 52.046875 19.277344 52.03125 C 19.460938 51.816406 19.644531 51.605469 19.828125 51.390625 C 21.679688 49.234375 23.53125 47.082031 25.378906 44.925781 C 26.25 43.914062 27.121094 42.898438 27.992188 41.886719 C 28.183594 41.664062 28.371094 41.445312 28.5625 41.226562 C 28.621094 41.152344 29.570312 41.574219 29.703125 41.632812 C 30.410156 41.941406 31.058594 42.347656 31.644531 42.84375 C 28.507812 46.496094 25.371094 50.144531 22.230469 53.796875 C 21.984375 54.085938 21.738281 54.375 21.488281 54.660156 C 21.429688 54.730469 21.375 54.796875 21.316406 54.863281 Z M 20.679688 43.574219 C 20.878906 43.355469 21.085938 43.152344 21.304688 42.957031 C 21.527344 42.765625 21.753906 42.585938 21.996094 42.417969 C 22.234375 42.25 22.480469 42.097656 22.738281 41.957031 C 22.996094 41.816406 23.257812 41.6875 23.527344 41.578125 C 23.800781 41.464844 24.074219 41.371094 24.355469 41.289062 C 24.636719 41.207031 24.921875 41.144531 25.210938 41.09375 C 25.496094 41.042969 25.789062 41.011719 26.078125 40.992188 C 26.371094 40.976562 26.664062 40.972656 26.957031 40.988281 C 24.234375 44.15625 21.511719 47.324219 18.792969 50.492188 C 18.730469 50.1875 18.6875 49.878906 18.664062 49.570312 C 18.636719 49.261719 18.628906 48.953125 18.640625 48.640625 C 18.652344 48.332031 18.679688 48.023438 18.726562 47.71875 C 18.773438 47.410156 18.835938 47.105469 18.917969 46.808594 C 19 46.507812 19.097656 46.214844 19.214844 45.929688 C 19.332031 45.640625 19.464844 45.359375 19.609375 45.085938 C 19.757812 44.816406 19.921875 44.550781 20.101562 44.300781 C 20.28125 44.046875 20.472656 43.804688 20.679688 43.574219 Z M 66.914062 44.328125 C 66.382812 44.160156 65.835938 44.078125 65.28125 44.085938 C 64.929688 44.085938 64.578125 44.113281 64.234375 44.175781 C 64.128906 43.941406 64.015625 43.707031 63.894531 43.476562 C 63.773438 43.246094 63.644531 43.023438 63.511719 42.800781 C 63.375 42.578125 63.234375 42.363281 63.085938 42.152344 C 62.933594 41.9375 62.777344 41.734375 62.617188 41.53125 C 62.453125 41.328125 62.285156 41.132812 62.109375 40.941406 C 61.933594 40.75 61.75 40.566406 61.5625 40.386719 C 61.375 40.210938 61.183594 40.035156 60.984375 39.871094 C 60.785156 39.703125 60.582031 39.542969 60.371094 39.390625 C 60.160156 39.238281 59.949219 39.09375 59.730469 38.953125 C 59.511719 38.816406 59.285156 38.683594 59.058594 38.558594 C 58.832031 38.433594 58.601562 38.316406 58.367188 38.207031 C 58.128906 38.097656 57.890625 38 57.652344 37.90625 C 57.410156 37.8125 57.164062 37.726562 56.917969 37.648438 C 56.667969 37.570312 56.421875 37.5 56.167969 37.4375 C 55.917969 37.375 55.664062 37.324219 55.40625 37.277344 C 55.152344 37.234375 54.894531 37.199219 54.636719 37.167969 C 54.222656 37.121094 53.804688 37.097656 53.386719 37.097656 C 49.390625 37.097656 45.582031 39.265625 43.390625 42.777344 C 42.335938 42.625 41.277344 42.535156 40.210938 42.5 C 40.195312 42.5 40.179688 42.5 40.164062 42.5 C 40.140625 42.496094 40.113281 42.496094 40.089844 42.492188 C 40.089844 42.492188 39.910156 42.496094 39.910156 42.496094 C 39.886719 42.496094 39.863281 42.5 39.839844 42.503906 C 39.8125 42.5 39.789062 42.5 39.761719 42.5 L 39.757812 42.5 C 38.699219 42.535156 37.648438 42.628906 36.597656 42.777344 C 36.464844 42.5625 36.328125 42.351562 36.179688 42.144531 C 36.035156 41.9375 35.882812 41.734375 35.722656 41.539062 C 35.566406 41.339844 35.398438 41.148438 35.226562 40.960938 C 35.058594 40.777344 34.878906 40.59375 34.699219 40.417969 C 34.515625 40.246094 34.328125 40.074219 34.132812 39.914062 C 33.9375 39.75 33.742188 39.59375 33.539062 39.441406 C 33.332031 39.292969 33.125 39.148438 32.914062 39.011719 C 32.699219 38.875 32.484375 38.742188 32.261719 38.621094 C 32.039062 38.496094 31.816406 38.382812 31.585938 38.273438 C 31.359375 38.164062 31.125 38.0625 30.890625 37.96875 C 30.65625 37.875 30.417969 37.789062 30.179688 37.710938 C 29.9375 37.628906 29.695312 37.558594 29.449219 37.496094 C 29.207031 37.433594 28.957031 37.378906 28.710938 37.332031 C 28.460938 37.28125 28.210938 37.242188 27.960938 37.210938 C 27.707031 37.179688 27.457031 37.15625 27.203125 37.140625 C 26.953125 37.125 26.699219 37.117188 26.445312 37.121094 C 26.085938 37.121094 25.722656 37.136719 25.363281 37.167969 C 21.265625 37.535156 17.527344 40.277344 15.757812 44.175781 C 15.425781 44.121094 15.09375 44.09375 14.757812 44.09375 C 14.289062 44.09375 13.824219 44.140625 13.363281 44.230469 C 11.945312 44.523438 11.4375 45.929688 11.4375 47.152344 L 11.4375 47.277344 C 11.4375 48.257812 11.433594 49.476562 12.496094 50.195312 C 13.195312 50.667969 13.996094 50.726562 14.617188 50.726562 C 14.714844 50.726562 14.8125 50.726562 14.914062 50.722656 C 15.886719 56.410156 20.878906 60.664062 26.65625 60.664062 C 26.804688 60.664062 26.949219 60.660156 27.097656 60.65625 C 32.921875 60.445312 37.785156 55.667969 38.28125 49.734375 C 38.832031 49.617188 39.386719 49.539062 39.945312 49.5 L 39.996094 49.496094 C 39.996094 49.496094 40.050781 49.5 40.050781 49.5 C 40.609375 49.539062 41.160156 49.617188 41.707031 49.734375 C 41.722656 49.910156 41.742188 50.085938 41.765625 50.261719 C 41.789062 50.4375 41.8125 50.613281 41.84375 50.789062 C 41.875 50.964844 41.910156 51.136719 41.949219 51.3125 C 41.988281 51.484375 42.027344 51.65625 42.074219 51.828125 C 42.121094 52 42.171875 52.167969 42.222656 52.339844 C 42.277344 52.507812 42.335938 52.675781 42.398438 52.84375 C 42.457031 53.007812 42.523438 53.171875 42.589844 53.335938 C 42.660156 53.5 42.730469 53.664062 42.808594 53.824219 C 42.882812 53.984375 42.960938 54.144531 43.042969 54.300781 C 43.128906 54.457031 43.214844 54.613281 43.304688 54.765625 C 43.394531 54.917969 43.484375 55.070312 43.582031 55.21875 C 43.679688 55.367188 43.777344 55.515625 43.882812 55.660156 C 43.984375 55.804688 44.089844 55.945312 44.199219 56.085938 C 44.308594 56.226562 44.421875 56.363281 44.535156 56.496094 C 44.652344 56.632812 44.769531 56.765625 44.890625 56.894531 C 45.011719 57.023438 45.136719 57.148438 45.265625 57.273438 C 45.390625 57.398438 45.519531 57.519531 45.652344 57.636719 C 45.785156 57.753906 45.921875 57.871094 46.058594 57.984375 C 46.195312 58.09375 46.335938 58.203125 46.476562 58.3125 C 46.621094 58.417969 46.765625 58.519531 46.910156 58.617188 C 47.058594 58.71875 47.207031 58.816406 47.359375 58.90625 C 47.507812 59 47.660156 59.089844 47.816406 59.175781 C 47.972656 59.261719 48.128906 59.34375 48.289062 59.425781 C 48.445312 59.503906 48.609375 59.578125 48.769531 59.652344 C 48.933594 59.722656 49.09375 59.792969 49.261719 59.855469 C 49.425781 59.921875 49.59375 59.980469 49.761719 60.039062 C 49.929688 60.097656 50.097656 60.148438 50.269531 60.199219 C 50.4375 60.25 50.609375 60.296875 50.78125 60.335938 C 50.953125 60.378906 51.128906 60.417969 51.300781 60.453125 C 51.476562 60.484375 51.652344 60.515625 51.828125 60.542969 C 52 60.570312 52.175781 60.59375 52.355469 60.613281 C 52.53125 60.628906 52.707031 60.644531 52.882812 60.65625 C 53.109375 60.667969 53.335938 60.675781 53.5625 60.675781 C 59.207031 60.675781 64.105469 56.417969 65.078125 50.722656 C 65.171875 50.726562 65.265625 50.726562 65.359375 50.726562 C 65.894531 50.726562 66.597656 50.683594 67.25 50.359375 C 68.554688 49.703125 68.554688 48.308594 68.554688 47.152344 C 68.554688 45.699219 67.972656 44.695312 66.914062 44.328125 Z M 64.238281 50.058594 C 63.570312 55.75 58.605469 59.929688 52.90625 59.722656 C 47.300781 59.519531 42.847656 54.742188 42.609375 49.242188 C 42.609375 49.210938 42.605469 49.179688 42.59375 49.148438 C 42.582031 49.117188 42.566406 49.089844 42.546875 49.0625 C 42.53125 49.039062 42.507812 49.015625 42.480469 49 C 42.453125 48.980469 42.425781 48.96875 42.394531 48.957031 C 41.628906 48.703125 40.828125 48.640625 40.03125 48.566406 C 40.019531 48.5625 40.007812 48.5625 40 48.5625 L 39.996094 48.5625 C 39.984375 48.5625 39.972656 48.5625 39.964844 48.566406 C 39.164062 48.640625 38.359375 48.703125 37.597656 48.957031 C 37.566406 48.96875 37.535156 48.980469 37.511719 49 C 37.484375 49.015625 37.460938 49.039062 37.441406 49.0625 C 37.421875 49.089844 37.40625 49.117188 37.398438 49.148438 C 37.386719 49.179688 37.382812 49.210938 37.382812 49.242188 C 37.375 49.410156 37.363281 49.574219 37.347656 49.742188 C 37.332031 49.910156 37.3125 50.078125 37.292969 50.242188 C 37.269531 50.410156 37.242188 50.574219 37.210938 50.738281 C 37.183594 50.90625 37.148438 51.066406 37.109375 51.230469 C 37.074219 51.394531 37.03125 51.558594 36.984375 51.71875 C 36.941406 51.878906 36.890625 52.039062 36.839844 52.199219 C 36.785156 52.359375 36.730469 52.515625 36.671875 52.675781 C 36.609375 52.832031 36.546875 52.984375 36.480469 53.140625 C 36.414062 53.292969 36.34375 53.445312 36.269531 53.597656 C 36.195312 53.746094 36.117188 53.894531 36.039062 54.042969 C 35.957031 54.1875 35.875 54.335938 35.785156 54.476562 C 35.699219 54.621094 35.609375 54.761719 35.515625 54.902344 C 35.421875 55.039062 35.324219 55.175781 35.222656 55.3125 C 35.125 55.445312 35.019531 55.578125 34.914062 55.707031 C 34.808594 55.839844 34.699219 55.964844 34.589844 56.089844 C 34.476562 56.214844 34.363281 56.335938 34.246094 56.457031 C 34.125 56.578125 34.007812 56.695312 33.882812 56.808594 C 33.761719 56.921875 33.636719 57.03125 33.507812 57.140625 C 33.378906 57.25 33.25 57.355469 33.117188 57.457031 C 32.984375 57.558594 32.847656 57.660156 32.710938 57.753906 C 32.574219 57.851562 32.433594 57.945312 32.292969 58.035156 C 32.152344 58.125 32.007812 58.210938 31.863281 58.292969 C 31.71875 58.378906 31.570312 58.457031 31.421875 58.535156 C 31.269531 58.609375 31.121094 58.683594 30.96875 58.753906 C 30.816406 58.824219 30.660156 58.890625 30.503906 58.953125 C 30.351562 59.015625 30.191406 59.074219 30.035156 59.128906 C 29.875 59.183594 29.71875 59.234375 29.554688 59.285156 C 29.394531 59.332031 29.234375 59.375 29.070312 59.417969 C 28.910156 59.457031 28.746094 59.496094 28.582031 59.527344 C 28.417969 59.5625 28.25 59.589844 28.085938 59.617188 C 27.917969 59.640625 27.753906 59.664062 27.585938 59.679688 C 27.421875 59.699219 27.253906 59.714844 27.085938 59.722656 C 21.394531 60.070312 16.410156 55.648438 15.753906 50.058594 C 15.753906 50.019531 15.746094 49.984375 15.730469 49.949219 C 15.714844 49.914062 15.695312 49.882812 15.667969 49.855469 C 15.640625 49.828125 15.609375 49.804688 15.574219 49.789062 C 15.539062 49.773438 15.5 49.765625 15.460938 49.765625 C 14.988281 49.789062 14.507812 49.769531 14.03125 49.769531 C 12.582031 49.769531 12.371094 48.445312 12.371094 47.332031 C 12.371094 46.234375 12.714844 45.078125 14.0625 45.078125 C 14.71875 45.078125 15.421875 45 16.054688 45.210938 C 16.089844 45.21875 16.128906 45.222656 16.167969 45.21875 C 16.207031 45.210938 16.242188 45.199219 16.273438 45.179688 C 16.308594 45.160156 16.335938 45.136719 16.363281 45.105469 C 16.386719 45.074219 16.402344 45.042969 16.414062 45.003906 C 16.507812 44.769531 16.609375 44.535156 16.71875 44.308594 C 16.828125 44.078125 16.941406 43.851562 17.066406 43.632812 C 17.191406 43.410156 17.324219 43.195312 17.464844 42.980469 C 17.605469 42.769531 17.75 42.5625 17.90625 42.363281 C 18.058594 42.160156 18.21875 41.964844 18.386719 41.773438 C 18.554688 41.582031 18.730469 41.398438 18.910156 41.21875 C 19.089844 41.039062 19.277344 40.867188 19.46875 40.703125 C 19.660156 40.535156 19.859375 40.378906 20.0625 40.226562 C 20.265625 40.074219 20.472656 39.929688 20.6875 39.792969 C 20.902344 39.652344 21.117188 39.523438 21.339844 39.402344 C 21.5625 39.277344 21.789062 39.164062 22.019531 39.054688 C 22.25 38.949219 22.484375 38.851562 22.722656 38.757812 C 22.957031 38.667969 23.199219 38.585938 23.441406 38.511719 C 23.683594 38.4375 23.929688 38.371094 24.175781 38.3125 C 24.421875 38.257812 24.671875 38.207031 24.921875 38.167969 C 25.171875 38.128906 25.425781 38.097656 25.679688 38.074219 C 29.902344 37.695312 33.925781 39.988281 36.015625 43.613281 C 36.03125 43.640625 36.050781 43.664062 36.078125 43.6875 C 36.101562 43.707031 36.128906 43.722656 36.160156 43.734375 C 36.1875 43.746094 36.21875 43.753906 36.25 43.757812 C 36.285156 43.757812 36.316406 43.757812 36.347656 43.75 C 37.480469 43.578125 38.621094 43.472656 39.769531 43.433594 C 39.792969 43.429688 39.816406 43.425781 39.839844 43.421875 C 39.929688 43.425781 40.015625 43.421875 40.105469 43.402344 C 40.140625 43.421875 40.183594 43.429688 40.222656 43.433594 C 41.371094 43.472656 42.511719 43.578125 43.644531 43.75 C 43.675781 43.757812 43.707031 43.757812 43.742188 43.757812 C 43.773438 43.753906 43.804688 43.746094 43.832031 43.734375 C 43.863281 43.722656 43.890625 43.707031 43.914062 43.683594 C 43.9375 43.664062 43.960938 43.640625 43.976562 43.613281 C 44.105469 43.390625 44.238281 43.171875 44.382812 42.957031 C 44.527344 42.742188 44.675781 42.53125 44.832031 42.328125 C 44.992188 42.125 45.15625 41.925781 45.328125 41.734375 C 45.5 41.542969 45.675781 41.355469 45.863281 41.175781 C 46.046875 40.996094 46.238281 40.824219 46.433594 40.65625 C 46.628906 40.488281 46.832031 40.332031 47.039062 40.179688 C 47.25 40.027344 47.460938 39.882812 47.679688 39.742188 C 47.898438 39.605469 48.121094 39.476562 48.347656 39.355469 C 48.574219 39.234375 48.804688 39.121094 49.042969 39.015625 C 49.277344 38.910156 49.515625 38.8125 49.757812 38.722656 C 50 38.632812 50.242188 38.554688 50.492188 38.480469 C 50.738281 38.410156 50.988281 38.347656 51.242188 38.292969 C 51.492188 38.238281 51.746094 38.195312 52 38.15625 C 52.257812 38.121094 52.511719 38.09375 52.769531 38.074219 C 53.027344 38.058594 53.285156 38.046875 53.542969 38.046875 C 53.800781 38.046875 54.058594 38.054688 54.316406 38.074219 C 58.453125 38.339844 62.070312 41.203125 63.578125 45.003906 C 63.589844 45.042969 63.605469 45.078125 63.628906 45.105469 C 63.65625 45.136719 63.683594 45.160156 63.71875 45.179688 C 63.75 45.199219 63.785156 45.210938 63.824219 45.21875 C 63.863281 45.222656 63.902344 45.21875 63.9375 45.210938 C 64.570312 45 65.273438 45.078125 65.925781 45.078125 C 67.277344 45.078125 67.621094 46.234375 67.621094 47.332031 C 67.621094 48.5 67.40625 49.671875 65.960938 49.769531 C 65.484375 49.796875 65.007812 49.792969 64.53125 49.765625 C 64.492188 49.765625 64.453125 49.773438 64.417969 49.789062 C 64.382812 49.804688 64.351562 49.828125 64.324219 49.855469 C 64.296875 49.882812 64.273438 49.914062 64.257812 49.949219 C 64.246094 49.984375 64.238281 50.019531 64.238281 50.058594 Z M 64.238281 50.058594 "/>
</g>
<path style=" stroke:none;fill-rule:nonzero;fill:rgb(0%,49.019608%,100%);fill-opacity:1;" d="M 76.226562 26.566406 C 76.117188 25.65625 76.019531 24.734375 75.832031 23.835938 C 75.75 23.425781 75.640625 23.023438 75.484375 22.636719 C 75.335938 22.273438 75.160156 21.78125 74.738281 21.660156 C 74.292969 21.53125 73.9375 21.878906 73.617188 22.128906 C 73.273438 22.398438 72.933594 22.675781 72.597656 22.953125 C 71.9375 23.507812 71.296875 24.082031 70.675781 24.675781 C 69.257812 26.035156 67.953125 27.503906 66.753906 29.0625 C 66.617188 29.238281 66.726562 29.519531 66.898438 29.621094 C 67.074219 29.722656 67.25 29.675781 67.382812 29.554688 C 67.453125 29.621094 67.546875 29.664062 67.65625 29.660156 C 68.164062 29.632812 68.675781 29.644531 69.183594 29.703125 C 69.167969 30.023438 69.15625 30.34375 69.144531 30.664062 C 69.132812 30.988281 69.496094 31.15625 69.757812 31.019531 C 70.207031 30.78125 70.820312 31.105469 70.972656 31.566406 C 71.078125 31.886719 70.902344 32.246094 70.832031 32.554688 C 70.738281 32.953125 70.71875 33.359375 70.953125 33.710938 C 71.105469 33.945312 71.386719 33.96875 71.59375 33.796875 C 71.980469 33.464844 72.613281 33.613281 72.941406 33.953125 C 73.378906 34.414062 73.359375 35.128906 73.152344 35.6875 C 73 36.101562 73.554688 36.328125 73.835938 36.085938 C 76.550781 33.734375 76.621094 29.855469 76.226562 26.566406 Z M 73.527344 24.148438 C 73.539062 24.507812 73.550781 24.871094 73.558594 25.230469 C 73.542969 25.226562 73.527344 25.222656 73.511719 25.21875 C 73.511719 25.09375 73.46875 24.976562 73.355469 24.890625 C 73.332031 24.867188 73.300781 24.851562 73.265625 24.835938 C 73.226562 24.734375 73.183594 24.628906 73.132812 24.527344 C 73.261719 24.402344 73.394531 24.273438 73.527344 24.148438 Z M 72.761719 27.152344 C 72.652344 27.144531 72.546875 27.175781 72.46875 27.25 C 72.46875 27.234375 72.472656 27.214844 72.472656 27.195312 C 72.535156 27.175781 72.59375 27.144531 72.640625 27.09375 C 72.679688 27.046875 72.71875 27 72.753906 26.949219 C 72.757812 27.015625 72.757812 27.085938 72.761719 27.152344 Z M 73.578125 26.621094 C 73.578125 26.753906 73.574219 26.886719 73.574219 27.019531 C 73.574219 26.964844 73.570312 26.910156 73.570312 26.855469 C 73.5625 26.574219 73.550781 26.296875 73.523438 26.019531 C 73.527344 26.015625 73.535156 26.011719 73.539062 26.011719 C 73.546875 26.007812 73.558594 26.003906 73.566406 26 C 73.570312 26.207031 73.574219 26.414062 73.578125 26.621094 Z M 71.570312 28.765625 C 71.4375 28.171875 71.402344 27.570312 71.46875 26.976562 C 71.53125 27.125 71.582031 27.277344 71.621094 27.433594 C 71.578125 27.878906 71.5625 28.320312 71.570312 28.765625 Z M 70.210938 27.785156 C 70.214844 27.78125 70.21875 27.78125 70.210938 27.785156 Z M 69.988281 27.84375 C 69.980469 27.84375 69.980469 27.839844 69.988281 27.84375 Z M 74.53125 28.226562 C 74.539062 28.710938 74.523438 29.203125 74.464844 29.6875 C 74.445312 29.402344 74.414062 29.117188 74.371094 28.835938 C 74.371094 28.8125 74.375 28.789062 74.378906 28.765625 C 74.421875 28.191406 74.394531 27.601562 74.394531 27.027344 C 74.394531 26.96875 74.394531 26.914062 74.394531 26.855469 C 74.429688 26.992188 74.464844 27.125 74.5 27.261719 C 74.515625 27.582031 74.527344 27.90625 74.53125 28.226562 Z M 71.851562 25.992188 C 71.824219 25.945312 71.789062 25.898438 71.757812 25.855469 C 71.8125 25.804688 71.867188 25.75 71.921875 25.699219 C 71.894531 25.796875 71.875 25.894531 71.851562 25.992188 Z M 70.625 27.335938 C 70.5625 27.265625 70.496094 27.199219 70.421875 27.144531 C 70.5 27.070312 70.578125 26.996094 70.652344 26.921875 C 70.640625 27.0625 70.628906 27.199219 70.625 27.335938 Z M 70 29.246094 C 69.980469 29.183594 69.945312 29.121094 69.902344 29.070312 C 69.976562 29.089844 70.050781 29.109375 70.121094 29.132812 C 70.078125 29.167969 70.035156 29.207031 70 29.246094 Z M 73.589844 33.453125 C 73.574219 33.4375 73.5625 33.421875 73.546875 33.40625 C 73.5625 33.394531 73.574219 33.382812 73.589844 33.371094 C 73.589844 33.398438 73.589844 33.425781 73.589844 33.453125 Z M 72.53125 32.789062 C 72.546875 32.8125 72.566406 32.835938 72.585938 32.859375 C 72.542969 32.847656 72.5 32.839844 72.457031 32.832031 C 72.480469 32.820312 72.507812 32.804688 72.53125 32.789062 Z M 74.050781 34.394531 C 74.109375 34.417969 74.171875 34.425781 74.230469 34.417969 C 74.183594 34.484375 74.136719 34.550781 74.085938 34.617188 C 74.078125 34.542969 74.066406 34.46875 74.050781 34.394531 Z M 74.507812 22.480469 C 74.5 22.472656 74.496094 22.464844 74.488281 22.441406 C 74.492188 22.457031 74.5 22.46875 74.511719 22.476562 C 74.515625 22.472656 74.519531 22.46875 74.523438 22.464844 C 74.574219 22.390625 74.542969 22.503906 74.511719 22.480469 C 74.519531 22.492188 74.527344 22.503906 74.53125 22.515625 C 74.554688 22.605469 74.625 22.699219 74.664062 22.789062 C 74.820312 23.136719 74.925781 23.503906 75.007812 23.875 C 75.191406 24.679688 75.277344 25.503906 75.378906 26.320312 C 75.46875 27.039062 75.546875 27.769531 75.585938 28.5 C 75.515625 28.0625 75.425781 27.632812 75.320312 27.203125 C 75.265625 26.207031 75.144531 25.214844 74.980469 24.234375 C 74.921875 23.886719 74.886719 23.5 74.777344 23.160156 C 74.675781 22.855469 74.355469 22.78125 74.101562 22.890625 C 74.074219 22.875 74.046875 22.859375 74.019531 22.847656 C 74.054688 22.820312 74.085938 22.792969 74.125 22.761719 C 74.226562 22.679688 74.421875 22.585938 74.507812 22.480469 Z M 13.886719 19.902344 C 11.183594 19.050781 8.371094 18.453125 5.546875 18.195312 C 4.449219 18.097656 3.320312 18.035156 2.222656 18.175781 C 2.1875 18.179688 2.152344 18.1875 2.121094 18.199219 C 2.027344 18.21875 1.945312 18.269531 1.886719 18.355469 C 1.886719 18.355469 1.886719 18.359375 1.882812 18.359375 C 1.875 18.375 1.863281 18.390625 1.855469 18.40625 C 1.847656 18.421875 1.839844 18.441406 1.835938 18.457031 C 1.832031 18.464844 1.832031 18.46875 1.828125 18.476562 C 0.933594 21.527344 0.402344 24.6875 0.246094 27.863281 C 0.171875 29.433594 0.1875 31.007812 0.300781 32.578125 C 0.390625 33.851562 0.519531 35.09375 0.933594 36.308594 C 1.335938 37.488281 1.894531 38.824219 2.863281 39.65625 C 3.261719 39.996094 3.839844 39.417969 3.441406 39.078125 C 2.644531 38.394531 2.171875 37.332031 1.820312 36.371094 C 1.628906 35.847656 1.46875 35.3125 1.355469 34.769531 C 1.226562 34.144531 1.1875 33.5 1.136719 32.867188 C 0.898438 29.832031 1.007812 26.765625 1.480469 23.761719 C 1.734375 22.140625 2.089844 20.535156 2.542969 18.957031 C 3.375 18.882812 4.21875 18.914062 5.050781 18.972656 C 6.300781 19.0625 7.539062 19.238281 8.769531 19.46875 C 11.632812 20.003906 14.488281 20.804688 17.152344 22 C 18.546875 22.625 19.921875 23.363281 21.132812 24.308594 C 21.308594 24.441406 21.542969 24.476562 21.710938 24.308594 C 21.851562 24.167969 21.886719 23.867188 21.710938 23.730469 C 19.410156 21.9375 16.652344 20.777344 13.886719 19.902344 Z M 9.953125 26.785156 C 8.910156 25.675781 7.75 24.671875 6.542969 23.742188 C 6 23.320312 5.445312 22.917969 4.867188 22.546875 C 4.542969 22.339844 4.238281 22.660156 4.269531 22.960938 C 4.238281 23 4.210938 23.054688 4.199219 23.121094 C 3.445312 26.722656 2.703125 30.632812 4.4375 34.082031 C 4.855469 34.914062 5.421875 35.675781 6.113281 36.300781 C 6.300781 36.464844 6.628906 36.460938 6.753906 36.21875 C 6.90625 35.925781 6.914062 35.640625 6.867188 35.320312 C 6.832031 35.101562 6.734375 34.835938 6.84375 34.625 C 7.113281 34.105469 7.921875 34.320312 8.355469 34.421875 C 8.613281 34.484375 8.871094 34.300781 8.871094 34.027344 C 8.875 33.46875 8.636719 32.9375 8.65625 32.378906 C 8.664062 32.210938 8.699219 32.003906 8.832031 31.886719 C 8.914062 31.8125 9.089844 31.746094 9.183594 31.832031 C 9.460938 32.085938 10.015625 31.839844 9.867188 31.433594 C 9.738281 31.089844 9.957031 30.742188 10.277344 30.589844 C 10.722656 30.375 11.261719 30.507812 11.710938 30.644531 C 11.871094 30.691406 12 30.644531 12.089844 30.554688 C 12.207031 30.46875 12.273438 30.324219 12.210938 30.140625 C 11.777344 28.859375 10.863281 27.761719 9.953125 26.785156 Z M 6.027344 34.488281 C 6.023438 34.480469 6.015625 34.472656 6.011719 34.464844 C 6 34.453125 5.996094 34.441406 5.988281 34.429688 C 6.011719 34.425781 6.03125 34.417969 6.050781 34.410156 C 6.042969 34.4375 6.035156 34.460938 6.027344 34.488281 Z M 5.652344 28.753906 C 5.558594 28.738281 5.460938 28.753906 5.378906 28.796875 C 5.367188 28.554688 5.351562 28.316406 5.339844 28.074219 C 5.445312 28.300781 5.550781 28.527344 5.652344 28.753906 Z M 6.023438 25.75 C 6.023438 25.746094 6.019531 25.742188 6.015625 25.738281 C 6.027344 25.730469 6.035156 25.722656 6.042969 25.714844 C 6.035156 25.726562 6.03125 25.738281 6.023438 25.75 Z M 6.789062 32.773438 C 6.847656 32.785156 6.90625 32.78125 6.964844 32.761719 C 7.007812 32.816406 7.054688 32.871094 7.101562 32.929688 C 6.992188 32.941406 6.882812 32.953125 6.773438 32.964844 C 6.777344 32.902344 6.785156 32.835938 6.789062 32.773438 Z M 9.59375 28.914062 C 9.402344 28.75 9.210938 28.585938 9.023438 28.417969 C 9.011719 28.34375 8.976562 28.273438 8.914062 28.214844 C 8.855469 28.152344 8.761719 28.109375 8.667969 28.097656 C 8.660156 28.089844 8.65625 28.082031 8.648438 28.074219 C 8.675781 28.039062 8.699219 28 8.714844 27.957031 C 8.902344 28.179688 9.089844 28.398438 9.269531 28.625 C 9.359375 28.730469 9.515625 28.757812 9.648438 28.726562 C 9.691406 28.769531 9.734375 28.808594 9.773438 28.847656 C 9.78125 28.859375 9.792969 28.867188 9.804688 28.878906 C 9.734375 28.886719 9.664062 28.898438 9.59375 28.914062 Z M 6.527344 25.539062 C 6.527344 25.554688 6.53125 25.574219 6.53125 25.59375 C 6.425781 25.539062 6.304688 25.535156 6.183594 25.59375 C 6.265625 25.5 6.289062 25.386719 6.273438 25.273438 C 6.359375 25.363281 6.441406 25.449219 6.527344 25.539062 Z M 5.738281 24.945312 C 5.722656 24.871094 5.714844 24.792969 5.710938 24.71875 C 5.777344 24.785156 5.84375 24.847656 5.910156 24.910156 C 5.855469 24.90625 5.796875 24.917969 5.738281 24.945312 Z M 4.707031 24.691406 C 4.738281 24.820312 4.765625 24.945312 4.796875 25.074219 C 4.722656 25.109375 4.65625 25.164062 4.605469 25.230469 C 4.640625 25.050781 4.671875 24.871094 4.707031 24.691406 Z M 4.421875 26.308594 C 4.421875 26.324219 4.421875 26.339844 4.421875 26.355469 C 4.417969 26.371094 4.410156 26.390625 4.40625 26.40625 C 4.410156 26.375 4.414062 26.34375 4.421875 26.308594 Z M 8 33.457031 C 8.003906 33.480469 8.007812 33.503906 8.011719 33.527344 C 7.992188 33.523438 7.976562 33.523438 7.957031 33.519531 C 7.972656 33.5 7.988281 33.476562 8 33.457031 Z M 7.90625 31.929688 C 7.902344 31.929688 7.902344 31.925781 7.902344 31.925781 C 7.90625 31.925781 7.90625 31.925781 7.90625 31.925781 C 7.90625 31.925781 7.90625 31.925781 7.90625 31.929688 Z M 10.648438 29.671875 C 10.726562 29.617188 10.789062 29.539062 10.8125 29.449219 C 10.832031 29.355469 10.835938 29.269531 10.835938 29.183594 C 10.941406 29.347656 11.039062 29.515625 11.132812 29.6875 C 10.96875 29.667969 10.808594 29.664062 10.648438 29.671875 Z M 79.265625 23.734375 C 78.996094 21.957031 78.605469 20.199219 78.097656 18.476562 C 78.097656 18.472656 78.09375 18.46875 78.09375 18.464844 C 78.085938 18.441406 78.078125 18.421875 78.070312 18.402344 C 78.0625 18.390625 78.058594 18.378906 78.050781 18.371094 C 78.046875 18.363281 78.042969 18.355469 78.035156 18.347656 C 77.976562 18.265625 77.898438 18.21875 77.808594 18.199219 C 77.777344 18.1875 77.742188 18.179688 77.707031 18.175781 C 76.75 18.054688 75.777344 18.089844 74.820312 18.160156 C 73.507812 18.257812 72.203125 18.445312 70.90625 18.6875 C 67.957031 19.242188 65.039062 20.085938 62.300781 21.324219 C 60.855469 21.976562 59.46875 22.753906 58.214844 23.730469 C 58.042969 23.867188 58.074219 24.164062 58.214844 24.308594 C 58.386719 24.480469 58.621094 24.445312 58.792969 24.308594 C 61.003906 22.582031 63.707031 21.488281 66.359375 20.660156 C 68.980469 19.839844 71.699219 19.25 74.4375 19.007812 C 75.410156 18.921875 76.40625 18.867188 77.386719 18.960938 C 78.207031 21.828125 78.707031 24.785156 78.859375 27.769531 C 78.9375 29.273438 78.925781 30.785156 78.832031 32.289062 C 78.753906 33.539062 78.644531 34.761719 78.253906 35.957031 C 77.894531 37.054688 77.386719 38.304688 76.488281 39.078125 C 76.085938 39.417969 76.667969 39.996094 77.0625 39.65625 C 77.929688 38.914062 78.449219 37.769531 78.84375 36.726562 C 79.289062 35.5625 79.476562 34.390625 79.582031 33.152344 C 79.851562 30.015625 79.734375 26.847656 79.265625 23.734375 Z M 63.765625 23.128906 C 63.664062 23.105469 63.539062 23.109375 63.449219 23.171875 C 63.105469 23.414062 62.757812 23.660156 62.410156 23.902344 C 62.320312 23.964844 62.253906 24.039062 62.222656 24.148438 C 62.195312 24.246094 62.207031 24.375 62.265625 24.460938 C 62.320312 24.546875 62.402344 24.625 62.507812 24.648438 C 62.609375 24.671875 62.734375 24.671875 62.824219 24.609375 C 63.167969 24.363281 63.515625 24.121094 63.863281 23.875 C 63.953125 23.8125 64.019531 23.738281 64.050781 23.632812 C 64.078125 23.535156 64.066406 23.402344 64.007812 23.316406 C 63.953125 23.230469 63.871094 23.152344 63.765625 23.128906 Z M 74.511719 22.476562 C 74.507812 22.480469 74.507812 22.480469 74.507812 22.480469 C 74.507812 22.480469 74.511719 22.480469 74.511719 22.480469 C 74.511719 22.480469 74.511719 22.480469 74.511719 22.476562 Z M 74.511719 22.476562 "/>
</g>
</svg>
