<?xml version="1.0" encoding="UTF-8"?>
<svg xmlns="http://www.w3.org/2000/svg" xmlns:xlink="http://www.w3.org/1999/xlink" width="80px" height="80px" viewBox="0 0 80 80" version="1.1">
<defs>
<clipPath id="clip1">
  <path d="M 10.515625 36.148438 L 69.433594 36.148438 L 69.433594 60.148438 L 10.515625 60.148438 Z M 10.515625 36.148438 "/>
</clipPath>
</defs>
<g id="surface1">
<g clip-path="url(#clip1)" clip-rule="nonzero">
<path style=" stroke:none;fill-rule:nonzero;fill:rgb(100%,29.803923%,29.803923%);fill-opacity:1;" d="M 68.730469 40.730469 C 68.34375 40.414062 67.925781 40.128906 67.523438 39.855469 C 67.414062 39.78125 67.304688 39.707031 67.195312 39.632812 L 67.222656 37.800781 C 67.222656 37.785156 67.222656 37.773438 67.21875 37.757812 C 67.175781 36.863281 66.808594 36.34375 66.132812 36.207031 C 66.0625 36.191406 65.988281 36.183594 65.914062 36.183594 C 65.398438 36.183594 64.957031 36.523438 64.605469 36.796875 C 64.550781 36.835938 64.5 36.878906 64.449219 36.914062 L 63.40625 37.6875 L 61.917969 37.179688 C 61.648438 37.085938 61.367188 37.035156 61.078125 37.03125 C 60.5625 37.03125 60.148438 37.21875 59.90625 37.554688 C 59.726562 37.800781 59.5625 38.25 59.804688 38.96875 L 60.382812 40.691406 L 60.199219 40.9375 C 60.128906 40.925781 60.054688 40.917969 59.980469 40.90625 C 59.980469 40.898438 59.972656 40.828125 59.972656 40.828125 C 59.972656 40.808594 59.972656 40.792969 59.96875 40.773438 C 59.851562 39.472656 58.890625 38.554688 57.574219 38.484375 C 57.535156 38.480469 57.496094 38.480469 57.457031 38.480469 C 56.21875 38.480469 55.371094 39.492188 55.175781 40.558594 C 54.660156 40.546875 54.070312 40.535156 53.453125 40.535156 C 50.585938 40.535156 41.929688 40.535156 41.148438 46.871094 C 40.738281 46.96875 40.324219 47.015625 39.90625 47.011719 L 39.808594 47.011719 C 39.390625 47.015625 38.976562 46.96875 38.566406 46.871094 C 37.785156 40.535156 29.105469 40.535156 26.230469 40.535156 C 25.75 40.535156 25.285156 40.542969 24.847656 40.550781 C 24.707031 39.339844 23.554688 38.542969 22.457031 38.484375 C 22.417969 38.480469 22.378906 38.480469 22.339844 38.480469 C 21.042969 38.480469 20.15625 39.621094 20.03125 40.769531 C 20.023438 40.804688 20.019531 40.835938 20.019531 40.871094 C 19.9375 40.878906 19.855469 40.890625 19.773438 40.902344 C 19.742188 40.863281 19.613281 40.691406 19.613281 40.691406 C 19.675781 40.511719 19.738281 40.324219 19.804688 40.125 C 19.847656 39.996094 19.902344 39.859375 19.960938 39.714844 C 20.128906 39.285156 20.320312 38.796875 20.316406 38.339844 C 20.308594 37.511719 19.792969 36.996094 18.976562 36.996094 C 18.765625 36.996094 18.554688 37.027344 18.347656 37.089844 C 18.113281 37.15625 17.882812 37.238281 17.660156 37.320312 C 17.546875 37.359375 17.4375 37.398438 17.328125 37.4375 L 16.59375 37.6875 C 16.492188 37.609375 16.390625 37.53125 16.285156 37.453125 C 15.832031 37.109375 15.363281 36.753906 14.875 36.4375 C 14.640625 36.269531 14.378906 36.183594 14.09375 36.175781 C 13.292969 36.175781 12.820312 36.996094 12.777344 37.769531 C 12.777344 37.773438 12.777344 37.820312 12.777344 37.824219 L 12.804688 39.632812 L 12.351562 39.957031 C 12.273438 40.011719 12.1875 40.066406 12.097656 40.128906 C 11.464844 40.5625 10.59375 41.160156 10.542969 41.921875 C 10.523438 42.289062 10.691406 42.636719 11.042969 42.949219 C 11.371094 43.238281 11.847656 43.363281 12.269531 43.472656 C 12.382812 43.503906 12.496094 43.53125 12.597656 43.566406 L 13.484375 43.835938 C 13.523438 43.976562 13.566406 44.140625 13.609375 44.316406 C 13.742188 44.847656 13.90625 45.496094 14.207031 45.992188 C 14.207031 46.03125 14.210938 46.066406 14.21875 46.105469 C 14.335938 46.59375 14.476562 47.074219 14.648438 47.542969 C 14.636719 47.542969 14.621094 47.542969 14.609375 47.542969 C 14.492188 47.539062 14.382812 47.5625 14.273438 47.609375 C 14.167969 47.65625 14.078125 47.726562 14.003906 47.8125 C 13.621094 48.257812 13.695312 49.121094 13.832031 49.988281 L 13.847656 50.101562 L 13.1875 50.722656 C 12.960938 50.9375 12.265625 51.585938 12.6875 52.308594 C 12.992188 52.832031 13.628906 52.910156 14.09375 52.972656 C 14.175781 52.980469 14.253906 52.992188 14.328125 53.003906 C 14.46875 53.027344 14.609375 53.050781 14.75 53.074219 L 14.753906 53.074219 L 15.085938 53.773438 C 15.3125 54.257812 15.59375 54.859375 16.378906 54.875 C 17 54.875 17.308594 54.238281 17.511719 53.816406 C 17.539062 53.761719 17.5625 53.707031 17.585938 53.660156 L 17.707031 53.425781 C 19.175781 55.539062 21.191406 58.035156 23.953125 59.410156 C 24.390625 59.632812 24.84375 59.796875 25.316406 59.910156 C 25.789062 60.023438 26.269531 60.082031 26.757812 60.082031 C 28.132812 60.082031 29.542969 59.640625 30.945312 58.769531 C 33.121094 57.429688 34.8125 55.386719 35.898438 53.964844 C 36.339844 53.386719 36.769531 52.773438 37.171875 52.136719 C 37.277344 51.972656 37.375 51.804688 37.46875 51.632812 C 37.539062 51.507812 37.796875 51.292969 38.695312 51.292969 C 39.054688 51.292969 39.414062 51.328125 39.679688 51.351562 L 39.703125 51.355469 C 39.742188 51.363281 39.78125 51.367188 39.820312 51.367188 C 39.835938 51.367188 39.847656 51.367188 39.859375 51.367188 C 39.871094 51.367188 39.886719 51.367188 39.894531 51.367188 C 39.933594 51.367188 39.972656 51.363281 40.015625 51.355469 C 40.253906 51.335938 40.472656 51.328125 40.675781 51.328125 C 41.183594 51.320312 41.683594 51.390625 42.167969 51.539062 C 42.230469 51.5625 42.34375 51.777344 42.394531 51.878906 C 42.433594 51.953125 42.46875 52.023438 42.507812 52.085938 C 42.839844 52.613281 43.222656 53.167969 43.714844 53.828125 C 45.335938 56.011719 46.988281 57.625 48.761719 58.769531 C 50.097656 59.628906 51.484375 60.066406 52.875 60.066406 C 53.796875 60.0625 54.683594 59.878906 55.53125 59.515625 C 58.367188 58.320312 60.480469 55.660156 62.167969 53.191406 L 62.332031 53.507812 C 62.367188 53.574219 62.402344 53.648438 62.4375 53.726562 C 62.648438 54.15625 62.90625 54.695312 63.476562 54.851562 C 63.558594 54.875 63.644531 54.886719 63.730469 54.886719 C 64.386719 54.886719 64.710938 54.203125 64.914062 53.773438 L 65.242188 53.074219 L 65.5 53.03125 C 65.59375 53.015625 65.6875 53.003906 65.78125 52.992188 C 66.28125 52.929688 66.84375 52.855469 67.234375 52.410156 C 67.613281 51.980469 67.476562 51.347656 66.894531 50.804688 L 66.152344 50.101562 C 66.160156 50.050781 66.167969 49.996094 66.179688 49.941406 C 66.292969 49.292969 66.449219 48.402344 66.042969 47.914062 C 65.949219 47.804688 65.839844 47.722656 65.707031 47.667969 C 65.578125 47.613281 65.441406 47.589844 65.300781 47.59375 C 65.210938 47.597656 65.125 47.605469 65.039062 47.617188 C 65.1875 47.203125 65.308594 46.828125 65.40625 46.46875 C 65.804688 46.105469 65.953125 45.636719 66.09375 45.183594 C 66.167969 44.941406 66.515625 43.835938 66.515625 43.835938 L 68.25 43.304688 C 68.878906 43.109375 69.292969 42.710938 69.394531 42.210938 C 69.492188 41.695312 69.25 41.15625 68.730469 40.730469 Z M 66.996094 42.796875 C 66.726562 42.878906 65.980469 42.953125 65.820312 43.234375 C 65.558594 43.675781 65.472656 44.316406 65.316406 44.800781 C 65.265625 44.976562 65.210938 45.152344 65.152344 45.328125 C 64.753906 46.597656 64.046875 45.484375 63.832031 45.183594 C 63.503906 44.710938 63.171875 44.242188 62.84375 43.769531 C 62.480469 43.257812 58.894531 44.296875 59.988281 42.632812 C 60.394531 42.023438 61.472656 41.246094 61.210938 40.46875 C 61.019531 39.90625 60.832031 39.339844 60.640625 38.777344 C 60.203125 37.46875 61.429688 37.914062 62.097656 38.140625 C 62.503906 38.28125 63.066406 38.609375 63.503906 38.609375 C 63.890625 38.609375 64.488281 37.945312 64.777344 37.730469 C 65.25 37.378906 66.3125 36.578125 66.371094 37.800781 C 66.359375 38.328125 66.355469 38.851562 66.34375 39.375 C 66.339844 39.769531 66.265625 40.015625 66.597656 40.253906 C 67.09375 40.605469 67.585938 40.953125 68.078125 41.304688 C 69.25 42.140625 67.519531 42.636719 66.996094 42.796875 Z M 65.347656 49.714844 C 65.320312 49.90625 65.164062 50.34375 65.339844 50.511719 C 65.628906 50.785156 65.921875 51.058594 66.214844 51.332031 C 67.144531 52.210938 64.890625 52.125 64.65625 52.359375 C 64.316406 52.699219 63.890625 54.667969 63.234375 53.394531 C 63.082031 53.097656 62.945312 52.640625 62.707031 52.402344 C 62.53125 52.226562 62.027344 52.257812 61.808594 52.234375 C 61.398438 52.179688 60.53125 52.007812 61.101562 51.433594 C 61.382812 51.148438 61.664062 50.863281 61.945312 50.578125 C 62.277344 50.242188 61.230469 48.226562 62.230469 48.589844 C 62.582031 48.773438 63.402344 49.40625 63.78125 49.199219 C 64.15625 48.996094 64.535156 48.785156 64.910156 48.578125 C 65.691406 48.152344 65.386719 49.484375 65.347656 49.714844 Z M 42.121094 50.628906 C 41.421875 50.402344 40.582031 50.453125 39.855469 50.511719 C 39.210938 50.460938 38.511719 50.429688 37.875 50.566406 C 37.128906 50.726562 36.945312 50.824219 36.59375 51.453125 C 36.402344 51.789062 36.175781 52.109375 35.957031 52.429688 C 34.796875 54.164062 33.421875 55.710938 31.835938 57.070312 C 29.90625 58.695312 27.503906 59.773438 24.996094 58.929688 C 22.140625 57.96875 19.9375 55.167969 18.289062 52.765625 C 18.777344 52.710938 19.300781 52.695312 19.65625 52.320312 C 20.007812 51.949219 19.640625 51.40625 19.363281 51.132812 C 19.144531 50.90625 18.921875 50.679688 18.699219 50.457031 C 18.644531 50.402344 18.59375 50.347656 18.539062 50.296875 C 18.542969 50.28125 18.546875 50.261719 18.550781 50.238281 C 18.589844 50.019531 18.652344 49.71875 18.695312 49.410156 C 18.746094 49.523438 18.804688 49.632812 18.859375 49.742188 C 19.675781 51.304688 20.761719 52.753906 21.914062 54.085938 C 22.984375 55.324219 24.246094 56.582031 25.789062 57.203125 C 27.171875 57.761719 28.585938 57.023438 29.699219 56.222656 C 32.585938 54.15625 38.832031 47.195312 33.550781 44.410156 C 33.117188 44.144531 32.578125 44.003906 32.089844 43.875 C 30.410156 43.429688 28.640625 43.316406 26.910156 43.265625 C 24.09375 43.179688 19.265625 43.21875 18.300781 46.660156 C 18.1875 47.089844 18.164062 47.523438 18.230469 47.960938 C 18.003906 47.941406 17.789062 47.980469 17.582031 48.078125 C 17.578125 48.078125 17.574219 48.082031 17.566406 48.082031 C 17.550781 48.089844 17.535156 48.09375 17.515625 48.105469 C 17.304688 48.210938 17.09375 48.316406 16.878906 48.425781 C 16.734375 48.496094 16.589844 48.570312 16.445312 48.644531 C 16.421875 48.65625 16.402344 48.664062 16.386719 48.671875 C 16.21875 48.578125 16.054688 48.484375 15.886719 48.386719 C 15.882812 48.367188 15.875 48.34375 15.867188 48.320312 C 15.601562 47.703125 15.371094 47.070312 15.1875 46.425781 C 15.269531 46.449219 15.359375 46.460938 15.449219 46.460938 C 16.28125 46.460938 17.089844 44.871094 17.535156 44.183594 L 17.550781 44.183594 C 17.679688 44.183594 17.8125 44.183594 17.941406 44.183594 C 18.285156 44.1875 18.625 44.191406 18.96875 44.195312 C 19.449219 44.199219 20.160156 44.292969 20.523438 43.898438 C 21.128906 43.238281 20.601562 42.40625 20.050781 41.722656 C 20.199219 41.699219 20.347656 41.683594 20.492188 41.667969 C 20.804688 42.449219 21.519531 42.96875 22.441406 43.015625 C 23.445312 43.070312 24.21875 42.3125 24.46875 41.414062 C 28.894531 41.300781 37.367188 41.199219 37.753906 47.328125 C 37.753906 47.355469 37.761719 47.386719 37.769531 47.414062 C 37.78125 47.441406 37.792969 47.46875 37.8125 47.492188 C 37.828125 47.515625 37.851562 47.535156 37.875 47.550781 C 37.898438 47.566406 37.925781 47.582031 37.953125 47.589844 C 38.574219 47.78125 39.207031 47.875 39.851562 47.863281 L 39.863281 47.863281 C 40.507812 47.875 41.140625 47.78125 41.757812 47.589844 C 41.785156 47.582031 41.8125 47.566406 41.839844 47.550781 C 41.863281 47.535156 41.882812 47.515625 41.902344 47.492188 C 41.921875 47.46875 41.933594 47.441406 41.945312 47.414062 C 41.953125 47.386719 41.960938 47.355469 41.960938 47.328125 C 42.355469 41.097656 51.101562 41.304688 55.492188 41.421875 C 55.710938 42.339844 56.625 42.96875 57.558594 43.015625 C 58.457031 43.0625 59.167969 42.464844 59.488281 41.699219 C 59.648438 41.71875 59.804688 41.738281 59.964844 41.765625 C 59.375 42.550781 58.636719 43.640625 59.929688 44.132812 C 60.386719 44.308594 61.070312 44.195312 61.542969 44.191406 C 61.847656 44.1875 62.148438 44.183594 62.449219 44.183594 L 62.46875 44.183594 C 62.511719 44.246094 62.558594 44.308594 62.601562 44.375 C 62.929688 44.839844 63.707031 46.34375 64.515625 46.488281 C 64.316406 47.148438 64.078125 47.796875 63.800781 48.429688 C 63.78125 48.472656 63.773438 48.519531 63.78125 48.570312 C 63.722656 48.605469 63.664062 48.640625 63.609375 48.671875 C 63.5 48.617188 63.386719 48.5625 63.273438 48.503906 C 63.011719 48.371094 62.746094 48.238281 62.484375 48.105469 C 62.46875 48.097656 62.449219 48.089844 62.433594 48.085938 C 62.429688 48.082031 62.421875 48.078125 62.417969 48.078125 C 61.921875 47.875 61.625 47.933594 61.460938 48.128906 C 61.777344 46.179688 60.367188 44.578125 58.429688 43.855469 C 55.675781 42.835938 52.273438 43.144531 49.421875 43.527344 C 48.375 43.671875 47.089844 43.839844 46.160156 44.410156 C 42.414062 46.386719 44.746094 50.464844 46.65625 52.878906 C 48.375 55.058594 51.382812 58.496094 54.46875 56.960938 C 56.050781 56.175781 57.324219 54.695312 58.417969 53.347656 C 59.457031 52.070312 60.4375 50.679688 61.128906 49.183594 C 61.179688 49.070312 61.226562 48.960938 61.265625 48.851562 C 61.28125 49.273438 61.332031 49.6875 61.421875 50.097656 C 61.433594 50.160156 61.445312 50.230469 61.460938 50.292969 C 61.441406 50.3125 61.425781 50.332031 61.402344 50.351562 C 61.175781 50.585938 60.945312 50.816406 60.714844 51.046875 C 60.402344 51.363281 60.03125 51.804688 60.300781 52.265625 C 60.523438 52.648438 61.03125 52.691406 61.449219 52.734375 C 59.753906 55.210938 57.605469 57.828125 54.734375 58.921875 C 52.253906 59.867188 49.785156 58.632812 47.878906 57.070312 C 46.277344 55.761719 44.925781 54.128906 43.753906 52.429688 C 43.539062 52.109375 43.324219 51.789062 43.125 51.457031 C 42.789062 50.894531 42.769531 50.839844 42.121094 50.628906 Z M 15.894531 53.5 C 15.726562 53.140625 15.554688 52.777344 15.382812 52.414062 C 15.273438 52.179688 12.917969 52.148438 13.699219 51.414062 C 14.253906 50.894531 14.792969 50.65625 14.675781 49.878906 C 14.652344 49.75 14.285156 48.140625 15.019531 48.542969 C 15.398438 48.75 15.773438 48.957031 16.152344 49.164062 C 16.605469 49.414062 17.351562 48.804688 17.765625 48.589844 C 18.738281 48.238281 17.796875 50.160156 18.011719 50.523438 C 18.1875 50.824219 18.550781 51.082031 18.796875 51.328125 C 18.882812 51.417969 18.96875 51.503906 19.054688 51.589844 C 19.59375 52.132812 18.492188 52.191406 18.367188 52.210938 C 18.082031 52.246094 17.601562 52.210938 17.347656 52.359375 C 17.101562 52.5 16.960938 53.011719 16.84375 53.246094 C 16.648438 53.621094 16.203125 54.15625 15.894531 53.5 Z M 12.121094 41.164062 C 12.585938 40.835938 13.046875 40.503906 13.511719 40.175781 C 13.804688 39.96875 13.652344 39.339844 13.648438 39.039062 C 13.640625 38.628906 13.636719 38.214844 13.628906 37.800781 C 13.714844 35.871094 16.039062 38.78125 16.582031 38.59375 C 17.121094 38.40625 17.660156 38.222656 18.199219 38.039062 C 18.402344 37.972656 18.601562 37.90625 18.804688 37.847656 C 19.644531 37.609375 19.449219 38.507812 19.296875 38.960938 C 19.109375 39.523438 18.917969 40.089844 18.726562 40.65625 C 18.609375 41.003906 19.078125 41.394531 19.265625 41.644531 C 19.46875 41.914062 20.757812 43.292969 19.921875 43.609375 C 19.382812 43.820312 18.503906 43.648438 17.941406 43.640625 C 17.632812 43.636719 17.3125 43.550781 17.113281 43.828125 C 16.75 44.347656 16.386719 44.863281 16.023438 45.382812 C 15.265625 46.460938 14.75 45.023438 14.578125 44.484375 C 14.484375 44.183594 14.390625 43.316406 14.082031 43.136719 C 13.6875 42.902344 13.105469 42.828125 12.667969 42.691406 C 12.449219 42.625 12.222656 42.558594 12.003906 42.488281 C 10.722656 42.09375 11.804688 41.386719 12.121094 41.164062 Z M 24.007812 40.90625 C 24.007812 40.941406 24.007812 40.976562 24.007812 41.011719 C 23.972656 41.082031 23.964844 41.15625 23.984375 41.230469 C 23.851562 41.945312 23.15625 42.433594 22.441406 42.472656 C 21.554688 42.519531 20.914062 41.722656 20.871094 40.90625 C 20.980469 38.886719 23.898438 38.886719 24.007812 40.90625 Z M 18.53125 50.375 C 18.53125 50.40625 18.527344 50.414062 18.53125 50.375 Z M 21 51.410156 C 19.835938 49.929688 18.519531 47.625 19.417969 45.988281 C 20.050781 44.832031 21.898438 44.3125 24.15625 44.121094 Z M 25.171875 44.058594 C 26.359375 44.007812 27.617188 44.027344 28.847656 44.082031 L 24.359375 54.828125 C 24.359375 54.828125 22.863281 53.5 21.65625 52.179688 Z M 55.992188 40.90625 C 55.945312 40.019531 56.742188 39.382812 57.558594 39.335938 C 58.445312 39.289062 59.082031 40.085938 59.125 40.90625 C 59.015625 42.925781 56.101562 42.925781 55.992188 40.90625 Z M 50.609375 43.925781 C 51.03125 43.886719 51.457031 43.855469 51.882812 43.835938 C 52.46875 43.835938 52.972656 43.898438 53.324219 44.039062 L 49.15625 54.375 C 48.410156 53.648438 47.722656 52.871094 47.09375 52.042969 Z M 46.472656 51.1875 C 45.863281 50.289062 45.300781 49.273438 44.984375 48.253906 C 44.398438 46.351562 46.144531 44.84375 47.660156 44.445312 C 48.234375 44.296875 48.894531 44.15625 49.566406 44.046875 Z M 46.472656 51.1875 "/>
</g>
<path style=" stroke:none;fill-rule:nonzero;fill:rgb(100%,29.803923%,29.803923%);fill-opacity:1;" d="M 76.226562 28.425781 C 76.117188 27.515625 76.015625 26.59375 75.832031 25.691406 C 75.75 25.285156 75.636719 24.882812 75.480469 24.496094 C 75.332031 24.128906 75.15625 23.640625 74.738281 23.519531 C 74.292969 23.386719 73.9375 23.738281 73.617188 23.988281 C 73.269531 24.257812 72.929688 24.53125 72.59375 24.8125 C 71.9375 25.363281 71.296875 25.9375 70.675781 26.53125 C 69.257812 27.894531 67.949219 29.363281 66.75 30.921875 C 66.617188 31.09375 66.722656 31.378906 66.898438 31.480469 C 67.074219 31.582031 67.25 31.53125 67.382812 31.410156 C 67.453125 31.480469 67.542969 31.523438 67.65625 31.515625 C 68.164062 31.488281 68.675781 31.503906 69.179688 31.558594 C 69.167969 31.882812 69.15625 32.203125 69.144531 32.523438 C 69.128906 32.847656 69.496094 33.015625 69.757812 32.875 C 70.203125 32.640625 70.816406 32.964844 70.972656 33.425781 C 71.078125 33.746094 70.902344 34.105469 70.828125 34.414062 C 70.738281 34.808594 70.71875 35.214844 70.949219 35.570312 C 71.101562 35.804688 71.386719 35.828125 71.589844 35.652344 C 71.976562 35.324219 72.613281 35.46875 72.9375 35.8125 C 73.378906 36.273438 73.355469 36.988281 73.152344 37.546875 C 73 37.960938 73.554688 38.1875 73.832031 37.945312 C 76.550781 35.589844 76.617188 31.714844 76.226562 28.425781 Z M 73.523438 26.003906 C 73.535156 26.367188 73.546875 26.726562 73.554688 27.089844 C 73.539062 27.085938 73.523438 27.082031 73.507812 27.078125 C 73.511719 26.949219 73.46875 26.832031 73.355469 26.746094 C 73.328125 26.726562 73.296875 26.710938 73.265625 26.695312 C 73.226562 26.589844 73.179688 26.488281 73.128906 26.386719 C 73.261719 26.257812 73.394531 26.132812 73.523438 26.003906 Z M 72.757812 29.007812 C 72.652344 29 72.542969 29.035156 72.464844 29.109375 C 72.46875 29.089844 72.46875 29.070312 72.472656 29.054688 C 72.535156 29.035156 72.59375 29.003906 72.640625 28.949219 C 72.679688 28.90625 72.71875 28.855469 72.753906 28.808594 C 72.753906 28.875 72.757812 28.941406 72.757812 29.007812 Z M 73.574219 28.476562 C 73.578125 28.609375 73.574219 28.746094 73.574219 28.878906 C 73.574219 28.878906 73.574219 28.878906 73.570312 28.878906 C 73.570312 28.824219 73.570312 28.765625 73.570312 28.710938 C 73.5625 28.433594 73.546875 28.152344 73.519531 27.875 C 73.527344 27.875 73.53125 27.871094 73.535156 27.871094 C 73.546875 27.867188 73.558594 27.863281 73.566406 27.859375 C 73.570312 28.066406 73.574219 28.269531 73.574219 28.476562 Z M 71.566406 30.625 C 71.433594 30.03125 71.402344 29.429688 71.46875 28.835938 C 71.53125 28.984375 71.578125 29.136719 71.617188 29.292969 C 71.578125 29.734375 71.5625 30.179688 71.566406 30.625 Z M 70.207031 29.644531 C 70.214844 29.636719 70.214844 29.636719 70.207031 29.644531 Z M 69.988281 29.699219 C 69.980469 29.699219 69.980469 29.699219 69.988281 29.699219 Z M 74.53125 30.085938 C 74.535156 30.570312 74.523438 31.0625 74.464844 31.542969 C 74.445312 31.261719 74.410156 30.976562 74.367188 30.695312 C 74.371094 30.671875 74.375 30.648438 74.375 30.625 C 74.421875 30.050781 74.394531 29.460938 74.394531 28.882812 C 74.394531 28.828125 74.390625 28.769531 74.390625 28.714844 C 74.429688 28.847656 74.460938 28.984375 74.496094 29.117188 C 74.511719 29.441406 74.527344 29.761719 74.53125 30.085938 Z M 71.851562 27.847656 C 71.820312 27.804688 71.789062 27.757812 71.757812 27.714844 C 71.8125 27.660156 71.867188 27.609375 71.917969 27.558594 C 71.894531 27.652344 71.875 27.75 71.851562 27.847656 Z M 70.625 29.195312 C 70.5625 29.125 70.496094 29.058594 70.421875 29.003906 C 70.5 28.929688 70.574219 28.855469 70.652344 28.78125 C 70.636719 28.917969 70.628906 29.054688 70.625 29.195312 Z M 69.996094 31.105469 C 69.980469 31.039062 69.945312 30.980469 69.902344 30.925781 C 69.976562 30.945312 70.046875 30.964844 70.121094 30.988281 C 70.078125 31.027344 70.035156 31.0625 69.996094 31.105469 Z M 73.585938 35.3125 C 73.574219 35.296875 73.558594 35.277344 73.542969 35.261719 C 73.558594 35.25 73.574219 35.238281 73.585938 35.230469 C 73.585938 35.257812 73.589844 35.285156 73.585938 35.3125 Z M 72.53125 34.648438 C 72.546875 34.671875 72.5625 34.695312 72.582031 34.714844 C 72.539062 34.707031 72.496094 34.699219 72.453125 34.691406 C 72.480469 34.675781 72.503906 34.664062 72.53125 34.648438 Z M 74.046875 36.253906 C 74.105469 36.273438 74.167969 36.28125 74.230469 36.277344 C 74.183594 36.34375 74.136719 36.410156 74.085938 36.476562 C 74.078125 36.402344 74.0625 36.328125 74.046875 36.253906 Z M 74.507812 24.335938 C 74.5 24.332031 74.492188 24.320312 74.488281 24.300781 C 74.492188 24.3125 74.5 24.324219 74.507812 24.335938 C 74.511719 24.332031 74.519531 24.328125 74.523438 24.320312 C 74.574219 24.25 74.542969 24.359375 74.511719 24.339844 C 74.519531 24.351562 74.527344 24.359375 74.527344 24.371094 C 74.554688 24.464844 74.625 24.558594 74.664062 24.644531 C 74.820312 24.992188 74.921875 25.363281 75.007812 25.734375 C 75.1875 26.535156 75.277344 27.363281 75.378906 28.175781 C 75.46875 28.898438 75.546875 29.625 75.582031 30.359375 C 75.515625 29.921875 75.421875 29.492188 75.316406 29.0625 C 75.261719 28.066406 75.144531 27.070312 74.980469 26.09375 C 74.921875 25.742188 74.886719 25.355469 74.773438 25.019531 C 74.675781 24.710938 74.355469 24.636719 74.101562 24.75 C 74.074219 24.730469 74.046875 24.71875 74.015625 24.707031 C 74.050781 24.679688 74.085938 24.648438 74.121094 24.621094 C 74.226562 24.539062 74.417969 24.441406 74.507812 24.335938 Z M 13.886719 21.761719 C 11.183594 20.90625 8.371094 20.308594 5.546875 20.054688 C 4.445312 19.957031 3.320312 19.894531 2.222656 20.035156 C 2.1875 20.039062 2.152344 20.046875 2.121094 20.058594 C 2.027344 20.078125 1.945312 20.128906 1.886719 20.214844 C 1.886719 20.214844 1.882812 20.214844 1.882812 20.21875 C 1.875 20.234375 1.863281 20.25 1.855469 20.265625 C 1.847656 20.28125 1.839844 20.296875 1.835938 20.316406 C 1.832031 20.324219 1.832031 20.328125 1.828125 20.335938 C 0.933594 23.386719 0.402344 26.546875 0.246094 29.722656 C 0.171875 31.292969 0.1875 32.867188 0.296875 34.4375 C 0.390625 35.710938 0.519531 36.953125 0.933594 38.167969 C 1.335938 39.347656 1.894531 40.679688 2.863281 41.511719 C 3.261719 41.851562 3.839844 41.277344 3.441406 40.933594 C 2.644531 40.253906 2.171875 39.191406 1.820312 38.226562 C 1.625 37.707031 1.464844 37.171875 1.355469 36.628906 C 1.226562 36.003906 1.1875 35.359375 1.136719 34.722656 C 0.898438 31.691406 1.007812 28.625 1.480469 25.621094 C 1.730469 23.996094 2.089844 22.394531 2.542969 20.816406 C 3.375 20.742188 4.21875 20.773438 5.050781 20.832031 C 6.300781 20.921875 7.539062 21.097656 8.769531 21.328125 C 11.632812 21.863281 14.488281 22.664062 17.152344 23.855469 C 18.546875 24.484375 19.921875 25.222656 21.132812 26.164062 C 21.308594 26.300781 21.542969 26.335938 21.710938 26.164062 C 21.851562 26.023438 21.886719 25.726562 21.710938 25.589844 C 19.410156 23.792969 16.652344 22.636719 13.886719 21.761719 Z M 9.953125 28.644531 C 8.910156 27.53125 7.75 26.527344 6.542969 25.597656 C 6 25.179688 5.445312 24.777344 4.867188 24.40625 C 4.542969 24.195312 4.238281 24.519531 4.269531 24.816406 C 4.238281 24.859375 4.210938 24.914062 4.199219 24.976562 C 3.441406 28.582031 2.703125 32.492188 4.4375 35.941406 C 4.855469 36.773438 5.421875 37.535156 6.113281 38.15625 C 6.300781 38.324219 6.628906 38.320312 6.753906 38.074219 C 6.90625 37.78125 6.914062 37.496094 6.867188 37.179688 C 6.832031 36.960938 6.734375 36.691406 6.84375 36.484375 C 7.113281 35.964844 7.921875 36.179688 8.355469 36.28125 C 8.613281 36.339844 8.871094 36.160156 8.871094 35.886719 C 8.875 35.328125 8.636719 34.792969 8.65625 34.238281 C 8.664062 34.070312 8.699219 33.863281 8.832031 33.746094 C 8.914062 33.671875 9.089844 33.605469 9.183594 33.6875 C 9.460938 33.941406 10.015625 33.699219 9.867188 33.289062 C 9.738281 32.945312 9.957031 32.601562 10.277344 32.449219 C 10.722656 32.234375 11.261719 32.367188 11.710938 32.5 C 11.871094 32.550781 12 32.503906 12.089844 32.414062 C 12.207031 32.328125 12.273438 32.183594 12.210938 32 C 11.777344 30.71875 10.863281 29.621094 9.953125 28.644531 Z M 6.027344 36.34375 C 6.023438 36.335938 6.015625 36.328125 6.007812 36.320312 C 6 36.308594 5.996094 36.300781 5.988281 36.289062 C 6.007812 36.28125 6.03125 36.277344 6.050781 36.269531 C 6.042969 36.292969 6.035156 36.320312 6.027344 36.34375 Z M 5.652344 30.613281 C 5.558594 30.597656 5.460938 30.613281 5.378906 30.652344 C 5.363281 30.414062 5.351562 30.171875 5.339844 29.933594 C 5.445312 30.160156 5.550781 30.382812 5.652344 30.613281 Z M 6.023438 27.605469 C 6.019531 27.601562 6.019531 27.597656 6.015625 27.59375 C 6.023438 27.585938 6.035156 27.582031 6.042969 27.574219 C 6.035156 27.585938 6.03125 27.59375 6.023438 27.605469 Z M 6.789062 34.632812 C 6.847656 34.644531 6.90625 34.640625 6.964844 34.617188 C 7.007812 34.675781 7.054688 34.730469 7.101562 34.785156 C 6.992188 34.796875 6.882812 34.808594 6.773438 34.820312 C 6.777344 34.757812 6.785156 34.695312 6.789062 34.632812 Z M 9.59375 30.773438 C 9.402344 30.609375 9.210938 30.445312 9.023438 30.277344 C 9.007812 30.203125 8.976562 30.132812 8.914062 30.070312 C 8.855469 30.011719 8.761719 29.96875 8.667969 29.953125 C 8.660156 29.949219 8.652344 29.941406 8.648438 29.933594 C 8.675781 29.898438 8.699219 29.855469 8.714844 29.816406 C 8.898438 30.039062 9.089844 30.257812 9.269531 30.480469 C 9.359375 30.589844 9.511719 30.617188 9.648438 30.585938 C 9.691406 30.625 9.730469 30.667969 9.773438 30.707031 C 9.78125 30.714844 9.792969 30.726562 9.804688 30.738281 C 9.734375 30.746094 9.660156 30.757812 9.59375 30.773438 Z M 6.527344 27.394531 C 6.527344 27.414062 6.53125 27.433594 6.53125 27.449219 C 6.425781 27.398438 6.300781 27.394531 6.183594 27.453125 C 6.265625 27.359375 6.289062 27.242188 6.273438 27.132812 C 6.359375 27.21875 6.441406 27.308594 6.527344 27.394531 Z M 5.738281 26.800781 C 5.722656 26.726562 5.714844 26.652344 5.710938 26.578125 C 5.777344 26.640625 5.84375 26.703125 5.910156 26.769531 C 5.855469 26.765625 5.796875 26.777344 5.738281 26.800781 Z M 4.707031 26.550781 C 4.738281 26.675781 4.765625 26.804688 4.796875 26.933594 C 4.71875 26.96875 4.65625 27.023438 4.605469 27.085938 C 4.640625 26.910156 4.671875 26.730469 4.707031 26.550781 Z M 4.421875 28.167969 C 4.421875 28.183594 4.421875 28.199219 4.421875 28.214844 C 4.417969 28.230469 4.410156 28.246094 4.40625 28.265625 C 4.410156 28.230469 4.414062 28.199219 4.421875 28.167969 Z M 8 35.3125 C 8.003906 35.335938 8.007812 35.359375 8.011719 35.382812 C 7.992188 35.382812 7.976562 35.378906 7.957031 35.378906 C 7.972656 35.359375 7.988281 35.335938 8 35.3125 Z M 7.902344 33.785156 C 7.902344 33.785156 7.90625 33.785156 7.90625 33.785156 C 7.90625 33.785156 7.902344 33.785156 7.902344 33.785156 Z M 10.648438 31.53125 C 10.726562 31.476562 10.789062 31.398438 10.8125 31.304688 C 10.832031 31.214844 10.835938 31.128906 10.835938 31.042969 C 10.941406 31.207031 11.039062 31.375 11.132812 31.546875 C 10.96875 31.527344 10.808594 31.519531 10.648438 31.53125 Z M 79.261719 25.59375 C 78.996094 23.816406 78.605469 22.058594 78.097656 20.335938 C 78.097656 20.328125 78.09375 20.328125 78.09375 20.320312 C 78.085938 20.300781 78.078125 20.277344 78.066406 20.257812 C 78.0625 20.25 78.054688 20.238281 78.050781 20.230469 C 78.042969 20.222656 78.039062 20.214844 78.035156 20.207031 C 77.976562 20.125 77.894531 20.078125 77.808594 20.058594 C 77.773438 20.046875 77.738281 20.039062 77.703125 20.035156 C 76.75 19.914062 75.777344 19.949219 74.820312 20.019531 C 73.507812 20.117188 72.199219 20.304688 70.90625 20.546875 C 67.957031 21.097656 65.039062 21.945312 62.300781 23.179688 C 60.855469 23.832031 59.46875 24.613281 58.214844 25.589844 C 58.042969 25.722656 58.074219 26.023438 58.214844 26.164062 C 58.386719 26.335938 58.617188 26.300781 58.792969 26.164062 C 61.003906 24.441406 63.703125 23.347656 66.359375 22.515625 C 68.976562 21.699219 71.699219 21.109375 74.4375 20.867188 C 75.410156 20.78125 76.40625 20.726562 77.382812 20.816406 C 78.207031 23.6875 78.707031 26.644531 78.859375 29.625 C 78.933594 31.132812 78.925781 32.644531 78.828125 34.148438 C 78.75 35.398438 78.644531 36.617188 78.25 37.8125 C 77.890625 38.914062 77.386719 40.164062 76.484375 40.933594 C 76.085938 41.277344 76.664062 41.851562 77.0625 41.511719 C 77.929688 40.769531 78.445312 39.625 78.84375 38.585938 C 79.285156 37.417969 79.476562 36.25 79.582031 35.011719 C 79.851562 31.871094 79.734375 28.707031 79.261719 25.59375 Z M 63.765625 24.988281 C 63.664062 24.964844 63.539062 24.964844 63.449219 25.027344 C 63.101562 25.273438 62.757812 25.515625 62.410156 25.761719 C 62.320312 25.824219 62.25 25.898438 62.222656 26.003906 C 62.195312 26.101562 62.207031 26.234375 62.261719 26.320312 C 62.320312 26.40625 62.402344 26.484375 62.507812 26.507812 C 62.609375 26.53125 62.730469 26.527344 62.820312 26.464844 C 63.167969 26.222656 63.515625 25.976562 63.863281 25.734375 C 63.949219 25.671875 64.019531 25.597656 64.050781 25.488281 C 64.078125 25.390625 64.0625 25.261719 64.007812 25.175781 C 63.953125 25.089844 63.867188 25.011719 63.765625 24.988281 Z M 74.507812 24.335938 C 74.507812 24.339844 74.507812 24.339844 74.511719 24.339844 C 74.507812 24.339844 74.507812 24.335938 74.507812 24.335938 Z M 74.507812 24.335938 "/>
</g>
</svg>
