<?xml version="1.0" encoding="UTF-8"?>
<svg xmlns="http://www.w3.org/2000/svg" xmlns:xlink="http://www.w3.org/1999/xlink" width="80px" height="80px" viewBox="0 0 80 80" version="1.1">
<defs>
<clipPath id="clip1">
  <path d="M 10.886719 33.273438 L 69.109375 33.273438 L 69.109375 61.714844 L 10.886719 61.714844 Z M 10.886719 33.273438 "/>
</clipPath>
</defs>
<g id="surface1">
<g clip-path="url(#clip1)" clip-rule="nonzero">
<path style=" stroke:none;fill-rule:nonzero;fill:rgb(100%,54.901963%,0%);fill-opacity:1;" d="M 68.511719 46.222656 C 67.925781 45.601562 66.925781 45.300781 65.445312 45.300781 C 65.007812 45.300781 64.589844 45.328125 64.261719 45.355469 C 64.210938 45.128906 64.152344 44.90625 64.089844 44.6875 C 64.585938 44.832031 65.09375 44.90625 65.609375 44.917969 C 65.863281 44.921875 66.109375 44.894531 66.355469 44.835938 C 66.386719 44.828125 66.417969 44.816406 66.449219 44.804688 C 66.507812 44.796875 66.5625 44.777344 66.613281 44.75 C 66.664062 44.722656 66.710938 44.6875 66.75 44.644531 C 66.789062 44.605469 66.824219 44.558594 66.847656 44.503906 C 66.871094 44.453125 66.886719 44.398438 66.894531 44.339844 C 67.015625 43.503906 66.753906 42.613281 66.464844 41.882812 C 67.097656 41.5625 67.855469 41.074219 68.316406 40.40625 C 68.339844 40.371094 68.359375 40.335938 68.375 40.300781 C 68.40625 40.253906 68.433594 40.203125 68.449219 40.148438 C 68.464844 40.09375 68.472656 40.039062 68.472656 39.980469 C 68.46875 39.925781 68.460938 39.871094 68.441406 39.816406 C 68.425781 39.761719 68.398438 39.710938 68.363281 39.664062 C 67.933594 39.042969 67.238281 38.578125 66.648438 38.269531 C 66.925781 37.625 67.148438 36.945312 67.101562 36.285156 C 67.097656 36.226562 67.085938 36.171875 67.066406 36.121094 C 67.0625 36.0625 67.046875 36.007812 67.027344 35.957031 C 67.003906 35.90625 66.972656 35.855469 66.9375 35.8125 C 66.902344 35.769531 66.859375 35.730469 66.8125 35.699219 C 66.765625 35.667969 66.714844 35.644531 66.660156 35.628906 C 66.304688 35.519531 65.941406 35.46875 65.570312 35.472656 C 64.925781 35.484375 64.292969 35.585938 63.675781 35.769531 C 63.328125 34.953125 62.761719 33.933594 61.960938 33.378906 C 61.863281 33.308594 61.753906 33.273438 61.632812 33.273438 C 61.519531 33.273438 61.417969 33.304688 61.324219 33.371094 C 61.285156 33.386719 61.25 33.40625 61.214844 33.429688 C 60.457031 33.949219 59.925781 34.855469 59.589844 35.613281 C 58.957031 35.390625 58.3125 35.273438 57.644531 35.253906 C 57.386719 35.253906 57.132812 35.28125 56.882812 35.339844 C 56.832031 35.351562 56.78125 35.371094 56.734375 35.394531 C 56.6875 35.421875 56.644531 35.453125 56.605469 35.492188 C 56.570312 35.527344 56.539062 35.570312 56.511719 35.617188 C 56.488281 35.664062 56.46875 35.714844 56.457031 35.769531 C 56.4375 35.8125 56.425781 35.859375 56.417969 35.90625 C 56.304688 36.710938 56.550781 37.578125 56.824219 38.292969 C 56.761719 38.324219 56.699219 38.359375 56.636719 38.390625 C 56.609375 38.386719 56.578125 38.382812 56.546875 38.378906 C 56.0625 38.351562 55.539062 38.339844 54.894531 38.339844 C 54.511719 38.339844 54.125 38.34375 53.738281 38.347656 C 53.359375 38.351562 52.976562 38.355469 52.597656 38.355469 L 52.378906 38.355469 C 51.035156 38.355469 49.640625 38.355469 48.222656 38.867188 C 46.34375 39.539062 44.710938 40.976562 43.632812 42.917969 C 42.765625 44.476562 42.5625 46.125 42.519531 47.585938 C 41.710938 47.367188 40.890625 47.25 40.054688 47.230469 C 40.039062 47.230469 40.023438 47.230469 40 47.230469 C 39.984375 47.230469 39.941406 47.230469 39.9375 47.230469 C 39.105469 47.25 38.285156 47.371094 37.484375 47.585938 C 37.417969 45.78125 37.117188 44.4375 36.496094 43.152344 C 36.265625 42.683594 35.992188 42.238281 35.679688 41.816406 C 35.367188 41.394531 35.023438 41.003906 34.640625 40.648438 C 34.257812 40.289062 33.84375 39.96875 33.402344 39.683594 C 32.964844 39.398438 32.5 39.160156 32.015625 38.960938 C 30.492188 38.355469 28.941406 38.355469 27.574219 38.355469 C 27.171875 38.355469 26.769531 38.351562 26.363281 38.347656 C 25.957031 38.34375 25.550781 38.339844 25.144531 38.339844 C 24.550781 38.339844 24.0625 38.347656 23.601562 38.367188 C 23.597656 38.367188 23.59375 38.367188 23.589844 38.371094 C 23.542969 38.34375 23.492188 38.320312 23.441406 38.292969 C 23.714844 37.574219 23.964844 36.707031 23.847656 35.898438 C 23.839844 35.859375 23.828125 35.816406 23.816406 35.78125 C 23.804688 35.726562 23.789062 35.675781 23.761719 35.625 C 23.738281 35.578125 23.707031 35.535156 23.667969 35.496094 C 23.628906 35.457031 23.585938 35.421875 23.539062 35.394531 C 23.488281 35.371094 23.4375 35.351562 23.386719 35.339844 C 23.136719 35.28125 22.882812 35.253906 22.625 35.253906 C 21.957031 35.273438 21.308594 35.390625 20.679688 35.613281 C 20.378906 34.941406 19.839844 33.972656 19.0625 33.4375 C 19.023438 33.40625 18.984375 33.386719 18.941406 33.367188 C 18.851562 33.304688 18.75 33.273438 18.636719 33.273438 C 18.519531 33.273438 18.410156 33.308594 18.3125 33.375 C 17.507812 33.933594 16.941406 34.949219 16.59375 35.765625 C 15.976562 35.585938 15.34375 35.484375 14.699219 35.472656 C 14.328125 35.46875 13.964844 35.519531 13.609375 35.628906 C 13.554688 35.644531 13.503906 35.667969 13.457031 35.703125 C 13.410156 35.734375 13.367188 35.769531 13.332031 35.8125 C 13.296875 35.855469 13.265625 35.90625 13.246094 35.957031 C 13.222656 36.007812 13.207031 36.0625 13.203125 36.117188 C 13.183594 36.171875 13.171875 36.230469 13.164062 36.289062 C 13.117188 36.953125 13.339844 37.628906 13.621094 38.269531 C 13.03125 38.578125 12.335938 39.042969 11.902344 39.667969 C 11.867188 39.714844 11.84375 39.761719 11.824219 39.816406 C 11.808594 39.871094 11.796875 39.925781 11.796875 39.984375 C 11.796875 40.039062 11.804688 40.097656 11.820312 40.152344 C 11.839844 40.207031 11.863281 40.257812 11.894531 40.304688 C 11.914062 40.339844 11.933594 40.375 11.953125 40.40625 C 12.410156 41.070312 13.167969 41.5625 13.804688 41.882812 C 13.515625 42.617188 13.253906 43.507812 13.375 44.339844 C 13.382812 44.398438 13.398438 44.453125 13.421875 44.503906 C 13.445312 44.558594 13.480469 44.605469 13.519531 44.648438 C 13.558594 44.6875 13.605469 44.722656 13.65625 44.75 C 13.707031 44.777344 13.761719 44.796875 13.820312 44.804688 C 13.851562 44.816406 13.882812 44.828125 13.914062 44.835938 C 14.160156 44.894531 14.40625 44.921875 14.660156 44.917969 C 15.078125 44.914062 15.492188 44.859375 15.898438 44.757812 C 15.839844 44.957031 15.789062 45.152344 15.746094 45.351562 C 15.382812 45.320312 14.957031 45.289062 14.527344 45.289062 C 12.265625 45.289062 11.0625 46.15625 10.953125 47.859375 C 10.910156 48.546875 11.089844 49.113281 11.488281 49.535156 C 12.066406 50.152344 13.074219 50.449219 14.574219 50.449219 C 14.90625 50.449219 15.222656 50.4375 15.511719 50.417969 C 15.507812 52.910156 15.53125 55.265625 16.890625 57.542969 C 18.449219 60.164062 21.25 61.671875 24.5625 61.671875 C 25.054688 61.671875 25.5625 61.683594 26.074219 61.699219 C 26.597656 61.710938 27.136719 61.726562 27.671875 61.726562 C 28.855469 61.726562 30.394531 61.664062 31.800781 61.152344 C 34.925781 60.027344 37.175781 56.871094 37.464844 53.253906 C 38.296875 53.070312 39.136719 52.96875 39.988281 52.941406 C 40.847656 52.964844 41.695312 53.070312 42.535156 53.253906 C 42.816406 56.800781 44.929688 59.847656 47.964844 61.0625 C 49.4375 61.648438 51.011719 61.726562 52.359375 61.726562 C 52.890625 61.726562 53.425781 61.710938 53.941406 61.699219 C 54.449219 61.683594 54.949219 61.671875 55.441406 61.671875 C 58.640625 61.671875 61.246094 60.320312 62.972656 57.765625 C 64.503906 55.503906 64.5 52.921875 64.492188 50.417969 C 64.8125 50.441406 65.144531 50.457031 65.476562 50.457031 L 65.480469 50.457031 C 66.328125 50.457031 68.886719 50.453125 69.050781 47.898438 C 69.09375 47.214844 68.910156 46.648438 68.511719 46.222656 Z M 63.894531 49.496094 C 63.855469 49.496094 63.820312 49.503906 63.785156 49.519531 C 63.75 49.53125 63.722656 49.550781 63.695312 49.578125 C 63.667969 49.605469 63.648438 49.636719 63.632812 49.671875 C 63.621094 49.703125 63.613281 49.742188 63.613281 49.777344 C 63.613281 52.164062 63.746094 54.476562 62.605469 56.671875 C 61.183594 59.40625 58.441406 60.792969 55.441406 60.792969 C 53.476562 60.792969 51.324219 61.027344 49.390625 60.601562 C 45.796875 59.808594 43.503906 56.320312 43.386719 52.789062 C 43.386719 52.757812 43.382812 52.726562 43.371094 52.699219 C 43.363281 52.667969 43.347656 52.644531 43.328125 52.617188 C 43.3125 52.59375 43.289062 52.574219 43.261719 52.554688 C 43.238281 52.539062 43.210938 52.523438 43.179688 52.515625 C 42.175781 52.246094 41.15625 52.097656 40.117188 52.070312 C 40.089844 52.0625 40.0625 52.058594 40.035156 52.0625 C 40.023438 52.0625 40.011719 52.0625 40 52.0625 C 39.992188 52.0625 39.980469 52.0625 39.96875 52.0625 C 39.941406 52.058594 39.914062 52.0625 39.886719 52.070312 C 38.847656 52.097656 37.824219 52.246094 36.820312 52.515625 C 36.792969 52.523438 36.765625 52.539062 36.738281 52.554688 C 36.714844 52.574219 36.691406 52.59375 36.671875 52.617188 C 36.65625 52.644531 36.640625 52.667969 36.628906 52.699219 C 36.621094 52.726562 36.617188 52.757812 36.617188 52.789062 C 36.5 56.324219 34.3125 59.539062 30.851562 60.539062 C 28.90625 61.101562 26.558594 60.792969 24.5625 60.792969 C 21.585938 60.792969 19.0625 59.476562 17.519531 56.886719 C 16.214844 54.695312 16.390625 52.21875 16.390625 49.777344 C 16.390625 49.742188 16.382812 49.703125 16.371094 49.671875 C 16.355469 49.636719 16.335938 49.605469 16.308594 49.578125 C 16.28125 49.550781 16.25 49.53125 16.21875 49.519531 C 16.183594 49.503906 16.148438 49.496094 16.109375 49.496094 C 14.613281 49.609375 11.960938 49.945312 11.832031 47.878906 C 11.699219 45.792969 14.886719 46.140625 16.222656 46.277344 C 16.253906 46.28125 16.28125 46.273438 16.3125 46.265625 C 16.339844 46.253906 16.367188 46.242188 16.394531 46.222656 C 16.417969 46.203125 16.4375 46.183594 16.457031 46.15625 C 16.472656 46.128906 16.484375 46.101562 16.492188 46.074219 C 16.585938 45.554688 16.714844 45.050781 16.882812 44.554688 C 17.21875 45.304688 17.730469 46.121094 18.386719 46.574219 C 18.429688 46.605469 18.480469 46.625 18.535156 46.625 C 18.410156 47.683594 18.476562 48.769531 18.476562 49.828125 C 18.476562 51.011719 18.398438 52.230469 18.527344 53.40625 C 18.554688 53.632812 18.59375 53.855469 18.644531 54.074219 C 18.699219 54.296875 18.761719 54.511719 18.839844 54.726562 C 18.917969 54.9375 19.003906 55.148438 19.105469 55.347656 C 19.207031 55.550781 19.316406 55.75 19.441406 55.9375 C 19.5625 56.128906 19.695312 56.3125 19.839844 56.488281 C 19.984375 56.660156 20.136719 56.828125 20.300781 56.984375 C 20.464844 57.144531 20.632812 57.292969 20.8125 57.429688 C 20.992188 57.566406 21.179688 57.695312 21.375 57.8125 C 22.527344 58.523438 23.808594 58.539062 25.109375 58.539062 C 28.003906 58.539062 31.039062 58.976562 33.140625 56.535156 C 35.050781 54.316406 34.535156 50.996094 34.535156 48.289062 C 34.535156 46.980469 34.4375 45.769531 33.847656 44.5625 C 33.75 44.367188 33.640625 44.175781 33.519531 43.996094 C 33.398438 43.8125 33.265625 43.636719 33.125 43.46875 C 32.984375 43.300781 32.832031 43.140625 32.671875 42.992188 C 32.511719 42.84375 32.34375 42.703125 32.167969 42.570312 C 31.992188 42.441406 31.808594 42.320312 31.617188 42.214844 C 31.425781 42.105469 31.230469 42.007812 31.027344 41.921875 C 30.828125 41.835938 30.621094 41.761719 30.410156 41.699219 C 30.199219 41.636719 29.984375 41.589844 29.769531 41.550781 C 28.71875 41.371094 27.566406 41.488281 26.503906 41.488281 C 25.585938 41.488281 24.644531 41.4375 23.722656 41.503906 C 24.246094 41.21875 24.6875 40.839844 25.046875 40.367188 C 25.0625 40.339844 25.078125 40.3125 25.089844 40.28125 C 25.105469 40.261719 25.121094 40.238281 25.132812 40.214844 C 25.144531 40.1875 25.148438 40.160156 25.148438 40.132812 C 25.152344 40.105469 25.148438 40.078125 25.136719 40.050781 C 25.128906 40.027344 25.117188 40 25.097656 39.980469 C 24.890625 39.691406 24.644531 39.441406 24.359375 39.226562 C 25.195312 39.214844 26.035156 39.234375 26.871094 39.234375 C 28.113281 39.234375 29.378906 39.15625 30.601562 39.421875 C 32.6875 39.878906 34.414062 41.335938 35.492188 43.140625 C 36.464844 44.773438 36.621094 46.5625 36.621094 48.414062 C 36.621094 48.4375 36.621094 48.457031 36.625 48.476562 C 36.632812 48.5 36.640625 48.519531 36.648438 48.539062 C 36.660156 48.558594 36.671875 48.578125 36.683594 48.59375 C 36.699219 48.609375 36.714844 48.625 36.730469 48.636719 C 36.75 48.652344 36.765625 48.660156 36.785156 48.671875 C 36.804688 48.679688 36.828125 48.6875 36.847656 48.691406 C 36.871094 48.695312 36.890625 48.695312 36.914062 48.695312 C 36.933594 48.695312 36.957031 48.691406 36.976562 48.683594 C 37.933594 48.316406 38.921875 48.125 39.949219 48.109375 C 39.96875 48.109375 39.984375 48.105469 40 48.101562 C 40.019531 48.105469 40.035156 48.109375 40.054688 48.109375 C 41.082031 48.125 42.070312 48.316406 43.027344 48.683594 C 43.203125 48.757812 43.382812 48.578125 43.382812 48.414062 C 43.382812 46.625 43.550781 44.972656 44.394531 43.355469 C 44.515625 43.125 44.648438 42.898438 44.796875 42.679688 C 44.941406 42.457031 45.097656 42.246094 45.265625 42.042969 C 45.433594 41.839844 45.609375 41.644531 45.796875 41.460938 C 45.984375 41.273438 46.179688 41.097656 46.382812 40.933594 C 46.589844 40.765625 46.800781 40.609375 47.019531 40.464844 C 47.242188 40.320312 47.46875 40.1875 47.703125 40.066406 C 47.933594 39.945312 48.175781 39.835938 48.417969 39.738281 C 48.664062 39.640625 48.914062 39.554688 49.167969 39.480469 C 50.382812 39.132812 51.699219 39.234375 52.949219 39.234375 C 53.933594 39.234375 54.917969 39.203125 55.902344 39.230469 C 55.621094 39.441406 55.375 39.691406 55.167969 39.980469 C 55.152344 40 55.140625 40.027344 55.128906 40.050781 C 55.121094 40.078125 55.117188 40.105469 55.121094 40.132812 C 55.121094 40.160156 55.125 40.1875 55.136719 40.210938 C 55.148438 40.238281 55.160156 40.261719 55.179688 40.28125 C 55.1875 40.3125 55.203125 40.339844 55.222656 40.367188 C 55.550781 40.835938 56.0625 41.230469 56.601562 41.539062 C 55.578125 41.414062 54.519531 41.488281 53.5 41.488281 C 52.34375 41.488281 51.136719 41.394531 49.992188 41.59375 C 48.148438 41.914062 46.671875 43.34375 45.949219 45.011719 C 45.421875 46.214844 45.46875 47.480469 45.46875 48.757812 C 45.46875 51.691406 45.050781 54.8125 47.355469 57.058594 C 49.425781 59.078125 52.6875 58.539062 55.316406 58.539062 C 56.667969 58.539062 57.882812 58.332031 59.03125 57.554688 C 60.574219 56.507812 61.40625 54.710938 61.523438 52.886719 C 61.597656 51.753906 61.527344 50.59375 61.527344 49.457031 C 61.527344 48.464844 61.578125 47.460938 61.441406 46.480469 C 61.460938 46.496094 61.480469 46.507812 61.496094 46.519531 C 61.523438 46.539062 61.550781 46.554688 61.582031 46.5625 C 61.601562 46.582031 61.625 46.597656 61.652344 46.605469 C 61.675781 46.617188 61.703125 46.625 61.730469 46.625 C 61.757812 46.625 61.785156 46.621094 61.8125 46.613281 C 61.835938 46.605469 61.859375 46.589844 61.882812 46.574219 C 62.441406 46.1875 62.902344 45.535156 63.230469 44.882812 C 63.347656 45.273438 63.441406 45.671875 63.511719 46.074219 C 63.519531 46.101562 63.53125 46.128906 63.546875 46.15625 C 63.566406 46.183594 63.585938 46.203125 63.609375 46.222656 C 63.632812 46.242188 63.660156 46.253906 63.691406 46.265625 C 63.71875 46.273438 63.75 46.28125 63.78125 46.277344 C 65.289062 46.121094 68.039062 45.800781 68.171875 47.878906 C 68.304688 49.953125 65.214844 49.597656 63.894531 49.496094 Z M 16.75 38.210938 C 16.117188 37.886719 15.414062 37.851562 14.574219 38.179688 C 14.566406 38.183594 14.554688 38.1875 14.546875 38.191406 C 14.292969 37.652344 14.03125 37.011719 14.039062 36.421875 C 14.84375 36.234375 15.847656 36.445312 16.617188 36.691406 C 16.558594 36.945312 16.539062 37.203125 16.5625 37.460938 C 16.585938 37.722656 16.648438 37.972656 16.75 38.210938 Z M 20.6875 36.53125 C 21.382812 36.289062 22.257812 36.042969 22.988281 36.15625 C 22.992188 36.183594 22.996094 36.214844 22.996094 36.222656 C 22.992188 36.398438 22.980469 36.570312 22.949219 36.742188 C 22.863281 37.257812 22.722656 37.757812 22.523438 38.242188 C 21.746094 37.972656 21.085938 38.027344 20.480469 38.347656 C 20.558594 38.210938 20.621094 38.066406 20.667969 37.917969 C 20.714844 37.769531 20.75 37.617188 20.765625 37.460938 C 20.785156 37.304688 20.785156 37.148438 20.773438 36.992188 C 20.757812 36.835938 20.730469 36.683594 20.6875 36.53125 Z M 14.300781 38.929688 C 15.578125 38.242188 16.53125 38.453125 17.472656 39.535156 C 17.414062 39.671875 17.378906 39.8125 17.363281 39.960938 L 17.363281 39.964844 C 17.363281 39.972656 17.359375 39.980469 17.359375 39.988281 C 17.355469 40.003906 17.355469 40.023438 17.355469 40.039062 C 17.359375 40.070312 17.359375 40.097656 17.363281 40.125 C 17.378906 40.289062 17.421875 40.445312 17.492188 40.597656 C 16.53125 41.675781 15.628906 41.800781 14.34375 41.152344 C 13.800781 40.882812 13.125 40.511719 12.742188 40.007812 C 13.136719 39.53125 13.78125 39.210938 14.300781 38.929688 Z M 17.917969 40.039062 C 17.972656 39.058594 19.390625 39.058594 19.445312 40.039062 C 19.496094 41.023438 17.972656 41.019531 17.917969 40.039062 Z M 18.683594 41.367188 C 18.851562 41.375 19.015625 41.347656 19.171875 41.285156 C 20.210938 42.226562 20.324219 43.117188 19.691406 44.386719 C 19.421875 44.933594 19.050781 45.613281 18.546875 45.992188 C 18.070312 45.597656 17.746094 44.957031 17.46875 44.441406 C 16.78125 43.175781 16.941406 42.101562 17.96875 41.140625 C 18.1875 41.28125 18.425781 41.355469 18.683594 41.367188 Z M 19.414062 49.847656 L 19.414062 47.824219 C 19.402344 47.375 19.441406 46.929688 19.523438 46.488281 C 19.609375 46.046875 19.738281 45.617188 19.914062 45.203125 C 20.027344 45.007812 20.128906 44.8125 20.222656 44.617188 C 20.335938 44.429688 20.464844 44.25 20.605469 44.078125 C 21.507812 44.347656 22.648438 44.53125 23.515625 44.25 C 23.558594 44.238281 23.59375 44.214844 23.625 44.183594 C 23.683594 44.167969 23.730469 44.136719 23.765625 44.089844 C 23.800781 44.042969 23.820312 43.992188 23.824219 43.933594 C 23.835938 43.421875 23.742188 42.929688 23.539062 42.460938 C 24.367188 42.363281 25.226562 42.414062 26.058594 42.425781 C 23.84375 44.898438 21.628906 47.375 19.414062 49.847656 Z M 20.625 43.496094 C 20.679688 43.242188 20.6875 42.984375 20.65625 42.726562 C 20.625 42.472656 20.554688 42.226562 20.441406 41.992188 C 21.082031 42.324219 21.789062 42.359375 22.632812 42.027344 C 22.664062 42.015625 22.695312 42.003906 22.730469 41.992188 C 22.972656 42.515625 23.246094 43.148438 23.261719 43.738281 C 22.453125 43.957031 21.425781 43.75 20.625 43.496094 Z M 19.386719 51.359375 C 19.40625 51.34375 19.421875 51.324219 19.4375 51.304688 C 20.015625 50.65625 20.597656 50.007812 21.175781 49.359375 C 23.035156 47.285156 24.890625 45.210938 26.746094 43.136719 C 26.917969 42.941406 27.09375 42.75 27.265625 42.554688 C 27.300781 42.511719 27.339844 42.472656 27.375 42.433594 C 27.375 42.445312 27.417969 42.425781 27.492188 42.425781 L 28.929688 42.425781 C 29.386719 42.429688 29.832031 42.5 30.265625 42.636719 C 30.703125 42.773438 31.105469 42.972656 31.480469 43.234375 C 28.378906 46.703125 25.277344 50.167969 22.175781 53.632812 C 21.574219 54.304688 20.976562 54.976562 20.375 55.648438 C 20.214844 55.414062 20.074219 55.171875 19.949219 54.914062 C 19.828125 54.660156 19.726562 54.394531 19.644531 54.125 C 19.5625 53.851562 19.503906 53.574219 19.464844 53.296875 C 19.425781 53.015625 19.410156 52.730469 19.414062 52.449219 L 19.414062 51.46875 C 19.414062 51.371094 19.453125 51.285156 19.386719 51.359375 Z M 22.910156 41.28125 C 21.65625 41.957031 20.71875 41.765625 19.792969 40.734375 C 19.921875 40.523438 19.992188 40.289062 20.007812 40.039062 C 20.019531 39.859375 19.984375 39.683594 19.910156 39.519531 L 19.910156 39.515625 C 20.839844 38.527344 21.722656 38.429688 22.96875 39.054688 C 23.488281 39.316406 24.132812 39.667969 24.515625 40.140625 C 24.132812 40.652344 23.453125 40.988281 22.910156 41.28125 Z M 19.3125 38.894531 C 19.117188 38.785156 18.90625 38.726562 18.683594 38.714844 C 18.554688 38.707031 18.429688 38.722656 18.308594 38.753906 C 18.1875 38.789062 18.074219 38.84375 17.96875 38.914062 C 16.949219 37.953125 16.941406 37.027344 17.570312 35.773438 C 17.832031 35.25 18.179688 34.605469 18.648438 34.21875 C 19.160156 34.601562 19.5 35.28125 19.796875 35.820312 C 20.460938 37.050781 20.292969 37.980469 19.3125 38.894531 Z M 14.265625 43.550781 C 14.351562 42.996094 14.503906 42.460938 14.722656 41.945312 C 15.46875 42.21875 16.109375 42.199219 16.6875 41.933594 C 16.574219 42.207031 16.503906 42.488281 16.484375 42.785156 C 16.460938 43.078125 16.488281 43.371094 16.5625 43.65625 C 15.855469 43.890625 14.964844 44.148438 14.226562 44.003906 C 14.230469 43.851562 14.242188 43.699219 14.265625 43.550781 Z M 59.789062 38.347656 C 59.1875 38.027344 58.527344 37.972656 57.746094 38.242188 C 57.554688 37.753906 57.410156 37.257812 57.320312 36.742188 C 57.289062 36.570312 57.277344 36.398438 57.273438 36.222656 C 57.273438 36.214844 57.277344 36.183594 57.277344 36.15625 C 58.011719 36.042969 58.882812 36.289062 59.582031 36.53125 C 59.539062 36.683594 59.511719 36.835938 59.496094 36.992188 C 59.484375 37.148438 59.488281 37.304688 59.503906 37.460938 C 59.523438 37.617188 59.554688 37.769531 59.601562 37.917969 C 59.652344 38.066406 59.714844 38.210938 59.789062 38.347656 Z M 63.652344 36.691406 C 64.421875 36.445312 65.425781 36.234375 66.230469 36.421875 C 66.234375 37.011719 65.972656 37.652344 65.722656 38.191406 C 65.714844 38.1875 65.703125 38.183594 65.691406 38.179688 C 64.851562 37.851562 64.148438 37.886719 63.515625 38.214844 C 63.617188 37.972656 63.683594 37.722656 63.707031 37.464844 C 63.730469 37.203125 63.710938 36.945312 63.652344 36.691406 Z M 65.96875 38.929688 C 66.488281 39.1875 67.136719 39.535156 67.523438 40.007812 C 67.140625 40.519531 66.46875 40.859375 65.925781 41.152344 C 64.664062 41.839844 63.714844 41.648438 62.773438 40.59375 C 62.84375 40.445312 62.886719 40.289062 62.90625 40.125 C 62.910156 40.097656 62.910156 40.070312 62.914062 40.039062 C 62.910156 40.011719 62.910156 39.984375 62.90625 39.957031 C 62.894531 39.808594 62.855469 39.667969 62.800781 39.53125 C 63.765625 38.421875 64.667969 38.285156 65.96875 38.929688 Z M 60.824219 40.039062 C 60.773438 39.054688 62.296875 39.0625 62.351562 40.039062 C 62.296875 41.023438 60.878906 41.023438 60.824219 40.039062 Z M 61.121094 41.261719 C 61.269531 41.324219 61.425781 41.355469 61.589844 41.367188 C 61.71875 41.375 61.84375 41.359375 61.96875 41.320312 C 62.09375 41.285156 62.210938 41.230469 62.3125 41.152344 C 63.355469 42.132812 63.441406 43.152344 62.804688 44.441406 C 62.546875 44.957031 62.195312 45.605469 61.722656 45.992188 C 61.210938 45.609375 60.871094 44.929688 60.578125 44.386719 C 59.902344 43.136719 60.085938 42.191406 61.121094 41.261719 Z M 59.644531 43.492188 C 58.847656 43.75 57.816406 43.957031 57.007812 43.738281 C 57.023438 43.148438 57.292969 42.515625 57.539062 41.992188 C 57.570312 42.003906 57.601562 42.015625 57.632812 42.027344 C 58.476562 42.359375 59.1875 42.324219 59.824219 41.992188 C 59.710938 42.226562 59.640625 42.472656 59.609375 42.730469 C 59.578125 42.984375 59.589844 43.242188 59.644531 43.492188 Z M 46.390625 51.445312 C 46.410156 51.429688 46.425781 51.414062 46.441406 51.398438 C 47.03125 50.738281 47.621094 50.078125 48.210938 49.417969 C 50.074219 47.335938 51.9375 45.253906 53.800781 43.171875 C 54.023438 42.921875 54.246094 42.671875 54.464844 42.425781 L 55.324219 42.425781 C 55.789062 42.414062 56.25 42.4375 56.710938 42.503906 C 56.523438 42.960938 56.433594 43.4375 56.445312 43.933594 C 56.449219 43.992188 56.46875 44.042969 56.503906 44.089844 C 56.542969 44.136719 56.589844 44.167969 56.644531 44.1875 C 56.675781 44.21875 56.714844 44.238281 56.753906 44.25 C 57.011719 44.332031 57.273438 44.375 57.539062 44.386719 C 54.511719 47.769531 51.484375 51.15625 48.453125 54.539062 C 48.105469 54.925781 47.757812 55.316406 47.410156 55.707031 C 47.246094 55.472656 47.097656 55.230469 46.972656 54.972656 C 46.84375 54.71875 46.738281 54.453125 46.652344 54.179688 C 46.566406 53.90625 46.503906 53.628906 46.464844 53.347656 C 46.421875 53.066406 46.402344 52.78125 46.40625 52.496094 L 46.40625 51.527344 C 46.40625 51.460938 46.398438 51.445312 46.390625 51.445312 Z M 46.40625 49.957031 C 46.390625 48.015625 46.207031 46.007812 47.394531 44.335938 C 47.496094 44.191406 47.609375 44.050781 47.730469 43.917969 C 47.851562 43.785156 47.980469 43.660156 48.113281 43.542969 C 48.25 43.425781 48.390625 43.316406 48.539062 43.21875 C 48.6875 43.117188 48.839844 43.023438 49 42.941406 C 49.160156 42.859375 49.320312 42.785156 49.488281 42.722656 C 49.65625 42.660156 49.828125 42.605469 50.003906 42.5625 C 50.175781 42.519531 50.351562 42.484375 50.53125 42.464844 C 50.707031 42.441406 50.886719 42.429688 51.066406 42.425781 L 53.140625 42.425781 C 50.894531 44.9375 48.652344 47.445312 46.40625 49.957031 Z M 63.707031 43.65625 C 63.78125 43.371094 63.808594 43.078125 63.785156 42.785156 C 63.761719 42.492188 63.695312 42.207031 63.582031 41.933594 C 64.160156 42.199219 64.800781 42.21875 65.546875 41.945312 C 65.757812 42.464844 65.910156 43 66.003906 43.550781 C 66.027344 43.699219 66.039062 43.851562 66.039062 44.003906 L 66.039062 44.007812 C 65.300781 44.148438 64.410156 43.890625 63.707031 43.65625 Z M 62.285156 38.925781 C 62.070312 38.796875 61.839844 38.722656 61.589844 38.714844 C 61.355469 38.699219 61.136719 38.753906 60.9375 38.875 C 59.953125 37.949219 59.851562 37.070312 60.472656 35.820312 C 60.746094 35.28125 61.113281 34.597656 61.621094 34.21875 C 62.09375 34.609375 62.417969 35.25 62.699219 35.773438 C 63.367188 37.007812 63.296875 37.980469 62.285156 38.925781 Z M 57.300781 39.054688 C 58.53125 38.386719 59.460938 38.554688 60.378906 39.539062 C 60.3125 39.699219 60.273438 39.867188 60.261719 40.039062 C 60.253906 40.167969 60.269531 40.289062 60.304688 40.410156 C 60.335938 40.535156 60.390625 40.644531 60.464844 40.75 C 59.523438 41.792969 58.632812 41.914062 57.359375 41.28125 C 56.816406 41.011719 56.132812 40.644531 55.75 40.140625 C 56.140625 39.664062 56.78125 39.335938 57.300781 39.054688 Z M 57.300781 39.054688 "/>
</g>
<path style=" stroke:none;fill-rule:nonzero;fill:rgb(100%,54.901963%,0%);fill-opacity:1;" d="M 76.226562 26.804688 C 76.117188 25.890625 76.019531 24.96875 75.832031 24.070312 C 75.75 23.660156 75.640625 23.257812 75.484375 22.871094 C 75.335938 22.507812 75.160156 22.015625 74.738281 21.894531 C 74.292969 21.765625 73.9375 22.113281 73.617188 22.367188 C 73.273438 22.632812 72.933594 22.910156 72.597656 23.191406 C 71.9375 23.742188 71.296875 24.316406 70.675781 24.910156 C 69.257812 26.269531 67.953125 27.742188 66.753906 29.296875 C 66.617188 29.472656 66.726562 29.753906 66.898438 29.855469 C 67.074219 29.960938 67.25 29.910156 67.382812 29.789062 C 67.453125 29.855469 67.546875 29.898438 67.65625 29.894531 C 68.164062 29.867188 68.675781 29.878906 69.183594 29.9375 C 69.167969 30.257812 69.15625 30.578125 69.144531 30.902344 C 69.132812 31.222656 69.496094 31.390625 69.757812 31.253906 C 70.207031 31.015625 70.820312 31.34375 70.972656 31.800781 C 71.078125 32.121094 70.902344 32.480469 70.832031 32.792969 C 70.738281 33.1875 70.71875 33.59375 70.953125 33.945312 C 71.105469 34.179688 71.386719 34.207031 71.59375 34.03125 C 71.980469 33.703125 72.613281 33.847656 72.941406 34.1875 C 73.378906 34.648438 73.359375 35.363281 73.152344 35.921875 C 73 36.339844 73.554688 36.5625 73.835938 36.320312 C 76.550781 33.96875 76.621094 30.089844 76.226562 26.804688 Z M 73.527344 24.382812 C 73.539062 24.742188 73.550781 25.105469 73.558594 25.46875 C 73.542969 25.460938 73.527344 25.457031 73.511719 25.457031 C 73.511719 25.328125 73.46875 25.210938 73.355469 25.125 C 73.332031 25.105469 73.300781 25.085938 73.265625 25.070312 C 73.226562 24.96875 73.183594 24.863281 73.132812 24.761719 C 73.261719 24.636719 73.394531 24.507812 73.527344 24.382812 Z M 72.761719 27.386719 C 72.652344 27.378906 72.546875 27.410156 72.46875 27.488281 C 72.46875 27.46875 72.472656 27.449219 72.472656 27.429688 C 72.535156 27.414062 72.59375 27.378906 72.640625 27.328125 C 72.679688 27.28125 72.71875 27.234375 72.753906 27.1875 C 72.757812 27.253906 72.757812 27.320312 72.761719 27.386719 Z M 73.578125 26.855469 C 73.578125 26.988281 73.574219 27.121094 73.574219 27.253906 C 73.574219 27.199219 73.570312 27.144531 73.570312 27.089844 C 73.5625 26.808594 73.550781 26.53125 73.523438 26.253906 C 73.527344 26.25 73.535156 26.25 73.539062 26.246094 C 73.546875 26.246094 73.558594 26.238281 73.566406 26.234375 C 73.570312 26.441406 73.574219 26.648438 73.578125 26.855469 Z M 71.570312 29 C 71.4375 28.410156 71.402344 27.808594 71.46875 27.210938 C 71.53125 27.359375 71.582031 27.515625 71.621094 27.671875 C 71.578125 28.113281 71.5625 28.554688 71.570312 29 Z M 70.210938 28.019531 C 70.214844 28.015625 70.21875 28.015625 70.210938 28.019531 Z M 69.988281 28.078125 C 69.980469 28.078125 69.980469 28.074219 69.988281 28.078125 Z M 74.53125 28.464844 C 74.539062 28.945312 74.523438 29.4375 74.464844 29.921875 C 74.445312 29.636719 74.414062 29.351562 74.371094 29.070312 C 74.371094 29.046875 74.375 29.023438 74.378906 29.003906 C 74.421875 28.425781 74.394531 27.839844 74.394531 27.261719 C 74.394531 27.203125 74.394531 27.148438 74.394531 27.089844 C 74.429688 27.226562 74.464844 27.359375 74.5 27.496094 C 74.515625 27.816406 74.527344 28.140625 74.53125 28.464844 Z M 71.851562 26.226562 C 71.824219 26.179688 71.789062 26.132812 71.757812 26.089844 C 71.8125 26.039062 71.867188 25.984375 71.921875 25.933594 C 71.894531 26.03125 71.875 26.128906 71.851562 26.226562 Z M 70.625 27.570312 C 70.5625 27.5 70.496094 27.433594 70.421875 27.382812 C 70.5 27.308594 70.578125 27.230469 70.652344 27.15625 C 70.640625 27.296875 70.628906 27.433594 70.625 27.570312 Z M 70 29.480469 C 69.980469 29.417969 69.945312 29.355469 69.902344 29.304688 C 69.976562 29.324219 70.050781 29.34375 70.121094 29.367188 C 70.078125 29.402344 70.035156 29.441406 70 29.480469 Z M 73.589844 33.6875 C 73.574219 33.671875 73.5625 33.65625 73.546875 33.640625 C 73.5625 33.628906 73.574219 33.617188 73.589844 33.605469 C 73.589844 33.632812 73.589844 33.660156 73.589844 33.6875 Z M 72.53125 33.023438 C 72.546875 33.050781 72.566406 33.070312 72.585938 33.09375 C 72.542969 33.082031 72.5 33.074219 72.457031 33.066406 C 72.480469 33.054688 72.507812 33.039062 72.53125 33.023438 Z M 74.050781 34.628906 C 74.109375 34.652344 74.171875 34.660156 74.230469 34.652344 C 74.183594 34.71875 74.136719 34.785156 74.085938 34.851562 C 74.078125 34.777344 74.066406 34.703125 74.050781 34.628906 Z M 74.507812 22.714844 C 74.5 22.707031 74.496094 22.699219 74.488281 22.675781 C 74.492188 22.691406 74.5 22.703125 74.511719 22.714844 C 74.515625 22.707031 74.519531 22.703125 74.523438 22.699219 C 74.574219 22.625 74.542969 22.738281 74.511719 22.714844 C 74.519531 22.726562 74.527344 22.738281 74.53125 22.75 C 74.554688 22.839844 74.625 22.9375 74.664062 23.023438 C 74.820312 23.371094 74.925781 23.742188 75.007812 24.109375 C 75.191406 24.914062 75.277344 25.738281 75.378906 26.554688 C 75.46875 27.273438 75.546875 28.003906 75.585938 28.734375 C 75.515625 28.300781 75.425781 27.867188 75.320312 27.4375 C 75.265625 26.441406 75.144531 25.449219 74.980469 24.46875 C 74.921875 24.121094 74.886719 23.734375 74.777344 23.394531 C 74.675781 23.089844 74.355469 23.015625 74.101562 23.125 C 74.074219 23.109375 74.046875 23.09375 74.019531 23.085938 C 74.054688 23.054688 74.085938 23.027344 74.125 23 C 74.226562 22.917969 74.421875 22.820312 74.507812 22.714844 Z M 13.886719 20.140625 C 11.183594 19.285156 8.371094 18.6875 5.546875 18.433594 C 4.449219 18.332031 3.320312 18.273438 2.222656 18.410156 C 2.1875 18.414062 2.152344 18.425781 2.121094 18.433594 C 2.027344 18.453125 1.945312 18.503906 1.886719 18.589844 C 1.886719 18.59375 1.886719 18.59375 1.882812 18.59375 C 1.875 18.609375 1.863281 18.625 1.855469 18.640625 C 1.847656 18.65625 1.839844 18.675781 1.835938 18.695312 C 1.832031 18.699219 1.832031 18.703125 1.828125 18.710938 C 0.933594 21.761719 0.402344 24.921875 0.246094 28.097656 C 0.171875 29.667969 0.1875 31.246094 0.300781 32.8125 C 0.390625 34.089844 0.519531 35.332031 0.933594 36.546875 C 1.335938 37.726562 1.894531 39.058594 2.863281 39.890625 C 3.261719 40.230469 3.839844 39.65625 3.441406 39.3125 C 2.644531 38.628906 2.171875 37.566406 1.820312 36.605469 C 1.628906 36.085938 1.46875 35.550781 1.355469 35.003906 C 1.226562 34.378906 1.1875 33.734375 1.136719 33.101562 C 0.898438 30.066406 1.007812 27.003906 1.480469 23.996094 C 1.734375 22.375 2.089844 20.769531 2.542969 19.191406 C 3.375 19.117188 4.21875 19.148438 5.050781 19.207031 C 6.300781 19.296875 7.539062 19.472656 8.769531 19.703125 C 11.632812 20.238281 14.488281 21.039062 17.152344 22.234375 C 18.546875 22.859375 19.921875 23.597656 21.132812 24.542969 C 21.308594 24.679688 21.542969 24.710938 21.710938 24.542969 C 21.851562 24.402344 21.886719 24.101562 21.710938 23.964844 C 19.410156 22.171875 16.652344 21.011719 13.886719 20.140625 Z M 9.953125 27.023438 C 8.910156 25.910156 7.75 24.90625 6.542969 23.976562 C 6 23.558594 5.445312 23.152344 4.867188 22.78125 C 4.542969 22.574219 4.238281 22.894531 4.269531 23.195312 C 4.238281 23.238281 4.210938 23.289062 4.199219 23.355469 C 3.445312 26.957031 2.703125 30.871094 4.4375 34.316406 C 4.855469 35.148438 5.421875 35.910156 6.113281 36.535156 C 6.300781 36.699219 6.628906 36.695312 6.753906 36.453125 C 6.90625 36.160156 6.914062 35.875 6.867188 35.554688 C 6.832031 35.339844 6.734375 35.070312 6.84375 34.859375 C 7.113281 34.339844 7.921875 34.554688 8.355469 34.65625 C 8.613281 34.71875 8.871094 34.535156 8.871094 34.265625 C 8.875 33.703125 8.636719 33.171875 8.65625 32.613281 C 8.664062 32.445312 8.699219 32.238281 8.832031 32.121094 C 8.914062 32.046875 9.089844 31.980469 9.183594 32.066406 C 9.460938 32.320312 10.015625 32.074219 9.867188 31.667969 C 9.738281 31.324219 9.957031 30.976562 10.277344 30.824219 C 10.722656 30.613281 11.261719 30.746094 11.710938 30.878906 C 11.871094 30.925781 12 30.878906 12.089844 30.789062 C 12.207031 30.703125 12.273438 30.558594 12.210938 30.375 C 11.777344 29.09375 10.863281 27.996094 9.953125 27.023438 Z M 6.027344 34.722656 C 6.023438 34.714844 6.015625 34.707031 6.011719 34.699219 C 6 34.6875 5.996094 34.675781 5.988281 34.664062 C 6.011719 34.660156 6.03125 34.652344 6.050781 34.644531 C 6.042969 34.671875 6.035156 34.695312 6.027344 34.722656 Z M 5.652344 28.988281 C 5.558594 28.972656 5.460938 28.988281 5.378906 29.03125 C 5.367188 28.789062 5.351562 28.550781 5.339844 28.3125 C 5.445312 28.535156 5.550781 28.761719 5.652344 28.988281 Z M 6.023438 25.984375 C 6.023438 25.980469 6.019531 25.976562 6.015625 25.972656 C 6.027344 25.964844 6.035156 25.957031 6.042969 25.949219 C 6.035156 25.960938 6.03125 25.972656 6.023438 25.984375 Z M 6.789062 33.007812 C 6.847656 33.019531 6.90625 33.015625 6.964844 32.996094 C 7.007812 33.050781 7.054688 33.109375 7.101562 33.164062 C 6.992188 33.175781 6.882812 33.1875 6.773438 33.199219 C 6.777344 33.136719 6.785156 33.070312 6.789062 33.007812 Z M 9.59375 29.148438 C 9.402344 28.984375 9.210938 28.820312 9.023438 28.65625 C 9.011719 28.578125 8.976562 28.507812 8.914062 28.449219 C 8.855469 28.386719 8.761719 28.34375 8.667969 28.332031 C 8.660156 28.324219 8.65625 28.316406 8.648438 28.3125 C 8.675781 28.273438 8.699219 28.234375 8.714844 28.191406 C 8.902344 28.414062 9.089844 28.632812 9.269531 28.859375 C 9.359375 28.96875 9.515625 28.996094 9.648438 28.960938 C 9.691406 29.003906 9.734375 29.042969 9.773438 29.085938 C 9.78125 29.09375 9.792969 29.101562 9.804688 29.113281 C 9.734375 29.121094 9.664062 29.132812 9.59375 29.148438 Z M 6.527344 25.773438 C 6.527344 25.789062 6.53125 25.808594 6.53125 25.828125 C 6.425781 25.777344 6.304688 25.769531 6.183594 25.828125 C 6.265625 25.734375 6.289062 25.621094 6.273438 25.507812 C 6.359375 25.597656 6.441406 25.683594 6.527344 25.773438 Z M 5.738281 25.179688 C 5.722656 25.105469 5.714844 25.03125 5.710938 24.953125 C 5.777344 25.019531 5.84375 25.082031 5.910156 25.144531 C 5.855469 25.140625 5.796875 25.152344 5.738281 25.179688 Z M 4.707031 24.925781 C 4.738281 25.054688 4.765625 25.183594 4.796875 25.308594 C 4.722656 25.34375 4.65625 25.398438 4.605469 25.464844 C 4.640625 25.285156 4.671875 25.105469 4.707031 24.925781 Z M 4.421875 26.542969 C 4.421875 26.558594 4.421875 26.574219 4.421875 26.589844 C 4.417969 26.609375 4.410156 26.625 4.40625 26.640625 C 4.410156 26.609375 4.414062 26.578125 4.421875 26.542969 Z M 8 33.691406 C 8.003906 33.714844 8.007812 33.738281 8.011719 33.761719 C 7.992188 33.757812 7.976562 33.757812 7.957031 33.753906 C 7.972656 33.734375 7.988281 33.714844 8 33.691406 Z M 7.90625 32.164062 C 7.902344 32.164062 7.902344 32.160156 7.902344 32.160156 C 7.90625 32.160156 7.90625 32.160156 7.90625 32.160156 C 7.90625 32.160156 7.90625 32.164062 7.90625 32.164062 Z M 10.648438 29.90625 C 10.726562 29.851562 10.789062 29.777344 10.8125 29.683594 C 10.832031 29.589844 10.835938 29.503906 10.835938 29.417969 C 10.941406 29.582031 11.039062 29.75 11.132812 29.921875 C 10.96875 29.902344 10.808594 29.898438 10.648438 29.90625 Z M 79.265625 23.96875 C 78.996094 22.191406 78.605469 20.433594 78.097656 18.710938 C 78.097656 18.707031 78.09375 18.703125 78.09375 18.699219 C 78.085938 18.675781 78.078125 18.65625 78.070312 18.636719 C 78.0625 18.625 78.058594 18.617188 78.050781 18.605469 C 78.046875 18.597656 78.042969 18.589844 78.035156 18.582031 C 77.976562 18.503906 77.898438 18.453125 77.808594 18.433594 C 77.777344 18.425781 77.742188 18.414062 77.707031 18.410156 C 76.75 18.289062 75.777344 18.324219 74.820312 18.394531 C 73.507812 18.492188 72.203125 18.679688 70.90625 18.921875 C 67.957031 19.476562 65.039062 20.320312 62.300781 21.558594 C 60.855469 22.210938 59.46875 22.988281 58.214844 23.964844 C 58.042969 24.101562 58.074219 24.398438 58.214844 24.542969 C 58.386719 24.714844 58.621094 24.679688 58.792969 24.542969 C 61.003906 22.816406 63.707031 21.722656 66.359375 20.894531 C 68.980469 20.074219 71.699219 19.484375 74.4375 19.242188 C 75.410156 19.15625 76.40625 19.105469 77.386719 19.195312 C 78.207031 22.066406 78.707031 25.019531 78.859375 28.003906 C 78.9375 29.507812 78.925781 31.019531 78.832031 32.523438 C 78.753906 33.773438 78.644531 34.996094 78.253906 36.191406 C 77.894531 37.289062 77.386719 38.539062 76.488281 39.3125 C 76.085938 39.65625 76.667969 40.230469 77.0625 39.890625 C 77.929688 39.148438 78.449219 38.003906 78.84375 36.960938 C 79.289062 35.796875 79.476562 34.625 79.582031 33.386719 C 79.851562 30.25 79.734375 27.085938 79.265625 23.96875 Z M 63.765625 23.363281 C 63.664062 23.339844 63.539062 23.34375 63.449219 23.40625 C 63.105469 23.648438 62.757812 23.894531 62.410156 24.136719 C 62.320312 24.199219 62.253906 24.273438 62.222656 24.382812 C 62.195312 24.480469 62.207031 24.609375 62.265625 24.695312 C 62.320312 24.785156 62.402344 24.859375 62.507812 24.882812 C 62.609375 24.90625 62.734375 24.90625 62.824219 24.84375 C 63.167969 24.597656 63.515625 24.355469 63.863281 24.109375 C 63.953125 24.046875 64.019531 23.972656 64.050781 23.867188 C 64.078125 23.769531 64.066406 23.636719 64.007812 23.550781 C 63.953125 23.464844 63.871094 23.386719 63.765625 23.363281 Z M 74.511719 22.714844 C 74.507812 22.714844 74.507812 22.714844 74.507812 22.714844 C 74.507812 22.714844 74.511719 22.714844 74.511719 22.714844 Z M 74.511719 22.714844 "/>
</g>
</svg>
