<svg xmlns="http://www.w3.org/2000/svg" xmlns:xlink="http://www.w3.org/1999/xlink" width="1080" zoomAndPan="magnify" viewBox="0 0 810 809.999993" height="1080" preserveAspectRatio="xMidYMid meet" version="1.0"><defs><clipPath id="f8fd27ff0f"><path d="M 97.140625 374.632812 L 708.390625 374.632812 L 708.390625 621.382812 L 97.140625 621.382812 Z M 97.140625 374.632812 " clip-rule="nonzero"/></clipPath><clipPath id="a3f45b4770"><path d="M 2 181.089844 L 808 181.089844 L 808 402 L 2 402 Z M 2 181.089844 " clip-rule="nonzero"/></clipPath></defs><g clip-path="url(#f8fd27ff0f)"><path fill="#00c80e" d="M 588.644531 411.65625 C 576.71875 407.125 562.800781 408.542969 550.277344 408.542969 C 538.113281 408.542969 525.734375 407.890625 513.585938 408.796875 C 494.503906 410.199219 478.234375 422.539062 468.65625 438.550781 C 461.003906 451.324219 460.238281 465.542969 460.238281 479.949219 L 460.238281 522.398438 C 460.238281 544.34375 468.636719 563.941406 486.457031 577.207031 C 501.992188 588.78125 520.566406 587.539062 538.785156 587.539062 C 555.875 587.539062 574.703125 589.730469 590.992188 583.519531 C 614.726562 574.488281 628.292969 549.964844 628.824219 525.4375 L 628.824219 490.300781 C 628.824219 477.113281 629.589844 463.984375 625.886719 451.167969 C 620.582031 432.8125 606.269531 418.382812 588.644531 411.65625 Z M 470.074219 497.457031 C 469.917969 477.074219 468.003906 455.996094 480.445312 438.449219 C 481.539062 436.917969 482.714844 435.457031 483.980469 434.0625 C 485.246094 432.671875 486.589844 431.359375 488.007812 430.125 C 489.429688 428.890625 490.917969 427.742188 492.472656 426.6875 C 494.027344 425.628906 495.640625 424.664062 497.308594 423.796875 C 498.976562 422.925781 500.691406 422.160156 502.453125 421.496094 C 504.210938 420.828125 506.003906 420.269531 507.828125 419.8125 C 509.65625 419.359375 511.5 419.015625 513.367188 418.777344 C 515.234375 418.542969 517.109375 418.414062 518.988281 418.398438 L 540.792969 418.398438 C 517.214844 444.742188 493.644531 471.09375 470.074219 497.457031 Z M 470.09375 524.097656 L 470.09375 513.921875 C 470.09375 513.25 469.996094 513.078125 469.917969 513.054688 C 470.113281 512.910156 470.289062 512.746094 470.449219 512.5625 C 476.640625 505.644531 482.832031 498.722656 489.023438 491.804688 C 508.597656 469.9375 528.164062 448.070312 547.714844 426.207031 C 549.585938 424.117188 551.457031 422.023438 553.332031 419.917969 C 553.769531 419.445312 554.203125 418.953125 554.632812 418.457031 C 554.671875 418.425781 554.707031 418.386719 554.734375 418.339844 C 554.941406 418.390625 555.152344 418.410156 555.363281 418.398438 L 569.992188 418.398438 C 574.90625 418.429688 579.699219 419.203125 584.375 420.71875 C 589.050781 422.238281 593.382812 424.429688 597.378906 427.292969 C 564.789062 463.746094 532.191406 500.183594 499.589844 536.613281 C 493.261719 543.671875 486.9375 550.738281 480.625 557.808594 C 478.882812 555.367188 477.347656 552.800781 476.011719 550.113281 C 474.679688 547.429688 473.566406 544.65625 472.671875 541.792969 C 471.777344 538.929688 471.113281 536.015625 470.683594 533.046875 C 470.25 530.078125 470.054688 527.09375 470.09375 524.097656 Z M 340.425781 445.53125 C 332.519531 427.371094 317.417969 414.003906 297.957031 409.648438 C 282.28125 406.136719 264.066406 408.542969 248.195312 408.542969 C 228.777344 408.542969 211.9375 410.453125 196.679688 424.078125 C 180.847656 438.214844 176.863281 458.304688 176.863281 478.496094 L 176.863281 525.4375 C 177.277344 544.738281 185.28125 563.960938 201.074219 575.730469 C 213.515625 584.976562 226.960938 587.539062 242.046875 587.539062 C 270.710938 587.539062 302.53125 592.648438 325.636719 572.003906 C 350.402344 549.902344 345.453125 514.59375 345.453125 484.839844 C 345.453125 471.453125 345.925781 458.144531 340.425781 445.53125 Z M 186.722656 523.601562 L 186.722656 513.332031 C 186.722656 512.285156 187.136719 511.398438 186.445312 512.167969 C 186.628906 511.984375 186.796875 511.796875 186.960938 511.597656 C 193.050781 504.796875 199.136719 497.992188 205.214844 491.191406 C 224.714844 469.40625 244.207031 447.621094 263.691406 425.832031 C 265.507812 423.800781 267.339844 421.773438 269.15625 419.722656 C 269.527344 419.304688 269.902344 418.894531 270.296875 418.480469 C 270.296875 418.597656 270.75 418.398438 271.539062 418.398438 L 286.621094 418.398438 C 291.410156 418.421875 296.089844 419.15625 300.652344 420.601562 C 305.21875 422.046875 309.464844 424.140625 313.394531 426.878906 C 280.84375 463.273438 248.285156 499.660156 215.722656 536.042969 C 209.417969 543.101562 203.113281 550.152344 196.816406 557.199219 C 195.128906 554.746094 193.644531 552.175781 192.355469 549.492188 C 191.070312 546.808594 189.996094 544.039062 189.140625 541.191406 C 188.285156 538.339844 187.652344 535.4375 187.246094 532.488281 C 186.839844 529.539062 186.664062 526.578125 186.722656 523.601562 Z M 235.617188 418.398438 L 256.4375 418.398438 C 233.210938 444.363281 209.96875 470.34375 186.703125 496.335938 C 186.546875 476.265625 184.808594 455.722656 197.074219 438.449219 C 198.164062 436.917969 199.34375 435.457031 200.609375 434.0625 C 201.875 432.671875 203.21875 431.359375 204.636719 430.125 C 206.058594 428.890625 207.546875 427.746094 209.101562 426.6875 C 210.65625 425.628906 212.269531 424.664062 213.9375 423.796875 C 215.605469 422.925781 217.320312 422.160156 219.082031 421.496094 C 220.839844 420.828125 222.632812 420.269531 224.457031 419.8125 C 226.285156 419.359375 228.128906 419.015625 229.996094 418.777344 C 231.863281 418.542969 233.738281 418.414062 235.617188 418.398438 Z M 702.300781 458.078125 C 696.132812 451.507812 685.546875 448.3125 669.949219 448.3125 C 665.445312 448.3125 661.140625 448.585938 657.695312 448.875 C 650.304688 416.875 628.390625 391.363281 598.5625 380.261719 C 585.609375 375.429688 571.25 374.8125 560.1875 374.8125 C 554.886719 374.8125 549.566406 374.972656 544.425781 375.128906 C 539.480469 375.277344 534.613281 375.425781 529.914062 375.425781 C 499.070312 375.425781 477.183594 382.894531 458.945312 399.640625 C 440.363281 416.695312 430.585938 440.480469 429.113281 472.246094 C 420.6875 470 412.113281 468.777344 403.394531 468.582031 C 403.25 468.582031 403.058594 468.582031 402.832031 468.597656 C 402.652344 468.585938 402.210938 468.582031 402.160156 468.582031 C 393.484375 468.785156 384.957031 470.003906 376.578125 472.246094 C 375.167969 442.253906 366.253906 419.699219 348.710938 401.5625 C 331.695312 383.976562 308.355469 375.425781 277.355469 375.425781 C 272.59375 375.425781 267.742188 375.300781 262.839844 375.179688 C 257.785156 375.054688 252.679688 374.925781 247.582031 374.925781 C 236.90625 374.925781 222.972656 375.425781 209.859375 379.339844 C 179.785156 388.328125 155.789062 415.417969 148.003906 448.847656 C 144.242188 448.515625 139.84375 448.222656 135.414062 448.222656 C 111.511719 448.222656 98.808594 457.371094 97.660156 475.410156 C 97.203125 482.703125 99.113281 488.6875 103.347656 493.195312 C 109.457031 499.703125 120.105469 502.867188 135.902344 502.867188 C 139.28125 502.867188 142.539062 502.730469 145.511719 502.550781 C 145.460938 528.636719 145.773438 553.324219 160 577.207031 C 176.449219 604.820312 205.886719 620.65625 240.765625 620.65625 C 245.945312 620.65625 251.253906 620.804688 256.617188 620.949219 C 262.171875 621.101562 267.792969 621.257812 273.40625 621.257812 C 285.851562 621.257812 302.03125 620.570312 316.847656 615.21875 C 349.664062 603.359375 373.359375 570.230469 376.449219 532.273438 C 385.09375 530.371094 393.839844 529.285156 402.683594 529.015625 C 411.628906 529.269531 420.476562 530.351562 429.21875 532.273438 C 432.230469 569.519531 454.445312 601.511719 486.371094 614.234375 C 501.855469 620.402344 518.433594 621.234375 532.609375 621.234375 C 538.160156 621.234375 543.714844 621.085938 549.207031 620.941406 C 554.523438 620.796875 559.78125 620.65625 564.925781 620.65625 C 598.589844 620.65625 626.003906 606.449219 644.203125 579.566406 C 660.246094 555.839844 660.28125 528.777344 660.195312 502.5625 C 663.46875 502.773438 666.867188 502.929688 670.292969 502.929688 L 670.339844 502.929688 C 679.296875 502.929688 706.316406 502.886719 708.027344 475.855469 C 708.484375 468.589844 706.558594 462.609375 702.300781 458.078125 Z M 653.664062 492.609375 C 653.273438 492.609375 652.894531 492.6875 652.535156 492.835938 C 652.171875 492.988281 651.855469 493.203125 651.578125 493.480469 C 651.300781 493.757812 651.085938 494.074219 650.9375 494.4375 C 650.785156 494.800781 650.710938 495.175781 650.710938 495.566406 C 650.710938 520.625 652.109375 544.894531 640.121094 567.921875 C 625.195312 596.648438 596.414062 611.199219 564.925781 611.199219 C 544.285156 611.199219 521.710938 613.644531 501.402344 609.1875 C 463.6875 600.886719 439.613281 564.257812 438.394531 527.171875 C 438.390625 526.847656 438.335938 526.53125 438.230469 526.226562 C 438.128906 525.921875 437.976562 525.640625 437.78125 525.382812 C 437.585938 525.125 437.355469 524.902344 437.089844 524.722656 C 436.820312 524.539062 436.53125 524.402344 436.222656 524.3125 C 425.679688 521.492188 414.957031 519.929688 404.046875 519.621094 C 403.769531 519.550781 403.488281 519.523438 403.199219 519.542969 C 403.082031 519.542969 402.964844 519.558594 402.84375 519.558594 C 402.726562 519.558594 402.609375 519.542969 402.488281 519.542969 C 402.429688 519.539062 402.386719 519.554688 402.332031 519.554688 L 402.328125 519.535156 L 402.328125 519.558594 C 402.09375 519.550781 401.867188 519.574219 401.640625 519.621094 C 390.734375 519.929688 380.007812 521.492188 369.464844 524.3125 C 369.15625 524.402344 368.867188 524.539062 368.601562 524.722656 C 368.332031 524.902344 368.101562 525.125 367.90625 525.382812 C 367.710938 525.640625 367.5625 525.921875 367.457031 526.226562 C 367.351562 526.53125 367.300781 526.847656 367.296875 527.171875 C 366.078125 564.296875 343.109375 598.027344 306.769531 608.558594 C 286.386719 614.453125 261.71875 611.199219 240.765625 611.199219 C 209.535156 611.199219 183.015625 597.378906 166.828125 570.191406 C 153.128906 547.203125 154.980469 521.175781 154.980469 495.566406 C 154.976562 495.175781 154.902344 494.796875 154.753906 494.4375 C 154.601562 494.074219 154.386719 493.753906 154.109375 493.476562 C 153.835938 493.203125 153.515625 492.988281 153.152344 492.835938 C 152.792969 492.6875 152.414062 492.609375 152.023438 492.609375 C 136.328125 493.8125 108.492188 497.339844 107.113281 475.632812 C 105.730469 453.730469 139.207031 457.378906 153.207031 458.835938 C 153.53125 458.839844 153.847656 458.792969 154.152344 458.691406 C 154.460938 458.589844 154.742188 458.441406 155 458.242188 C 155.257812 458.046875 155.476562 457.8125 155.65625 457.542969 C 155.835938 457.273438 155.964844 456.980469 156.046875 456.667969 C 161.644531 424.433594 183.152344 397.1875 214.957031 387.683594 C 233.292969 382.222656 255.253906 384.882812 274.121094 384.882812 C 299.042969 384.882812 321.003906 388.847656 340.171875 406.433594 C 361.71875 426.226562 367.335938 453.257812 367.335938 481.253906 C 367.339844 481.480469 367.367188 481.703125 367.417969 481.925781 C 367.472656 482.144531 367.550781 482.359375 367.652344 482.5625 C 367.753906 482.765625 367.878906 482.953125 368.023438 483.128906 C 368.167969 483.300781 368.332031 483.457031 368.511719 483.59375 C 368.691406 483.734375 368.886719 483.847656 369.09375 483.941406 C 369.300781 484.03125 369.515625 484.101562 369.738281 484.144531 C 369.960938 484.1875 370.1875 484.203125 370.414062 484.195312 C 370.640625 484.1875 370.863281 484.152344 371.082031 484.09375 C 381.125 480.210938 391.527344 478.195312 402.292969 478.039062 C 402.660156 477.933594 403.027344 477.933594 403.394531 478.039062 C 414.167969 478.195312 424.578125 480.214844 434.625 484.09375 C 434.84375 484.152344 435.066406 484.1875 435.292969 484.195312 C 435.519531 484.203125 435.742188 484.183594 435.964844 484.140625 C 436.1875 484.097656 436.402344 484.027344 436.609375 483.933594 C 436.816406 483.84375 437.007812 483.726562 437.1875 483.589844 C 437.367188 483.453125 437.53125 483.296875 437.671875 483.121094 C 437.816406 482.949219 437.941406 482.757812 438.042969 482.558594 C 438.140625 482.355469 438.21875 482.144531 438.269531 481.921875 C 438.324219 481.703125 438.351562 481.480469 438.351562 481.253906 C 438.351562 453.589844 443.851562 428.730469 463.707031 408.207031 C 481.824219 389.496094 505.050781 384.882812 529.914062 384.882812 C 548.898438 384.882812 569.519531 382.792969 588.171875 387.011719 C 621.277344 394.523438 644.023438 424.355469 649.644531 456.667969 C 649.726562 456.980469 649.855469 457.273438 650.035156 457.542969 C 650.210938 457.8125 650.429688 458.046875 650.6875 458.242188 C 650.945312 458.441406 651.230469 458.589844 651.535156 458.691406 C 651.84375 458.792969 652.160156 458.839844 652.484375 458.835938 C 668.292969 457.179688 697.195312 453.828125 698.578125 475.632812 C 699.957031 497.402344 667.523438 493.671875 653.664062 492.609375 Z M 653.664062 492.609375 " fill-opacity="1" fill-rule="nonzero"/></g><g clip-path="url(#a3f45b4770)"><path fill="#00c80e" d="M 771.796875 267.46875 C 770.695312 258.242188 769.691406 248.898438 767.816406 239.789062 C 766.964844 235.660156 765.847656 231.582031 764.261719 227.667969 C 762.757812 223.96875 760.988281 219.015625 756.734375 217.773438 C 752.214844 216.460938 748.636719 219.992188 745.371094 222.542969 C 741.882812 225.265625 738.4375 228.046875 735.042969 230.890625 C 728.375 236.472656 721.890625 242.285156 715.609375 248.304688 C 701.238281 262.078125 688.015625 276.96875 675.867188 292.730469 C 674.503906 294.5 675.597656 297.363281 677.351562 298.386719 C 679.128906 299.429688 680.917969 298.925781 682.257812 297.703125 C 682.957031 298.394531 683.90625 298.820312 685.027344 298.761719 C 690.179688 298.488281 695.34375 298.621094 700.46875 299.207031 C 700.339844 302.457031 700.214844 305.710938 700.089844 308.960938 C 699.964844 312.230469 703.660156 313.933594 706.308594 312.53125 C 710.832031 310.140625 717.046875 313.429688 718.59375 318.074219 C 719.671875 321.320312 717.894531 324.96875 717.167969 328.101562 C 716.234375 332.113281 716.042969 336.222656 718.382812 339.808594 C 719.925781 342.167969 722.789062 342.417969 724.875 340.644531 C 728.792969 337.320312 735.210938 338.789062 738.519531 342.257812 C 742.972656 346.925781 742.746094 354.15625 740.671875 359.820312 C 739.136719 364.015625 744.746094 366.300781 747.582031 363.839844 C 775.074219 340.019531 775.773438 300.753906 771.796875 267.46875 Z M 744.449219 242.964844 C 744.570312 246.625 744.683594 250.28125 744.761719 253.941406 C 744.609375 253.890625 744.453125 253.863281 744.296875 253.828125 C 744.308594 252.53125 743.867188 251.34375 742.742188 250.472656 C 742.472656 250.265625 742.152344 250.089844 741.8125 249.949219 C 741.417969 248.890625 740.964844 247.847656 740.460938 246.820312 C 741.789062 245.535156 743.121094 244.25 744.449219 242.964844 Z M 736.695312 273.371094 C 735.609375 273.304688 734.527344 273.636719 733.726562 274.394531 C 733.75 274.199219 733.773438 274.007812 733.796875 273.816406 C 734.433594 273.644531 735.027344 273.320312 735.492188 272.78125 C 735.894531 272.3125 736.273438 271.828125 736.652344 271.34375 C 736.667969 272.023438 736.679688 272.699219 736.695312 273.371094 Z M 744.96875 267.992188 C 744.976562 269.34375 744.957031 270.695312 744.957031 272.050781 C 744.949219 272.050781 744.941406 272.050781 744.929688 272.050781 C 744.921875 271.488281 744.910156 270.925781 744.898438 270.371094 C 744.832031 267.542969 744.695312 264.710938 744.417969 261.90625 C 744.46875 261.886719 744.527344 261.859375 744.578125 261.84375 C 744.679688 261.816406 744.773438 261.761719 744.875 261.726562 C 744.902344 263.8125 744.953125 265.902344 744.96875 267.992188 Z M 724.640625 289.726562 C 723.289062 283.726562 722.953125 277.636719 723.621094 271.605469 C 724.25 273.117188 724.757812 274.667969 725.15625 276.253906 C 724.722656 280.726562 724.566406 285.226562 724.640625 289.726562 Z M 710.867188 279.792969 C 710.925781 279.734375 710.945312 279.742188 710.867188 279.792969 Z M 708.640625 280.382812 C 708.566406 280.367188 708.570312 280.351562 708.640625 280.382812 Z M 754.632812 284.277344 C 754.691406 289.175781 754.558594 294.15625 753.964844 299.050781 C 753.757812 296.167969 753.425781 293.296875 752.996094 290.433594 C 753.019531 290.203125 753.054688 289.972656 753.070312 289.742188 C 753.519531 283.914062 753.261719 277.953125 753.25 272.113281 C 753.25 271.535156 753.234375 270.960938 753.230469 270.382812 C 753.59375 271.75 753.945312 273.113281 754.292969 274.484375 C 754.464844 277.746094 754.589844 281.007812 754.632812 284.277344 Z M 727.515625 261.625 C 727.207031 261.160156 726.882812 260.707031 726.558594 260.253906 C 727.105469 259.722656 727.652344 259.195312 728.195312 258.667969 C 727.949219 259.648438 727.734375 260.636719 727.515625 261.625 Z M 715.074219 275.25 C 714.457031 274.527344 713.785156 273.863281 713.023438 273.328125 C 713.804688 272.574219 714.585938 271.820312 715.367188 271.066406 C 715.222656 272.457031 715.125 273.851562 715.074219 275.25 Z M 708.730469 294.585938 C 708.554688 293.949219 708.214844 293.320312 707.761719 292.800781 C 708.511719 292.988281 709.253906 293.191406 709.988281 293.429688 C 709.539062 293.796875 709.117188 294.179688 708.730469 294.585938 Z M 745.089844 337.195312 C 744.941406 337.027344 744.804688 336.855469 744.652344 336.695312 C 744.800781 336.582031 744.945312 336.464844 745.089844 336.351562 C 745.082031 336.632812 745.09375 336.914062 745.089844 337.195312 Z M 734.375 330.464844 C 734.53125 330.714844 734.71875 330.945312 734.917969 331.15625 C 734.484375 331.054688 734.050781 330.972656 733.613281 330.902344 C 733.871094 330.761719 734.132812 330.625 734.375 330.464844 Z M 749.753906 346.722656 C 750.34375 346.9375 750.972656 347.023438 751.601562 346.953125 C 751.125 347.636719 750.636719 348.3125 750.132812 348.976562 C 750.042969 348.21875 749.914062 347.46875 749.753906 346.722656 Z M 754.402344 226.078125 C 754.332031 226.015625 754.261719 225.917969 754.195312 225.699219 C 754.234375 225.832031 754.324219 225.949219 754.414062 226.066406 C 754.457031 226.011719 754.507812 225.960938 754.546875 225.910156 C 755.082031 225.167969 754.765625 226.304688 754.429688 226.09375 C 754.507812 226.199219 754.585938 226.308594 754.621094 226.429688 C 754.867188 227.351562 755.597656 228.316406 755.992188 229.199219 C 757.5625 232.710938 758.613281 236.46875 759.460938 240.214844 C 761.296875 248.335938 762.191406 256.691406 763.21875 264.945312 C 764.125 272.234375 764.910156 279.628906 765.289062 287.039062 C 764.601562 282.621094 763.667969 278.25 762.601562 273.90625 C 762.058594 263.828125 760.847656 253.761719 759.179688 243.855469 C 758.582031 240.308594 758.226562 236.394531 757.105469 232.972656 C 756.085938 229.871094 752.847656 229.117188 750.273438 230.246094 C 750.007812 230.074219 749.726562 229.929688 749.429688 229.816406 C 749.789062 229.53125 750.136719 229.234375 750.496094 228.953125 C 751.5625 228.117188 753.511719 227.140625 754.402344 226.078125 Z M 140.609375 200 C 113.230469 191.347656 84.773438 185.296875 56.160156 182.71875 C 45.03125 181.714844 33.625 181.089844 22.5 182.503906 C 22.148438 182.550781 21.808594 182.632812 21.476562 182.734375 C 20.542969 182.929688 19.695312 183.445312 19.101562 184.324219 C 19.09375 184.335938 19.085938 184.347656 19.074219 184.359375 C 18.976562 184.511719 18.882812 184.664062 18.796875 184.839844 C 18.714844 185.003906 18.644531 185.179688 18.585938 185.363281 C 18.566406 185.425781 18.535156 185.476562 18.515625 185.539062 C 9.441406 216.441406 4.066406 248.425781 2.503906 280.597656 C 1.734375 296.496094 1.902344 312.441406 3.027344 328.320312 C 3.9375 341.230469 5.257812 353.8125 9.449219 366.113281 C 13.519531 378.054688 19.179688 391.554688 28.992188 399.96875 C 33.011719 403.417969 38.882812 397.59375 34.835938 394.125 C 26.789062 387.21875 21.996094 376.472656 18.414062 366.71875 C 16.476562 361.441406 14.851562 356.023438 13.722656 350.511719 C 12.425781 344.1875 12.011719 337.664062 11.511719 331.238281 C 9.113281 300.53125 10.222656 269.488281 14.976562 239.054688 C 17.542969 222.632812 21.171875 206.398438 25.746094 190.425781 C 34.175781 189.652344 42.730469 189.976562 51.148438 190.578125 C 63.785156 191.484375 76.34375 193.269531 88.792969 195.59375 C 117.800781 201.007812 146.691406 209.125 173.65625 221.210938 C 187.804688 227.554688 201.722656 235.023438 213.980469 244.585938 C 215.738281 245.960938 218.109375 246.300781 219.824219 244.585938 C 221.253906 243.160156 221.59375 240.121094 219.824219 238.742188 C 196.535156 220.566406 168.601562 208.839844 140.609375 200 Z M 100.761719 269.6875 C 90.207031 258.421875 78.484375 248.261719 66.265625 238.847656 C 60.761719 234.605469 55.128906 230.511719 49.28125 226.753906 C 45.996094 224.644531 42.910156 227.902344 43.230469 230.929688 C 42.902344 231.359375 42.652344 231.902344 42.511719 232.5625 C 34.867188 269.042969 27.363281 308.644531 44.917969 343.558594 C 49.15625 351.984375 54.886719 359.695312 61.910156 366 C 63.789062 367.6875 67.113281 367.644531 68.402344 365.164062 C 69.933594 362.207031 70.007812 359.316406 69.523438 356.085938 C 69.191406 353.890625 68.175781 351.167969 69.28125 349.058594 C 72.035156 343.792969 80.21875 345.96875 84.601562 347 C 87.214844 347.617188 89.820312 345.777344 89.835938 343.015625 C 89.871094 337.339844 87.464844 331.949219 87.65625 326.304688 C 87.710938 324.613281 88.085938 322.519531 89.414062 321.328125 C 90.246094 320.582031 92.050781 319.898438 92.984375 320.753906 C 95.800781 323.328125 101.40625 320.855469 99.894531 316.730469 C 98.617188 313.242188 100.828125 309.746094 104.042969 308.203125 C 108.554688 306.03125 114.035156 307.378906 118.566406 308.738281 C 120.183594 309.222656 121.503906 308.75 122.394531 307.839844 C 123.597656 306.976562 124.285156 305.511719 123.652344 303.652344 C 119.253906 290.667969 110.003906 279.550781 100.761719 269.6875 Z M 61.03125 347.660156 C 60.972656 347.578125 60.910156 347.496094 60.851562 347.410156 C 60.769531 347.300781 60.695312 347.1875 60.617188 347.074219 C 60.851562 347.023438 61.066406 346.945312 61.28125 346.871094 C 61.191406 347.132812 61.105469 347.394531 61.03125 347.660156 Z M 57.230469 289.597656 C 56.285156 289.453125 55.292969 289.613281 54.453125 290.027344 C 54.324219 287.597656 54.199219 285.167969 54.070312 282.734375 C 55.152344 285.011719 56.203125 287.300781 57.230469 289.597656 Z M 60.988281 259.175781 C 60.96875 259.136719 60.945312 259.097656 60.925781 259.058594 C 61.007812 258.980469 61.105469 258.917969 61.191406 258.84375 C 61.117188 258.949219 61.054688 259.0625 60.988281 259.175781 Z M 68.742188 330.300781 C 69.324219 330.414062 69.925781 330.382812 70.519531 330.167969 C 70.972656 330.742188 71.4375 331.308594 71.914062 331.867188 C 70.796875 331.988281 69.683594 332.109375 68.566406 332.226562 C 68.636719 331.585938 68.691406 330.945312 68.742188 330.300781 Z M 97.121094 291.222656 C 95.183594 289.566406 93.25 287.910156 91.351562 286.214844 C 91.226562 285.464844 90.894531 284.75 90.273438 284.128906 C 89.660156 283.511719 88.726562 283.078125 87.773438 282.941406 C 87.699219 282.875 87.625 282.808594 87.550781 282.742188 C 87.859375 282.363281 88.09375 281.960938 88.234375 281.542969 C 90.117188 283.789062 92.03125 286.003906 93.867188 288.285156 C 94.753906 289.386719 96.328125 289.660156 97.695312 289.339844 C 98.117188 289.75 98.542969 290.15625 98.960938 290.570312 C 99.046875 290.660156 99.15625 290.761719 99.269531 290.871094 C 98.546875 290.949219 97.832031 291.0625 97.121094 291.222656 Z M 66.089844 257.039062 C 66.09375 257.226562 66.117188 257.414062 66.148438 257.597656 C 65.066406 257.070312 63.816406 257.011719 62.617188 257.621094 C 63.449219 256.667969 63.695312 255.492188 63.507812 254.375 C 64.378906 255.253906 65.226562 256.152344 66.089844 257.039062 Z M 58.089844 251.023438 C 57.957031 250.269531 57.871094 249.511719 57.820312 248.753906 C 58.488281 249.40625 59.179688 250.039062 59.84375 250.695312 C 59.285156 250.652344 58.695312 250.757812 58.089844 251.023438 Z M 47.675781 248.476562 C 47.964844 249.769531 48.253906 251.058594 48.550781 252.347656 C 47.800781 252.710938 47.160156 253.253906 46.632812 253.921875 C 46.972656 252.105469 47.316406 250.289062 47.675781 248.476562 Z M 44.753906 264.855469 C 44.761719 265.011719 44.773438 265.167969 44.78125 265.324219 C 44.714844 265.496094 44.664062 265.667969 44.597656 265.835938 C 44.648438 265.507812 44.703125 265.183594 44.753906 264.855469 Z M 81 337.207031 C 81.042969 337.445312 81.078125 337.683594 81.117188 337.921875 C 80.9375 337.898438 80.757812 337.878906 80.582031 337.855469 C 80.742188 337.65625 80.882812 337.4375 81 337.207031 Z M 80.03125 321.746094 C 80.027344 321.738281 80.027344 321.734375 80.027344 321.726562 C 80.03125 321.722656 80.035156 321.722656 80.039062 321.71875 C 80.035156 321.730469 80.03125 321.738281 80.03125 321.746094 Z M 107.816406 298.898438 C 108.617188 298.355469 109.246094 297.566406 109.46875 296.625 C 109.683594 295.699219 109.730469 294.820312 109.703125 293.96875 C 110.773438 295.621094 111.789062 297.3125 112.710938 299.050781 C 111.078125 298.871094 109.4375 298.804688 107.816406 298.898438 Z M 802.558594 238.78125 C 799.839844 220.789062 795.878906 203 790.753906 185.539062 C 790.738281 185.496094 790.71875 185.460938 790.703125 185.417969 C 790.636719 185.195312 790.550781 184.980469 790.445312 184.78125 C 790.390625 184.671875 790.328125 184.574219 790.269531 184.472656 C 790.21875 184.398438 790.171875 184.320312 790.113281 184.25 C 789.527344 183.425781 788.710938 182.933594 787.816406 182.742188 C 787.476562 182.636719 787.128906 182.550781 786.765625 182.503906 C 777.113281 181.277344 767.25 181.636719 757.570312 182.351562 C 744.28125 183.332031 731.039062 185.226562 717.945312 187.679688 C 688.074219 193.277344 658.53125 201.847656 630.800781 214.359375 C 616.164062 220.964844 602.121094 228.847656 589.441406 238.742188 C 587.679688 240.113281 588 243.144531 589.441406 244.585938 C 591.183594 246.324219 593.523438 245.964844 595.289062 244.585938 C 617.664062 227.125 645.019531 216.054688 671.890625 207.644531 C 698.414062 199.347656 725.96875 193.375 753.675781 190.933594 C 763.542969 190.066406 773.625 189.515625 783.53125 190.433594 C 791.84375 219.496094 796.90625 249.425781 798.445312 279.625 C 799.222656 294.871094 799.132812 310.167969 798.167969 325.40625 C 797.367188 338.054688 796.277344 350.421875 792.3125 362.515625 C 788.664062 373.652344 783.546875 386.304688 774.429688 394.125 C 770.386719 397.59375 776.257812 403.417969 780.277344 399.96875 C 789.035156 392.460938 794.28125 380.878906 798.300781 370.324219 C 802.792969 358.527344 804.714844 346.683594 805.785156 334.152344 C 808.503906 302.363281 807.328125 270.320312 802.558594 238.78125 Z M 645.625 232.65625 C 644.59375 232.417969 643.339844 232.4375 642.441406 233.070312 C 638.929688 235.542969 635.417969 238.015625 631.90625 240.488281 C 631.007812 241.121094 630.304688 241.867188 630.003906 242.957031 C 629.734375 243.949219 629.855469 245.265625 630.421875 246.144531 C 630.992188 247.027344 631.839844 247.804688 632.894531 248.042969 C 633.925781 248.277344 635.179688 248.261719 636.078125 247.628906 C 639.589844 245.15625 643.101562 242.683594 646.613281 240.210938 C 647.511719 239.578125 648.214844 238.828125 648.515625 237.738281 C 648.785156 236.75 648.664062 235.433594 648.097656 234.554688 C 647.527344 233.671875 646.679688 232.894531 645.625 232.65625 Z M 754.414062 226.066406 C 754.410156 226.070312 754.40625 226.074219 754.402344 226.078125 C 754.410156 226.085938 754.421875 226.089844 754.429688 226.09375 C 754.421875 226.085938 754.417969 226.074219 754.414062 226.066406 Z M 754.414062 226.066406 " fill-opacity="1" fill-rule="nonzero"/></g></svg>